G04 EAGLE Gerber RS-274X export*
G75*
%MOMM*%
%FSLAX34Y34*%
%LPD*%
%INSilkscreen Bottom*%
%IPPOS*%
%AMOC8*
5,1,8,0,0,1.08239X$1,22.5*%
G01*
%ADD10C,0.127000*%
%ADD11C,0.152400*%
%ADD12R,0.030000X4.680000*%
%ADD13R,0.030000X2.220000*%
%ADD14R,0.030000X1.860000*%
%ADD15R,0.030000X2.070000*%
%ADD16R,0.030000X1.740000*%
%ADD17R,0.030000X1.980000*%
%ADD18R,0.030000X1.650000*%
%ADD19R,0.030000X1.920000*%
%ADD20R,0.030000X1.590000*%
%ADD21R,0.030000X1.530000*%
%ADD22R,0.030000X1.800000*%
%ADD23R,0.030000X1.470000*%
%ADD24R,0.030000X1.440000*%
%ADD25R,0.030000X1.710000*%
%ADD26R,0.030000X1.410000*%
%ADD27R,0.030000X1.380000*%
%ADD28R,0.030000X1.620000*%
%ADD29R,0.030000X1.350000*%
%ADD30R,0.030000X1.320000*%
%ADD31R,0.030000X1.560000*%
%ADD32R,0.030000X1.290000*%
%ADD33R,0.030000X1.500000*%
%ADD34R,0.030000X1.260000*%
%ADD35R,0.030000X1.230000*%
%ADD36R,0.030000X1.200000*%
%ADD37R,0.030000X1.140000*%
%ADD38R,0.030000X1.020000*%
%ADD39R,0.030000X0.990000*%
%ADD40R,0.030000X0.960000*%
%ADD41R,0.030000X1.080000*%
%ADD42R,0.030000X1.170000*%
%ADD43R,0.030000X0.060000*%
%ADD44R,0.030000X0.180000*%
%ADD45R,0.030000X0.270000*%
%ADD46R,0.030000X0.030000*%
%ADD47R,0.030000X0.240000*%
%ADD48R,0.030000X0.090000*%
%ADD49R,0.030000X0.120000*%
%ADD50R,0.030000X0.210000*%
%ADD51R,0.030000X1.770000*%
%ADD52R,0.030000X1.830000*%
%ADD53R,0.030000X0.150000*%
%ADD54R,0.030000X2.010000*%
%ADD55R,0.030000X2.130000*%
%ADD56R,0.030000X2.190000*%
%ADD57R,0.030000X1.110000*%
%ADD58R,0.030000X2.280000*%
%ADD59R,0.030000X2.340000*%
%ADD60R,0.030000X2.370000*%
%ADD61R,0.030000X2.430000*%
%ADD62R,0.030000X2.490000*%
%ADD63R,0.030000X4.020000*%
%ADD64R,0.030000X1.950000*%
%ADD65R,0.030000X1.680000*%
%ADD66R,0.030000X0.600000*%
%ADD67R,0.030000X0.780000*%
%ADD68R,0.030000X0.510000*%
%ADD69R,0.030000X0.630000*%
%ADD70R,0.030000X0.450000*%
%ADD71R,0.030000X0.420000*%
%ADD72R,0.030000X0.390000*%
%ADD73R,0.030000X0.660000*%
%ADD74R,0.030000X0.690000*%
%ADD75R,0.030000X0.720000*%
%ADD76R,0.030000X0.900000*%
%ADD77R,0.030000X0.810000*%
%ADD78R,0.030000X3.240000*%
%ADD79R,0.030000X3.270000*%
%ADD80R,0.030000X3.210000*%
%ADD81R,0.030000X3.180000*%
%ADD82R,0.030000X2.880000*%
%ADD83R,0.030000X2.850000*%
%ADD84R,0.030000X2.790000*%
%ADD85R,0.030000X0.330000*%
%ADD86R,0.030000X2.310000*%
%ADD87R,0.030000X2.250000*%
%ADD88R,0.030000X2.160000*%
%ADD89R,0.030000X2.100000*%
%ADD90R,0.030000X2.040000*%
%ADD91R,0.030000X1.050000*%
%ADD92R,0.030000X0.300000*%
%ADD93C,0.500000*%
%ADD94C,0.120000*%


D10*
X72147Y115953D02*
X72147Y124683D01*
X69722Y124683D01*
X69624Y124681D01*
X69527Y124675D01*
X69430Y124665D01*
X69333Y124652D01*
X69237Y124634D01*
X69142Y124613D01*
X69047Y124587D01*
X68954Y124558D01*
X68862Y124525D01*
X68771Y124489D01*
X68682Y124449D01*
X68595Y124405D01*
X68510Y124358D01*
X68426Y124308D01*
X68344Y124254D01*
X68265Y124197D01*
X68188Y124136D01*
X68114Y124073D01*
X68042Y124007D01*
X67973Y123938D01*
X67907Y123866D01*
X67844Y123792D01*
X67783Y123715D01*
X67726Y123636D01*
X67672Y123554D01*
X67622Y123471D01*
X67575Y123385D01*
X67531Y123298D01*
X67491Y123209D01*
X67455Y123118D01*
X67422Y123026D01*
X67393Y122933D01*
X67367Y122838D01*
X67346Y122743D01*
X67328Y122647D01*
X67315Y122550D01*
X67305Y122453D01*
X67299Y122356D01*
X67297Y122258D01*
X67297Y118378D01*
X67299Y118280D01*
X67305Y118183D01*
X67315Y118086D01*
X67328Y117989D01*
X67346Y117893D01*
X67367Y117798D01*
X67393Y117703D01*
X67422Y117610D01*
X67455Y117518D01*
X67491Y117427D01*
X67531Y117338D01*
X67575Y117251D01*
X67622Y117166D01*
X67672Y117082D01*
X67726Y117000D01*
X67783Y116921D01*
X67844Y116844D01*
X67907Y116770D01*
X67973Y116698D01*
X68042Y116629D01*
X68114Y116563D01*
X68188Y116500D01*
X68265Y116439D01*
X68344Y116382D01*
X68426Y116328D01*
X68509Y116278D01*
X68595Y116231D01*
X68682Y116187D01*
X68771Y116147D01*
X68862Y116111D01*
X68954Y116078D01*
X69047Y116049D01*
X69142Y116023D01*
X69237Y116002D01*
X69333Y115984D01*
X69430Y115971D01*
X69527Y115961D01*
X69624Y115955D01*
X69722Y115953D01*
X72147Y115953D01*
X90184Y116001D02*
X90184Y124731D01*
X92609Y124731D02*
X87759Y124731D01*
X50215Y115953D02*
X48275Y115953D01*
X50215Y115953D02*
X50302Y115955D01*
X50389Y115961D01*
X50475Y115971D01*
X50561Y115984D01*
X50647Y116002D01*
X50731Y116023D01*
X50814Y116048D01*
X50897Y116077D01*
X50977Y116109D01*
X51057Y116145D01*
X51134Y116185D01*
X51210Y116228D01*
X51284Y116274D01*
X51355Y116324D01*
X51425Y116376D01*
X51491Y116432D01*
X51556Y116491D01*
X51617Y116552D01*
X51676Y116617D01*
X51732Y116683D01*
X51784Y116753D01*
X51834Y116824D01*
X51880Y116898D01*
X51923Y116974D01*
X51963Y117051D01*
X51999Y117131D01*
X52031Y117211D01*
X52060Y117294D01*
X52085Y117377D01*
X52106Y117461D01*
X52124Y117547D01*
X52137Y117633D01*
X52147Y117719D01*
X52153Y117806D01*
X52155Y117893D01*
X52155Y122743D01*
X52153Y122830D01*
X52147Y122917D01*
X52137Y123003D01*
X52124Y123089D01*
X52106Y123175D01*
X52085Y123259D01*
X52060Y123342D01*
X52031Y123425D01*
X51999Y123505D01*
X51963Y123585D01*
X51923Y123662D01*
X51880Y123738D01*
X51834Y123812D01*
X51784Y123883D01*
X51732Y123953D01*
X51676Y124019D01*
X51617Y124084D01*
X51556Y124145D01*
X51491Y124204D01*
X51425Y124260D01*
X51355Y124312D01*
X51284Y124362D01*
X51210Y124408D01*
X51134Y124451D01*
X51057Y124491D01*
X50977Y124527D01*
X50897Y124559D01*
X50814Y124588D01*
X50731Y124613D01*
X50647Y124634D01*
X50561Y124652D01*
X50475Y124665D01*
X50389Y124675D01*
X50302Y124681D01*
X50215Y124683D01*
X48275Y124683D01*
X87429Y100577D02*
X88884Y100577D01*
X87429Y100577D02*
X87429Y95727D01*
X90339Y95727D01*
X90426Y95729D01*
X90513Y95735D01*
X90599Y95745D01*
X90685Y95758D01*
X90771Y95776D01*
X90855Y95797D01*
X90938Y95822D01*
X91021Y95851D01*
X91101Y95883D01*
X91181Y95919D01*
X91258Y95959D01*
X91334Y96002D01*
X91408Y96048D01*
X91479Y96098D01*
X91549Y96150D01*
X91615Y96206D01*
X91680Y96265D01*
X91741Y96326D01*
X91800Y96391D01*
X91856Y96457D01*
X91908Y96527D01*
X91958Y96598D01*
X92004Y96672D01*
X92047Y96748D01*
X92087Y96825D01*
X92123Y96905D01*
X92155Y96985D01*
X92184Y97068D01*
X92209Y97151D01*
X92230Y97235D01*
X92248Y97321D01*
X92261Y97407D01*
X92271Y97493D01*
X92277Y97580D01*
X92279Y97667D01*
X92279Y102517D01*
X92277Y102604D01*
X92271Y102691D01*
X92261Y102777D01*
X92248Y102863D01*
X92230Y102949D01*
X92209Y103033D01*
X92184Y103116D01*
X92155Y103199D01*
X92123Y103279D01*
X92087Y103359D01*
X92047Y103436D01*
X92004Y103512D01*
X91958Y103586D01*
X91908Y103657D01*
X91856Y103727D01*
X91800Y103793D01*
X91741Y103858D01*
X91680Y103919D01*
X91615Y103978D01*
X91549Y104034D01*
X91479Y104086D01*
X91408Y104136D01*
X91334Y104182D01*
X91258Y104225D01*
X91181Y104265D01*
X91101Y104301D01*
X91021Y104333D01*
X90938Y104362D01*
X90855Y104387D01*
X90771Y104408D01*
X90685Y104426D01*
X90599Y104439D01*
X90513Y104449D01*
X90426Y104455D01*
X90339Y104457D01*
X87429Y104457D01*
X75299Y104881D02*
X75299Y96151D01*
X75299Y104881D02*
X72874Y104881D01*
X72776Y104879D01*
X72679Y104873D01*
X72582Y104863D01*
X72485Y104850D01*
X72389Y104832D01*
X72294Y104811D01*
X72199Y104785D01*
X72106Y104756D01*
X72014Y104723D01*
X71923Y104687D01*
X71834Y104647D01*
X71747Y104603D01*
X71662Y104556D01*
X71578Y104506D01*
X71496Y104452D01*
X71417Y104395D01*
X71340Y104334D01*
X71266Y104271D01*
X71194Y104205D01*
X71125Y104136D01*
X71059Y104064D01*
X70996Y103990D01*
X70935Y103913D01*
X70878Y103834D01*
X70824Y103752D01*
X70774Y103669D01*
X70727Y103583D01*
X70683Y103496D01*
X70643Y103407D01*
X70607Y103316D01*
X70574Y103224D01*
X70545Y103131D01*
X70519Y103036D01*
X70498Y102941D01*
X70480Y102845D01*
X70467Y102748D01*
X70457Y102651D01*
X70451Y102554D01*
X70449Y102456D01*
X70451Y102358D01*
X70457Y102261D01*
X70467Y102164D01*
X70480Y102067D01*
X70498Y101971D01*
X70519Y101876D01*
X70545Y101781D01*
X70574Y101688D01*
X70607Y101596D01*
X70643Y101505D01*
X70683Y101416D01*
X70727Y101329D01*
X70774Y101244D01*
X70824Y101160D01*
X70878Y101078D01*
X70935Y100999D01*
X70996Y100922D01*
X71059Y100848D01*
X71125Y100776D01*
X71194Y100707D01*
X71266Y100641D01*
X71340Y100578D01*
X71417Y100517D01*
X71496Y100460D01*
X71578Y100406D01*
X71661Y100356D01*
X71747Y100309D01*
X71834Y100265D01*
X71923Y100225D01*
X72014Y100189D01*
X72106Y100156D01*
X72199Y100127D01*
X72294Y100101D01*
X72389Y100080D01*
X72485Y100062D01*
X72582Y100049D01*
X72679Y100039D01*
X72776Y100033D01*
X72874Y100031D01*
X75299Y100031D01*
X72389Y100031D02*
X70449Y96151D01*
X52339Y105059D02*
X49429Y96329D01*
X46519Y105059D01*
D11*
X94996Y132080D02*
X99822Y132080D01*
X99822Y92456D01*
X41402Y92456D01*
X41402Y131826D01*
X44450Y131826D01*
X55372Y132080D02*
X64262Y132080D01*
X75438Y132080D02*
X83820Y132080D01*
D10*
X46863Y205019D02*
X46863Y205989D01*
X42013Y205989D01*
X44438Y197259D01*
X43953Y187109D02*
X46863Y187109D01*
X43953Y187109D02*
X43866Y187107D01*
X43779Y187101D01*
X43693Y187091D01*
X43607Y187078D01*
X43521Y187060D01*
X43437Y187039D01*
X43354Y187014D01*
X43271Y186985D01*
X43191Y186953D01*
X43111Y186917D01*
X43034Y186877D01*
X42958Y186834D01*
X42884Y186788D01*
X42813Y186738D01*
X42743Y186686D01*
X42677Y186630D01*
X42612Y186571D01*
X42551Y186510D01*
X42492Y186445D01*
X42436Y186379D01*
X42384Y186309D01*
X42334Y186238D01*
X42288Y186164D01*
X42245Y186088D01*
X42205Y186011D01*
X42169Y185931D01*
X42137Y185851D01*
X42108Y185768D01*
X42083Y185685D01*
X42062Y185601D01*
X42044Y185515D01*
X42031Y185429D01*
X42021Y185343D01*
X42015Y185256D01*
X42013Y185169D01*
X42013Y184684D01*
X42015Y184586D01*
X42021Y184489D01*
X42031Y184392D01*
X42044Y184295D01*
X42062Y184199D01*
X42083Y184104D01*
X42109Y184009D01*
X42138Y183916D01*
X42171Y183824D01*
X42207Y183733D01*
X42247Y183644D01*
X42291Y183557D01*
X42338Y183472D01*
X42388Y183388D01*
X42442Y183306D01*
X42499Y183227D01*
X42560Y183150D01*
X42623Y183076D01*
X42689Y183004D01*
X42758Y182935D01*
X42830Y182869D01*
X42904Y182806D01*
X42981Y182745D01*
X43060Y182688D01*
X43142Y182634D01*
X43225Y182584D01*
X43311Y182537D01*
X43398Y182493D01*
X43487Y182453D01*
X43578Y182417D01*
X43670Y182384D01*
X43763Y182355D01*
X43858Y182329D01*
X43953Y182308D01*
X44049Y182290D01*
X44146Y182277D01*
X44243Y182267D01*
X44340Y182261D01*
X44438Y182259D01*
X44536Y182261D01*
X44633Y182267D01*
X44730Y182277D01*
X44827Y182290D01*
X44923Y182308D01*
X45018Y182329D01*
X45113Y182355D01*
X45206Y182384D01*
X45298Y182417D01*
X45389Y182453D01*
X45478Y182493D01*
X45565Y182537D01*
X45650Y182584D01*
X45734Y182634D01*
X45816Y182688D01*
X45895Y182745D01*
X45972Y182806D01*
X46046Y182869D01*
X46118Y182935D01*
X46187Y183004D01*
X46253Y183076D01*
X46316Y183150D01*
X46377Y183227D01*
X46434Y183306D01*
X46488Y183388D01*
X46538Y183471D01*
X46585Y183557D01*
X46629Y183644D01*
X46669Y183733D01*
X46705Y183824D01*
X46738Y183916D01*
X46767Y184009D01*
X46793Y184104D01*
X46814Y184199D01*
X46832Y184295D01*
X46845Y184392D01*
X46855Y184489D01*
X46861Y184586D01*
X46863Y184684D01*
X46863Y187109D01*
X46861Y187231D01*
X46855Y187353D01*
X46846Y187474D01*
X46832Y187595D01*
X46815Y187716D01*
X46794Y187836D01*
X46770Y187955D01*
X46741Y188074D01*
X46709Y188191D01*
X46673Y188308D01*
X46634Y188423D01*
X46591Y188537D01*
X46544Y188650D01*
X46494Y188761D01*
X46440Y188870D01*
X46383Y188978D01*
X46323Y189084D01*
X46259Y189188D01*
X46192Y189290D01*
X46122Y189390D01*
X46049Y189487D01*
X45973Y189582D01*
X45893Y189675D01*
X45811Y189765D01*
X45727Y189853D01*
X45639Y189937D01*
X45549Y190019D01*
X45456Y190099D01*
X45361Y190175D01*
X45264Y190248D01*
X45164Y190318D01*
X45062Y190385D01*
X44958Y190449D01*
X44852Y190509D01*
X44744Y190566D01*
X44635Y190620D01*
X44524Y190670D01*
X44411Y190717D01*
X44297Y190760D01*
X44182Y190799D01*
X44065Y190835D01*
X43948Y190867D01*
X43829Y190896D01*
X43710Y190920D01*
X43590Y190941D01*
X43469Y190958D01*
X43348Y190972D01*
X43227Y190981D01*
X43105Y190987D01*
X42983Y190989D01*
X44438Y167259D02*
X46863Y167259D01*
X44438Y167259D02*
X44340Y167261D01*
X44243Y167267D01*
X44146Y167277D01*
X44049Y167290D01*
X43953Y167308D01*
X43858Y167329D01*
X43763Y167355D01*
X43670Y167384D01*
X43578Y167417D01*
X43487Y167453D01*
X43398Y167493D01*
X43311Y167537D01*
X43225Y167584D01*
X43142Y167634D01*
X43060Y167688D01*
X42981Y167745D01*
X42904Y167806D01*
X42830Y167869D01*
X42758Y167935D01*
X42689Y168004D01*
X42623Y168076D01*
X42560Y168150D01*
X42499Y168227D01*
X42442Y168306D01*
X42388Y168388D01*
X42338Y168472D01*
X42291Y168557D01*
X42247Y168644D01*
X42207Y168733D01*
X42171Y168824D01*
X42138Y168916D01*
X42109Y169009D01*
X42083Y169104D01*
X42062Y169199D01*
X42044Y169295D01*
X42031Y169392D01*
X42021Y169489D01*
X42015Y169586D01*
X42013Y169684D01*
X42015Y169782D01*
X42021Y169879D01*
X42031Y169976D01*
X42044Y170073D01*
X42062Y170169D01*
X42083Y170264D01*
X42109Y170359D01*
X42138Y170452D01*
X42171Y170544D01*
X42207Y170635D01*
X42247Y170724D01*
X42291Y170811D01*
X42338Y170897D01*
X42388Y170980D01*
X42442Y171062D01*
X42499Y171141D01*
X42560Y171218D01*
X42623Y171292D01*
X42689Y171364D01*
X42758Y171433D01*
X42830Y171499D01*
X42904Y171562D01*
X42981Y171623D01*
X43060Y171680D01*
X43142Y171734D01*
X43226Y171784D01*
X43311Y171831D01*
X43398Y171875D01*
X43487Y171915D01*
X43578Y171951D01*
X43670Y171984D01*
X43763Y172013D01*
X43858Y172039D01*
X43953Y172060D01*
X44049Y172078D01*
X44146Y172091D01*
X44243Y172101D01*
X44340Y172107D01*
X44438Y172109D01*
X43953Y175989D02*
X46863Y175989D01*
X43953Y175989D02*
X43866Y175987D01*
X43779Y175981D01*
X43693Y175971D01*
X43607Y175958D01*
X43521Y175940D01*
X43437Y175919D01*
X43354Y175894D01*
X43271Y175865D01*
X43191Y175833D01*
X43111Y175797D01*
X43034Y175757D01*
X42958Y175714D01*
X42884Y175668D01*
X42813Y175618D01*
X42743Y175566D01*
X42677Y175510D01*
X42612Y175451D01*
X42551Y175390D01*
X42492Y175325D01*
X42436Y175259D01*
X42384Y175189D01*
X42334Y175118D01*
X42288Y175044D01*
X42245Y174968D01*
X42205Y174891D01*
X42169Y174811D01*
X42137Y174731D01*
X42108Y174648D01*
X42083Y174565D01*
X42062Y174481D01*
X42044Y174395D01*
X42031Y174309D01*
X42021Y174223D01*
X42015Y174136D01*
X42013Y174049D01*
X42015Y173962D01*
X42021Y173875D01*
X42031Y173789D01*
X42044Y173703D01*
X42062Y173617D01*
X42083Y173533D01*
X42108Y173450D01*
X42137Y173367D01*
X42169Y173287D01*
X42205Y173207D01*
X42245Y173130D01*
X42288Y173054D01*
X42334Y172980D01*
X42384Y172909D01*
X42436Y172839D01*
X42492Y172773D01*
X42551Y172708D01*
X42612Y172647D01*
X42677Y172588D01*
X42743Y172532D01*
X42813Y172480D01*
X42884Y172430D01*
X42958Y172384D01*
X43034Y172341D01*
X43111Y172301D01*
X43191Y172265D01*
X43271Y172233D01*
X43354Y172204D01*
X43437Y172179D01*
X43521Y172158D01*
X43607Y172140D01*
X43693Y172127D01*
X43779Y172117D01*
X43866Y172111D01*
X43953Y172109D01*
X45893Y172109D01*
D11*
X87838Y65338D02*
X87838Y54162D01*
X87838Y65338D02*
X84734Y65338D01*
X84623Y65336D01*
X84513Y65330D01*
X84402Y65320D01*
X84292Y65306D01*
X84183Y65289D01*
X84074Y65267D01*
X83966Y65242D01*
X83860Y65212D01*
X83754Y65179D01*
X83649Y65142D01*
X83546Y65102D01*
X83445Y65057D01*
X83345Y65010D01*
X83246Y64958D01*
X83150Y64903D01*
X83056Y64845D01*
X82964Y64784D01*
X82874Y64719D01*
X82786Y64651D01*
X82701Y64580D01*
X82619Y64506D01*
X82539Y64429D01*
X82462Y64349D01*
X82388Y64267D01*
X82317Y64182D01*
X82249Y64094D01*
X82184Y64004D01*
X82123Y63912D01*
X82065Y63818D01*
X82010Y63722D01*
X81958Y63623D01*
X81911Y63523D01*
X81866Y63422D01*
X81826Y63319D01*
X81789Y63214D01*
X81756Y63108D01*
X81726Y63002D01*
X81701Y62894D01*
X81679Y62785D01*
X81662Y62676D01*
X81648Y62566D01*
X81638Y62455D01*
X81632Y62345D01*
X81630Y62234D01*
X81632Y62123D01*
X81638Y62013D01*
X81648Y61902D01*
X81662Y61792D01*
X81679Y61683D01*
X81701Y61574D01*
X81726Y61466D01*
X81756Y61360D01*
X81789Y61254D01*
X81826Y61149D01*
X81866Y61046D01*
X81911Y60945D01*
X81958Y60845D01*
X82010Y60746D01*
X82065Y60650D01*
X82123Y60556D01*
X82184Y60464D01*
X82249Y60374D01*
X82317Y60286D01*
X82388Y60201D01*
X82462Y60119D01*
X82539Y60039D01*
X82619Y59962D01*
X82701Y59888D01*
X82786Y59817D01*
X82874Y59749D01*
X82964Y59684D01*
X83056Y59623D01*
X83150Y59565D01*
X83246Y59510D01*
X83345Y59458D01*
X83445Y59411D01*
X83546Y59366D01*
X83649Y59326D01*
X83754Y59289D01*
X83860Y59256D01*
X83966Y59226D01*
X84074Y59201D01*
X84183Y59179D01*
X84292Y59162D01*
X84402Y59148D01*
X84513Y59138D01*
X84623Y59132D01*
X84734Y59130D01*
X84734Y59129D02*
X87838Y59129D01*
X84113Y59129D02*
X81629Y54162D01*
X74779Y54162D02*
X71674Y54162D01*
X74779Y54162D02*
X74863Y54164D01*
X74946Y54170D01*
X75029Y54179D01*
X75112Y54192D01*
X75194Y54209D01*
X75275Y54229D01*
X75355Y54253D01*
X75434Y54281D01*
X75511Y54312D01*
X75587Y54346D01*
X75662Y54384D01*
X75735Y54426D01*
X75805Y54470D01*
X75874Y54518D01*
X75941Y54568D01*
X76005Y54622D01*
X76066Y54678D01*
X76126Y54738D01*
X76182Y54799D01*
X76236Y54863D01*
X76286Y54930D01*
X76334Y54999D01*
X76378Y55069D01*
X76420Y55142D01*
X76458Y55217D01*
X76492Y55293D01*
X76523Y55370D01*
X76551Y55449D01*
X76575Y55529D01*
X76595Y55610D01*
X76612Y55692D01*
X76625Y55775D01*
X76635Y55858D01*
X76640Y55941D01*
X76642Y56025D01*
X76641Y56025D02*
X76641Y59129D01*
X76642Y59129D02*
X76640Y59228D01*
X76634Y59326D01*
X76624Y59425D01*
X76611Y59522D01*
X76593Y59620D01*
X76572Y59716D01*
X76546Y59812D01*
X76517Y59906D01*
X76485Y59999D01*
X76448Y60091D01*
X76408Y60181D01*
X76364Y60270D01*
X76317Y60357D01*
X76267Y60442D01*
X76213Y60524D01*
X76156Y60605D01*
X76096Y60683D01*
X76032Y60759D01*
X75966Y60832D01*
X75897Y60903D01*
X75825Y60971D01*
X75750Y61035D01*
X75673Y61097D01*
X75594Y61156D01*
X75512Y61211D01*
X75428Y61264D01*
X75343Y61312D01*
X75255Y61358D01*
X75165Y61400D01*
X75074Y61438D01*
X74982Y61472D01*
X74888Y61503D01*
X74793Y61530D01*
X74697Y61554D01*
X74600Y61573D01*
X74503Y61589D01*
X74405Y61601D01*
X74306Y61609D01*
X74207Y61613D01*
X74109Y61613D01*
X74010Y61609D01*
X73911Y61601D01*
X73813Y61589D01*
X73716Y61573D01*
X73619Y61554D01*
X73523Y61530D01*
X73428Y61503D01*
X73334Y61472D01*
X73242Y61438D01*
X73151Y61400D01*
X73061Y61358D01*
X72973Y61312D01*
X72888Y61264D01*
X72804Y61211D01*
X72722Y61156D01*
X72643Y61097D01*
X72566Y61035D01*
X72491Y60971D01*
X72419Y60903D01*
X72350Y60832D01*
X72284Y60759D01*
X72220Y60683D01*
X72160Y60605D01*
X72103Y60524D01*
X72049Y60442D01*
X71999Y60357D01*
X71952Y60270D01*
X71908Y60181D01*
X71868Y60091D01*
X71831Y59999D01*
X71799Y59906D01*
X71770Y59812D01*
X71744Y59716D01*
X71723Y59620D01*
X71705Y59522D01*
X71692Y59425D01*
X71682Y59326D01*
X71676Y59228D01*
X71674Y59129D01*
X71674Y57887D01*
X76641Y57887D01*
X67116Y61613D02*
X64633Y54162D01*
X62149Y61613D01*
X57450Y62854D02*
X54346Y65338D01*
X54346Y54162D01*
X57450Y54162D02*
X51241Y54162D01*
D12*
X235200Y147750D03*
X235500Y147750D03*
X235800Y147750D03*
X236100Y147750D03*
X236400Y147750D03*
X236700Y147750D03*
X237000Y147750D03*
X237300Y147750D03*
X237600Y147750D03*
X237900Y147750D03*
X238200Y147750D03*
X238500Y147750D03*
X238800Y147750D03*
X239100Y147750D03*
X239400Y147750D03*
X239700Y147750D03*
X240000Y147750D03*
X240300Y147750D03*
X240600Y147750D03*
D13*
X240900Y160050D03*
D14*
X240900Y133650D03*
D15*
X241200Y160800D03*
D16*
X241200Y133050D03*
D17*
X241500Y161250D03*
D18*
X241500Y132600D03*
D19*
X241800Y161550D03*
D20*
X241800Y132300D03*
D14*
X242100Y161850D03*
D21*
X242100Y132000D03*
D22*
X242400Y162150D03*
D23*
X242400Y131700D03*
D16*
X242700Y162450D03*
D24*
X242700Y131550D03*
D25*
X243000Y162600D03*
D26*
X243000Y131400D03*
D18*
X243300Y162900D03*
D27*
X243300Y131250D03*
D28*
X243600Y163050D03*
D29*
X243600Y131100D03*
D20*
X243900Y163200D03*
D30*
X243900Y130950D03*
D31*
X244200Y163350D03*
D32*
X244200Y130800D03*
D21*
X244500Y163500D03*
D32*
X244500Y130800D03*
D33*
X244800Y163650D03*
D34*
X244800Y130650D03*
D23*
X245100Y163800D03*
D34*
X245100Y130650D03*
D24*
X245400Y163950D03*
D35*
X245400Y130500D03*
D26*
X245700Y164100D03*
D36*
X245700Y130350D03*
D27*
X246000Y164250D03*
D37*
X246000Y130050D03*
D27*
X246300Y164250D03*
D38*
X246300Y129450D03*
D29*
X246600Y164400D03*
D39*
X246600Y129300D03*
D30*
X246900Y164550D03*
D40*
X246900Y129150D03*
D30*
X247200Y164550D03*
D40*
X247200Y129150D03*
D32*
X247500Y164700D03*
D40*
X247500Y129150D03*
D32*
X247800Y164700D03*
D39*
X247800Y129300D03*
D34*
X248100Y164850D03*
D38*
X248100Y129450D03*
D34*
X248400Y164850D03*
D41*
X248400Y129750D03*
D35*
X248700Y165000D03*
D37*
X248700Y130050D03*
D35*
X249000Y165000D03*
D36*
X249000Y130350D03*
D35*
X249300Y165000D03*
D36*
X249300Y130350D03*
X249600Y165150D03*
X249600Y130350D03*
X249900Y165150D03*
X249900Y130350D03*
X250200Y165150D03*
X250200Y130350D03*
D42*
X250500Y165300D03*
D36*
X250500Y130350D03*
D42*
X250800Y165300D03*
D36*
X250800Y130350D03*
D42*
X251100Y165300D03*
D35*
X251100Y130500D03*
D42*
X251400Y165300D03*
D35*
X251400Y130500D03*
D42*
X251700Y165300D03*
D35*
X251700Y130500D03*
D36*
X252000Y165150D03*
D35*
X252000Y130500D03*
D36*
X252300Y165150D03*
D34*
X252300Y130650D03*
D35*
X252600Y165000D03*
D34*
X252600Y130650D03*
X252900Y164850D03*
X252900Y130650D03*
D32*
X253200Y164700D03*
X253200Y130800D03*
D30*
X253500Y164550D03*
D32*
X253500Y130800D03*
D29*
X253800Y164400D03*
D43*
X253800Y144150D03*
D32*
X253800Y130800D03*
D27*
X254100Y164250D03*
D44*
X254100Y145050D03*
D30*
X254100Y130950D03*
D26*
X254400Y164100D03*
D45*
X254400Y145500D03*
D46*
X254400Y141600D03*
D30*
X254400Y130950D03*
D23*
X254700Y163800D03*
D45*
X254700Y145500D03*
D46*
X254700Y141600D03*
D29*
X254700Y131100D03*
D21*
X255000Y163500D03*
D47*
X255000Y145650D03*
D48*
X255000Y141600D03*
D29*
X255000Y131100D03*
D20*
X255300Y163200D03*
D47*
X255300Y145650D03*
D49*
X255300Y141450D03*
D29*
X255300Y131100D03*
D18*
X255600Y162900D03*
D50*
X255600Y145800D03*
D44*
X255600Y141450D03*
D27*
X255600Y131250D03*
D51*
X255900Y162300D03*
D44*
X255900Y145950D03*
X255900Y141450D03*
D27*
X255900Y131250D03*
D52*
X256200Y162000D03*
D49*
X256200Y145950D03*
D53*
X256200Y141600D03*
D26*
X256200Y131400D03*
D19*
X256500Y161550D03*
D48*
X256500Y146100D03*
X256500Y141900D03*
D26*
X256500Y131400D03*
D54*
X256800Y161100D03*
D43*
X256800Y142350D03*
D24*
X256800Y131550D03*
D15*
X257100Y160800D03*
D24*
X257100Y131550D03*
D55*
X257400Y160500D03*
D23*
X257400Y131700D03*
D56*
X257700Y160200D03*
D57*
X257700Y133500D03*
D58*
X258000Y159750D03*
D32*
X258000Y135300D03*
D59*
X258300Y159450D03*
D27*
X258300Y136350D03*
D60*
X258600Y159300D03*
D24*
X258600Y136950D03*
D61*
X258900Y159000D03*
D26*
X258900Y137400D03*
D62*
X259200Y158700D03*
D24*
X259200Y137850D03*
D63*
X259500Y151050D03*
D28*
X259800Y163050D03*
D15*
X259800Y141600D03*
D31*
X260100Y163350D03*
D64*
X260100Y141600D03*
D33*
X260400Y163650D03*
D52*
X260400Y141600D03*
D23*
X260700Y163800D03*
D65*
X260700Y142050D03*
D24*
X261000Y163950D03*
D66*
X261000Y147150D03*
D67*
X261000Y138150D03*
D26*
X261300Y164100D03*
D68*
X261300Y147300D03*
D69*
X261300Y138300D03*
D26*
X261600Y164100D03*
D70*
X261600Y147300D03*
D66*
X261600Y138150D03*
D27*
X261900Y164250D03*
D71*
X261900Y147450D03*
D69*
X261900Y137700D03*
D29*
X262200Y164100D03*
D72*
X262200Y147300D03*
D73*
X262200Y137550D03*
D34*
X262500Y163650D03*
D72*
X262500Y147300D03*
D73*
X262500Y137250D03*
D42*
X262800Y163200D03*
D71*
X262800Y147150D03*
D73*
X262800Y137250D03*
D41*
X263100Y162750D03*
D71*
X263100Y146850D03*
D74*
X263100Y137100D03*
D39*
X263400Y162300D03*
D68*
X263400Y146700D03*
D75*
X263400Y137250D03*
D76*
X263700Y161850D03*
D69*
X263700Y146700D03*
D77*
X263700Y137700D03*
D76*
X264000Y161850D03*
D25*
X264000Y142200D03*
D40*
X264300Y161550D03*
D52*
X264300Y142800D03*
D78*
X264600Y150150D03*
D79*
X264900Y150300D03*
D80*
X265200Y150300D03*
D81*
X265500Y150450D03*
D82*
X265800Y151950D03*
D53*
X265800Y135900D03*
D82*
X266100Y151950D03*
D83*
X266400Y151800D03*
D84*
X266700Y151800D03*
X267000Y151800D03*
D85*
X267300Y163500D03*
D59*
X267300Y149850D03*
D44*
X267600Y163650D03*
D86*
X267600Y149700D03*
X267900Y149700D03*
D87*
X268200Y149700D03*
X268500Y149700D03*
D13*
X268800Y149850D03*
D56*
X269100Y149700D03*
D88*
X269400Y149850D03*
D55*
X269700Y149700D03*
D89*
X270000Y149850D03*
D90*
X270300Y149850D03*
X270600Y149850D03*
D17*
X270900Y149850D03*
X271200Y149850D03*
D19*
X271500Y149850D03*
D14*
X271800Y149850D03*
X272100Y149850D03*
D22*
X272400Y149850D03*
D16*
X272700Y149850D03*
D25*
X273000Y150000D03*
D65*
X273300Y149850D03*
D28*
X273600Y149850D03*
D31*
X273900Y149850D03*
D20*
X274200Y149400D03*
D18*
X274500Y148800D03*
D20*
X274800Y148800D03*
D23*
X275100Y148800D03*
D32*
X275400Y149400D03*
D42*
X275700Y149400D03*
D57*
X276000Y149100D03*
D91*
X276300Y148800D03*
D38*
X276600Y148350D03*
X276900Y148050D03*
D72*
X277200Y150900D03*
D85*
X277200Y144300D03*
D92*
X277500Y150750D03*
D45*
X277500Y143700D03*
X277800Y150600D03*
D47*
X278100Y150450D03*
D50*
X278400Y150300D03*
X278700Y150000D03*
D53*
X279000Y149700D03*
D49*
X279300Y149550D03*
D10*
X18923Y120557D02*
X18923Y118617D01*
X18925Y118530D01*
X18931Y118443D01*
X18941Y118357D01*
X18954Y118271D01*
X18972Y118185D01*
X18993Y118101D01*
X19018Y118018D01*
X19047Y117935D01*
X19079Y117855D01*
X19115Y117775D01*
X19155Y117698D01*
X19198Y117622D01*
X19244Y117548D01*
X19294Y117477D01*
X19346Y117407D01*
X19402Y117341D01*
X19461Y117276D01*
X19522Y117215D01*
X19587Y117156D01*
X19653Y117100D01*
X19723Y117048D01*
X19794Y116998D01*
X19868Y116952D01*
X19944Y116909D01*
X20021Y116869D01*
X20101Y116833D01*
X20181Y116801D01*
X20264Y116772D01*
X20347Y116747D01*
X20431Y116726D01*
X20517Y116708D01*
X20603Y116695D01*
X20689Y116685D01*
X20776Y116679D01*
X20863Y116677D01*
X25713Y116677D01*
X25800Y116679D01*
X25887Y116685D01*
X25973Y116695D01*
X26059Y116708D01*
X26145Y116726D01*
X26229Y116747D01*
X26312Y116772D01*
X26395Y116801D01*
X26475Y116833D01*
X26555Y116869D01*
X26632Y116909D01*
X26708Y116952D01*
X26782Y116998D01*
X26853Y117048D01*
X26923Y117100D01*
X26989Y117156D01*
X27054Y117215D01*
X27115Y117276D01*
X27174Y117341D01*
X27230Y117407D01*
X27282Y117477D01*
X27332Y117548D01*
X27378Y117622D01*
X27421Y117698D01*
X27461Y117775D01*
X27497Y117855D01*
X27529Y117935D01*
X27558Y118018D01*
X27583Y118101D01*
X27604Y118185D01*
X27622Y118271D01*
X27635Y118357D01*
X27645Y118443D01*
X27651Y118530D01*
X27653Y118617D01*
X27653Y120557D01*
X18923Y124211D02*
X18923Y126636D01*
X18925Y126734D01*
X18931Y126831D01*
X18941Y126928D01*
X18954Y127025D01*
X18972Y127121D01*
X18993Y127216D01*
X19019Y127311D01*
X19048Y127404D01*
X19081Y127496D01*
X19117Y127587D01*
X19157Y127676D01*
X19201Y127763D01*
X19248Y127849D01*
X19298Y127932D01*
X19352Y128014D01*
X19409Y128093D01*
X19470Y128170D01*
X19533Y128244D01*
X19599Y128316D01*
X19668Y128385D01*
X19740Y128451D01*
X19814Y128514D01*
X19891Y128575D01*
X19970Y128632D01*
X20052Y128686D01*
X20136Y128736D01*
X20221Y128783D01*
X20308Y128827D01*
X20397Y128867D01*
X20488Y128903D01*
X20580Y128936D01*
X20673Y128965D01*
X20768Y128991D01*
X20863Y129012D01*
X20959Y129030D01*
X21056Y129043D01*
X21153Y129053D01*
X21250Y129059D01*
X21348Y129061D01*
X21446Y129059D01*
X21543Y129053D01*
X21640Y129043D01*
X21737Y129030D01*
X21833Y129012D01*
X21928Y128991D01*
X22023Y128965D01*
X22116Y128936D01*
X22208Y128903D01*
X22299Y128867D01*
X22388Y128827D01*
X22475Y128783D01*
X22561Y128736D01*
X22644Y128686D01*
X22726Y128632D01*
X22805Y128575D01*
X22882Y128514D01*
X22956Y128451D01*
X23028Y128385D01*
X23097Y128316D01*
X23163Y128244D01*
X23226Y128170D01*
X23287Y128093D01*
X23344Y128014D01*
X23398Y127932D01*
X23448Y127849D01*
X23495Y127763D01*
X23539Y127676D01*
X23579Y127587D01*
X23615Y127496D01*
X23648Y127404D01*
X23677Y127311D01*
X23703Y127216D01*
X23724Y127121D01*
X23742Y127025D01*
X23755Y126928D01*
X23765Y126831D01*
X23771Y126734D01*
X23773Y126636D01*
X27653Y127121D02*
X27653Y124211D01*
X27653Y127121D02*
X27651Y127208D01*
X27645Y127295D01*
X27635Y127381D01*
X27622Y127467D01*
X27604Y127553D01*
X27583Y127637D01*
X27558Y127720D01*
X27529Y127803D01*
X27497Y127883D01*
X27461Y127963D01*
X27421Y128040D01*
X27378Y128116D01*
X27332Y128190D01*
X27282Y128261D01*
X27230Y128331D01*
X27174Y128397D01*
X27115Y128462D01*
X27054Y128523D01*
X26989Y128582D01*
X26923Y128638D01*
X26853Y128690D01*
X26782Y128740D01*
X26708Y128786D01*
X26632Y128829D01*
X26555Y128869D01*
X26475Y128905D01*
X26395Y128937D01*
X26312Y128966D01*
X26229Y128991D01*
X26145Y129012D01*
X26059Y129030D01*
X25973Y129043D01*
X25887Y129053D01*
X25800Y129059D01*
X25713Y129061D01*
X25626Y129059D01*
X25539Y129053D01*
X25453Y129043D01*
X25367Y129030D01*
X25281Y129012D01*
X25197Y128991D01*
X25114Y128966D01*
X25031Y128937D01*
X24951Y128905D01*
X24871Y128869D01*
X24794Y128829D01*
X24718Y128786D01*
X24644Y128740D01*
X24573Y128690D01*
X24503Y128638D01*
X24437Y128582D01*
X24372Y128523D01*
X24311Y128462D01*
X24252Y128397D01*
X24196Y128331D01*
X24144Y128261D01*
X24094Y128190D01*
X24048Y128116D01*
X24005Y128040D01*
X23965Y127963D01*
X23929Y127883D01*
X23897Y127803D01*
X23868Y127720D01*
X23843Y127637D01*
X23822Y127553D01*
X23804Y127467D01*
X23791Y127381D01*
X23781Y127295D01*
X23775Y127208D01*
X23773Y127121D01*
X23773Y125181D01*
X146985Y149929D02*
X146985Y151869D01*
X146985Y149929D02*
X146987Y149842D01*
X146993Y149755D01*
X147003Y149669D01*
X147016Y149583D01*
X147034Y149497D01*
X147055Y149413D01*
X147080Y149330D01*
X147109Y149247D01*
X147141Y149167D01*
X147177Y149087D01*
X147217Y149010D01*
X147260Y148934D01*
X147306Y148860D01*
X147356Y148789D01*
X147408Y148719D01*
X147464Y148653D01*
X147523Y148588D01*
X147584Y148527D01*
X147649Y148468D01*
X147715Y148412D01*
X147785Y148360D01*
X147856Y148310D01*
X147930Y148264D01*
X148006Y148221D01*
X148083Y148181D01*
X148163Y148145D01*
X148243Y148113D01*
X148326Y148084D01*
X148409Y148059D01*
X148493Y148038D01*
X148579Y148020D01*
X148665Y148007D01*
X148751Y147997D01*
X148838Y147991D01*
X148925Y147989D01*
X153775Y147989D01*
X153862Y147991D01*
X153949Y147997D01*
X154035Y148007D01*
X154121Y148020D01*
X154207Y148038D01*
X154291Y148059D01*
X154374Y148084D01*
X154457Y148113D01*
X154537Y148145D01*
X154617Y148181D01*
X154694Y148221D01*
X154770Y148264D01*
X154844Y148310D01*
X154915Y148360D01*
X154985Y148412D01*
X155051Y148468D01*
X155116Y148527D01*
X155177Y148588D01*
X155236Y148653D01*
X155292Y148719D01*
X155344Y148789D01*
X155394Y148860D01*
X155440Y148934D01*
X155483Y149010D01*
X155523Y149087D01*
X155559Y149167D01*
X155591Y149247D01*
X155620Y149330D01*
X155645Y149413D01*
X155666Y149497D01*
X155684Y149583D01*
X155697Y149669D01*
X155707Y149755D01*
X155713Y149842D01*
X155715Y149929D01*
X155715Y151869D01*
X155715Y157463D02*
X148925Y155523D01*
X148925Y160373D01*
X150865Y158918D02*
X146985Y158918D01*
X66353Y250813D02*
X66353Y252753D01*
X66353Y250813D02*
X66355Y250726D01*
X66361Y250639D01*
X66371Y250553D01*
X66384Y250467D01*
X66402Y250381D01*
X66423Y250297D01*
X66448Y250214D01*
X66477Y250131D01*
X66509Y250051D01*
X66545Y249971D01*
X66585Y249894D01*
X66628Y249818D01*
X66674Y249744D01*
X66724Y249673D01*
X66776Y249603D01*
X66832Y249537D01*
X66891Y249472D01*
X66952Y249411D01*
X67017Y249352D01*
X67083Y249296D01*
X67153Y249244D01*
X67224Y249194D01*
X67298Y249148D01*
X67374Y249105D01*
X67451Y249065D01*
X67531Y249029D01*
X67611Y248997D01*
X67694Y248968D01*
X67777Y248943D01*
X67861Y248922D01*
X67947Y248904D01*
X68033Y248891D01*
X68119Y248881D01*
X68206Y248875D01*
X68293Y248873D01*
X73143Y248873D01*
X73230Y248875D01*
X73317Y248881D01*
X73403Y248891D01*
X73489Y248904D01*
X73575Y248922D01*
X73659Y248943D01*
X73742Y248968D01*
X73825Y248997D01*
X73905Y249029D01*
X73985Y249065D01*
X74062Y249105D01*
X74138Y249148D01*
X74212Y249194D01*
X74283Y249244D01*
X74353Y249296D01*
X74419Y249352D01*
X74484Y249411D01*
X74545Y249472D01*
X74604Y249537D01*
X74660Y249603D01*
X74712Y249673D01*
X74762Y249744D01*
X74808Y249818D01*
X74851Y249894D01*
X74891Y249971D01*
X74927Y250051D01*
X74959Y250131D01*
X74988Y250214D01*
X75013Y250297D01*
X75034Y250381D01*
X75052Y250467D01*
X75065Y250553D01*
X75075Y250639D01*
X75081Y250726D01*
X75083Y250813D01*
X75083Y252753D01*
X66353Y256407D02*
X66353Y259317D01*
X66355Y259404D01*
X66361Y259491D01*
X66371Y259577D01*
X66384Y259663D01*
X66402Y259749D01*
X66423Y259833D01*
X66448Y259916D01*
X66477Y259999D01*
X66509Y260079D01*
X66545Y260159D01*
X66585Y260236D01*
X66628Y260312D01*
X66674Y260386D01*
X66724Y260457D01*
X66776Y260527D01*
X66832Y260593D01*
X66891Y260658D01*
X66952Y260719D01*
X67017Y260778D01*
X67083Y260834D01*
X67153Y260886D01*
X67224Y260936D01*
X67298Y260982D01*
X67374Y261025D01*
X67451Y261065D01*
X67531Y261101D01*
X67611Y261133D01*
X67694Y261162D01*
X67777Y261187D01*
X67861Y261208D01*
X67947Y261226D01*
X68033Y261239D01*
X68119Y261249D01*
X68206Y261255D01*
X68293Y261257D01*
X69263Y261257D01*
X69350Y261255D01*
X69437Y261249D01*
X69523Y261239D01*
X69609Y261226D01*
X69695Y261208D01*
X69779Y261187D01*
X69862Y261162D01*
X69945Y261133D01*
X70025Y261101D01*
X70105Y261065D01*
X70182Y261025D01*
X70258Y260982D01*
X70332Y260936D01*
X70403Y260886D01*
X70473Y260834D01*
X70539Y260778D01*
X70604Y260719D01*
X70665Y260658D01*
X70724Y260593D01*
X70780Y260527D01*
X70832Y260457D01*
X70882Y260386D01*
X70928Y260312D01*
X70971Y260236D01*
X71011Y260159D01*
X71047Y260079D01*
X71079Y259999D01*
X71108Y259916D01*
X71133Y259833D01*
X71154Y259749D01*
X71172Y259663D01*
X71185Y259577D01*
X71195Y259491D01*
X71201Y259404D01*
X71203Y259317D01*
X71203Y256407D01*
X75083Y256407D01*
X75083Y261257D01*
X107501Y253769D02*
X107501Y251829D01*
X107503Y251742D01*
X107509Y251655D01*
X107519Y251569D01*
X107532Y251483D01*
X107550Y251397D01*
X107571Y251313D01*
X107596Y251230D01*
X107625Y251147D01*
X107657Y251067D01*
X107693Y250987D01*
X107733Y250910D01*
X107776Y250834D01*
X107822Y250760D01*
X107872Y250689D01*
X107924Y250619D01*
X107980Y250553D01*
X108039Y250488D01*
X108100Y250427D01*
X108165Y250368D01*
X108231Y250312D01*
X108301Y250260D01*
X108372Y250210D01*
X108446Y250164D01*
X108522Y250121D01*
X108599Y250081D01*
X108679Y250045D01*
X108759Y250013D01*
X108842Y249984D01*
X108925Y249959D01*
X109009Y249938D01*
X109095Y249920D01*
X109181Y249907D01*
X109267Y249897D01*
X109354Y249891D01*
X109441Y249889D01*
X114291Y249889D01*
X114378Y249891D01*
X114465Y249897D01*
X114551Y249907D01*
X114637Y249920D01*
X114723Y249938D01*
X114807Y249959D01*
X114890Y249984D01*
X114973Y250013D01*
X115053Y250045D01*
X115133Y250081D01*
X115210Y250121D01*
X115286Y250164D01*
X115360Y250210D01*
X115431Y250260D01*
X115501Y250312D01*
X115567Y250368D01*
X115632Y250427D01*
X115693Y250488D01*
X115752Y250553D01*
X115808Y250619D01*
X115860Y250689D01*
X115910Y250760D01*
X115956Y250834D01*
X115999Y250910D01*
X116039Y250987D01*
X116075Y251067D01*
X116107Y251147D01*
X116136Y251230D01*
X116161Y251313D01*
X116182Y251397D01*
X116200Y251483D01*
X116213Y251569D01*
X116223Y251655D01*
X116229Y251742D01*
X116231Y251829D01*
X116231Y253769D01*
X116231Y257423D02*
X115261Y257423D01*
X116231Y257423D02*
X116231Y262273D01*
X107501Y259848D01*
X95385Y253893D02*
X95385Y251953D01*
X95387Y251866D01*
X95393Y251779D01*
X95403Y251693D01*
X95416Y251607D01*
X95434Y251521D01*
X95455Y251437D01*
X95480Y251354D01*
X95509Y251271D01*
X95541Y251191D01*
X95577Y251111D01*
X95617Y251034D01*
X95660Y250958D01*
X95706Y250884D01*
X95756Y250813D01*
X95808Y250743D01*
X95864Y250677D01*
X95923Y250612D01*
X95984Y250551D01*
X96049Y250492D01*
X96115Y250436D01*
X96185Y250384D01*
X96256Y250334D01*
X96330Y250288D01*
X96406Y250245D01*
X96483Y250205D01*
X96563Y250169D01*
X96643Y250137D01*
X96726Y250108D01*
X96809Y250083D01*
X96893Y250062D01*
X96979Y250044D01*
X97065Y250031D01*
X97151Y250021D01*
X97238Y250015D01*
X97325Y250013D01*
X102175Y250013D01*
X102262Y250015D01*
X102349Y250021D01*
X102435Y250031D01*
X102521Y250044D01*
X102607Y250062D01*
X102691Y250083D01*
X102774Y250108D01*
X102857Y250137D01*
X102937Y250169D01*
X103017Y250205D01*
X103094Y250245D01*
X103170Y250288D01*
X103244Y250334D01*
X103315Y250384D01*
X103385Y250436D01*
X103451Y250492D01*
X103516Y250551D01*
X103577Y250612D01*
X103636Y250677D01*
X103692Y250743D01*
X103744Y250813D01*
X103794Y250884D01*
X103840Y250958D01*
X103883Y251034D01*
X103923Y251111D01*
X103959Y251191D01*
X103991Y251271D01*
X104020Y251354D01*
X104045Y251437D01*
X104066Y251521D01*
X104084Y251607D01*
X104097Y251693D01*
X104107Y251779D01*
X104113Y251866D01*
X104115Y251953D01*
X104115Y253893D01*
X100235Y257547D02*
X100235Y260457D01*
X100233Y260544D01*
X100227Y260631D01*
X100217Y260717D01*
X100204Y260803D01*
X100186Y260889D01*
X100165Y260973D01*
X100140Y261056D01*
X100111Y261139D01*
X100079Y261219D01*
X100043Y261299D01*
X100003Y261376D01*
X99960Y261452D01*
X99914Y261526D01*
X99864Y261597D01*
X99812Y261667D01*
X99756Y261733D01*
X99697Y261798D01*
X99636Y261859D01*
X99571Y261918D01*
X99505Y261974D01*
X99435Y262026D01*
X99364Y262076D01*
X99290Y262122D01*
X99214Y262165D01*
X99137Y262205D01*
X99057Y262241D01*
X98977Y262273D01*
X98894Y262302D01*
X98811Y262327D01*
X98727Y262348D01*
X98641Y262366D01*
X98555Y262379D01*
X98469Y262389D01*
X98382Y262395D01*
X98295Y262397D01*
X97810Y262397D01*
X97712Y262395D01*
X97615Y262389D01*
X97518Y262379D01*
X97421Y262366D01*
X97325Y262348D01*
X97230Y262327D01*
X97135Y262301D01*
X97042Y262272D01*
X96950Y262239D01*
X96859Y262203D01*
X96770Y262163D01*
X96683Y262119D01*
X96598Y262072D01*
X96514Y262022D01*
X96432Y261968D01*
X96353Y261911D01*
X96276Y261850D01*
X96202Y261787D01*
X96130Y261721D01*
X96061Y261652D01*
X95995Y261580D01*
X95932Y261506D01*
X95871Y261429D01*
X95814Y261350D01*
X95760Y261268D01*
X95710Y261185D01*
X95663Y261099D01*
X95619Y261012D01*
X95579Y260923D01*
X95543Y260832D01*
X95510Y260740D01*
X95481Y260647D01*
X95455Y260552D01*
X95434Y260457D01*
X95416Y260361D01*
X95403Y260264D01*
X95393Y260167D01*
X95387Y260070D01*
X95385Y259972D01*
X95387Y259874D01*
X95393Y259777D01*
X95403Y259680D01*
X95416Y259583D01*
X95434Y259487D01*
X95455Y259392D01*
X95481Y259297D01*
X95510Y259204D01*
X95543Y259112D01*
X95579Y259021D01*
X95619Y258932D01*
X95663Y258845D01*
X95710Y258760D01*
X95760Y258676D01*
X95814Y258594D01*
X95871Y258515D01*
X95932Y258438D01*
X95995Y258364D01*
X96061Y258292D01*
X96130Y258223D01*
X96202Y258157D01*
X96276Y258094D01*
X96353Y258033D01*
X96432Y257976D01*
X96514Y257922D01*
X96597Y257872D01*
X96683Y257825D01*
X96770Y257781D01*
X96859Y257741D01*
X96950Y257705D01*
X97042Y257672D01*
X97135Y257643D01*
X97230Y257617D01*
X97325Y257596D01*
X97421Y257578D01*
X97518Y257565D01*
X97615Y257555D01*
X97712Y257549D01*
X97810Y257547D01*
X100235Y257547D01*
X100357Y257549D01*
X100479Y257555D01*
X100600Y257564D01*
X100721Y257578D01*
X100842Y257595D01*
X100962Y257616D01*
X101081Y257640D01*
X101200Y257669D01*
X101317Y257701D01*
X101434Y257737D01*
X101549Y257776D01*
X101663Y257819D01*
X101776Y257866D01*
X101887Y257916D01*
X101996Y257970D01*
X102104Y258027D01*
X102210Y258087D01*
X102314Y258151D01*
X102416Y258218D01*
X102516Y258288D01*
X102613Y258361D01*
X102708Y258437D01*
X102801Y258517D01*
X102891Y258599D01*
X102979Y258683D01*
X103063Y258771D01*
X103145Y258861D01*
X103225Y258954D01*
X103301Y259049D01*
X103374Y259146D01*
X103444Y259246D01*
X103511Y259348D01*
X103575Y259452D01*
X103635Y259558D01*
X103692Y259666D01*
X103746Y259775D01*
X103796Y259886D01*
X103843Y259999D01*
X103886Y260113D01*
X103925Y260228D01*
X103961Y260345D01*
X103993Y260462D01*
X104022Y260581D01*
X104046Y260700D01*
X104067Y260820D01*
X104084Y260941D01*
X104098Y261062D01*
X104107Y261183D01*
X104113Y261305D01*
X104115Y261427D01*
X49293Y225575D02*
X47353Y225575D01*
X49293Y225575D02*
X49380Y225577D01*
X49467Y225583D01*
X49553Y225593D01*
X49639Y225606D01*
X49725Y225624D01*
X49809Y225645D01*
X49892Y225670D01*
X49975Y225699D01*
X50055Y225731D01*
X50135Y225767D01*
X50212Y225807D01*
X50288Y225850D01*
X50362Y225896D01*
X50433Y225946D01*
X50503Y225998D01*
X50569Y226054D01*
X50634Y226113D01*
X50695Y226174D01*
X50754Y226239D01*
X50810Y226305D01*
X50862Y226375D01*
X50912Y226446D01*
X50958Y226520D01*
X51001Y226596D01*
X51041Y226673D01*
X51077Y226753D01*
X51109Y226833D01*
X51138Y226916D01*
X51163Y226999D01*
X51184Y227083D01*
X51202Y227169D01*
X51215Y227255D01*
X51225Y227341D01*
X51231Y227428D01*
X51233Y227515D01*
X51233Y232365D01*
X51231Y232452D01*
X51225Y232539D01*
X51215Y232625D01*
X51202Y232711D01*
X51184Y232797D01*
X51163Y232881D01*
X51138Y232964D01*
X51109Y233047D01*
X51077Y233127D01*
X51041Y233207D01*
X51001Y233284D01*
X50958Y233360D01*
X50912Y233434D01*
X50862Y233505D01*
X50810Y233575D01*
X50754Y233641D01*
X50695Y233706D01*
X50634Y233767D01*
X50569Y233826D01*
X50503Y233882D01*
X50433Y233934D01*
X50362Y233984D01*
X50288Y234030D01*
X50212Y234073D01*
X50135Y234113D01*
X50055Y234149D01*
X49975Y234181D01*
X49892Y234210D01*
X49809Y234235D01*
X49725Y234256D01*
X49639Y234274D01*
X49553Y234287D01*
X49467Y234297D01*
X49380Y234303D01*
X49293Y234305D01*
X47353Y234305D01*
X41032Y234306D02*
X40939Y234304D01*
X40847Y234298D01*
X40755Y234288D01*
X40663Y234275D01*
X40572Y234257D01*
X40482Y234236D01*
X40393Y234210D01*
X40305Y234181D01*
X40218Y234149D01*
X40133Y234112D01*
X40049Y234072D01*
X39967Y234029D01*
X39887Y233982D01*
X39810Y233932D01*
X39734Y233878D01*
X39661Y233821D01*
X39590Y233762D01*
X39521Y233699D01*
X39456Y233634D01*
X39393Y233565D01*
X39334Y233494D01*
X39277Y233421D01*
X39223Y233345D01*
X39173Y233268D01*
X39126Y233188D01*
X39083Y233106D01*
X39043Y233022D01*
X39006Y232937D01*
X38974Y232850D01*
X38945Y232762D01*
X38919Y232673D01*
X38898Y232583D01*
X38880Y232492D01*
X38867Y232400D01*
X38857Y232308D01*
X38851Y232216D01*
X38849Y232123D01*
X41032Y234305D02*
X41136Y234303D01*
X41239Y234297D01*
X41343Y234288D01*
X41445Y234274D01*
X41548Y234257D01*
X41649Y234236D01*
X41750Y234212D01*
X41850Y234183D01*
X41948Y234151D01*
X42046Y234115D01*
X42142Y234076D01*
X42236Y234033D01*
X42329Y233987D01*
X42420Y233937D01*
X42509Y233884D01*
X42596Y233828D01*
X42681Y233769D01*
X42764Y233706D01*
X42844Y233641D01*
X42922Y233572D01*
X42998Y233501D01*
X43070Y233427D01*
X43140Y233350D01*
X43207Y233271D01*
X43271Y233189D01*
X43332Y233105D01*
X43389Y233019D01*
X43444Y232931D01*
X43495Y232841D01*
X43543Y232749D01*
X43588Y232655D01*
X43628Y232560D01*
X43666Y232463D01*
X43700Y232365D01*
X39576Y230426D02*
X39509Y230492D01*
X39444Y230562D01*
X39383Y230634D01*
X39324Y230708D01*
X39268Y230785D01*
X39216Y230864D01*
X39166Y230945D01*
X39120Y231028D01*
X39078Y231113D01*
X39039Y231200D01*
X39003Y231288D01*
X38971Y231377D01*
X38943Y231468D01*
X38918Y231559D01*
X38897Y231652D01*
X38880Y231745D01*
X38866Y231839D01*
X38857Y231933D01*
X38851Y232028D01*
X38849Y232123D01*
X39577Y230425D02*
X43699Y225575D01*
X38849Y225575D01*
X147815Y181503D02*
X147815Y172773D01*
X147815Y181503D02*
X145390Y181503D01*
X145292Y181501D01*
X145195Y181495D01*
X145098Y181485D01*
X145001Y181472D01*
X144905Y181454D01*
X144810Y181433D01*
X144715Y181407D01*
X144622Y181378D01*
X144530Y181345D01*
X144439Y181309D01*
X144350Y181269D01*
X144263Y181225D01*
X144178Y181178D01*
X144094Y181128D01*
X144012Y181074D01*
X143933Y181017D01*
X143856Y180956D01*
X143782Y180893D01*
X143710Y180827D01*
X143641Y180758D01*
X143575Y180686D01*
X143512Y180612D01*
X143451Y180535D01*
X143394Y180456D01*
X143340Y180374D01*
X143290Y180291D01*
X143243Y180205D01*
X143199Y180118D01*
X143159Y180029D01*
X143123Y179938D01*
X143090Y179846D01*
X143061Y179753D01*
X143035Y179658D01*
X143014Y179563D01*
X142996Y179467D01*
X142983Y179370D01*
X142973Y179273D01*
X142967Y179176D01*
X142965Y179078D01*
X142967Y178980D01*
X142973Y178883D01*
X142983Y178786D01*
X142996Y178689D01*
X143014Y178593D01*
X143035Y178498D01*
X143061Y178403D01*
X143090Y178310D01*
X143123Y178218D01*
X143159Y178127D01*
X143199Y178038D01*
X143243Y177951D01*
X143290Y177866D01*
X143340Y177782D01*
X143394Y177700D01*
X143451Y177621D01*
X143512Y177544D01*
X143575Y177470D01*
X143641Y177398D01*
X143710Y177329D01*
X143782Y177263D01*
X143856Y177200D01*
X143933Y177139D01*
X144012Y177082D01*
X144094Y177028D01*
X144177Y176978D01*
X144263Y176931D01*
X144350Y176887D01*
X144439Y176847D01*
X144530Y176811D01*
X144622Y176778D01*
X144715Y176749D01*
X144810Y176723D01*
X144905Y176702D01*
X145001Y176684D01*
X145098Y176671D01*
X145195Y176661D01*
X145292Y176655D01*
X145390Y176653D01*
X147815Y176653D01*
X144905Y176653D02*
X142965Y172773D01*
X138890Y172773D02*
X135980Y172773D01*
X135893Y172775D01*
X135806Y172781D01*
X135720Y172791D01*
X135634Y172804D01*
X135548Y172822D01*
X135464Y172843D01*
X135381Y172868D01*
X135298Y172897D01*
X135218Y172929D01*
X135138Y172965D01*
X135061Y173005D01*
X134985Y173048D01*
X134911Y173094D01*
X134840Y173144D01*
X134770Y173196D01*
X134704Y173252D01*
X134639Y173311D01*
X134578Y173372D01*
X134519Y173437D01*
X134463Y173503D01*
X134411Y173573D01*
X134361Y173644D01*
X134315Y173718D01*
X134272Y173794D01*
X134232Y173871D01*
X134196Y173951D01*
X134164Y174031D01*
X134135Y174114D01*
X134110Y174197D01*
X134089Y174281D01*
X134071Y174367D01*
X134058Y174453D01*
X134048Y174539D01*
X134042Y174626D01*
X134040Y174713D01*
X134040Y175683D01*
X134042Y175770D01*
X134048Y175857D01*
X134058Y175943D01*
X134071Y176029D01*
X134089Y176115D01*
X134110Y176199D01*
X134135Y176282D01*
X134164Y176365D01*
X134196Y176445D01*
X134232Y176525D01*
X134272Y176602D01*
X134315Y176678D01*
X134361Y176752D01*
X134411Y176823D01*
X134463Y176893D01*
X134519Y176959D01*
X134578Y177024D01*
X134639Y177085D01*
X134704Y177144D01*
X134770Y177200D01*
X134840Y177252D01*
X134911Y177302D01*
X134985Y177348D01*
X135061Y177391D01*
X135138Y177431D01*
X135218Y177467D01*
X135298Y177499D01*
X135381Y177528D01*
X135464Y177553D01*
X135548Y177574D01*
X135634Y177592D01*
X135720Y177605D01*
X135806Y177615D01*
X135893Y177621D01*
X135980Y177623D01*
X138890Y177623D01*
X138890Y181503D01*
X134040Y181503D01*
X86497Y246377D02*
X77767Y246377D01*
X86497Y246377D02*
X86497Y248802D01*
X86495Y248900D01*
X86489Y248997D01*
X86479Y249094D01*
X86466Y249191D01*
X86448Y249287D01*
X86427Y249382D01*
X86401Y249477D01*
X86372Y249570D01*
X86339Y249662D01*
X86303Y249753D01*
X86263Y249842D01*
X86219Y249929D01*
X86172Y250015D01*
X86122Y250098D01*
X86068Y250180D01*
X86011Y250259D01*
X85950Y250336D01*
X85887Y250410D01*
X85821Y250482D01*
X85752Y250551D01*
X85680Y250617D01*
X85606Y250680D01*
X85529Y250741D01*
X85450Y250798D01*
X85368Y250852D01*
X85285Y250902D01*
X85199Y250949D01*
X85112Y250993D01*
X85023Y251033D01*
X84932Y251069D01*
X84840Y251102D01*
X84747Y251131D01*
X84652Y251157D01*
X84557Y251178D01*
X84461Y251196D01*
X84364Y251209D01*
X84267Y251219D01*
X84170Y251225D01*
X84072Y251227D01*
X83974Y251225D01*
X83877Y251219D01*
X83780Y251209D01*
X83683Y251196D01*
X83587Y251178D01*
X83492Y251157D01*
X83397Y251131D01*
X83304Y251102D01*
X83212Y251069D01*
X83121Y251033D01*
X83032Y250993D01*
X82945Y250949D01*
X82860Y250902D01*
X82776Y250852D01*
X82694Y250798D01*
X82615Y250741D01*
X82538Y250680D01*
X82464Y250617D01*
X82392Y250551D01*
X82323Y250482D01*
X82257Y250410D01*
X82194Y250336D01*
X82133Y250259D01*
X82076Y250180D01*
X82022Y250098D01*
X81972Y250015D01*
X81925Y249929D01*
X81881Y249842D01*
X81841Y249753D01*
X81805Y249662D01*
X81772Y249570D01*
X81743Y249477D01*
X81717Y249382D01*
X81696Y249287D01*
X81678Y249191D01*
X81665Y249094D01*
X81655Y248997D01*
X81649Y248900D01*
X81647Y248802D01*
X81647Y246377D01*
X81647Y249287D02*
X77767Y251227D01*
X79707Y255302D02*
X86497Y257242D01*
X79707Y255302D02*
X79707Y260152D01*
X81647Y258697D02*
X77767Y258697D01*
D93*
X55010Y214530D03*
D94*
X53400Y209490D02*
X57510Y209490D01*
X53400Y209490D02*
X53400Y205380D01*
X53400Y138490D02*
X57510Y138490D01*
X53400Y138490D02*
X53400Y142600D01*
X120290Y138490D02*
X124400Y138490D01*
X124400Y142600D01*
X124400Y209490D02*
X120290Y209490D01*
X124400Y209490D02*
X124400Y205380D01*
D10*
X134583Y216458D02*
X134583Y222763D01*
X134583Y216458D02*
X134581Y216360D01*
X134575Y216263D01*
X134565Y216166D01*
X134552Y216069D01*
X134534Y215973D01*
X134513Y215878D01*
X134487Y215783D01*
X134458Y215690D01*
X134425Y215598D01*
X134389Y215507D01*
X134349Y215418D01*
X134305Y215331D01*
X134258Y215245D01*
X134208Y215162D01*
X134154Y215080D01*
X134097Y215001D01*
X134036Y214924D01*
X133973Y214850D01*
X133907Y214778D01*
X133838Y214709D01*
X133766Y214643D01*
X133692Y214580D01*
X133615Y214519D01*
X133536Y214462D01*
X133454Y214408D01*
X133370Y214358D01*
X133285Y214311D01*
X133198Y214267D01*
X133109Y214227D01*
X133018Y214191D01*
X132926Y214158D01*
X132833Y214129D01*
X132738Y214103D01*
X132643Y214082D01*
X132547Y214064D01*
X132450Y214051D01*
X132353Y214041D01*
X132256Y214035D01*
X132158Y214033D01*
X132060Y214035D01*
X131963Y214041D01*
X131866Y214051D01*
X131769Y214064D01*
X131673Y214082D01*
X131578Y214103D01*
X131483Y214129D01*
X131390Y214158D01*
X131298Y214191D01*
X131207Y214227D01*
X131118Y214267D01*
X131031Y214311D01*
X130945Y214358D01*
X130862Y214408D01*
X130780Y214462D01*
X130701Y214519D01*
X130624Y214580D01*
X130550Y214643D01*
X130478Y214709D01*
X130409Y214778D01*
X130343Y214850D01*
X130280Y214924D01*
X130219Y215001D01*
X130162Y215080D01*
X130108Y215162D01*
X130058Y215246D01*
X130011Y215331D01*
X129967Y215418D01*
X129927Y215507D01*
X129891Y215598D01*
X129858Y215690D01*
X129829Y215783D01*
X129803Y215878D01*
X129782Y215973D01*
X129764Y216069D01*
X129751Y216166D01*
X129741Y216263D01*
X129735Y216360D01*
X129733Y216458D01*
X129733Y222763D01*
X125283Y220823D02*
X122858Y222763D01*
X122858Y214033D01*
X125283Y214033D02*
X120433Y214033D01*
X196860Y60530D02*
X196860Y34530D01*
X196860Y60530D02*
X102860Y60530D01*
X102860Y34530D01*
X196860Y10530D02*
X196860Y6530D01*
X102860Y6530D02*
X102860Y10530D01*
X211698Y53251D02*
X211698Y60041D01*
X211698Y53251D02*
X211700Y53164D01*
X211706Y53077D01*
X211716Y52991D01*
X211729Y52905D01*
X211747Y52819D01*
X211768Y52735D01*
X211793Y52652D01*
X211822Y52569D01*
X211854Y52489D01*
X211890Y52409D01*
X211930Y52332D01*
X211973Y52256D01*
X212019Y52182D01*
X212069Y52111D01*
X212121Y52041D01*
X212177Y51975D01*
X212236Y51910D01*
X212297Y51849D01*
X212362Y51790D01*
X212428Y51734D01*
X212498Y51682D01*
X212569Y51632D01*
X212643Y51586D01*
X212719Y51543D01*
X212796Y51503D01*
X212876Y51467D01*
X212956Y51435D01*
X213039Y51406D01*
X213122Y51381D01*
X213206Y51360D01*
X213292Y51342D01*
X213378Y51329D01*
X213464Y51319D01*
X213551Y51313D01*
X213638Y51311D01*
X214608Y51311D01*
X204628Y60042D02*
X204535Y60040D01*
X204443Y60034D01*
X204351Y60024D01*
X204259Y60011D01*
X204168Y59993D01*
X204078Y59972D01*
X203989Y59946D01*
X203901Y59917D01*
X203814Y59885D01*
X203729Y59848D01*
X203645Y59808D01*
X203563Y59765D01*
X203483Y59718D01*
X203406Y59668D01*
X203330Y59614D01*
X203257Y59557D01*
X203186Y59498D01*
X203117Y59435D01*
X203052Y59370D01*
X202989Y59301D01*
X202930Y59230D01*
X202873Y59157D01*
X202819Y59081D01*
X202769Y59004D01*
X202722Y58924D01*
X202679Y58842D01*
X202639Y58758D01*
X202602Y58673D01*
X202570Y58586D01*
X202541Y58498D01*
X202515Y58409D01*
X202494Y58319D01*
X202476Y58228D01*
X202463Y58136D01*
X202453Y58044D01*
X202447Y57952D01*
X202445Y57859D01*
X204628Y60041D02*
X204732Y60039D01*
X204835Y60033D01*
X204939Y60024D01*
X205041Y60010D01*
X205144Y59993D01*
X205245Y59972D01*
X205346Y59948D01*
X205446Y59919D01*
X205544Y59887D01*
X205642Y59851D01*
X205738Y59812D01*
X205832Y59769D01*
X205925Y59723D01*
X206016Y59673D01*
X206105Y59620D01*
X206192Y59564D01*
X206277Y59505D01*
X206360Y59442D01*
X206440Y59377D01*
X206518Y59308D01*
X206594Y59237D01*
X206666Y59163D01*
X206736Y59086D01*
X206803Y59007D01*
X206867Y58925D01*
X206928Y58841D01*
X206985Y58755D01*
X207040Y58667D01*
X207091Y58577D01*
X207139Y58485D01*
X207184Y58391D01*
X207224Y58296D01*
X207262Y58199D01*
X207296Y58101D01*
X203172Y56162D02*
X203105Y56228D01*
X203040Y56298D01*
X202979Y56370D01*
X202920Y56444D01*
X202864Y56521D01*
X202812Y56600D01*
X202762Y56681D01*
X202716Y56764D01*
X202674Y56849D01*
X202635Y56936D01*
X202599Y57024D01*
X202567Y57113D01*
X202539Y57204D01*
X202514Y57295D01*
X202493Y57388D01*
X202476Y57481D01*
X202462Y57575D01*
X202453Y57669D01*
X202447Y57764D01*
X202445Y57859D01*
X203173Y56161D02*
X207295Y51311D01*
X202445Y51311D01*
X167960Y80000D02*
X164960Y80000D01*
X164960Y116000D01*
X164960Y130000D02*
X164960Y220000D01*
X167960Y220000D01*
X232960Y220000D02*
X280960Y220000D01*
X280960Y80000D01*
X232960Y80000D01*
X284785Y143119D02*
X293515Y143119D01*
X288665Y146029D01*
X293515Y148939D01*
X284785Y148939D01*
X291575Y153504D02*
X293515Y155929D01*
X284785Y155929D01*
X284785Y153504D02*
X284785Y158354D01*
X35459Y136333D02*
X33519Y136333D01*
X35459Y136333D02*
X35546Y136335D01*
X35633Y136341D01*
X35719Y136351D01*
X35805Y136364D01*
X35891Y136382D01*
X35975Y136403D01*
X36058Y136428D01*
X36141Y136457D01*
X36221Y136489D01*
X36301Y136525D01*
X36378Y136565D01*
X36454Y136608D01*
X36528Y136654D01*
X36599Y136704D01*
X36669Y136756D01*
X36735Y136812D01*
X36800Y136871D01*
X36861Y136932D01*
X36920Y136997D01*
X36976Y137063D01*
X37028Y137133D01*
X37078Y137204D01*
X37124Y137278D01*
X37167Y137354D01*
X37207Y137431D01*
X37243Y137511D01*
X37275Y137591D01*
X37304Y137674D01*
X37329Y137757D01*
X37350Y137841D01*
X37368Y137927D01*
X37381Y138013D01*
X37391Y138099D01*
X37397Y138186D01*
X37399Y138273D01*
X37399Y143123D01*
X37397Y143210D01*
X37391Y143297D01*
X37381Y143383D01*
X37368Y143469D01*
X37350Y143555D01*
X37329Y143639D01*
X37304Y143722D01*
X37275Y143805D01*
X37243Y143885D01*
X37207Y143965D01*
X37167Y144042D01*
X37124Y144118D01*
X37078Y144192D01*
X37028Y144263D01*
X36976Y144333D01*
X36920Y144399D01*
X36861Y144464D01*
X36800Y144525D01*
X36735Y144584D01*
X36669Y144640D01*
X36599Y144692D01*
X36528Y144742D01*
X36454Y144788D01*
X36378Y144831D01*
X36301Y144871D01*
X36221Y144907D01*
X36141Y144939D01*
X36058Y144968D01*
X35975Y144993D01*
X35891Y145014D01*
X35805Y145032D01*
X35719Y145045D01*
X35633Y145055D01*
X35546Y145061D01*
X35459Y145063D01*
X33519Y145063D01*
X29865Y143123D02*
X27440Y145063D01*
X27440Y136333D01*
X29865Y136333D02*
X25015Y136333D01*
X144331Y74699D02*
X144331Y72759D01*
X144333Y72672D01*
X144339Y72585D01*
X144349Y72499D01*
X144362Y72413D01*
X144380Y72327D01*
X144401Y72243D01*
X144426Y72160D01*
X144455Y72077D01*
X144487Y71997D01*
X144523Y71917D01*
X144563Y71840D01*
X144606Y71764D01*
X144652Y71690D01*
X144702Y71619D01*
X144754Y71549D01*
X144810Y71483D01*
X144869Y71418D01*
X144930Y71357D01*
X144995Y71298D01*
X145061Y71242D01*
X145131Y71190D01*
X145202Y71140D01*
X145276Y71094D01*
X145352Y71051D01*
X145429Y71011D01*
X145509Y70975D01*
X145589Y70943D01*
X145672Y70914D01*
X145755Y70889D01*
X145839Y70868D01*
X145925Y70850D01*
X146011Y70837D01*
X146097Y70827D01*
X146184Y70821D01*
X146271Y70819D01*
X151121Y70819D01*
X151208Y70821D01*
X151295Y70827D01*
X151381Y70837D01*
X151467Y70850D01*
X151553Y70868D01*
X151637Y70889D01*
X151720Y70914D01*
X151803Y70943D01*
X151883Y70975D01*
X151963Y71011D01*
X152040Y71051D01*
X152116Y71094D01*
X152190Y71140D01*
X152261Y71190D01*
X152331Y71242D01*
X152397Y71298D01*
X152462Y71357D01*
X152523Y71418D01*
X152582Y71483D01*
X152638Y71549D01*
X152690Y71619D01*
X152740Y71690D01*
X152786Y71764D01*
X152829Y71840D01*
X152869Y71917D01*
X152905Y71997D01*
X152937Y72077D01*
X152966Y72160D01*
X152991Y72243D01*
X153012Y72327D01*
X153030Y72413D01*
X153043Y72499D01*
X153053Y72585D01*
X153059Y72672D01*
X153061Y72759D01*
X153061Y74699D01*
X148211Y80293D02*
X148211Y83203D01*
X148211Y80293D02*
X148213Y80206D01*
X148219Y80119D01*
X148229Y80033D01*
X148242Y79947D01*
X148260Y79861D01*
X148281Y79777D01*
X148306Y79694D01*
X148335Y79611D01*
X148367Y79531D01*
X148403Y79451D01*
X148443Y79374D01*
X148486Y79298D01*
X148532Y79224D01*
X148582Y79153D01*
X148634Y79083D01*
X148690Y79017D01*
X148749Y78952D01*
X148810Y78891D01*
X148875Y78832D01*
X148941Y78776D01*
X149011Y78724D01*
X149082Y78674D01*
X149156Y78628D01*
X149232Y78585D01*
X149309Y78545D01*
X149389Y78509D01*
X149469Y78477D01*
X149552Y78448D01*
X149635Y78423D01*
X149719Y78402D01*
X149805Y78384D01*
X149891Y78371D01*
X149977Y78361D01*
X150064Y78355D01*
X150151Y78353D01*
X150636Y78353D01*
X150734Y78355D01*
X150831Y78361D01*
X150928Y78371D01*
X151025Y78384D01*
X151121Y78402D01*
X151216Y78423D01*
X151311Y78449D01*
X151404Y78478D01*
X151496Y78511D01*
X151587Y78547D01*
X151676Y78587D01*
X151763Y78631D01*
X151849Y78678D01*
X151932Y78728D01*
X152014Y78782D01*
X152093Y78839D01*
X152170Y78900D01*
X152244Y78963D01*
X152316Y79029D01*
X152385Y79098D01*
X152451Y79170D01*
X152514Y79244D01*
X152575Y79321D01*
X152632Y79400D01*
X152686Y79482D01*
X152736Y79565D01*
X152783Y79651D01*
X152827Y79738D01*
X152867Y79827D01*
X152903Y79918D01*
X152936Y80010D01*
X152965Y80103D01*
X152991Y80198D01*
X153012Y80293D01*
X153030Y80389D01*
X153043Y80486D01*
X153053Y80583D01*
X153059Y80680D01*
X153061Y80778D01*
X153059Y80876D01*
X153053Y80973D01*
X153043Y81070D01*
X153030Y81167D01*
X153012Y81263D01*
X152991Y81358D01*
X152965Y81453D01*
X152936Y81546D01*
X152903Y81638D01*
X152867Y81729D01*
X152827Y81818D01*
X152783Y81905D01*
X152736Y81990D01*
X152686Y82074D01*
X152632Y82156D01*
X152575Y82235D01*
X152514Y82312D01*
X152451Y82386D01*
X152385Y82458D01*
X152316Y82527D01*
X152244Y82593D01*
X152170Y82656D01*
X152093Y82717D01*
X152014Y82774D01*
X151932Y82828D01*
X151849Y82878D01*
X151763Y82925D01*
X151676Y82969D01*
X151587Y83009D01*
X151496Y83045D01*
X151404Y83078D01*
X151311Y83107D01*
X151216Y83133D01*
X151121Y83154D01*
X151025Y83172D01*
X150928Y83185D01*
X150831Y83195D01*
X150734Y83201D01*
X150636Y83203D01*
X148211Y83203D01*
X148089Y83201D01*
X147967Y83195D01*
X147846Y83186D01*
X147725Y83172D01*
X147604Y83155D01*
X147484Y83134D01*
X147365Y83110D01*
X147246Y83081D01*
X147129Y83049D01*
X147012Y83013D01*
X146897Y82974D01*
X146783Y82931D01*
X146670Y82884D01*
X146559Y82834D01*
X146450Y82780D01*
X146342Y82723D01*
X146236Y82663D01*
X146132Y82599D01*
X146030Y82532D01*
X145930Y82462D01*
X145833Y82389D01*
X145738Y82313D01*
X145645Y82233D01*
X145555Y82151D01*
X145467Y82067D01*
X145383Y81979D01*
X145301Y81889D01*
X145221Y81796D01*
X145145Y81701D01*
X145072Y81604D01*
X145002Y81504D01*
X144935Y81402D01*
X144871Y81298D01*
X144811Y81192D01*
X144754Y81084D01*
X144700Y80975D01*
X144650Y80864D01*
X144603Y80751D01*
X144560Y80637D01*
X144521Y80522D01*
X144485Y80405D01*
X144453Y80288D01*
X144424Y80169D01*
X144400Y80050D01*
X144379Y79930D01*
X144362Y79809D01*
X144348Y79688D01*
X144339Y79567D01*
X144333Y79445D01*
X144331Y79323D01*
X131125Y112149D02*
X131125Y114089D01*
X131125Y112149D02*
X131127Y112062D01*
X131133Y111975D01*
X131143Y111889D01*
X131156Y111803D01*
X131174Y111717D01*
X131195Y111633D01*
X131220Y111550D01*
X131249Y111467D01*
X131281Y111387D01*
X131317Y111307D01*
X131357Y111230D01*
X131400Y111154D01*
X131446Y111080D01*
X131496Y111009D01*
X131548Y110939D01*
X131604Y110873D01*
X131663Y110808D01*
X131724Y110747D01*
X131789Y110688D01*
X131855Y110632D01*
X131925Y110580D01*
X131996Y110530D01*
X132070Y110484D01*
X132146Y110441D01*
X132223Y110401D01*
X132303Y110365D01*
X132383Y110333D01*
X132466Y110304D01*
X132549Y110279D01*
X132633Y110258D01*
X132719Y110240D01*
X132805Y110227D01*
X132891Y110217D01*
X132978Y110211D01*
X133065Y110209D01*
X137915Y110209D01*
X138002Y110211D01*
X138089Y110217D01*
X138175Y110227D01*
X138261Y110240D01*
X138347Y110258D01*
X138431Y110279D01*
X138514Y110304D01*
X138597Y110333D01*
X138677Y110365D01*
X138757Y110401D01*
X138834Y110441D01*
X138910Y110484D01*
X138984Y110530D01*
X139055Y110580D01*
X139125Y110632D01*
X139191Y110688D01*
X139256Y110747D01*
X139317Y110808D01*
X139376Y110873D01*
X139432Y110939D01*
X139484Y111009D01*
X139534Y111080D01*
X139580Y111154D01*
X139623Y111230D01*
X139663Y111307D01*
X139699Y111387D01*
X139731Y111467D01*
X139760Y111550D01*
X139785Y111633D01*
X139806Y111717D01*
X139824Y111803D01*
X139837Y111889D01*
X139847Y111975D01*
X139853Y112062D01*
X139855Y112149D01*
X139855Y114089D01*
X133550Y117743D02*
X133648Y117745D01*
X133745Y117751D01*
X133842Y117761D01*
X133939Y117774D01*
X134035Y117792D01*
X134130Y117813D01*
X134225Y117839D01*
X134318Y117868D01*
X134410Y117901D01*
X134501Y117937D01*
X134590Y117977D01*
X134677Y118021D01*
X134763Y118068D01*
X134846Y118118D01*
X134928Y118172D01*
X135007Y118229D01*
X135084Y118290D01*
X135158Y118353D01*
X135230Y118419D01*
X135299Y118488D01*
X135365Y118560D01*
X135428Y118634D01*
X135489Y118711D01*
X135546Y118790D01*
X135600Y118872D01*
X135650Y118955D01*
X135697Y119041D01*
X135741Y119128D01*
X135781Y119217D01*
X135817Y119308D01*
X135850Y119400D01*
X135879Y119493D01*
X135905Y119588D01*
X135926Y119683D01*
X135944Y119779D01*
X135957Y119876D01*
X135967Y119973D01*
X135973Y120070D01*
X135975Y120168D01*
X135973Y120266D01*
X135967Y120363D01*
X135957Y120460D01*
X135944Y120557D01*
X135926Y120653D01*
X135905Y120748D01*
X135879Y120843D01*
X135850Y120936D01*
X135817Y121028D01*
X135781Y121119D01*
X135741Y121208D01*
X135697Y121295D01*
X135650Y121380D01*
X135600Y121464D01*
X135546Y121546D01*
X135489Y121625D01*
X135428Y121702D01*
X135365Y121776D01*
X135299Y121848D01*
X135230Y121917D01*
X135158Y121983D01*
X135084Y122046D01*
X135007Y122107D01*
X134928Y122164D01*
X134846Y122218D01*
X134763Y122268D01*
X134677Y122315D01*
X134590Y122359D01*
X134501Y122399D01*
X134410Y122435D01*
X134318Y122468D01*
X134225Y122497D01*
X134130Y122523D01*
X134035Y122544D01*
X133939Y122562D01*
X133842Y122575D01*
X133745Y122585D01*
X133648Y122591D01*
X133550Y122593D01*
X133452Y122591D01*
X133355Y122585D01*
X133258Y122575D01*
X133161Y122562D01*
X133065Y122544D01*
X132970Y122523D01*
X132875Y122497D01*
X132782Y122468D01*
X132690Y122435D01*
X132599Y122399D01*
X132510Y122359D01*
X132423Y122315D01*
X132338Y122268D01*
X132254Y122218D01*
X132172Y122164D01*
X132093Y122107D01*
X132016Y122046D01*
X131942Y121983D01*
X131870Y121917D01*
X131801Y121848D01*
X131735Y121776D01*
X131672Y121702D01*
X131611Y121625D01*
X131554Y121546D01*
X131500Y121464D01*
X131450Y121381D01*
X131403Y121295D01*
X131359Y121208D01*
X131319Y121119D01*
X131283Y121028D01*
X131250Y120936D01*
X131221Y120843D01*
X131195Y120748D01*
X131174Y120653D01*
X131156Y120557D01*
X131143Y120460D01*
X131133Y120363D01*
X131127Y120266D01*
X131125Y120168D01*
X131127Y120070D01*
X131133Y119973D01*
X131143Y119876D01*
X131156Y119779D01*
X131174Y119683D01*
X131195Y119588D01*
X131221Y119493D01*
X131250Y119400D01*
X131283Y119308D01*
X131319Y119217D01*
X131359Y119128D01*
X131403Y119041D01*
X131450Y118956D01*
X131500Y118872D01*
X131554Y118790D01*
X131611Y118711D01*
X131672Y118634D01*
X131735Y118560D01*
X131801Y118488D01*
X131870Y118419D01*
X131942Y118353D01*
X132016Y118290D01*
X132093Y118229D01*
X132172Y118172D01*
X132254Y118118D01*
X132337Y118068D01*
X132423Y118021D01*
X132510Y117977D01*
X132599Y117937D01*
X132690Y117901D01*
X132782Y117868D01*
X132875Y117839D01*
X132970Y117813D01*
X133065Y117792D01*
X133161Y117774D01*
X133258Y117761D01*
X133355Y117751D01*
X133452Y117745D01*
X133550Y117743D01*
X137915Y118228D02*
X138002Y118230D01*
X138089Y118236D01*
X138175Y118246D01*
X138261Y118259D01*
X138347Y118277D01*
X138431Y118298D01*
X138514Y118323D01*
X138597Y118352D01*
X138677Y118384D01*
X138757Y118420D01*
X138834Y118460D01*
X138910Y118503D01*
X138984Y118549D01*
X139055Y118599D01*
X139125Y118651D01*
X139191Y118707D01*
X139256Y118766D01*
X139317Y118827D01*
X139376Y118892D01*
X139432Y118958D01*
X139484Y119028D01*
X139534Y119099D01*
X139580Y119173D01*
X139623Y119249D01*
X139663Y119326D01*
X139699Y119406D01*
X139731Y119486D01*
X139760Y119569D01*
X139785Y119652D01*
X139806Y119736D01*
X139824Y119822D01*
X139837Y119908D01*
X139847Y119994D01*
X139853Y120081D01*
X139855Y120168D01*
X139853Y120255D01*
X139847Y120342D01*
X139837Y120428D01*
X139824Y120514D01*
X139806Y120600D01*
X139785Y120684D01*
X139760Y120767D01*
X139731Y120850D01*
X139699Y120930D01*
X139663Y121010D01*
X139623Y121087D01*
X139580Y121163D01*
X139534Y121237D01*
X139484Y121308D01*
X139432Y121378D01*
X139376Y121444D01*
X139317Y121509D01*
X139256Y121570D01*
X139191Y121629D01*
X139125Y121685D01*
X139055Y121737D01*
X138984Y121787D01*
X138910Y121833D01*
X138834Y121876D01*
X138757Y121916D01*
X138677Y121952D01*
X138597Y121984D01*
X138514Y122013D01*
X138431Y122038D01*
X138347Y122059D01*
X138261Y122077D01*
X138175Y122090D01*
X138089Y122100D01*
X138002Y122106D01*
X137915Y122108D01*
X137828Y122106D01*
X137741Y122100D01*
X137655Y122090D01*
X137569Y122077D01*
X137483Y122059D01*
X137399Y122038D01*
X137316Y122013D01*
X137233Y121984D01*
X137153Y121952D01*
X137073Y121916D01*
X136996Y121876D01*
X136920Y121833D01*
X136846Y121787D01*
X136775Y121737D01*
X136705Y121685D01*
X136639Y121629D01*
X136574Y121570D01*
X136513Y121509D01*
X136454Y121444D01*
X136398Y121378D01*
X136346Y121308D01*
X136296Y121237D01*
X136250Y121163D01*
X136207Y121087D01*
X136167Y121010D01*
X136131Y120930D01*
X136099Y120850D01*
X136070Y120767D01*
X136045Y120684D01*
X136024Y120600D01*
X136006Y120514D01*
X135993Y120428D01*
X135983Y120342D01*
X135977Y120255D01*
X135975Y120168D01*
X135977Y120081D01*
X135983Y119994D01*
X135993Y119908D01*
X136006Y119822D01*
X136024Y119736D01*
X136045Y119652D01*
X136070Y119569D01*
X136099Y119486D01*
X136131Y119406D01*
X136167Y119326D01*
X136207Y119249D01*
X136250Y119173D01*
X136296Y119099D01*
X136346Y119028D01*
X136398Y118958D01*
X136454Y118892D01*
X136513Y118827D01*
X136574Y118766D01*
X136639Y118707D01*
X136705Y118651D01*
X136775Y118599D01*
X136846Y118549D01*
X136920Y118503D01*
X136996Y118460D01*
X137073Y118420D01*
X137153Y118384D01*
X137233Y118352D01*
X137316Y118323D01*
X137399Y118298D01*
X137483Y118277D01*
X137569Y118259D01*
X137655Y118246D01*
X137741Y118236D01*
X137828Y118230D01*
X137915Y118228D01*
X122596Y83449D02*
X122596Y74719D01*
X122596Y83449D02*
X120171Y83449D01*
X120073Y83447D01*
X119976Y83441D01*
X119879Y83431D01*
X119782Y83418D01*
X119686Y83400D01*
X119591Y83379D01*
X119496Y83353D01*
X119403Y83324D01*
X119311Y83291D01*
X119220Y83255D01*
X119131Y83215D01*
X119044Y83171D01*
X118959Y83124D01*
X118875Y83074D01*
X118793Y83020D01*
X118714Y82963D01*
X118637Y82902D01*
X118563Y82839D01*
X118491Y82773D01*
X118422Y82704D01*
X118356Y82632D01*
X118293Y82558D01*
X118232Y82481D01*
X118175Y82402D01*
X118121Y82320D01*
X118071Y82237D01*
X118024Y82151D01*
X117980Y82064D01*
X117940Y81975D01*
X117904Y81884D01*
X117871Y81792D01*
X117842Y81699D01*
X117816Y81604D01*
X117795Y81509D01*
X117777Y81413D01*
X117764Y81316D01*
X117754Y81219D01*
X117748Y81122D01*
X117746Y81024D01*
X117748Y80926D01*
X117754Y80829D01*
X117764Y80732D01*
X117777Y80635D01*
X117795Y80539D01*
X117816Y80444D01*
X117842Y80349D01*
X117871Y80256D01*
X117904Y80164D01*
X117940Y80073D01*
X117980Y79984D01*
X118024Y79897D01*
X118071Y79812D01*
X118121Y79728D01*
X118175Y79646D01*
X118232Y79567D01*
X118293Y79490D01*
X118356Y79416D01*
X118422Y79344D01*
X118491Y79275D01*
X118563Y79209D01*
X118637Y79146D01*
X118714Y79085D01*
X118793Y79028D01*
X118875Y78974D01*
X118958Y78924D01*
X119044Y78877D01*
X119131Y78833D01*
X119220Y78793D01*
X119311Y78757D01*
X119403Y78724D01*
X119496Y78695D01*
X119591Y78669D01*
X119686Y78648D01*
X119782Y78630D01*
X119879Y78617D01*
X119976Y78607D01*
X120073Y78601D01*
X120171Y78599D01*
X122596Y78599D01*
X119686Y78599D02*
X117746Y74719D01*
X113671Y81509D02*
X111246Y83449D01*
X111246Y74719D01*
X113671Y74719D02*
X108821Y74719D01*
M02*
