G04 EAGLE Gerber RS-274X export*
G75*
%MOMM*%
%FSLAX34Y34*%
%LPD*%
%IN*%
%IPPOS*%
%AMOC8*
5,1,8,0,0,1.08239X$1,22.5*%
G01*
%ADD10C,0.254000*%


D10*
X300000Y148159D02*
X300000Y151841D01*
X299910Y155522D01*
X299729Y159199D01*
X299458Y162871D01*
X299097Y166535D01*
X298647Y170189D01*
X298106Y173831D01*
X297477Y177458D01*
X296759Y181069D01*
X295952Y184661D01*
X295057Y188233D01*
X294075Y191781D01*
X293007Y195304D01*
X291852Y198800D01*
X290611Y202267D01*
X289286Y205702D01*
X287877Y209103D01*
X286385Y212469D01*
X284811Y215797D01*
X283156Y219086D01*
X281420Y222333D01*
X279606Y225536D01*
X277713Y228694D01*
X275743Y231805D01*
X273698Y234866D01*
X271578Y237876D01*
X269385Y240834D01*
X267119Y243736D01*
X264784Y246582D01*
X262379Y249370D01*
X259906Y252098D01*
X257368Y254764D01*
X254764Y257368D01*
X252098Y259906D01*
X249370Y262379D01*
X246582Y264784D01*
X243736Y267119D01*
X240834Y269385D01*
X237876Y271578D01*
X234866Y273698D01*
X231805Y275743D01*
X228694Y277713D01*
X225536Y279606D01*
X222333Y281420D01*
X219086Y283156D01*
X215797Y284811D01*
X212469Y286385D01*
X209103Y287877D01*
X205702Y289286D01*
X202267Y290611D01*
X198800Y291852D01*
X195304Y293007D01*
X191781Y294075D01*
X188233Y295057D01*
X184661Y295952D01*
X181069Y296759D01*
X177458Y297477D01*
X173831Y298106D01*
X170189Y298647D01*
X166535Y299097D01*
X162871Y299458D01*
X159199Y299729D01*
X155522Y299910D01*
X151841Y300000D01*
X148159Y300000D01*
X144479Y299910D01*
X140801Y299729D01*
X137129Y299458D01*
X133465Y299097D01*
X129811Y298647D01*
X126169Y298106D01*
X122542Y297477D01*
X118931Y296759D01*
X115339Y295952D01*
X111767Y295057D01*
X108219Y294075D01*
X104696Y293007D01*
X101200Y291852D01*
X97733Y290611D01*
X94298Y289286D01*
X90897Y287877D01*
X87531Y286385D01*
X84203Y284811D01*
X80914Y283156D01*
X77667Y281420D01*
X74464Y279606D01*
X71306Y277713D01*
X68195Y275743D01*
X65134Y273698D01*
X62124Y271578D01*
X59167Y269385D01*
X56264Y267119D01*
X53418Y264784D01*
X50630Y262379D01*
X47902Y259906D01*
X45236Y257368D01*
X42632Y254764D01*
X40094Y252098D01*
X37621Y249370D01*
X35216Y246582D01*
X32881Y243736D01*
X30615Y240834D01*
X28422Y237876D01*
X26302Y234866D01*
X24257Y231805D01*
X22287Y228694D01*
X20394Y225536D01*
X18580Y222333D01*
X16844Y219086D01*
X15189Y215797D01*
X13615Y212469D01*
X12123Y209103D01*
X10714Y205702D01*
X9389Y202267D01*
X8148Y198800D01*
X6993Y195304D01*
X5925Y191781D01*
X4943Y188233D01*
X4048Y184661D01*
X3241Y181069D01*
X2523Y177458D01*
X1894Y173831D01*
X1353Y170189D01*
X903Y166535D01*
X542Y162871D01*
X271Y159199D01*
X90Y155522D01*
X0Y151841D01*
X0Y148159D01*
X90Y144479D01*
X271Y140801D01*
X542Y137129D01*
X903Y133465D01*
X1353Y129811D01*
X1894Y126169D01*
X2523Y122542D01*
X3241Y118931D01*
X4048Y115339D01*
X4943Y111767D01*
X5925Y108219D01*
X6993Y104696D01*
X8148Y101200D01*
X9389Y97733D01*
X10714Y94298D01*
X12123Y90897D01*
X13615Y87531D01*
X15189Y84203D01*
X16844Y80914D01*
X18580Y77667D01*
X20394Y74464D01*
X22287Y71306D01*
X24257Y68195D01*
X26302Y65134D01*
X28422Y62124D01*
X30615Y59167D01*
X32881Y56264D01*
X35216Y53418D01*
X37621Y50630D01*
X40094Y47902D01*
X42632Y45236D01*
X45236Y42632D01*
X47902Y40094D01*
X50630Y37621D01*
X53418Y35216D01*
X56264Y32881D01*
X59167Y30615D01*
X62124Y28422D01*
X65134Y26302D01*
X68195Y24257D01*
X71306Y22287D01*
X74464Y20394D01*
X77667Y18580D01*
X80914Y16844D01*
X84203Y15189D01*
X87531Y13615D01*
X90897Y12123D01*
X94298Y10714D01*
X97733Y9389D01*
X101200Y8148D01*
X104696Y6993D01*
X108219Y5925D01*
X111767Y4943D01*
X115339Y4048D01*
X118931Y3241D01*
X122542Y2523D01*
X126169Y1894D01*
X129811Y1353D01*
X133465Y903D01*
X137129Y542D01*
X140801Y271D01*
X144479Y90D01*
X148159Y0D01*
X151841Y0D01*
X155522Y90D01*
X159199Y271D01*
X162871Y542D01*
X166535Y903D01*
X170189Y1353D01*
X173831Y1894D01*
X177458Y2523D01*
X181069Y3241D01*
X184661Y4048D01*
X188233Y4943D01*
X191781Y5925D01*
X195304Y6993D01*
X198800Y8148D01*
X202267Y9389D01*
X205702Y10714D01*
X209103Y12123D01*
X212469Y13615D01*
X215797Y15189D01*
X219086Y16844D01*
X222333Y18580D01*
X225536Y20394D01*
X228694Y22287D01*
X231805Y24257D01*
X234866Y26302D01*
X237876Y28422D01*
X240834Y30615D01*
X243736Y32881D01*
X246582Y35216D01*
X249370Y37621D01*
X252098Y40094D01*
X254764Y42632D01*
X257368Y45236D01*
X259906Y47902D01*
X262379Y50630D01*
X264784Y53418D01*
X267119Y56264D01*
X269385Y59167D01*
X271578Y62124D01*
X273698Y65134D01*
X275743Y68195D01*
X277713Y71306D01*
X279606Y74464D01*
X281420Y77667D01*
X283156Y80914D01*
X284811Y84203D01*
X286385Y87531D01*
X287877Y90897D01*
X289286Y94298D01*
X290611Y97733D01*
X291852Y101200D01*
X293007Y104696D01*
X294075Y108219D01*
X295057Y111767D01*
X295952Y115339D01*
X296759Y118931D01*
X297477Y122542D01*
X298106Y126169D01*
X298647Y129811D01*
X299097Y133465D01*
X299458Y137129D01*
X299729Y140801D01*
X299910Y144479D01*
X300000Y148159D01*
X255000Y249719D02*
X254937Y249161D01*
X254812Y248614D01*
X254627Y248084D01*
X254383Y247578D01*
X254084Y247102D01*
X253734Y246663D01*
X253337Y246266D01*
X252898Y245916D01*
X252422Y245617D01*
X251916Y245373D01*
X251386Y245188D01*
X250839Y245063D01*
X250281Y245000D01*
X249719Y245000D01*
X249161Y245063D01*
X248614Y245188D01*
X248084Y245373D01*
X247578Y245617D01*
X247102Y245916D01*
X246663Y246266D01*
X246266Y246663D01*
X245916Y247102D01*
X245617Y247578D01*
X245373Y248084D01*
X245188Y248614D01*
X245063Y249161D01*
X245000Y249719D01*
X245000Y250281D01*
X245063Y250839D01*
X245188Y251386D01*
X245373Y251916D01*
X245617Y252422D01*
X245916Y252898D01*
X246266Y253337D01*
X246663Y253734D01*
X247102Y254084D01*
X247578Y254383D01*
X248084Y254627D01*
X248614Y254812D01*
X249161Y254937D01*
X249719Y255000D01*
X250281Y255000D01*
X250839Y254937D01*
X251386Y254812D01*
X251916Y254627D01*
X252422Y254383D01*
X252898Y254084D01*
X253337Y253734D01*
X253734Y253337D01*
X254084Y252898D01*
X254383Y252422D01*
X254627Y251916D01*
X254812Y251386D01*
X254937Y250839D01*
X255000Y250281D01*
X255000Y249719D01*
X255000Y49719D02*
X254937Y49161D01*
X254812Y48614D01*
X254627Y48084D01*
X254383Y47578D01*
X254084Y47102D01*
X253734Y46663D01*
X253337Y46266D01*
X252898Y45916D01*
X252422Y45617D01*
X251916Y45373D01*
X251386Y45188D01*
X250839Y45063D01*
X250281Y45000D01*
X249719Y45000D01*
X249161Y45063D01*
X248614Y45188D01*
X248084Y45373D01*
X247578Y45617D01*
X247102Y45916D01*
X246663Y46266D01*
X246266Y46663D01*
X245916Y47102D01*
X245617Y47578D01*
X245373Y48084D01*
X245188Y48614D01*
X245063Y49161D01*
X245000Y49719D01*
X245000Y50281D01*
X245063Y50839D01*
X245188Y51386D01*
X245373Y51916D01*
X245617Y52422D01*
X245916Y52898D01*
X246266Y53337D01*
X246663Y53734D01*
X247102Y54084D01*
X247578Y54383D01*
X248084Y54627D01*
X248614Y54812D01*
X249161Y54937D01*
X249719Y55000D01*
X250281Y55000D01*
X250839Y54937D01*
X251386Y54812D01*
X251916Y54627D01*
X252422Y54383D01*
X252898Y54084D01*
X253337Y53734D01*
X253734Y53337D01*
X254084Y52898D01*
X254383Y52422D01*
X254627Y51916D01*
X254812Y51386D01*
X254937Y50839D01*
X255000Y50281D01*
X255000Y49719D01*
X15000Y149719D02*
X14937Y149161D01*
X14812Y148614D01*
X14627Y148084D01*
X14383Y147578D01*
X14084Y147102D01*
X13734Y146663D01*
X13337Y146266D01*
X12898Y145916D01*
X12422Y145617D01*
X11916Y145373D01*
X11386Y145188D01*
X10839Y145063D01*
X10281Y145000D01*
X9719Y145000D01*
X9161Y145063D01*
X8614Y145188D01*
X8084Y145373D01*
X7578Y145617D01*
X7102Y145916D01*
X6663Y146266D01*
X6266Y146663D01*
X5916Y147102D01*
X5617Y147578D01*
X5373Y148084D01*
X5188Y148614D01*
X5063Y149161D01*
X5000Y149719D01*
X5000Y150281D01*
X5063Y150839D01*
X5188Y151386D01*
X5373Y151916D01*
X5617Y152422D01*
X5916Y152898D01*
X6266Y153337D01*
X6663Y153734D01*
X7102Y154084D01*
X7578Y154383D01*
X8084Y154627D01*
X8614Y154812D01*
X9161Y154937D01*
X9719Y155000D01*
X10281Y155000D01*
X10839Y154937D01*
X11386Y154812D01*
X11916Y154627D01*
X12422Y154383D01*
X12898Y154084D01*
X13337Y153734D01*
X13734Y153337D01*
X14084Y152898D01*
X14383Y152422D01*
X14627Y151916D01*
X14812Y151386D01*
X14937Y150839D01*
X15000Y150281D01*
X15000Y149719D01*
X146110Y284846D02*
X146174Y285333D01*
X146301Y285808D01*
X146490Y286262D01*
X146735Y286688D01*
X147035Y287078D01*
X147382Y287425D01*
X147772Y287725D01*
X148198Y287971D01*
X148652Y288159D01*
X149127Y288286D01*
X149614Y288350D01*
X150106Y288350D01*
X150593Y288286D01*
X151068Y288159D01*
X151522Y287971D01*
X151948Y287725D01*
X152338Y287425D01*
X152685Y287078D01*
X152985Y286688D01*
X153231Y286262D01*
X153419Y285808D01*
X153546Y285333D01*
X153610Y284846D01*
X153610Y284354D01*
X153546Y283867D01*
X153419Y283392D01*
X153231Y282938D01*
X152985Y282512D01*
X152685Y282122D01*
X152338Y281775D01*
X151948Y281475D01*
X151522Y281230D01*
X151068Y281041D01*
X150593Y280914D01*
X150106Y280850D01*
X149614Y280850D01*
X149127Y280914D01*
X148652Y281041D01*
X148198Y281230D01*
X147772Y281475D01*
X147382Y281775D01*
X147035Y282122D01*
X146735Y282512D01*
X146490Y282938D01*
X146301Y283392D01*
X146174Y283867D01*
X146110Y284354D01*
X146110Y284846D01*
X52675Y242522D02*
X52375Y242912D01*
X52130Y243338D01*
X51941Y243792D01*
X51814Y244267D01*
X51750Y244754D01*
X51750Y245246D01*
X51814Y245733D01*
X51941Y246208D01*
X52130Y246662D01*
X52375Y247088D01*
X52675Y247478D01*
X53022Y247825D01*
X53412Y248125D01*
X53838Y248370D01*
X54292Y248559D01*
X54767Y248686D01*
X55254Y248750D01*
X55746Y248750D01*
X56233Y248686D01*
X56708Y248559D01*
X57162Y248370D01*
X57588Y248125D01*
X57978Y247825D01*
X58325Y247478D01*
X58625Y247088D01*
X58870Y246662D01*
X59059Y246208D01*
X59186Y245733D01*
X59250Y245246D01*
X59250Y244754D01*
X59186Y244267D01*
X59059Y243792D01*
X58870Y243338D01*
X58625Y242912D01*
X58325Y242522D01*
X57978Y242175D01*
X57588Y241875D01*
X57162Y241630D01*
X56708Y241441D01*
X56233Y241314D01*
X55746Y241250D01*
X55254Y241250D01*
X54767Y241314D01*
X54292Y241441D01*
X53838Y241630D01*
X53412Y241875D01*
X53022Y242175D01*
X52675Y242522D01*
M02*
