M48
;GenerationSoftware,Autodesk,EAGLE,9.3.0*%
;CreationDate,2019-02-07T20:25:51Z*%
FMAT,2
ICI,OFF
METRIC,TZ,000.000
T3C0.300
T2C0.750
T1C1.000
%
G90
M71
T1
X1000Y15000
X25000Y25000
X25000Y5000
T2
X14986Y28460
X5550Y24500
T3
X16828Y18098
X19368Y20320
X9586Y7665
X2064Y16828
X14764Y19209
X16351Y3651
X17393Y3772
X3004Y20536
X22384Y20479
X13494Y24606
X18256Y24130
X22225Y15716
X16510Y19368
X18256Y18256
X12224Y13811
X13335Y13335
X16485Y13843
X20117Y20345
X16510Y22987
X18745Y13494
X11379Y9957
X15011Y13818
X1861Y13762
X15443Y24511
X3404Y23012
X5207Y20777
X1575Y19609
X1524Y18644
X19888Y5131
X13691Y8230
X8433Y11709
X12382Y3372
X7899Y22962
X13995Y19914
X22860Y24130
X22860Y26670
X22860Y19050
X22860Y16510
X22860Y13970
X22860Y11430
X22860Y6350
X22860Y3810
X15164Y11913
X10693Y12141
X12370Y10566
X8890Y5436
X9500Y4775
X4445Y20447
X3023Y22428
X8636Y25400
X13995Y22708
X13437Y20980
X6706Y9982
X8077Y6960
X18364Y6147
X4267Y13868
X1524Y17526
X6274Y5029
X15265Y17551
X18000Y28000
X9576Y21946
X15773Y14580
X19964Y12751
X17983Y10871
X11747Y22225
X6985Y6985
X8160Y22181
X12065Y25400
X16669Y26670
X4262Y17765
X3950Y22073
X5790Y23401
X10795Y8096
X11024Y10998
X11430Y7144
X3450Y10620
X19844Y13811
X17780Y14605
X15557Y20638
X21590Y17939
X20479Y14605
X12217Y28448
X13176Y19685
X13335Y23654
X17304Y18574
X18733Y20320
X20003Y6985
M30