G04 EAGLE Gerber RS-274X export*
G75*
%MOMM*%
%FSLAX34Y34*%
%LPD*%
%INBottom Copper*%
%IPPOS*%
%AMOC8*
5,1,8,0,0,1.08239X$1,22.5*%
G01*
%ADD10R,0.740000X0.925000*%
%ADD11R,0.925000X0.740000*%
%ADD12R,0.600000X0.700000*%
%ADD13R,0.700000X0.600000*%
%ADD14C,0.270000*%
%ADD15R,5.600000X5.600000*%
%ADD16R,0.400000X1.350000*%
%ADD17R,2.100000X1.600000*%
%ADD18R,1.800000X1.900000*%
%ADD19R,1.900000X1.900000*%
%ADD20R,1.000000X1.600000*%
%ADD21R,1.600000X1.000000*%
%ADD22C,0.600000*%
%ADD23C,0.152400*%
%ADD24C,0.452400*%
%ADD25C,0.203200*%

G36*
X172571Y7109D02*
X172571Y7109D01*
X172603Y7117D01*
X172689Y7127D01*
X186770Y10508D01*
X186801Y10521D01*
X186835Y10527D01*
X186914Y10568D01*
X186996Y10603D01*
X187022Y10626D01*
X187052Y10642D01*
X187113Y10706D01*
X187181Y10766D01*
X187198Y10795D01*
X187221Y10820D01*
X187259Y10901D01*
X187304Y10979D01*
X187311Y11012D01*
X187325Y11043D01*
X187335Y11132D01*
X187353Y11220D01*
X187348Y11254D01*
X187352Y11287D01*
X187333Y11375D01*
X187322Y11464D01*
X187307Y11494D01*
X187300Y11528D01*
X187254Y11605D01*
X187215Y11685D01*
X187191Y11710D01*
X187174Y11739D01*
X187105Y11797D01*
X187043Y11861D01*
X187013Y11877D01*
X186987Y11899D01*
X186903Y11932D01*
X186824Y11973D01*
X186790Y11978D01*
X186759Y11991D01*
X186592Y12009D01*
X180334Y12009D01*
X179589Y12754D01*
X179589Y32806D01*
X180334Y33551D01*
X199386Y33551D01*
X200131Y32806D01*
X200131Y15800D01*
X200138Y15754D01*
X200136Y15709D01*
X200158Y15634D01*
X200170Y15557D01*
X200192Y15516D01*
X200205Y15472D01*
X200249Y15408D01*
X200286Y15340D01*
X200319Y15308D01*
X200345Y15270D01*
X200408Y15224D01*
X200464Y15170D01*
X200506Y15151D01*
X200542Y15123D01*
X200616Y15099D01*
X200687Y15067D01*
X200733Y15062D01*
X200776Y15047D01*
X200854Y15048D01*
X200931Y15039D01*
X200976Y15049D01*
X201022Y15050D01*
X201154Y15088D01*
X201172Y15092D01*
X201176Y15094D01*
X201183Y15096D01*
X215622Y21077D01*
X215650Y21095D01*
X215729Y21132D01*
X232046Y31131D01*
X232089Y31168D01*
X232139Y31198D01*
X232182Y31248D01*
X232232Y31291D01*
X232261Y31341D01*
X232299Y31385D01*
X232324Y31446D01*
X232357Y31503D01*
X232369Y31559D01*
X232391Y31613D01*
X232402Y31713D01*
X232408Y31744D01*
X232407Y31757D01*
X232409Y31780D01*
X232409Y72468D01*
X232406Y72488D01*
X232408Y72507D01*
X232386Y72609D01*
X232370Y72711D01*
X232360Y72728D01*
X232356Y72748D01*
X232303Y72837D01*
X232254Y72928D01*
X232240Y72942D01*
X232230Y72959D01*
X232151Y73026D01*
X232076Y73098D01*
X232058Y73106D01*
X232043Y73119D01*
X231947Y73158D01*
X231853Y73201D01*
X231833Y73203D01*
X231815Y73211D01*
X231648Y73229D01*
X220534Y73229D01*
X220248Y73515D01*
X220232Y73526D01*
X220220Y73542D01*
X220133Y73598D01*
X220049Y73658D01*
X220030Y73664D01*
X220013Y73675D01*
X219912Y73700D01*
X219814Y73731D01*
X219794Y73730D01*
X219774Y73735D01*
X219671Y73727D01*
X219568Y73724D01*
X219549Y73717D01*
X219529Y73716D01*
X219434Y73675D01*
X219337Y73640D01*
X219321Y73627D01*
X219303Y73619D01*
X219172Y73515D01*
X218886Y73229D01*
X207834Y73229D01*
X207548Y73515D01*
X207532Y73526D01*
X207520Y73542D01*
X207433Y73598D01*
X207349Y73658D01*
X207330Y73664D01*
X207313Y73675D01*
X207212Y73700D01*
X207114Y73731D01*
X207094Y73730D01*
X207074Y73735D01*
X206971Y73727D01*
X206868Y73724D01*
X206849Y73717D01*
X206829Y73716D01*
X206734Y73675D01*
X206637Y73640D01*
X206621Y73627D01*
X206603Y73619D01*
X206472Y73515D01*
X206186Y73229D01*
X203480Y73229D01*
X203409Y73218D01*
X203337Y73216D01*
X203288Y73198D01*
X203237Y73190D01*
X203173Y73156D01*
X203106Y73131D01*
X203065Y73099D01*
X203019Y73074D01*
X202970Y73022D01*
X202914Y72978D01*
X202886Y72934D01*
X202850Y72896D01*
X202820Y72831D01*
X202781Y72771D01*
X202768Y72720D01*
X202746Y72673D01*
X202739Y72602D01*
X202721Y72532D01*
X202725Y72480D01*
X202719Y72429D01*
X202735Y72358D01*
X202740Y72287D01*
X202761Y72239D01*
X202772Y72188D01*
X202808Y72127D01*
X202836Y72061D01*
X202881Y72005D01*
X202898Y71977D01*
X202916Y71962D01*
X202941Y71930D01*
X203558Y71313D01*
X203558Y68387D01*
X201488Y66317D01*
X198562Y66317D01*
X197285Y67594D01*
X197211Y67647D01*
X197141Y67707D01*
X197111Y67719D01*
X197085Y67738D01*
X196998Y67765D01*
X196913Y67799D01*
X196872Y67803D01*
X196850Y67810D01*
X196818Y67809D01*
X196746Y67817D01*
X114993Y67817D01*
X114981Y67825D01*
X114894Y67852D01*
X114809Y67886D01*
X114769Y67891D01*
X114746Y67898D01*
X114714Y67897D01*
X114643Y67905D01*
X112837Y67905D01*
X110767Y69974D01*
X110767Y72901D01*
X112837Y74970D01*
X115763Y74970D01*
X117833Y72901D01*
X117833Y72644D01*
X117836Y72624D01*
X117834Y72605D01*
X117856Y72503D01*
X117872Y72401D01*
X117882Y72384D01*
X117886Y72364D01*
X117939Y72275D01*
X117988Y72184D01*
X118002Y72170D01*
X118012Y72153D01*
X118091Y72086D01*
X118166Y72014D01*
X118184Y72006D01*
X118199Y71993D01*
X118295Y71954D01*
X118389Y71911D01*
X118409Y71909D01*
X118427Y71901D01*
X118594Y71883D01*
X169242Y71883D01*
X169313Y71894D01*
X169385Y71896D01*
X169434Y71914D01*
X169485Y71922D01*
X169548Y71956D01*
X169616Y71981D01*
X169656Y72013D01*
X169703Y72038D01*
X169752Y72090D01*
X169808Y72134D01*
X169836Y72178D01*
X169872Y72216D01*
X169902Y72281D01*
X169941Y72341D01*
X169954Y72392D01*
X169976Y72439D01*
X169983Y72510D01*
X170001Y72580D01*
X169997Y72632D01*
X170003Y72683D01*
X169987Y72754D01*
X169982Y72825D01*
X169961Y72873D01*
X169950Y72924D01*
X169914Y72985D01*
X169885Y73051D01*
X169841Y73107D01*
X169824Y73135D01*
X169806Y73150D01*
X169781Y73182D01*
X168989Y73974D01*
X168989Y84996D01*
X168975Y85086D01*
X168967Y85177D01*
X168955Y85206D01*
X168950Y85238D01*
X168907Y85319D01*
X168871Y85403D01*
X168845Y85435D01*
X168834Y85456D01*
X168811Y85478D01*
X168766Y85534D01*
X166068Y88232D01*
X165995Y88285D01*
X165925Y88344D01*
X165895Y88357D01*
X165869Y88375D01*
X165782Y88402D01*
X165697Y88436D01*
X165656Y88441D01*
X165634Y88448D01*
X165601Y88447D01*
X165530Y88455D01*
X154322Y88455D01*
X154302Y88452D01*
X154283Y88454D01*
X154181Y88432D01*
X154079Y88415D01*
X154062Y88406D01*
X154042Y88401D01*
X153953Y88348D01*
X153862Y88300D01*
X153848Y88286D01*
X153831Y88275D01*
X153764Y88197D01*
X153692Y88122D01*
X153684Y88104D01*
X153671Y88088D01*
X153632Y87992D01*
X153589Y87899D01*
X153587Y87879D01*
X153579Y87860D01*
X153561Y87694D01*
X153561Y85369D01*
X152816Y84624D01*
X144364Y84624D01*
X143619Y85369D01*
X143619Y87694D01*
X143616Y87713D01*
X143618Y87733D01*
X143596Y87834D01*
X143580Y87936D01*
X143570Y87954D01*
X143566Y87973D01*
X143513Y88062D01*
X143464Y88154D01*
X143450Y88167D01*
X143440Y88184D01*
X143361Y88252D01*
X143286Y88323D01*
X143268Y88331D01*
X143253Y88344D01*
X143157Y88383D01*
X143063Y88427D01*
X143043Y88429D01*
X143025Y88436D01*
X142858Y88455D01*
X140352Y88455D01*
X140332Y88452D01*
X140313Y88454D01*
X140211Y88432D01*
X140109Y88415D01*
X140092Y88406D01*
X140072Y88401D01*
X139983Y88348D01*
X139892Y88300D01*
X139878Y88286D01*
X139861Y88275D01*
X139794Y88197D01*
X139722Y88122D01*
X139714Y88104D01*
X139701Y88088D01*
X139662Y87992D01*
X139619Y87899D01*
X139617Y87879D01*
X139609Y87860D01*
X139591Y87694D01*
X139591Y85294D01*
X139590Y85293D01*
X139565Y85193D01*
X139534Y85094D01*
X139535Y85074D01*
X139530Y85054D01*
X139538Y84951D01*
X139541Y84848D01*
X139548Y84829D01*
X139549Y84809D01*
X139590Y84714D01*
X139625Y84617D01*
X139638Y84601D01*
X139646Y84583D01*
X139750Y84452D01*
X140439Y83763D01*
X140439Y80837D01*
X138369Y78767D01*
X135443Y78767D01*
X133373Y80837D01*
X133373Y83863D01*
X133370Y83883D01*
X133372Y83902D01*
X133350Y84004D01*
X133334Y84106D01*
X133324Y84123D01*
X133320Y84143D01*
X133267Y84232D01*
X133218Y84323D01*
X133204Y84337D01*
X133194Y84354D01*
X133115Y84421D01*
X133040Y84493D01*
X133022Y84501D01*
X133007Y84514D01*
X132911Y84553D01*
X132817Y84596D01*
X132797Y84598D01*
X132779Y84606D01*
X132612Y84624D01*
X130394Y84624D01*
X129649Y85369D01*
X129649Y87694D01*
X129646Y87713D01*
X129648Y87733D01*
X129626Y87834D01*
X129610Y87936D01*
X129600Y87954D01*
X129596Y87973D01*
X129543Y88062D01*
X129494Y88154D01*
X129480Y88167D01*
X129470Y88184D01*
X129391Y88252D01*
X129316Y88323D01*
X129298Y88331D01*
X129283Y88344D01*
X129187Y88383D01*
X129093Y88427D01*
X129073Y88429D01*
X129055Y88436D01*
X128888Y88455D01*
X128142Y88455D01*
X128122Y88452D01*
X128103Y88454D01*
X128001Y88432D01*
X127899Y88415D01*
X127882Y88406D01*
X127862Y88401D01*
X127773Y88348D01*
X127682Y88300D01*
X127668Y88286D01*
X127651Y88275D01*
X127584Y88197D01*
X127512Y88122D01*
X127504Y88104D01*
X127491Y88088D01*
X127452Y87992D01*
X127409Y87899D01*
X127407Y87879D01*
X127399Y87860D01*
X127381Y87694D01*
X127381Y86144D01*
X126636Y85399D01*
X119584Y85399D01*
X118648Y86335D01*
X118632Y86346D01*
X118620Y86362D01*
X118532Y86418D01*
X118449Y86478D01*
X118430Y86484D01*
X118413Y86495D01*
X118312Y86520D01*
X118213Y86551D01*
X118194Y86550D01*
X118174Y86555D01*
X118071Y86547D01*
X117968Y86544D01*
X117949Y86537D01*
X117929Y86536D01*
X117834Y86495D01*
X117737Y86460D01*
X117721Y86447D01*
X117703Y86439D01*
X117572Y86335D01*
X116636Y85399D01*
X110744Y85399D01*
X110724Y85396D01*
X110705Y85398D01*
X110603Y85376D01*
X110501Y85360D01*
X110484Y85350D01*
X110464Y85346D01*
X110375Y85293D01*
X110284Y85244D01*
X110270Y85230D01*
X110253Y85220D01*
X110186Y85141D01*
X110114Y85066D01*
X110106Y85048D01*
X110093Y85033D01*
X110054Y84937D01*
X110011Y84843D01*
X110009Y84823D01*
X110001Y84805D01*
X109983Y84638D01*
X109983Y84241D01*
X109997Y84151D01*
X110005Y84060D01*
X110017Y84030D01*
X110022Y83998D01*
X110065Y83918D01*
X110101Y83834D01*
X110127Y83802D01*
X110138Y83781D01*
X110161Y83759D01*
X110206Y83703D01*
X111483Y82426D01*
X111483Y79499D01*
X109413Y77430D01*
X106487Y77430D01*
X104417Y79499D01*
X104417Y82426D01*
X105694Y83703D01*
X105747Y83777D01*
X105807Y83846D01*
X105819Y83876D01*
X105838Y83903D01*
X105865Y83990D01*
X105899Y84074D01*
X105903Y84115D01*
X105910Y84138D01*
X105909Y84170D01*
X105917Y84241D01*
X105917Y108538D01*
X106480Y109101D01*
X106524Y109162D01*
X106558Y109198D01*
X106564Y109211D01*
X106593Y109244D01*
X106605Y109275D01*
X106624Y109301D01*
X106651Y109388D01*
X106685Y109473D01*
X106689Y109514D01*
X106696Y109536D01*
X106695Y109568D01*
X106703Y109639D01*
X106703Y111445D01*
X108773Y113515D01*
X111699Y113515D01*
X113769Y111445D01*
X113769Y108519D01*
X111699Y106449D01*
X110744Y106449D01*
X110724Y106446D01*
X110705Y106448D01*
X110603Y106426D01*
X110501Y106410D01*
X110484Y106400D01*
X110464Y106396D01*
X110375Y106343D01*
X110284Y106294D01*
X110270Y106280D01*
X110253Y106270D01*
X110186Y106191D01*
X110114Y106116D01*
X110106Y106098D01*
X110093Y106083D01*
X110054Y105987D01*
X110011Y105893D01*
X110009Y105873D01*
X110001Y105855D01*
X109983Y105688D01*
X109983Y102593D01*
X109994Y102522D01*
X109996Y102450D01*
X110014Y102401D01*
X110022Y102350D01*
X110056Y102286D01*
X110081Y102219D01*
X110113Y102178D01*
X110138Y102132D01*
X110190Y102083D01*
X110234Y102027D01*
X110278Y101999D01*
X110316Y101963D01*
X110381Y101933D01*
X110441Y101894D01*
X110492Y101881D01*
X110539Y101859D01*
X110610Y101852D01*
X110680Y101834D01*
X110732Y101838D01*
X110783Y101832D01*
X110854Y101848D01*
X110925Y101853D01*
X110973Y101874D01*
X111024Y101885D01*
X111085Y101921D01*
X111151Y101949D01*
X111207Y101994D01*
X111235Y102011D01*
X111250Y102029D01*
X111282Y102054D01*
X112329Y103101D01*
X115255Y103101D01*
X117325Y101031D01*
X117325Y98105D01*
X115667Y96447D01*
X115623Y96385D01*
X115591Y96352D01*
X115585Y96339D01*
X115554Y96303D01*
X115542Y96273D01*
X115523Y96247D01*
X115496Y96160D01*
X115462Y96075D01*
X115458Y96034D01*
X115451Y96012D01*
X115452Y95980D01*
X115444Y95908D01*
X115444Y95702D01*
X115447Y95682D01*
X115445Y95663D01*
X115467Y95561D01*
X115483Y95459D01*
X115493Y95442D01*
X115497Y95422D01*
X115550Y95333D01*
X115599Y95242D01*
X115613Y95228D01*
X115623Y95211D01*
X115702Y95144D01*
X115777Y95072D01*
X115795Y95064D01*
X115810Y95051D01*
X115906Y95012D01*
X116000Y94969D01*
X116020Y94967D01*
X116038Y94959D01*
X116205Y94941D01*
X116636Y94941D01*
X117572Y94005D01*
X117588Y93994D01*
X117600Y93978D01*
X117688Y93922D01*
X117771Y93862D01*
X117790Y93856D01*
X117807Y93845D01*
X117908Y93820D01*
X118007Y93789D01*
X118026Y93790D01*
X118046Y93785D01*
X118149Y93793D01*
X118252Y93796D01*
X118271Y93803D01*
X118291Y93804D01*
X118386Y93845D01*
X118483Y93880D01*
X118499Y93893D01*
X118517Y93901D01*
X118648Y94005D01*
X119584Y94941D01*
X126636Y94941D01*
X127381Y94196D01*
X127381Y93281D01*
X127384Y93262D01*
X127382Y93242D01*
X127404Y93141D01*
X127420Y93039D01*
X127430Y93021D01*
X127434Y93002D01*
X127487Y92913D01*
X127536Y92821D01*
X127550Y92808D01*
X127560Y92791D01*
X127639Y92723D01*
X127714Y92652D01*
X127732Y92644D01*
X127747Y92631D01*
X127843Y92592D01*
X127937Y92548D01*
X127957Y92546D01*
X127975Y92539D01*
X128142Y92520D01*
X128888Y92520D01*
X128908Y92523D01*
X128927Y92521D01*
X129029Y92543D01*
X129131Y92560D01*
X129148Y92569D01*
X129168Y92574D01*
X129257Y92627D01*
X129348Y92675D01*
X129362Y92689D01*
X129379Y92700D01*
X129446Y92778D01*
X129518Y92853D01*
X129526Y92871D01*
X129539Y92887D01*
X129578Y92983D01*
X129621Y93076D01*
X129623Y93096D01*
X129631Y93115D01*
X129649Y93281D01*
X129649Y95671D01*
X129780Y95802D01*
X129792Y95818D01*
X129807Y95831D01*
X129863Y95918D01*
X129924Y96002D01*
X129929Y96021D01*
X129940Y96038D01*
X129966Y96138D01*
X129996Y96237D01*
X129995Y96257D01*
X130000Y96276D01*
X129992Y96379D01*
X129990Y96483D01*
X129983Y96502D01*
X129981Y96521D01*
X129941Y96616D01*
X129905Y96714D01*
X129893Y96729D01*
X129885Y96748D01*
X129780Y96879D01*
X129627Y97031D01*
X129395Y97592D01*
X129395Y100997D01*
X133858Y100997D01*
X133878Y101000D01*
X133897Y100998D01*
X133999Y101020D01*
X134101Y101037D01*
X134118Y101046D01*
X134138Y101050D01*
X134227Y101103D01*
X134318Y101152D01*
X134332Y101166D01*
X134349Y101176D01*
X134416Y101255D01*
X134487Y101330D01*
X134496Y101348D01*
X134509Y101363D01*
X134548Y101459D01*
X134591Y101553D01*
X134593Y101573D01*
X134601Y101591D01*
X134619Y101758D01*
X134619Y102521D01*
X134621Y102521D01*
X134621Y101758D01*
X134624Y101738D01*
X134622Y101719D01*
X134644Y101617D01*
X134661Y101515D01*
X134670Y101498D01*
X134674Y101478D01*
X134727Y101389D01*
X134776Y101298D01*
X134790Y101284D01*
X134800Y101267D01*
X134879Y101200D01*
X134954Y101129D01*
X134972Y101120D01*
X134987Y101107D01*
X135083Y101068D01*
X135177Y101025D01*
X135197Y101023D01*
X135215Y101015D01*
X135382Y100997D01*
X139845Y100997D01*
X139845Y97592D01*
X139613Y97031D01*
X139460Y96879D01*
X139448Y96863D01*
X139433Y96850D01*
X139377Y96763D01*
X139316Y96679D01*
X139311Y96660D01*
X139300Y96643D01*
X139274Y96543D01*
X139244Y96444D01*
X139245Y96424D01*
X139240Y96405D01*
X139248Y96302D01*
X139250Y96198D01*
X139257Y96179D01*
X139259Y96159D01*
X139299Y96065D01*
X139335Y95967D01*
X139347Y95951D01*
X139355Y95933D01*
X139460Y95802D01*
X139591Y95671D01*
X139591Y93281D01*
X139594Y93262D01*
X139592Y93242D01*
X139614Y93141D01*
X139630Y93039D01*
X139640Y93021D01*
X139644Y93002D01*
X139697Y92913D01*
X139746Y92821D01*
X139760Y92808D01*
X139770Y92791D01*
X139849Y92723D01*
X139924Y92652D01*
X139942Y92644D01*
X139957Y92631D01*
X140053Y92592D01*
X140147Y92548D01*
X140167Y92546D01*
X140185Y92539D01*
X140352Y92520D01*
X142858Y92520D01*
X142878Y92523D01*
X142897Y92521D01*
X142999Y92543D01*
X143101Y92560D01*
X143118Y92569D01*
X143138Y92574D01*
X143227Y92627D01*
X143318Y92675D01*
X143332Y92689D01*
X143349Y92700D01*
X143416Y92778D01*
X143488Y92853D01*
X143496Y92871D01*
X143509Y92887D01*
X143548Y92983D01*
X143591Y93076D01*
X143593Y93096D01*
X143601Y93115D01*
X143619Y93281D01*
X143619Y95671D01*
X143750Y95802D01*
X143762Y95818D01*
X143777Y95831D01*
X143833Y95918D01*
X143894Y96002D01*
X143899Y96021D01*
X143910Y96038D01*
X143935Y96138D01*
X143966Y96237D01*
X143965Y96257D01*
X143970Y96276D01*
X143962Y96379D01*
X143960Y96483D01*
X143953Y96502D01*
X143951Y96521D01*
X143911Y96616D01*
X143875Y96714D01*
X143863Y96729D01*
X143855Y96748D01*
X143750Y96879D01*
X143597Y97031D01*
X143365Y97592D01*
X143365Y100997D01*
X147828Y100997D01*
X147848Y101000D01*
X147867Y100998D01*
X147969Y101020D01*
X148071Y101037D01*
X148088Y101046D01*
X148108Y101050D01*
X148197Y101103D01*
X148288Y101152D01*
X148302Y101166D01*
X148319Y101176D01*
X148386Y101255D01*
X148457Y101330D01*
X148466Y101348D01*
X148479Y101363D01*
X148518Y101459D01*
X148561Y101553D01*
X148563Y101573D01*
X148571Y101591D01*
X148589Y101758D01*
X148589Y102521D01*
X148591Y102521D01*
X148591Y101758D01*
X148594Y101738D01*
X148592Y101719D01*
X148614Y101617D01*
X148631Y101515D01*
X148640Y101498D01*
X148644Y101478D01*
X148697Y101389D01*
X148746Y101298D01*
X148760Y101284D01*
X148770Y101267D01*
X148849Y101200D01*
X148924Y101129D01*
X148942Y101120D01*
X148957Y101107D01*
X149053Y101068D01*
X149147Y101025D01*
X149167Y101023D01*
X149185Y101015D01*
X149352Y100997D01*
X153815Y100997D01*
X153815Y97592D01*
X153583Y97031D01*
X153430Y96879D01*
X153418Y96863D01*
X153403Y96850D01*
X153347Y96763D01*
X153286Y96679D01*
X153281Y96660D01*
X153270Y96643D01*
X153245Y96543D01*
X153214Y96444D01*
X153215Y96424D01*
X153210Y96405D01*
X153218Y96302D01*
X153220Y96198D01*
X153227Y96179D01*
X153229Y96159D01*
X153269Y96064D01*
X153305Y95967D01*
X153317Y95951D01*
X153325Y95933D01*
X153430Y95802D01*
X153561Y95671D01*
X153561Y93281D01*
X153564Y93262D01*
X153562Y93242D01*
X153584Y93141D01*
X153600Y93039D01*
X153610Y93021D01*
X153614Y93002D01*
X153667Y92913D01*
X153716Y92821D01*
X153730Y92808D01*
X153740Y92791D01*
X153819Y92723D01*
X153894Y92652D01*
X153912Y92644D01*
X153927Y92631D01*
X154023Y92592D01*
X154117Y92548D01*
X154137Y92546D01*
X154155Y92539D01*
X154322Y92520D01*
X167530Y92520D01*
X168468Y91582D01*
X168484Y91570D01*
X168497Y91554D01*
X168584Y91498D01*
X168668Y91438D01*
X168687Y91432D01*
X168704Y91421D01*
X168804Y91396D01*
X168903Y91366D01*
X168923Y91366D01*
X168942Y91361D01*
X169045Y91369D01*
X169149Y91372D01*
X169167Y91379D01*
X169187Y91381D01*
X169282Y91421D01*
X169380Y91457D01*
X169395Y91469D01*
X169414Y91477D01*
X169545Y91582D01*
X169734Y91771D01*
X180786Y91771D01*
X181072Y91485D01*
X181088Y91474D01*
X181100Y91458D01*
X181187Y91402D01*
X181271Y91342D01*
X181290Y91336D01*
X181307Y91325D01*
X181408Y91300D01*
X181507Y91269D01*
X181527Y91270D01*
X181546Y91265D01*
X181649Y91273D01*
X181752Y91276D01*
X181771Y91283D01*
X181791Y91284D01*
X181886Y91325D01*
X181983Y91360D01*
X181999Y91373D01*
X182017Y91381D01*
X182148Y91485D01*
X182434Y91771D01*
X190181Y91771D01*
X190271Y91785D01*
X190362Y91793D01*
X190391Y91805D01*
X190423Y91810D01*
X190504Y91853D01*
X190588Y91889D01*
X190620Y91915D01*
X190641Y91926D01*
X190663Y91949D01*
X190719Y91994D01*
X194420Y95695D01*
X201994Y95695D01*
X202013Y95698D01*
X202033Y95696D01*
X202134Y95718D01*
X202236Y95735D01*
X202254Y95744D01*
X202273Y95749D01*
X202362Y95802D01*
X202454Y95850D01*
X202467Y95864D01*
X202484Y95875D01*
X202552Y95953D01*
X202623Y96028D01*
X202631Y96046D01*
X202644Y96062D01*
X202683Y96158D01*
X202727Y96251D01*
X202729Y96271D01*
X202736Y96290D01*
X202755Y96456D01*
X202755Y135596D01*
X202743Y135667D01*
X202741Y135738D01*
X202723Y135787D01*
X202715Y135839D01*
X202681Y135902D01*
X202657Y135969D01*
X202624Y136010D01*
X202600Y136056D01*
X202548Y136105D01*
X202503Y136161D01*
X202459Y136190D01*
X202422Y136225D01*
X202357Y136256D01*
X202296Y136294D01*
X202246Y136307D01*
X202199Y136329D01*
X202127Y136337D01*
X202058Y136354D01*
X202006Y136350D01*
X201954Y136356D01*
X201884Y136341D01*
X201813Y136335D01*
X201765Y136315D01*
X201714Y136304D01*
X201652Y136267D01*
X201586Y136239D01*
X201530Y136194D01*
X201503Y136178D01*
X201487Y136160D01*
X201455Y136134D01*
X199901Y134580D01*
X196974Y134580D01*
X194905Y136649D01*
X194905Y138455D01*
X194890Y138545D01*
X194883Y138636D01*
X194870Y138666D01*
X194865Y138698D01*
X194822Y138779D01*
X194787Y138863D01*
X194761Y138895D01*
X194750Y138915D01*
X194727Y138938D01*
X194682Y138993D01*
X189881Y143794D01*
X189807Y143847D01*
X189738Y143907D01*
X189707Y143919D01*
X189681Y143938D01*
X189594Y143965D01*
X189509Y143999D01*
X189468Y144003D01*
X189446Y144010D01*
X189414Y144009D01*
X189343Y144017D01*
X181079Y144017D01*
X180989Y144003D01*
X180898Y143995D01*
X180868Y143983D01*
X180836Y143978D01*
X180755Y143935D01*
X180671Y143899D01*
X180639Y143873D01*
X180619Y143862D01*
X180596Y143839D01*
X180540Y143794D01*
X179263Y142517D01*
X176337Y142517D01*
X174267Y144587D01*
X174267Y147513D01*
X176337Y149583D01*
X179263Y149583D01*
X180540Y148306D01*
X180614Y148253D01*
X180684Y148193D01*
X180714Y148181D01*
X180740Y148162D01*
X180827Y148135D01*
X180912Y148101D01*
X180953Y148097D01*
X180975Y148090D01*
X181007Y148091D01*
X181079Y148083D01*
X191342Y148083D01*
X192756Y146669D01*
X197557Y141868D01*
X197631Y141815D01*
X197700Y141756D01*
X197730Y141744D01*
X197756Y141725D01*
X197843Y141698D01*
X197928Y141664D01*
X197969Y141659D01*
X197991Y141652D01*
X198024Y141653D01*
X198095Y141645D01*
X199901Y141645D01*
X201455Y140091D01*
X201513Y140049D01*
X201565Y140000D01*
X201613Y139978D01*
X201655Y139947D01*
X201723Y139926D01*
X201789Y139896D01*
X201840Y139890D01*
X201890Y139875D01*
X201962Y139877D01*
X202033Y139869D01*
X202084Y139880D01*
X202136Y139881D01*
X202203Y139906D01*
X202273Y139921D01*
X202318Y139948D01*
X202367Y139966D01*
X202423Y140011D01*
X202484Y140047D01*
X202518Y140087D01*
X202559Y140119D01*
X202598Y140180D01*
X202644Y140234D01*
X202664Y140283D01*
X202692Y140326D01*
X202709Y140396D01*
X202736Y140462D01*
X202744Y140534D01*
X202752Y140565D01*
X202750Y140588D01*
X202755Y140629D01*
X202755Y142771D01*
X202740Y142861D01*
X202733Y142952D01*
X202720Y142982D01*
X202715Y143014D01*
X202672Y143095D01*
X202637Y143179D01*
X202611Y143211D01*
X202600Y143231D01*
X202577Y143254D01*
X202532Y143310D01*
X201255Y144587D01*
X201255Y147513D01*
X203324Y149583D01*
X206251Y149583D01*
X208320Y147513D01*
X208320Y144587D01*
X207043Y143310D01*
X206990Y143236D01*
X206931Y143166D01*
X206918Y143136D01*
X206900Y143110D01*
X206873Y143023D01*
X206839Y142938D01*
X206834Y142897D01*
X206827Y142875D01*
X206828Y142843D01*
X206820Y142771D01*
X206820Y92532D01*
X206823Y92512D01*
X206821Y92493D01*
X206843Y92391D01*
X206860Y92289D01*
X206869Y92272D01*
X206874Y92252D01*
X206927Y92163D01*
X206975Y92072D01*
X206989Y92058D01*
X207000Y92041D01*
X207078Y91974D01*
X207153Y91902D01*
X207171Y91894D01*
X207187Y91881D01*
X207283Y91842D01*
X207376Y91799D01*
X207396Y91797D01*
X207415Y91789D01*
X207581Y91771D01*
X218886Y91771D01*
X219172Y91485D01*
X219188Y91474D01*
X219200Y91458D01*
X219287Y91402D01*
X219371Y91342D01*
X219390Y91336D01*
X219407Y91325D01*
X219508Y91300D01*
X219607Y91269D01*
X219627Y91270D01*
X219646Y91265D01*
X219749Y91273D01*
X219852Y91276D01*
X219871Y91283D01*
X219891Y91284D01*
X219986Y91325D01*
X220083Y91360D01*
X220099Y91373D01*
X220117Y91381D01*
X220248Y91485D01*
X220534Y91771D01*
X231648Y91771D01*
X231668Y91774D01*
X231687Y91772D01*
X231789Y91794D01*
X231891Y91810D01*
X231908Y91820D01*
X231928Y91824D01*
X232017Y91877D01*
X232108Y91926D01*
X232122Y91940D01*
X232139Y91950D01*
X232206Y92029D01*
X232278Y92104D01*
X232286Y92122D01*
X232299Y92137D01*
X232338Y92233D01*
X232381Y92327D01*
X232383Y92347D01*
X232391Y92365D01*
X232409Y92532D01*
X232409Y207468D01*
X232406Y207488D01*
X232408Y207507D01*
X232386Y207609D01*
X232370Y207711D01*
X232360Y207728D01*
X232356Y207748D01*
X232303Y207837D01*
X232254Y207928D01*
X232240Y207942D01*
X232230Y207959D01*
X232151Y208026D01*
X232076Y208098D01*
X232058Y208106D01*
X232043Y208119D01*
X231947Y208158D01*
X231853Y208201D01*
X231833Y208203D01*
X231815Y208211D01*
X231648Y208229D01*
X227230Y208229D01*
X227159Y208218D01*
X227087Y208216D01*
X227038Y208198D01*
X226987Y208190D01*
X226923Y208156D01*
X226856Y208131D01*
X226815Y208099D01*
X226769Y208074D01*
X226720Y208022D01*
X226664Y207978D01*
X226636Y207934D01*
X226600Y207896D01*
X226570Y207831D01*
X226531Y207771D01*
X226518Y207720D01*
X226496Y207673D01*
X226489Y207602D01*
X226471Y207532D01*
X226475Y207480D01*
X226469Y207429D01*
X226485Y207358D01*
X226490Y207287D01*
X226511Y207239D01*
X226522Y207188D01*
X226558Y207127D01*
X226586Y207061D01*
X226631Y207005D01*
X226648Y206977D01*
X226666Y206962D01*
X226691Y206930D01*
X227370Y206251D01*
X227370Y203324D01*
X226093Y202047D01*
X226040Y201973D01*
X225981Y201904D01*
X225968Y201874D01*
X225950Y201847D01*
X225923Y201760D01*
X225889Y201676D01*
X225884Y201635D01*
X225877Y201612D01*
X225878Y201580D01*
X225870Y201509D01*
X225870Y161083D01*
X225136Y160349D01*
X225125Y160333D01*
X225109Y160320D01*
X225053Y160233D01*
X224993Y160149D01*
X224987Y160130D01*
X224976Y160113D01*
X224951Y160013D01*
X224920Y159914D01*
X224921Y159894D01*
X224916Y159875D01*
X224924Y159772D01*
X224927Y159668D01*
X224934Y159649D01*
X224935Y159630D01*
X224975Y159535D01*
X225011Y159437D01*
X225024Y159422D01*
X225031Y159403D01*
X225136Y159272D01*
X225783Y158626D01*
X225783Y155699D01*
X223713Y153630D01*
X220787Y153630D01*
X219510Y154907D01*
X219436Y154960D01*
X219366Y155019D01*
X219336Y155032D01*
X219310Y155050D01*
X219223Y155077D01*
X219138Y155111D01*
X219097Y155116D01*
X219075Y155123D01*
X219043Y155122D01*
X218971Y155130D01*
X146399Y155130D01*
X146329Y155118D01*
X146257Y155116D01*
X146208Y155098D01*
X146157Y155090D01*
X146093Y155057D01*
X146026Y155032D01*
X145985Y154999D01*
X145939Y154975D01*
X145890Y154923D01*
X145834Y154878D01*
X145806Y154834D01*
X145770Y154797D01*
X145740Y154731D01*
X145701Y154671D01*
X145688Y154621D01*
X145666Y154574D01*
X145658Y154502D01*
X145641Y154433D01*
X145645Y154381D01*
X145639Y154329D01*
X145654Y154259D01*
X145660Y154187D01*
X145680Y154140D01*
X145691Y154089D01*
X145728Y154027D01*
X145756Y153961D01*
X145801Y153905D01*
X145818Y153878D01*
X145835Y153862D01*
X145861Y153830D01*
X145963Y153729D01*
X146195Y153168D01*
X146195Y149763D01*
X141732Y149763D01*
X141712Y149760D01*
X141693Y149762D01*
X141591Y149740D01*
X141489Y149723D01*
X141472Y149714D01*
X141452Y149710D01*
X141363Y149657D01*
X141272Y149608D01*
X141258Y149594D01*
X141241Y149584D01*
X141174Y149505D01*
X141103Y149430D01*
X141094Y149412D01*
X141081Y149397D01*
X141042Y149301D01*
X140999Y149207D01*
X140997Y149187D01*
X140989Y149169D01*
X140971Y149002D01*
X140971Y147478D01*
X140974Y147458D01*
X140972Y147439D01*
X140994Y147337D01*
X141011Y147235D01*
X141020Y147218D01*
X141024Y147198D01*
X141077Y147109D01*
X141126Y147018D01*
X141140Y147004D01*
X141150Y146987D01*
X141229Y146920D01*
X141304Y146849D01*
X141322Y146840D01*
X141337Y146827D01*
X141433Y146788D01*
X141527Y146745D01*
X141547Y146743D01*
X141565Y146735D01*
X141732Y146717D01*
X146195Y146717D01*
X146195Y143312D01*
X145963Y142751D01*
X145810Y142599D01*
X145798Y142583D01*
X145783Y142570D01*
X145727Y142483D01*
X145666Y142399D01*
X145661Y142380D01*
X145650Y142363D01*
X145625Y142263D01*
X145594Y142164D01*
X145595Y142144D01*
X145590Y142125D01*
X145598Y142022D01*
X145600Y141918D01*
X145607Y141899D01*
X145609Y141879D01*
X145649Y141784D01*
X145685Y141687D01*
X145697Y141671D01*
X145705Y141653D01*
X145810Y141522D01*
X145941Y141391D01*
X145941Y140837D01*
X145944Y140817D01*
X145942Y140798D01*
X145953Y140747D01*
X145954Y140694D01*
X145972Y140645D01*
X145980Y140594D01*
X145990Y140576D01*
X145994Y140557D01*
X146020Y140514D01*
X146039Y140463D01*
X146071Y140422D01*
X146096Y140376D01*
X146111Y140362D01*
X146120Y140346D01*
X146158Y140314D01*
X146192Y140271D01*
X146236Y140243D01*
X146274Y140207D01*
X146294Y140198D01*
X146307Y140186D01*
X146353Y140168D01*
X146399Y140138D01*
X146450Y140125D01*
X146497Y140103D01*
X146519Y140101D01*
X146535Y140094D01*
X146602Y140087D01*
X146638Y140078D01*
X146664Y140080D01*
X146702Y140076D01*
X146703Y140076D01*
X146720Y140079D01*
X146741Y140076D01*
X146812Y140092D01*
X146883Y140097D01*
X146915Y140111D01*
X146945Y140116D01*
X146961Y140124D01*
X146982Y140129D01*
X147043Y140165D01*
X147109Y140193D01*
X147143Y140220D01*
X147163Y140231D01*
X147176Y140245D01*
X147193Y140255D01*
X147208Y140273D01*
X147240Y140298D01*
X148651Y141709D01*
X151577Y141709D01*
X153647Y139639D01*
X153647Y136713D01*
X151577Y134643D01*
X150067Y134643D01*
X149977Y134629D01*
X149886Y134621D01*
X149856Y134609D01*
X149824Y134604D01*
X149744Y134561D01*
X149660Y134525D01*
X149628Y134499D01*
X149607Y134488D01*
X149585Y134465D01*
X149529Y134420D01*
X149029Y133921D01*
X146702Y133921D01*
X146682Y133918D01*
X146663Y133920D01*
X146561Y133898D01*
X146459Y133881D01*
X146442Y133872D01*
X146422Y133867D01*
X146333Y133814D01*
X146242Y133766D01*
X146228Y133752D01*
X146211Y133741D01*
X146144Y133663D01*
X146072Y133588D01*
X146064Y133570D01*
X146051Y133554D01*
X146012Y133458D01*
X145969Y133365D01*
X145967Y133345D01*
X145959Y133326D01*
X145941Y133160D01*
X145941Y131850D01*
X145944Y131830D01*
X145942Y131811D01*
X145964Y131709D01*
X145980Y131607D01*
X145990Y131590D01*
X145994Y131570D01*
X146047Y131481D01*
X146096Y131390D01*
X146110Y131376D01*
X146120Y131359D01*
X146199Y131292D01*
X146274Y131220D01*
X146292Y131212D01*
X146307Y131199D01*
X146403Y131160D01*
X146497Y131117D01*
X146517Y131115D01*
X146535Y131107D01*
X146702Y131089D01*
X150834Y131089D01*
X150924Y131103D01*
X151015Y131111D01*
X151044Y131123D01*
X151076Y131128D01*
X151157Y131171D01*
X151241Y131207D01*
X151273Y131233D01*
X151294Y131244D01*
X151316Y131267D01*
X151372Y131312D01*
X154419Y134359D01*
X157593Y134359D01*
X157683Y134373D01*
X157774Y134381D01*
X157803Y134393D01*
X157835Y134398D01*
X157916Y134441D01*
X158000Y134477D01*
X158032Y134503D01*
X158053Y134514D01*
X158075Y134537D01*
X158131Y134582D01*
X161090Y137541D01*
X161143Y137615D01*
X161203Y137684D01*
X161215Y137715D01*
X161234Y137741D01*
X161261Y137828D01*
X161295Y137913D01*
X161299Y137954D01*
X161306Y137976D01*
X161305Y138008D01*
X161313Y138079D01*
X161313Y139893D01*
X163383Y141963D01*
X166309Y141963D01*
X168379Y139893D01*
X168379Y136967D01*
X166309Y134897D01*
X164511Y134897D01*
X164421Y134883D01*
X164330Y134875D01*
X164301Y134863D01*
X164269Y134858D01*
X164188Y134815D01*
X164104Y134779D01*
X164072Y134753D01*
X164051Y134742D01*
X164029Y134719D01*
X163973Y134674D01*
X162163Y132864D01*
X162121Y132806D01*
X162072Y132754D01*
X162050Y132707D01*
X162019Y132665D01*
X161998Y132596D01*
X161968Y132531D01*
X161962Y132479D01*
X161947Y132429D01*
X161949Y132358D01*
X161941Y132287D01*
X161952Y132236D01*
X161953Y132184D01*
X161978Y132116D01*
X161993Y132046D01*
X162020Y132001D01*
X162038Y131953D01*
X162083Y131897D01*
X162119Y131835D01*
X162159Y131801D01*
X162192Y131761D01*
X162252Y131722D01*
X162306Y131675D01*
X162355Y131656D01*
X162399Y131628D01*
X162468Y131610D01*
X162535Y131583D01*
X162606Y131575D01*
X162637Y131567D01*
X162660Y131569D01*
X162701Y131565D01*
X180889Y131565D01*
X180979Y131579D01*
X181070Y131587D01*
X181100Y131599D01*
X181132Y131604D01*
X181213Y131647D01*
X181297Y131683D01*
X181329Y131709D01*
X181349Y131720D01*
X181372Y131743D01*
X181427Y131788D01*
X183696Y134057D01*
X183749Y134130D01*
X183809Y134200D01*
X183821Y134230D01*
X183840Y134256D01*
X183867Y134343D01*
X183901Y134428D01*
X183905Y134469D01*
X183912Y134491D01*
X183911Y134524D01*
X183919Y134595D01*
X183919Y136401D01*
X185989Y138470D01*
X188915Y138470D01*
X190985Y136401D01*
X190985Y133474D01*
X188915Y131405D01*
X187109Y131405D01*
X187019Y131390D01*
X186928Y131383D01*
X186899Y131370D01*
X186867Y131365D01*
X186786Y131322D01*
X186702Y131287D01*
X186670Y131261D01*
X186649Y131250D01*
X186627Y131227D01*
X186571Y131182D01*
X184302Y128913D01*
X182889Y127499D01*
X175546Y127499D01*
X175526Y127496D01*
X175507Y127498D01*
X175405Y127476D01*
X175303Y127460D01*
X175286Y127450D01*
X175266Y127446D01*
X175177Y127393D01*
X175086Y127344D01*
X175072Y127330D01*
X175055Y127320D01*
X174988Y127241D01*
X174916Y127166D01*
X174908Y127148D01*
X174895Y127133D01*
X174856Y127037D01*
X174813Y126943D01*
X174811Y126923D01*
X174803Y126905D01*
X174785Y126738D01*
X174785Y124023D01*
X166022Y124023D01*
X166002Y124020D01*
X165983Y124022D01*
X165881Y124000D01*
X165779Y123983D01*
X165762Y123974D01*
X165742Y123970D01*
X165653Y123917D01*
X165562Y123868D01*
X165548Y123854D01*
X165531Y123844D01*
X165464Y123765D01*
X165393Y123690D01*
X165384Y123672D01*
X165371Y123657D01*
X165332Y123561D01*
X165289Y123467D01*
X165287Y123447D01*
X165279Y123429D01*
X165261Y123262D01*
X165261Y122499D01*
X165259Y122499D01*
X165259Y123262D01*
X165256Y123282D01*
X165258Y123301D01*
X165236Y123403D01*
X165219Y123505D01*
X165210Y123522D01*
X165206Y123542D01*
X165153Y123631D01*
X165104Y123722D01*
X165090Y123736D01*
X165080Y123753D01*
X165001Y123820D01*
X164926Y123891D01*
X164908Y123900D01*
X164893Y123913D01*
X164797Y123952D01*
X164703Y123995D01*
X164683Y123997D01*
X164665Y124005D01*
X164498Y124023D01*
X155735Y124023D01*
X155735Y124136D01*
X155724Y124207D01*
X155722Y124279D01*
X155704Y124328D01*
X155696Y124379D01*
X155662Y124442D01*
X155637Y124510D01*
X155605Y124551D01*
X155580Y124597D01*
X155529Y124646D01*
X155484Y124702D01*
X155440Y124730D01*
X155402Y124766D01*
X155337Y124796D01*
X155277Y124835D01*
X155226Y124848D01*
X155179Y124870D01*
X155108Y124877D01*
X155038Y124895D01*
X154986Y124891D01*
X154935Y124897D01*
X154864Y124881D01*
X154793Y124876D01*
X154745Y124855D01*
X154694Y124844D01*
X154633Y124808D01*
X154567Y124780D01*
X154511Y124735D01*
X154483Y124718D01*
X154468Y124700D01*
X154436Y124675D01*
X153990Y124229D01*
X111021Y124229D01*
X101400Y133850D01*
X101326Y133903D01*
X101257Y133963D01*
X101226Y133975D01*
X101200Y133994D01*
X101113Y134021D01*
X101028Y134055D01*
X100987Y134059D01*
X100965Y134066D01*
X100933Y134065D01*
X100862Y134073D01*
X100314Y134073D01*
X99732Y134655D01*
X99674Y134697D01*
X99622Y134747D01*
X99575Y134769D01*
X99533Y134799D01*
X99464Y134820D01*
X99399Y134850D01*
X99347Y134856D01*
X99297Y134871D01*
X99226Y134870D01*
X99155Y134877D01*
X99104Y134866D01*
X99052Y134865D01*
X98984Y134840D01*
X98914Y134825D01*
X98869Y134798D01*
X98821Y134781D01*
X98765Y134736D01*
X98703Y134699D01*
X98669Y134659D01*
X98629Y134627D01*
X98590Y134567D01*
X98543Y134512D01*
X98524Y134464D01*
X98496Y134420D01*
X98478Y134350D01*
X98451Y134284D01*
X98443Y134213D01*
X98435Y134181D01*
X98437Y134158D01*
X98433Y134117D01*
X98433Y79398D01*
X98447Y79308D01*
X98455Y79217D01*
X98467Y79187D01*
X98472Y79155D01*
X98515Y79074D01*
X98551Y78990D01*
X98577Y78958D01*
X98588Y78938D01*
X98611Y78915D01*
X98656Y78859D01*
X99397Y78118D01*
X99397Y75191D01*
X97328Y73122D01*
X94401Y73122D01*
X92332Y75191D01*
X92332Y78118D01*
X94144Y79930D01*
X94197Y80004D01*
X94257Y80074D01*
X94269Y80104D01*
X94288Y80130D01*
X94315Y80217D01*
X94349Y80302D01*
X94353Y80343D01*
X94360Y80365D01*
X94359Y80397D01*
X94367Y80469D01*
X94367Y106131D01*
X94356Y106201D01*
X94354Y106273D01*
X94336Y106322D01*
X94328Y106373D01*
X94294Y106437D01*
X94269Y106504D01*
X94237Y106545D01*
X94212Y106591D01*
X94161Y106640D01*
X94116Y106696D01*
X94072Y106724D01*
X94034Y106760D01*
X93969Y106790D01*
X93909Y106829D01*
X93858Y106842D01*
X93811Y106864D01*
X93740Y106872D01*
X93670Y106889D01*
X93618Y106885D01*
X93567Y106891D01*
X93496Y106876D01*
X93425Y106870D01*
X93377Y106850D01*
X93326Y106839D01*
X93265Y106802D01*
X93199Y106774D01*
X93143Y106729D01*
X93115Y106712D01*
X93100Y106695D01*
X93068Y106669D01*
X92778Y106379D01*
X91747Y105784D01*
X91499Y105717D01*
X91499Y109262D01*
X91496Y109281D01*
X91498Y109301D01*
X91476Y109403D01*
X91460Y109505D01*
X91450Y109522D01*
X91446Y109542D01*
X91393Y109631D01*
X91344Y109722D01*
X91330Y109736D01*
X91320Y109753D01*
X91241Y109820D01*
X91166Y109891D01*
X91148Y109900D01*
X91133Y109913D01*
X91037Y109951D01*
X90943Y109995D01*
X90923Y109997D01*
X90905Y110004D01*
X90981Y110017D01*
X90998Y110026D01*
X91018Y110030D01*
X91107Y110083D01*
X91198Y110132D01*
X91212Y110146D01*
X91229Y110156D01*
X91296Y110235D01*
X91368Y110310D01*
X91376Y110328D01*
X91389Y110343D01*
X91428Y110440D01*
X91471Y110533D01*
X91473Y110553D01*
X91481Y110571D01*
X91499Y110738D01*
X91499Y114283D01*
X91747Y114216D01*
X92778Y113621D01*
X93068Y113331D01*
X93126Y113289D01*
X93178Y113240D01*
X93225Y113218D01*
X93267Y113188D01*
X93336Y113167D01*
X93401Y113136D01*
X93453Y113131D01*
X93503Y113115D01*
X93574Y113117D01*
X93645Y113109D01*
X93696Y113120D01*
X93748Y113122D01*
X93816Y113146D01*
X93886Y113161D01*
X93931Y113188D01*
X93979Y113206D01*
X94035Y113251D01*
X94097Y113288D01*
X94131Y113327D01*
X94171Y113360D01*
X94210Y113420D01*
X94257Y113475D01*
X94276Y113523D01*
X94304Y113567D01*
X94322Y113636D01*
X94349Y113703D01*
X94357Y113774D01*
X94365Y113805D01*
X94363Y113829D01*
X94367Y113869D01*
X94367Y126490D01*
X94356Y126560D01*
X94354Y126632D01*
X94336Y126681D01*
X94328Y126732D01*
X94294Y126796D01*
X94269Y126863D01*
X94237Y126904D01*
X94212Y126950D01*
X94160Y126999D01*
X94116Y127055D01*
X94072Y127083D01*
X94034Y127119D01*
X93969Y127149D01*
X93909Y127188D01*
X93858Y127201D01*
X93811Y127223D01*
X93740Y127231D01*
X93670Y127248D01*
X93618Y127244D01*
X93567Y127250D01*
X93496Y127235D01*
X93425Y127229D01*
X93377Y127209D01*
X93326Y127198D01*
X93265Y127161D01*
X93199Y127133D01*
X93143Y127088D01*
X93115Y127072D01*
X93100Y127054D01*
X93068Y127028D01*
X91769Y125729D01*
X88231Y125729D01*
X85729Y128231D01*
X85729Y130658D01*
X85718Y130728D01*
X85716Y130800D01*
X85698Y130849D01*
X85690Y130900D01*
X85656Y130964D01*
X85631Y131031D01*
X85599Y131072D01*
X85574Y131118D01*
X85523Y131167D01*
X85478Y131223D01*
X85434Y131251D01*
X85396Y131287D01*
X85331Y131317D01*
X85271Y131356D01*
X85220Y131369D01*
X85173Y131391D01*
X85102Y131399D01*
X85032Y131416D01*
X84980Y131412D01*
X84929Y131418D01*
X84858Y131403D01*
X84787Y131397D01*
X84739Y131377D01*
X84688Y131366D01*
X84627Y131329D01*
X84561Y131301D01*
X84505Y131256D01*
X84477Y131239D01*
X84462Y131222D01*
X84430Y131196D01*
X72510Y119276D01*
X72464Y119212D01*
X72442Y119189D01*
X72438Y119180D01*
X72397Y119132D01*
X72385Y119102D01*
X72366Y119076D01*
X72339Y118989D01*
X72305Y118904D01*
X72301Y118863D01*
X72294Y118841D01*
X72295Y118809D01*
X72287Y118738D01*
X72287Y114068D01*
X72301Y113978D01*
X72309Y113887D01*
X72321Y113858D01*
X72326Y113826D01*
X72369Y113745D01*
X72405Y113661D01*
X72431Y113629D01*
X72442Y113608D01*
X72465Y113586D01*
X72510Y113530D01*
X74271Y111769D01*
X74271Y108231D01*
X71769Y105729D01*
X68231Y105729D01*
X65729Y108231D01*
X65729Y111769D01*
X67490Y113530D01*
X67543Y113604D01*
X67603Y113673D01*
X67615Y113704D01*
X67634Y113730D01*
X67661Y113817D01*
X67695Y113902D01*
X67699Y113943D01*
X67706Y113965D01*
X67705Y113997D01*
X67713Y114068D01*
X67713Y120947D01*
X69276Y122510D01*
X71196Y124430D01*
X71238Y124488D01*
X71287Y124540D01*
X71309Y124587D01*
X71339Y124629D01*
X71360Y124698D01*
X71391Y124763D01*
X71396Y124815D01*
X71412Y124865D01*
X71410Y124936D01*
X71418Y125007D01*
X71407Y125058D01*
X71405Y125110D01*
X71381Y125178D01*
X71366Y125248D01*
X71339Y125292D01*
X71321Y125341D01*
X71276Y125397D01*
X71239Y125459D01*
X71200Y125493D01*
X71167Y125533D01*
X71107Y125572D01*
X71052Y125619D01*
X71004Y125638D01*
X70960Y125666D01*
X70891Y125684D01*
X70824Y125711D01*
X70753Y125719D01*
X70722Y125727D01*
X70698Y125725D01*
X70658Y125729D01*
X68231Y125729D01*
X65729Y128231D01*
X65729Y131769D01*
X66480Y132520D01*
X66522Y132578D01*
X66571Y132630D01*
X66593Y132677D01*
X66624Y132719D01*
X66645Y132788D01*
X66675Y132853D01*
X66681Y132905D01*
X66696Y132955D01*
X66694Y133026D01*
X66702Y133097D01*
X66691Y133148D01*
X66690Y133200D01*
X66665Y133268D01*
X66650Y133338D01*
X66623Y133382D01*
X66605Y133431D01*
X66560Y133487D01*
X66524Y133549D01*
X66484Y133583D01*
X66451Y133623D01*
X66391Y133662D01*
X66337Y133709D01*
X66288Y133728D01*
X66244Y133756D01*
X66175Y133774D01*
X66108Y133801D01*
X66078Y133804D01*
X65290Y134015D01*
X64575Y134428D01*
X64485Y134462D01*
X64399Y134502D01*
X64371Y134505D01*
X64345Y134515D01*
X64249Y134519D01*
X64155Y134529D01*
X64127Y134523D01*
X64099Y134524D01*
X64007Y134497D01*
X63914Y134477D01*
X63890Y134463D01*
X63863Y134455D01*
X63785Y134400D01*
X63703Y134351D01*
X63685Y134330D01*
X63662Y134313D01*
X63605Y134236D01*
X63543Y134164D01*
X63533Y134138D01*
X63516Y134115D01*
X63487Y134024D01*
X63451Y133936D01*
X63447Y133901D01*
X63441Y133881D01*
X63441Y133848D01*
X63433Y133769D01*
X63433Y120558D01*
X54494Y111619D01*
X54441Y111545D01*
X54381Y111476D01*
X54369Y111445D01*
X54350Y111419D01*
X54323Y111332D01*
X54289Y111247D01*
X54285Y111206D01*
X54278Y111184D01*
X54279Y111152D01*
X54271Y111081D01*
X54271Y108231D01*
X51769Y105729D01*
X48231Y105729D01*
X45729Y108231D01*
X45729Y111769D01*
X47744Y113784D01*
X47797Y113858D01*
X47857Y113927D01*
X47869Y113958D01*
X47888Y113984D01*
X47915Y114071D01*
X47949Y114156D01*
X47953Y114197D01*
X47960Y114219D01*
X47959Y114251D01*
X47967Y114322D01*
X47967Y117753D01*
X47953Y117843D01*
X47945Y117934D01*
X47933Y117963D01*
X47928Y117995D01*
X47885Y118076D01*
X47849Y118160D01*
X47823Y118192D01*
X47812Y118213D01*
X47789Y118235D01*
X47744Y118291D01*
X40814Y125221D01*
X40756Y125263D01*
X40704Y125312D01*
X40657Y125334D01*
X40615Y125365D01*
X40546Y125386D01*
X40481Y125416D01*
X40429Y125422D01*
X40379Y125437D01*
X40308Y125435D01*
X40237Y125443D01*
X40186Y125432D01*
X40134Y125431D01*
X40066Y125406D01*
X39996Y125391D01*
X39951Y125364D01*
X39903Y125346D01*
X39847Y125301D01*
X39785Y125265D01*
X39751Y125225D01*
X39711Y125192D01*
X39672Y125132D01*
X39625Y125078D01*
X39606Y125029D01*
X39578Y124985D01*
X39560Y124916D01*
X39533Y124849D01*
X39525Y124778D01*
X39517Y124747D01*
X39519Y124724D01*
X39515Y124683D01*
X39515Y122911D01*
X39384Y122780D01*
X39372Y122764D01*
X39357Y122751D01*
X39301Y122664D01*
X39240Y122580D01*
X39235Y122561D01*
X39224Y122544D01*
X39199Y122444D01*
X39168Y122345D01*
X39169Y122325D01*
X39164Y122306D01*
X39172Y122203D01*
X39174Y122099D01*
X39181Y122080D01*
X39183Y122061D01*
X39223Y121965D01*
X39259Y121868D01*
X39271Y121853D01*
X39279Y121834D01*
X39384Y121703D01*
X39537Y121551D01*
X39769Y120990D01*
X39769Y117585D01*
X35306Y117585D01*
X35286Y117582D01*
X35267Y117584D01*
X35165Y117562D01*
X35063Y117545D01*
X35046Y117536D01*
X35026Y117532D01*
X34937Y117479D01*
X34846Y117430D01*
X34832Y117416D01*
X34815Y117406D01*
X34748Y117327D01*
X34677Y117252D01*
X34668Y117234D01*
X34655Y117219D01*
X34616Y117123D01*
X34573Y117029D01*
X34571Y117009D01*
X34563Y116991D01*
X34545Y116824D01*
X34545Y116061D01*
X34543Y116061D01*
X34543Y116824D01*
X34540Y116844D01*
X34542Y116863D01*
X34520Y116965D01*
X34503Y117067D01*
X34494Y117084D01*
X34490Y117104D01*
X34437Y117193D01*
X34388Y117284D01*
X34374Y117298D01*
X34364Y117315D01*
X34285Y117382D01*
X34210Y117453D01*
X34192Y117462D01*
X34177Y117475D01*
X34081Y117514D01*
X33987Y117557D01*
X33967Y117559D01*
X33949Y117567D01*
X33782Y117585D01*
X29319Y117585D01*
X29319Y120990D01*
X29551Y121551D01*
X29704Y121703D01*
X29716Y121719D01*
X29731Y121732D01*
X29787Y121819D01*
X29848Y121903D01*
X29853Y121922D01*
X29864Y121939D01*
X29889Y122039D01*
X29920Y122138D01*
X29919Y122158D01*
X29924Y122177D01*
X29916Y122280D01*
X29914Y122384D01*
X29907Y122403D01*
X29905Y122423D01*
X29865Y122518D01*
X29829Y122615D01*
X29817Y122631D01*
X29809Y122649D01*
X29704Y122780D01*
X29573Y122911D01*
X29573Y125268D01*
X29570Y125288D01*
X29572Y125307D01*
X29550Y125409D01*
X29534Y125511D01*
X29524Y125528D01*
X29520Y125548D01*
X29467Y125637D01*
X29418Y125728D01*
X29404Y125742D01*
X29394Y125759D01*
X29315Y125826D01*
X29240Y125898D01*
X29222Y125906D01*
X29207Y125919D01*
X29111Y125958D01*
X29017Y126001D01*
X28997Y126003D01*
X28979Y126011D01*
X28812Y126029D01*
X25587Y126029D01*
X25497Y126015D01*
X25406Y126007D01*
X25377Y125995D01*
X25345Y125990D01*
X25333Y125983D01*
X23542Y125983D01*
X16575Y132950D01*
X16575Y134343D01*
X16561Y134433D01*
X16553Y134524D01*
X16541Y134554D01*
X16536Y134586D01*
X16493Y134667D01*
X16457Y134751D01*
X16431Y134783D01*
X16420Y134804D01*
X16397Y134826D01*
X16352Y134882D01*
X14893Y136341D01*
X14835Y136383D01*
X14783Y136432D01*
X14736Y136454D01*
X14694Y136484D01*
X14625Y136505D01*
X14560Y136536D01*
X14508Y136541D01*
X14458Y136557D01*
X14387Y136555D01*
X14316Y136563D01*
X14265Y136552D01*
X14213Y136550D01*
X14145Y136526D01*
X14075Y136510D01*
X14031Y136484D01*
X13982Y136466D01*
X13926Y136421D01*
X13864Y136384D01*
X13830Y136345D01*
X13790Y136312D01*
X13751Y136252D01*
X13704Y136197D01*
X13685Y136149D01*
X13657Y136105D01*
X13639Y136036D01*
X13612Y135969D01*
X13604Y135898D01*
X13596Y135867D01*
X13598Y135843D01*
X13594Y135802D01*
X13594Y122946D01*
X13608Y122856D01*
X13616Y122765D01*
X13628Y122736D01*
X13633Y122704D01*
X13676Y122623D01*
X13712Y122539D01*
X13738Y122507D01*
X13749Y122486D01*
X13772Y122464D01*
X13817Y122408D01*
X65076Y71149D01*
X65092Y71137D01*
X65105Y71121D01*
X65192Y71065D01*
X65276Y71005D01*
X65295Y70999D01*
X65312Y70988D01*
X65412Y70963D01*
X65511Y70933D01*
X65531Y70933D01*
X65550Y70928D01*
X65653Y70936D01*
X65757Y70939D01*
X65776Y70946D01*
X65795Y70948D01*
X65890Y70988D01*
X65988Y71024D01*
X66003Y71036D01*
X66022Y71044D01*
X66153Y71149D01*
X68387Y73383D01*
X71313Y73383D01*
X73383Y71313D01*
X73383Y69507D01*
X73397Y69417D01*
X73405Y69326D01*
X73417Y69297D01*
X73422Y69265D01*
X73465Y69184D01*
X73501Y69100D01*
X73527Y69068D01*
X73538Y69047D01*
X73561Y69025D01*
X73606Y68969D01*
X79994Y62581D01*
X80068Y62528D01*
X80137Y62468D01*
X80168Y62456D01*
X80194Y62437D01*
X80281Y62410D01*
X80366Y62376D01*
X80407Y62372D01*
X80429Y62365D01*
X80461Y62366D01*
X80532Y62358D01*
X159592Y62358D01*
X164176Y57774D01*
X164250Y57721D01*
X164319Y57661D01*
X164350Y57649D01*
X164376Y57630D01*
X164463Y57603D01*
X164548Y57569D01*
X164589Y57565D01*
X164611Y57558D01*
X164643Y57559D01*
X164714Y57551D01*
X165386Y57551D01*
X166131Y56806D01*
X166131Y42254D01*
X165386Y41509D01*
X165350Y41509D01*
X165279Y41498D01*
X165207Y41496D01*
X165158Y41478D01*
X165107Y41470D01*
X165043Y41436D01*
X164976Y41411D01*
X164935Y41379D01*
X164889Y41354D01*
X164840Y41302D01*
X164784Y41258D01*
X164756Y41214D01*
X164720Y41176D01*
X164690Y41111D01*
X164651Y41051D01*
X164638Y41000D01*
X164616Y40953D01*
X164609Y40882D01*
X164591Y40812D01*
X164595Y40760D01*
X164589Y40709D01*
X164605Y40638D01*
X164610Y40567D01*
X164631Y40519D01*
X164642Y40468D01*
X164678Y40407D01*
X164706Y40341D01*
X164751Y40285D01*
X164768Y40257D01*
X164786Y40242D01*
X164811Y40210D01*
X167045Y37976D01*
X167045Y35049D01*
X166846Y34850D01*
X166804Y34792D01*
X166755Y34740D01*
X166733Y34693D01*
X166703Y34651D01*
X166682Y34582D01*
X166651Y34517D01*
X166646Y34465D01*
X166630Y34415D01*
X166632Y34344D01*
X166624Y34273D01*
X166635Y34222D01*
X166637Y34170D01*
X166661Y34102D01*
X166677Y34032D01*
X166703Y33987D01*
X166721Y33939D01*
X166766Y33883D01*
X166803Y33821D01*
X166842Y33787D01*
X166875Y33747D01*
X166935Y33708D01*
X166990Y33661D01*
X167038Y33642D01*
X167082Y33614D01*
X167151Y33596D01*
X167218Y33569D01*
X167289Y33561D01*
X167320Y33553D01*
X167344Y33555D01*
X167385Y33551D01*
X171261Y33551D01*
X171332Y33562D01*
X171403Y33564D01*
X171452Y33582D01*
X171504Y33590D01*
X171567Y33624D01*
X171634Y33649D01*
X171675Y33681D01*
X171721Y33706D01*
X171770Y33758D01*
X171826Y33802D01*
X171855Y33846D01*
X171890Y33884D01*
X171921Y33949D01*
X171959Y34009D01*
X171972Y34060D01*
X171994Y34107D01*
X172002Y34178D01*
X172019Y34248D01*
X172015Y34300D01*
X172021Y34351D01*
X172006Y34422D01*
X172000Y34493D01*
X171980Y34541D01*
X171969Y34592D01*
X171932Y34653D01*
X171904Y34719D01*
X171859Y34775D01*
X171843Y34803D01*
X171825Y34818D01*
X171799Y34850D01*
X170394Y36256D01*
X170394Y39357D01*
X170375Y39472D01*
X170358Y39588D01*
X170355Y39594D01*
X170354Y39600D01*
X170300Y39702D01*
X170246Y39807D01*
X170242Y39812D01*
X170239Y39817D01*
X170155Y39897D01*
X170071Y39979D01*
X170064Y39983D01*
X170061Y39987D01*
X170044Y39994D01*
X169924Y40060D01*
X169496Y40237D01*
X169067Y40666D01*
X168835Y41227D01*
X168835Y48007D01*
X179337Y48007D01*
X179337Y40005D01*
X178220Y40005D01*
X178201Y40002D01*
X178181Y40004D01*
X178080Y39982D01*
X177978Y39966D01*
X177960Y39956D01*
X177941Y39952D01*
X177852Y39899D01*
X177760Y39850D01*
X177747Y39836D01*
X177730Y39826D01*
X177662Y39747D01*
X177591Y39672D01*
X177583Y39654D01*
X177570Y39639D01*
X177531Y39543D01*
X177487Y39449D01*
X177485Y39429D01*
X177478Y39411D01*
X177459Y39244D01*
X177459Y36256D01*
X175390Y34186D01*
X173089Y34186D01*
X173018Y34175D01*
X172946Y34173D01*
X172897Y34155D01*
X172846Y34147D01*
X172783Y34113D01*
X172715Y34088D01*
X172674Y34056D01*
X172628Y34031D01*
X172579Y33980D01*
X172523Y33935D01*
X172495Y33891D01*
X172459Y33853D01*
X172429Y33788D01*
X172390Y33728D01*
X172377Y33677D01*
X172355Y33630D01*
X172348Y33559D01*
X172330Y33489D01*
X172334Y33437D01*
X172328Y33386D01*
X172344Y33315D01*
X172349Y33244D01*
X172370Y33196D01*
X172381Y33145D01*
X172417Y33084D01*
X172446Y33018D01*
X172490Y32962D01*
X172507Y32934D01*
X172525Y32919D01*
X172550Y32887D01*
X172631Y32806D01*
X172631Y12754D01*
X171886Y12009D01*
X151834Y12009D01*
X151089Y12754D01*
X151089Y32806D01*
X151834Y33551D01*
X159640Y33551D01*
X159711Y33562D01*
X159783Y33564D01*
X159832Y33582D01*
X159883Y33590D01*
X159946Y33624D01*
X160014Y33649D01*
X160055Y33681D01*
X160101Y33706D01*
X160150Y33757D01*
X160206Y33802D01*
X160234Y33846D01*
X160270Y33884D01*
X160300Y33949D01*
X160339Y34009D01*
X160352Y34060D01*
X160374Y34107D01*
X160381Y34178D01*
X160399Y34248D01*
X160395Y34300D01*
X160401Y34351D01*
X160385Y34422D01*
X160380Y34493D01*
X160359Y34541D01*
X160348Y34592D01*
X160312Y34653D01*
X160284Y34719D01*
X160239Y34775D01*
X160222Y34803D01*
X160204Y34818D01*
X160179Y34850D01*
X159980Y35049D01*
X159980Y35306D01*
X159977Y35326D01*
X159979Y35345D01*
X159957Y35447D01*
X159940Y35549D01*
X159931Y35566D01*
X159926Y35586D01*
X159873Y35675D01*
X159825Y35766D01*
X159811Y35780D01*
X159800Y35797D01*
X159722Y35864D01*
X159647Y35936D01*
X159629Y35944D01*
X159613Y35957D01*
X159517Y35996D01*
X159424Y36039D01*
X159404Y36041D01*
X159385Y36049D01*
X159219Y36067D01*
X128119Y36067D01*
X128099Y36064D01*
X128080Y36066D01*
X127978Y36044D01*
X127876Y36028D01*
X127859Y36018D01*
X127839Y36014D01*
X127750Y35961D01*
X127659Y35912D01*
X127645Y35898D01*
X127628Y35888D01*
X127561Y35809D01*
X127489Y35734D01*
X127481Y35716D01*
X127468Y35701D01*
X127429Y35605D01*
X127386Y35511D01*
X127384Y35491D01*
X127376Y35473D01*
X127358Y35306D01*
X127358Y34312D01*
X127361Y34292D01*
X127359Y34273D01*
X127381Y34171D01*
X127397Y34069D01*
X127407Y34052D01*
X127411Y34032D01*
X127464Y33943D01*
X127513Y33852D01*
X127527Y33838D01*
X127537Y33821D01*
X127616Y33754D01*
X127691Y33682D01*
X127709Y33674D01*
X127724Y33661D01*
X127820Y33622D01*
X127914Y33579D01*
X127934Y33577D01*
X127952Y33569D01*
X128119Y33551D01*
X147886Y33551D01*
X148631Y32806D01*
X148631Y12754D01*
X147886Y12009D01*
X127834Y12009D01*
X127089Y12754D01*
X127089Y30149D01*
X127078Y30220D01*
X127076Y30291D01*
X127058Y30340D01*
X127050Y30392D01*
X127016Y30455D01*
X126991Y30522D01*
X126959Y30563D01*
X126934Y30609D01*
X126882Y30658D01*
X126838Y30714D01*
X126794Y30743D01*
X126756Y30778D01*
X126691Y30809D01*
X126631Y30847D01*
X126580Y30860D01*
X126533Y30882D01*
X126462Y30890D01*
X126392Y30907D01*
X126340Y30903D01*
X126289Y30909D01*
X126218Y30894D01*
X126147Y30888D01*
X126099Y30868D01*
X126048Y30857D01*
X125987Y30820D01*
X125921Y30792D01*
X125865Y30747D01*
X125837Y30731D01*
X125822Y30713D01*
X125790Y30687D01*
X125288Y30186D01*
X122362Y30186D01*
X121430Y31117D01*
X121372Y31159D01*
X121320Y31208D01*
X121273Y31230D01*
X121231Y31261D01*
X121162Y31282D01*
X121097Y31312D01*
X121045Y31318D01*
X120995Y31333D01*
X120924Y31331D01*
X120853Y31339D01*
X120802Y31328D01*
X120750Y31327D01*
X120682Y31302D01*
X120612Y31287D01*
X120567Y31260D01*
X120519Y31242D01*
X120463Y31197D01*
X120401Y31161D01*
X120367Y31121D01*
X120327Y31089D01*
X120288Y31028D01*
X120241Y30974D01*
X120222Y30925D01*
X120194Y30882D01*
X120176Y30812D01*
X120149Y30746D01*
X120141Y30674D01*
X120133Y30643D01*
X120135Y30620D01*
X120131Y30579D01*
X120131Y12754D01*
X119386Y12009D01*
X113408Y12009D01*
X113375Y12004D01*
X113341Y12006D01*
X113254Y11984D01*
X113165Y11970D01*
X113135Y11954D01*
X113102Y11945D01*
X113027Y11896D01*
X112948Y11854D01*
X112925Y11830D01*
X112896Y11811D01*
X112840Y11741D01*
X112779Y11676D01*
X112764Y11645D01*
X112743Y11619D01*
X112713Y11534D01*
X112675Y11453D01*
X112671Y11419D01*
X112660Y11387D01*
X112658Y11297D01*
X112648Y11209D01*
X112655Y11175D01*
X112654Y11141D01*
X112681Y11056D01*
X112700Y10968D01*
X112718Y10939D01*
X112728Y10906D01*
X112780Y10834D01*
X112826Y10757D01*
X112852Y10735D01*
X112872Y10707D01*
X112945Y10655D01*
X113013Y10597D01*
X113045Y10584D01*
X113073Y10565D01*
X113230Y10508D01*
X127311Y7127D01*
X127344Y7125D01*
X127429Y7109D01*
X149940Y5337D01*
X149973Y5340D01*
X150060Y5337D01*
X172571Y7109D01*
G37*
G36*
X15949Y199635D02*
X15949Y199635D01*
X16039Y199643D01*
X16069Y199655D01*
X16101Y199660D01*
X16182Y199703D01*
X16266Y199739D01*
X16298Y199765D01*
X16319Y199776D01*
X16341Y199799D01*
X16397Y199844D01*
X16515Y199962D01*
X20448Y199962D01*
X20468Y199965D01*
X20487Y199963D01*
X20589Y199985D01*
X20691Y200002D01*
X20708Y200011D01*
X20728Y200016D01*
X20817Y200069D01*
X20908Y200117D01*
X20922Y200131D01*
X20939Y200142D01*
X21006Y200220D01*
X21078Y200295D01*
X21086Y200313D01*
X21099Y200329D01*
X21138Y200425D01*
X21181Y200518D01*
X21183Y200538D01*
X21191Y200557D01*
X21209Y200723D01*
X21209Y202146D01*
X21954Y202891D01*
X25742Y202891D01*
X25761Y202894D01*
X25781Y202892D01*
X25882Y202914D01*
X25984Y202930D01*
X26002Y202940D01*
X26021Y202944D01*
X26110Y202997D01*
X26202Y203046D01*
X26215Y203060D01*
X26232Y203070D01*
X26300Y203149D01*
X26371Y203224D01*
X26379Y203242D01*
X26392Y203257D01*
X26431Y203353D01*
X26475Y203447D01*
X26477Y203467D01*
X26484Y203485D01*
X26503Y203652D01*
X26503Y206822D01*
X26516Y206836D01*
X26558Y206894D01*
X26607Y206946D01*
X26629Y206993D01*
X26660Y207035D01*
X26681Y207104D01*
X26711Y207169D01*
X26717Y207221D01*
X26732Y207271D01*
X26730Y207342D01*
X26738Y207413D01*
X26727Y207464D01*
X26726Y207516D01*
X26701Y207584D01*
X26686Y207654D01*
X26659Y207699D01*
X26641Y207747D01*
X26596Y207803D01*
X26560Y207865D01*
X26520Y207899D01*
X26488Y207939D01*
X26427Y207978D01*
X26373Y208025D01*
X26324Y208044D01*
X26281Y208072D01*
X26211Y208090D01*
X26145Y208117D01*
X26073Y208125D01*
X26042Y208133D01*
X26019Y208131D01*
X25978Y208135D01*
X25902Y208135D01*
X25341Y208367D01*
X24912Y208796D01*
X24680Y209357D01*
X24680Y211837D01*
X30068Y211837D01*
X30088Y211840D01*
X30107Y211838D01*
X30209Y211860D01*
X30311Y211877D01*
X30328Y211886D01*
X30348Y211890D01*
X30437Y211943D01*
X30528Y211992D01*
X30542Y212006D01*
X30559Y212016D01*
X30626Y212095D01*
X30697Y212170D01*
X30706Y212188D01*
X30719Y212203D01*
X30758Y212299D01*
X30801Y212393D01*
X30803Y212413D01*
X30811Y212431D01*
X30829Y212598D01*
X30829Y213361D01*
X31592Y213361D01*
X31612Y213364D01*
X31631Y213362D01*
X31733Y213384D01*
X31835Y213401D01*
X31852Y213410D01*
X31872Y213414D01*
X31961Y213467D01*
X32052Y213516D01*
X32066Y213530D01*
X32083Y213540D01*
X32150Y213619D01*
X32221Y213694D01*
X32230Y213712D01*
X32243Y213727D01*
X32282Y213823D01*
X32325Y213917D01*
X32327Y213937D01*
X32335Y213955D01*
X32353Y214122D01*
X32353Y218585D01*
X35203Y218585D01*
X35223Y218588D01*
X35242Y218586D01*
X35344Y218608D01*
X35446Y218624D01*
X35463Y218634D01*
X35483Y218638D01*
X35572Y218691D01*
X35663Y218740D01*
X35677Y218754D01*
X35694Y218764D01*
X35761Y218843D01*
X35833Y218918D01*
X35841Y218936D01*
X35854Y218951D01*
X35893Y219047D01*
X35936Y219141D01*
X35938Y219161D01*
X35946Y219179D01*
X35964Y219346D01*
X35964Y222189D01*
X38034Y224259D01*
X39840Y224259D01*
X39930Y224273D01*
X40021Y224281D01*
X40050Y224293D01*
X40082Y224298D01*
X40163Y224341D01*
X40247Y224377D01*
X40279Y224403D01*
X40300Y224414D01*
X40322Y224437D01*
X40378Y224482D01*
X51934Y236038D01*
X52888Y236038D01*
X52984Y236054D01*
X53081Y236063D01*
X53105Y236074D01*
X53130Y236078D01*
X53216Y236123D01*
X53305Y236163D01*
X53325Y236181D01*
X53348Y236193D01*
X53415Y236264D01*
X53487Y236330D01*
X53499Y236352D01*
X53517Y236371D01*
X53558Y236460D01*
X53605Y236545D01*
X53610Y236571D01*
X53621Y236594D01*
X53632Y236691D01*
X53649Y236787D01*
X53645Y236813D01*
X53648Y236839D01*
X53627Y236934D01*
X53613Y237030D01*
X53601Y237054D01*
X53596Y237079D01*
X53546Y237163D01*
X53502Y237250D01*
X53483Y237268D01*
X53469Y237290D01*
X53396Y237354D01*
X53326Y237422D01*
X53297Y237438D01*
X53283Y237450D01*
X53252Y237463D01*
X53179Y237503D01*
X51073Y238375D01*
X48875Y240573D01*
X47685Y243446D01*
X47685Y246554D01*
X48875Y249427D01*
X51073Y251625D01*
X53946Y252815D01*
X57054Y252815D01*
X59927Y251625D01*
X62125Y249427D01*
X63315Y246554D01*
X63315Y246541D01*
X63330Y246446D01*
X63340Y246348D01*
X63350Y246324D01*
X63354Y246299D01*
X63400Y246213D01*
X63440Y246124D01*
X63457Y246104D01*
X63470Y246081D01*
X63540Y246014D01*
X63606Y245942D01*
X63629Y245930D01*
X63648Y245912D01*
X63736Y245871D01*
X63822Y245824D01*
X63847Y245819D01*
X63871Y245808D01*
X63968Y245798D01*
X64064Y245780D01*
X64090Y245784D01*
X64115Y245781D01*
X64210Y245802D01*
X64307Y245816D01*
X64330Y245828D01*
X64356Y245833D01*
X64439Y245883D01*
X64526Y245928D01*
X64545Y245946D01*
X64567Y245960D01*
X64630Y246034D01*
X64698Y246103D01*
X64714Y246132D01*
X64727Y246147D01*
X64739Y246177D01*
X64779Y246250D01*
X64857Y246439D01*
X65286Y246868D01*
X65847Y247100D01*
X68327Y247100D01*
X68327Y242473D01*
X64625Y242473D01*
X64625Y242782D01*
X64610Y242878D01*
X64600Y242975D01*
X64590Y242999D01*
X64586Y243025D01*
X64540Y243111D01*
X64500Y243200D01*
X64483Y243219D01*
X64470Y243243D01*
X64400Y243309D01*
X64334Y243381D01*
X64311Y243394D01*
X64292Y243412D01*
X64204Y243453D01*
X64118Y243500D01*
X64093Y243505D01*
X64069Y243516D01*
X63972Y243526D01*
X63876Y243544D01*
X63850Y243540D01*
X63825Y243543D01*
X63729Y243522D01*
X63633Y243508D01*
X63610Y243496D01*
X63584Y243490D01*
X63501Y243440D01*
X63414Y243396D01*
X63395Y243378D01*
X63373Y243364D01*
X63310Y243290D01*
X63242Y243221D01*
X63226Y243192D01*
X63213Y243177D01*
X63201Y243147D01*
X63161Y243074D01*
X62125Y240573D01*
X59916Y238364D01*
X59910Y238362D01*
X59849Y238314D01*
X59783Y238273D01*
X59754Y238237D01*
X59718Y238208D01*
X59676Y238143D01*
X59626Y238083D01*
X59610Y238040D01*
X59585Y238002D01*
X59566Y237926D01*
X59538Y237854D01*
X59536Y237808D01*
X59525Y237763D01*
X59531Y237685D01*
X59528Y237608D01*
X59540Y237564D01*
X59544Y237518D01*
X59574Y237446D01*
X59596Y237372D01*
X59622Y237334D01*
X59640Y237291D01*
X59726Y237185D01*
X59736Y237169D01*
X59740Y237166D01*
X59745Y237160D01*
X61437Y235469D01*
X61437Y232542D01*
X59367Y230473D01*
X56441Y230473D01*
X55164Y231750D01*
X55090Y231803D01*
X55020Y231862D01*
X54990Y231875D01*
X54964Y231893D01*
X54877Y231920D01*
X54792Y231954D01*
X54751Y231959D01*
X54729Y231966D01*
X54697Y231965D01*
X54625Y231973D01*
X53934Y231973D01*
X53844Y231958D01*
X53753Y231951D01*
X53723Y231938D01*
X53691Y231933D01*
X53610Y231890D01*
X53527Y231855D01*
X53494Y231829D01*
X53474Y231818D01*
X53452Y231795D01*
X53396Y231750D01*
X43253Y221607D01*
X43200Y221533D01*
X43140Y221464D01*
X43128Y221433D01*
X43109Y221407D01*
X43082Y221320D01*
X43048Y221235D01*
X43044Y221194D01*
X43037Y221172D01*
X43038Y221140D01*
X43030Y221069D01*
X43030Y219092D01*
X43033Y219072D01*
X43031Y219053D01*
X43053Y218951D01*
X43069Y218849D01*
X43079Y218832D01*
X43083Y218812D01*
X43136Y218723D01*
X43185Y218632D01*
X43199Y218618D01*
X43209Y218601D01*
X43288Y218534D01*
X43363Y218462D01*
X43381Y218454D01*
X43396Y218441D01*
X43492Y218402D01*
X43586Y218359D01*
X43606Y218357D01*
X43624Y218349D01*
X43791Y218331D01*
X47981Y218331D01*
X48726Y217586D01*
X48726Y214666D01*
X48728Y214651D01*
X48727Y214639D01*
X48740Y214577D01*
X48740Y214575D01*
X48748Y214485D01*
X48760Y214455D01*
X48765Y214423D01*
X48808Y214342D01*
X48844Y214258D01*
X48870Y214226D01*
X48881Y214205D01*
X48904Y214183D01*
X48949Y214127D01*
X51548Y211528D01*
X51622Y211475D01*
X51692Y211415D01*
X51722Y211403D01*
X51748Y211384D01*
X51835Y211357D01*
X51920Y211323D01*
X51961Y211319D01*
X51983Y211312D01*
X52015Y211313D01*
X52087Y211305D01*
X53533Y211305D01*
X55603Y209235D01*
X55603Y207359D01*
X55614Y207289D01*
X55616Y207217D01*
X55634Y207168D01*
X55642Y207117D01*
X55676Y207053D01*
X55701Y206986D01*
X55733Y206945D01*
X55758Y206899D01*
X55810Y206850D01*
X55854Y206794D01*
X55898Y206766D01*
X55936Y206730D01*
X56001Y206700D01*
X56061Y206661D01*
X56112Y206648D01*
X56159Y206626D01*
X56230Y206618D01*
X56300Y206601D01*
X56352Y206605D01*
X56403Y206599D01*
X56474Y206614D01*
X56545Y206620D01*
X56593Y206640D01*
X56644Y206651D01*
X56705Y206688D01*
X56771Y206716D01*
X56827Y206761D01*
X56855Y206778D01*
X56870Y206795D01*
X56902Y206821D01*
X58556Y208475D01*
X58609Y208549D01*
X58669Y208619D01*
X58681Y208649D01*
X58700Y208675D01*
X58727Y208762D01*
X58761Y208847D01*
X58765Y208888D01*
X58772Y208910D01*
X58771Y208942D01*
X58779Y209014D01*
X58779Y212372D01*
X59212Y212805D01*
X59265Y212879D01*
X59325Y212948D01*
X59337Y212978D01*
X59356Y213004D01*
X59383Y213091D01*
X59417Y213176D01*
X59421Y213217D01*
X59428Y213239D01*
X59427Y213272D01*
X59435Y213343D01*
X59435Y218076D01*
X60849Y219489D01*
X64656Y223297D01*
X64701Y223359D01*
X64726Y223385D01*
X64731Y223396D01*
X64769Y223440D01*
X64781Y223470D01*
X64800Y223496D01*
X64827Y223583D01*
X64861Y223668D01*
X64865Y223709D01*
X64872Y223731D01*
X64871Y223764D01*
X64879Y223835D01*
X64879Y234101D01*
X65010Y234232D01*
X65022Y234248D01*
X65037Y234261D01*
X65093Y234348D01*
X65154Y234432D01*
X65159Y234451D01*
X65170Y234468D01*
X65195Y234568D01*
X65226Y234667D01*
X65225Y234687D01*
X65230Y234706D01*
X65222Y234809D01*
X65220Y234913D01*
X65213Y234932D01*
X65211Y234951D01*
X65171Y235047D01*
X65135Y235144D01*
X65123Y235159D01*
X65115Y235178D01*
X65010Y235309D01*
X64857Y235461D01*
X64625Y236022D01*
X64625Y239427D01*
X69088Y239427D01*
X69108Y239430D01*
X69127Y239428D01*
X69229Y239450D01*
X69331Y239467D01*
X69348Y239476D01*
X69368Y239480D01*
X69457Y239533D01*
X69548Y239582D01*
X69562Y239596D01*
X69579Y239606D01*
X69646Y239685D01*
X69717Y239760D01*
X69726Y239778D01*
X69739Y239793D01*
X69778Y239889D01*
X69821Y239983D01*
X69823Y240003D01*
X69831Y240021D01*
X69849Y240188D01*
X69849Y240951D01*
X69851Y240951D01*
X69851Y240188D01*
X69854Y240168D01*
X69852Y240149D01*
X69874Y240047D01*
X69891Y239945D01*
X69900Y239928D01*
X69904Y239908D01*
X69957Y239819D01*
X70006Y239728D01*
X70020Y239714D01*
X70030Y239697D01*
X70109Y239630D01*
X70184Y239559D01*
X70202Y239550D01*
X70217Y239537D01*
X70313Y239498D01*
X70407Y239455D01*
X70427Y239453D01*
X70445Y239445D01*
X70612Y239427D01*
X75075Y239427D01*
X75075Y236022D01*
X74843Y235461D01*
X74690Y235309D01*
X74678Y235293D01*
X74663Y235280D01*
X74607Y235193D01*
X74546Y235109D01*
X74541Y235090D01*
X74530Y235073D01*
X74505Y234973D01*
X74474Y234874D01*
X74475Y234854D01*
X74470Y234835D01*
X74478Y234732D01*
X74480Y234628D01*
X74487Y234609D01*
X74489Y234589D01*
X74529Y234494D01*
X74565Y234397D01*
X74577Y234381D01*
X74585Y234363D01*
X74690Y234232D01*
X74821Y234101D01*
X74821Y232664D01*
X74824Y232644D01*
X74822Y232625D01*
X74844Y232523D01*
X74860Y232421D01*
X74870Y232404D01*
X74874Y232384D01*
X74927Y232295D01*
X74976Y232204D01*
X74990Y232190D01*
X75000Y232173D01*
X75079Y232106D01*
X75154Y232034D01*
X75172Y232026D01*
X75187Y232013D01*
X75283Y231974D01*
X75377Y231931D01*
X75397Y231929D01*
X75415Y231921D01*
X75582Y231903D01*
X75946Y231903D01*
X75966Y231906D01*
X75985Y231904D01*
X76087Y231926D01*
X76189Y231942D01*
X76206Y231952D01*
X76226Y231956D01*
X76315Y232009D01*
X76406Y232058D01*
X76420Y232072D01*
X76437Y232082D01*
X76504Y232161D01*
X76576Y232236D01*
X76584Y232254D01*
X76597Y232269D01*
X76636Y232365D01*
X76679Y232459D01*
X76681Y232479D01*
X76689Y232497D01*
X76707Y232664D01*
X76707Y236659D01*
X82285Y242237D01*
X83368Y242237D01*
X83388Y242240D01*
X83407Y242238D01*
X83509Y242260D01*
X83611Y242276D01*
X83628Y242286D01*
X83648Y242290D01*
X83737Y242343D01*
X83828Y242392D01*
X83842Y242406D01*
X83859Y242416D01*
X83926Y242495D01*
X83998Y242570D01*
X84006Y242588D01*
X84019Y242603D01*
X84058Y242699D01*
X84101Y242793D01*
X84103Y242813D01*
X84111Y242831D01*
X84129Y242998D01*
X84129Y243476D01*
X84874Y244221D01*
X92926Y244221D01*
X93806Y243341D01*
X93864Y243299D01*
X93916Y243250D01*
X93963Y243228D01*
X94005Y243198D01*
X94074Y243177D01*
X94139Y243146D01*
X94191Y243141D01*
X94241Y243125D01*
X94312Y243127D01*
X94383Y243119D01*
X94434Y243130D01*
X94486Y243132D01*
X94554Y243156D01*
X94624Y243172D01*
X94669Y243198D01*
X94717Y243216D01*
X94773Y243261D01*
X94835Y243298D01*
X94869Y243337D01*
X94909Y243370D01*
X94948Y243430D01*
X94995Y243485D01*
X95014Y243533D01*
X95042Y243577D01*
X95060Y243646D01*
X95087Y243713D01*
X95095Y243784D01*
X95103Y243815D01*
X95101Y243839D01*
X95105Y243880D01*
X95105Y247148D01*
X95337Y247709D01*
X95766Y248138D01*
X96327Y248370D01*
X98807Y248370D01*
X98807Y242982D01*
X98810Y242962D01*
X98808Y242943D01*
X98830Y242841D01*
X98847Y242739D01*
X98856Y242722D01*
X98860Y242702D01*
X98913Y242613D01*
X98962Y242522D01*
X98976Y242508D01*
X98986Y242491D01*
X99065Y242424D01*
X99140Y242353D01*
X99158Y242344D01*
X99173Y242331D01*
X99269Y242292D01*
X99363Y242249D01*
X99383Y242247D01*
X99401Y242239D01*
X99568Y242221D01*
X100331Y242221D01*
X100331Y241458D01*
X100334Y241438D01*
X100332Y241419D01*
X100354Y241317D01*
X100371Y241215D01*
X100380Y241198D01*
X100384Y241178D01*
X100437Y241089D01*
X100486Y240998D01*
X100500Y240984D01*
X100510Y240967D01*
X100589Y240900D01*
X100664Y240829D01*
X100682Y240820D01*
X100697Y240807D01*
X100793Y240768D01*
X100887Y240725D01*
X100907Y240723D01*
X100925Y240715D01*
X101092Y240697D01*
X110998Y240697D01*
X111018Y240700D01*
X111037Y240698D01*
X111139Y240720D01*
X111241Y240737D01*
X111258Y240746D01*
X111278Y240750D01*
X111367Y240803D01*
X111458Y240852D01*
X111472Y240866D01*
X111489Y240876D01*
X111556Y240955D01*
X111627Y241030D01*
X111636Y241048D01*
X111649Y241063D01*
X111688Y241159D01*
X111731Y241253D01*
X111733Y241273D01*
X111741Y241291D01*
X111759Y241458D01*
X111759Y242221D01*
X111761Y242221D01*
X111761Y241458D01*
X111764Y241438D01*
X111762Y241419D01*
X111784Y241317D01*
X111801Y241215D01*
X111810Y241198D01*
X111814Y241178D01*
X111867Y241089D01*
X111916Y240998D01*
X111930Y240984D01*
X111940Y240967D01*
X112019Y240900D01*
X112094Y240829D01*
X112112Y240820D01*
X112127Y240807D01*
X112223Y240768D01*
X112317Y240725D01*
X112337Y240723D01*
X112355Y240715D01*
X112522Y240697D01*
X116985Y240697D01*
X116985Y237292D01*
X116753Y236731D01*
X116600Y236579D01*
X116588Y236563D01*
X116573Y236550D01*
X116517Y236463D01*
X116456Y236379D01*
X116451Y236360D01*
X116440Y236343D01*
X116415Y236243D01*
X116384Y236144D01*
X116385Y236124D01*
X116380Y236105D01*
X116388Y236002D01*
X116390Y235898D01*
X116397Y235879D01*
X116399Y235859D01*
X116439Y235764D01*
X116475Y235667D01*
X116487Y235651D01*
X116495Y235633D01*
X116600Y235502D01*
X116731Y235371D01*
X116731Y226544D01*
X116734Y226524D01*
X116732Y226505D01*
X116754Y226403D01*
X116770Y226301D01*
X116780Y226284D01*
X116784Y226264D01*
X116837Y226175D01*
X116886Y226084D01*
X116900Y226070D01*
X116910Y226053D01*
X116989Y225986D01*
X117064Y225914D01*
X117082Y225906D01*
X117097Y225893D01*
X117193Y225854D01*
X117287Y225811D01*
X117307Y225809D01*
X117325Y225801D01*
X117492Y225783D01*
X118938Y225783D01*
X121008Y223713D01*
X121008Y220787D01*
X119453Y219232D01*
X119411Y219174D01*
X119362Y219122D01*
X119340Y219075D01*
X119310Y219033D01*
X119289Y218964D01*
X119258Y218899D01*
X119253Y218847D01*
X119237Y218797D01*
X119239Y218726D01*
X119231Y218655D01*
X119242Y218604D01*
X119244Y218552D01*
X119268Y218484D01*
X119284Y218414D01*
X119310Y218369D01*
X119328Y218321D01*
X119373Y218265D01*
X119410Y218203D01*
X119449Y218169D01*
X119482Y218129D01*
X119542Y218090D01*
X119597Y218043D01*
X119645Y218024D01*
X119689Y217996D01*
X119758Y217978D01*
X119825Y217951D01*
X119896Y217943D01*
X119927Y217935D01*
X119951Y217937D01*
X119992Y217933D01*
X146892Y217933D01*
X148306Y216519D01*
X154694Y210131D01*
X154768Y210078D01*
X154837Y210018D01*
X154868Y210006D01*
X154894Y209987D01*
X154981Y209960D01*
X155066Y209926D01*
X155107Y209922D01*
X155129Y209915D01*
X155161Y209916D01*
X155232Y209908D01*
X156718Y209908D01*
X156738Y209911D01*
X156757Y209909D01*
X156859Y209931D01*
X156961Y209947D01*
X156978Y209957D01*
X156998Y209961D01*
X157087Y210014D01*
X157178Y210063D01*
X157192Y210077D01*
X157209Y210087D01*
X157276Y210166D01*
X157348Y210241D01*
X157356Y210259D01*
X157369Y210274D01*
X157408Y210370D01*
X157451Y210464D01*
X157453Y210484D01*
X157461Y210502D01*
X157479Y210669D01*
X157479Y232744D01*
X157941Y233205D01*
X157982Y233264D01*
X158032Y233315D01*
X158054Y233363D01*
X158084Y233405D01*
X158105Y233473D01*
X158135Y233539D01*
X158141Y233590D01*
X158156Y233640D01*
X158155Y233712D01*
X158162Y233783D01*
X158151Y233834D01*
X158150Y233886D01*
X158125Y233953D01*
X158110Y234023D01*
X158083Y234068D01*
X158066Y234117D01*
X158021Y234173D01*
X157984Y234234D01*
X157944Y234268D01*
X157912Y234309D01*
X157852Y234348D01*
X157797Y234394D01*
X157749Y234414D01*
X157705Y234442D01*
X157635Y234459D01*
X157569Y234486D01*
X157498Y234494D01*
X157466Y234502D01*
X157443Y234500D01*
X157402Y234505D01*
X136629Y234505D01*
X136539Y234490D01*
X136448Y234483D01*
X136418Y234470D01*
X136386Y234465D01*
X136305Y234422D01*
X136221Y234387D01*
X136189Y234361D01*
X136169Y234350D01*
X136146Y234327D01*
X136090Y234282D01*
X134813Y233005D01*
X131887Y233005D01*
X129817Y235074D01*
X129817Y238001D01*
X131887Y240070D01*
X134813Y240070D01*
X136090Y238793D01*
X136164Y238740D01*
X136234Y238681D01*
X136264Y238668D01*
X136290Y238650D01*
X136377Y238623D01*
X136462Y238589D01*
X136503Y238584D01*
X136525Y238577D01*
X136557Y238578D01*
X136629Y238570D01*
X137454Y238570D01*
X137487Y238576D01*
X137520Y238573D01*
X137608Y238595D01*
X137697Y238610D01*
X137726Y238625D01*
X137758Y238634D01*
X137834Y238683D01*
X137914Y238725D01*
X137937Y238749D01*
X137965Y238767D01*
X138021Y238838D01*
X138084Y238903D01*
X138098Y238933D01*
X138118Y238959D01*
X138149Y239044D01*
X138187Y239126D01*
X138191Y239159D01*
X138202Y239190D01*
X138204Y239281D01*
X138214Y239371D01*
X138207Y239403D01*
X138208Y239436D01*
X138167Y239599D01*
X138009Y240020D01*
X137970Y240088D01*
X137940Y240160D01*
X137902Y240207D01*
X137887Y240233D01*
X137866Y240251D01*
X137835Y240291D01*
X135818Y242307D01*
X135744Y242360D01*
X135675Y242419D01*
X135645Y242431D01*
X135619Y242450D01*
X135532Y242477D01*
X135447Y242511D01*
X135406Y242516D01*
X135384Y242523D01*
X135351Y242522D01*
X135280Y242530D01*
X133474Y242530D01*
X131405Y244599D01*
X131405Y247526D01*
X133474Y249595D01*
X136401Y249595D01*
X138470Y247526D01*
X138470Y245720D01*
X138485Y245630D01*
X138492Y245539D01*
X138505Y245509D01*
X138510Y245477D01*
X138553Y245396D01*
X138588Y245313D01*
X138614Y245280D01*
X138625Y245260D01*
X138648Y245238D01*
X138693Y245182D01*
X140637Y243238D01*
X140710Y243185D01*
X140780Y243126D01*
X140810Y243113D01*
X140836Y243095D01*
X140923Y243068D01*
X141008Y243034D01*
X141049Y243029D01*
X141071Y243022D01*
X141104Y243023D01*
X141175Y243015D01*
X150138Y243015D01*
X150158Y243018D01*
X150177Y243016D01*
X150279Y243038D01*
X150381Y243055D01*
X150398Y243064D01*
X150418Y243069D01*
X150507Y243122D01*
X150598Y243170D01*
X150612Y243184D01*
X150629Y243195D01*
X150696Y243273D01*
X150768Y243348D01*
X150776Y243366D01*
X150789Y243382D01*
X150828Y243478D01*
X150871Y243571D01*
X150873Y243591D01*
X150881Y243610D01*
X150899Y243776D01*
X150899Y246573D01*
X152969Y248643D01*
X155895Y248643D01*
X157965Y246573D01*
X157965Y244094D01*
X157968Y244074D01*
X157966Y244055D01*
X157988Y243953D01*
X158004Y243851D01*
X158014Y243834D01*
X158018Y243814D01*
X158071Y243725D01*
X158120Y243634D01*
X158134Y243620D01*
X158144Y243603D01*
X158223Y243536D01*
X158298Y243464D01*
X158316Y243456D01*
X158331Y243443D01*
X158427Y243404D01*
X158521Y243361D01*
X158541Y243359D01*
X158559Y243351D01*
X158726Y243333D01*
X179284Y243333D01*
X179374Y243347D01*
X179465Y243355D01*
X179495Y243367D01*
X179527Y243372D01*
X179607Y243415D01*
X179691Y243451D01*
X179723Y243477D01*
X179744Y243488D01*
X179766Y243511D01*
X179822Y243556D01*
X181099Y244833D01*
X184026Y244833D01*
X186095Y242763D01*
X186095Y239824D01*
X186086Y239811D01*
X186037Y239760D01*
X186015Y239712D01*
X185985Y239670D01*
X185964Y239601D01*
X185933Y239536D01*
X185928Y239485D01*
X185912Y239435D01*
X185914Y239363D01*
X185906Y239292D01*
X185917Y239241D01*
X185919Y239189D01*
X185943Y239122D01*
X185959Y239052D01*
X185985Y239007D01*
X186003Y238958D01*
X186048Y238902D01*
X186085Y238841D01*
X186124Y238807D01*
X186157Y238766D01*
X186217Y238727D01*
X186272Y238681D01*
X186320Y238661D01*
X186364Y238633D01*
X186433Y238616D01*
X186500Y238589D01*
X186571Y238581D01*
X186602Y238573D01*
X186626Y238575D01*
X186667Y238570D01*
X199280Y238570D01*
X210856Y226994D01*
X210930Y226941D01*
X210999Y226881D01*
X211030Y226869D01*
X211056Y226850D01*
X211143Y226823D01*
X211228Y226789D01*
X211269Y226785D01*
X211291Y226778D01*
X211323Y226779D01*
X211394Y226771D01*
X218886Y226771D01*
X219172Y226485D01*
X219188Y226474D01*
X219200Y226458D01*
X219287Y226402D01*
X219371Y226342D01*
X219390Y226336D01*
X219407Y226325D01*
X219508Y226300D01*
X219606Y226269D01*
X219626Y226270D01*
X219646Y226265D01*
X219749Y226273D01*
X219852Y226276D01*
X219871Y226283D01*
X219891Y226284D01*
X219986Y226325D01*
X220083Y226360D01*
X220099Y226373D01*
X220117Y226381D01*
X220248Y226485D01*
X220534Y226771D01*
X231648Y226771D01*
X231668Y226774D01*
X231687Y226772D01*
X231789Y226794D01*
X231891Y226810D01*
X231908Y226820D01*
X231928Y226824D01*
X232017Y226877D01*
X232108Y226926D01*
X232122Y226940D01*
X232139Y226950D01*
X232206Y227029D01*
X232278Y227104D01*
X232286Y227122D01*
X232299Y227137D01*
X232338Y227233D01*
X232381Y227327D01*
X232383Y227347D01*
X232391Y227365D01*
X232409Y227532D01*
X232409Y268220D01*
X232400Y268277D01*
X232401Y268335D01*
X232380Y268398D01*
X232370Y268463D01*
X232343Y268514D01*
X232325Y268569D01*
X232285Y268622D01*
X232254Y268680D01*
X232213Y268720D01*
X232178Y268767D01*
X232099Y268828D01*
X232076Y268850D01*
X232063Y268856D01*
X232046Y268869D01*
X231216Y269378D01*
X229974Y270139D01*
X229973Y270139D01*
X228731Y270900D01*
X228731Y270901D01*
X227489Y271662D01*
X221278Y275468D01*
X220036Y276229D01*
X218793Y276991D01*
X215729Y278868D01*
X215698Y278881D01*
X215622Y278923D01*
X194760Y287564D01*
X194728Y287572D01*
X194646Y287601D01*
X172689Y292873D01*
X172656Y292875D01*
X172571Y292891D01*
X150060Y294663D01*
X150027Y294660D01*
X149940Y294663D01*
X127429Y292891D01*
X127397Y292883D01*
X127311Y292873D01*
X105354Y287601D01*
X105323Y287588D01*
X105240Y287564D01*
X84378Y278923D01*
X84350Y278905D01*
X84271Y278868D01*
X65018Y267070D01*
X64998Y267053D01*
X64992Y267050D01*
X64987Y267045D01*
X64921Y267000D01*
X47750Y252334D01*
X47729Y252309D01*
X47666Y252250D01*
X33000Y235079D01*
X32983Y235051D01*
X32930Y234982D01*
X32828Y234816D01*
X32788Y234718D01*
X32744Y234623D01*
X32742Y234605D01*
X32735Y234588D01*
X32728Y234483D01*
X32717Y234379D01*
X32721Y234361D01*
X32720Y234343D01*
X32747Y234241D01*
X32769Y234138D01*
X32778Y234123D01*
X32783Y234105D01*
X32841Y234017D01*
X32895Y233927D01*
X32909Y233915D01*
X32919Y233900D01*
X33002Y233836D01*
X33082Y233767D01*
X33099Y233760D01*
X33113Y233749D01*
X33212Y233715D01*
X33310Y233675D01*
X33333Y233673D01*
X33346Y233668D01*
X33377Y233668D01*
X33477Y233657D01*
X35499Y233657D01*
X37569Y231587D01*
X37569Y228661D01*
X35499Y226591D01*
X32573Y226591D01*
X30289Y228875D01*
X30200Y228939D01*
X30114Y229006D01*
X30101Y229010D01*
X30089Y229019D01*
X29985Y229051D01*
X29882Y229087D01*
X29868Y229087D01*
X29854Y229091D01*
X29745Y229088D01*
X29636Y229089D01*
X29622Y229085D01*
X29608Y229085D01*
X29506Y229047D01*
X29402Y229014D01*
X29390Y229005D01*
X29377Y229000D01*
X29292Y228932D01*
X29204Y228867D01*
X29194Y228853D01*
X29185Y228847D01*
X29169Y228822D01*
X29101Y228735D01*
X21132Y215729D01*
X21119Y215698D01*
X21077Y215622D01*
X14885Y200673D01*
X14875Y200629D01*
X14855Y200587D01*
X14847Y200510D01*
X14829Y200434D01*
X14833Y200388D01*
X14828Y200343D01*
X14845Y200266D01*
X14852Y200189D01*
X14871Y200147D01*
X14880Y200102D01*
X14920Y200035D01*
X14952Y199964D01*
X14983Y199930D01*
X15007Y199891D01*
X15066Y199840D01*
X15118Y199783D01*
X15159Y199761D01*
X15194Y199731D01*
X15266Y199702D01*
X15334Y199665D01*
X15379Y199656D01*
X15422Y199639D01*
X15558Y199624D01*
X15576Y199621D01*
X15581Y199622D01*
X15588Y199621D01*
X15858Y199621D01*
X15949Y199635D01*
G37*
G36*
X66420Y138886D02*
X66420Y138886D01*
X66439Y138884D01*
X66440Y138884D01*
X66541Y138906D01*
X66643Y138923D01*
X66660Y138932D01*
X66680Y138936D01*
X66769Y138990D01*
X66860Y139038D01*
X66874Y139052D01*
X66891Y139063D01*
X66958Y139141D01*
X67030Y139216D01*
X67038Y139234D01*
X67051Y139249D01*
X67090Y139346D01*
X67133Y139439D01*
X67135Y139459D01*
X67143Y139478D01*
X67161Y139644D01*
X67161Y145366D01*
X67510Y145273D01*
X68165Y144894D01*
X68541Y144518D01*
X68558Y144506D01*
X68570Y144491D01*
X68657Y144435D01*
X68741Y144375D01*
X68760Y144369D01*
X68777Y144358D01*
X68877Y144333D01*
X68976Y144302D01*
X68996Y144303D01*
X69015Y144298D01*
X69118Y144306D01*
X69222Y144309D01*
X69241Y144315D01*
X69261Y144317D01*
X69356Y144357D01*
X69453Y144393D01*
X69469Y144406D01*
X69487Y144413D01*
X69618Y144518D01*
X70314Y145215D01*
X72486Y145215D01*
X73362Y144339D01*
X73378Y144327D01*
X73390Y144311D01*
X73478Y144255D01*
X73561Y144195D01*
X73580Y144189D01*
X73597Y144178D01*
X73698Y144153D01*
X73797Y144123D01*
X73816Y144123D01*
X73836Y144118D01*
X73939Y144126D01*
X74042Y144129D01*
X74061Y144136D01*
X74081Y144137D01*
X74176Y144178D01*
X74273Y144213D01*
X74289Y144226D01*
X74307Y144234D01*
X74438Y144339D01*
X75314Y145215D01*
X77486Y145215D01*
X78362Y144339D01*
X78378Y144327D01*
X78390Y144311D01*
X78478Y144255D01*
X78561Y144195D01*
X78580Y144189D01*
X78597Y144178D01*
X78698Y144153D01*
X78797Y144123D01*
X78816Y144123D01*
X78836Y144118D01*
X78939Y144126D01*
X79042Y144129D01*
X79061Y144136D01*
X79081Y144137D01*
X79176Y144178D01*
X79273Y144213D01*
X79289Y144226D01*
X79307Y144234D01*
X79438Y144339D01*
X80314Y145215D01*
X82486Y145215D01*
X83362Y144339D01*
X83378Y144327D01*
X83390Y144311D01*
X83478Y144255D01*
X83561Y144195D01*
X83580Y144189D01*
X83597Y144178D01*
X83698Y144153D01*
X83797Y144123D01*
X83816Y144123D01*
X83836Y144118D01*
X83939Y144126D01*
X84042Y144129D01*
X84061Y144136D01*
X84081Y144137D01*
X84176Y144178D01*
X84273Y144213D01*
X84289Y144226D01*
X84307Y144234D01*
X84438Y144339D01*
X85314Y145215D01*
X87486Y145215D01*
X88362Y144339D01*
X88378Y144327D01*
X88390Y144311D01*
X88478Y144255D01*
X88561Y144195D01*
X88580Y144189D01*
X88597Y144178D01*
X88698Y144153D01*
X88797Y144123D01*
X88816Y144123D01*
X88836Y144118D01*
X88939Y144126D01*
X89042Y144129D01*
X89061Y144136D01*
X89081Y144137D01*
X89176Y144178D01*
X89273Y144213D01*
X89289Y144226D01*
X89307Y144234D01*
X89438Y144339D01*
X90314Y145215D01*
X92486Y145215D01*
X93362Y144339D01*
X93378Y144327D01*
X93390Y144311D01*
X93478Y144255D01*
X93561Y144195D01*
X93580Y144189D01*
X93597Y144178D01*
X93698Y144153D01*
X93797Y144123D01*
X93816Y144123D01*
X93836Y144118D01*
X93939Y144126D01*
X94042Y144129D01*
X94061Y144136D01*
X94081Y144137D01*
X94176Y144178D01*
X94273Y144213D01*
X94289Y144226D01*
X94307Y144234D01*
X94438Y144339D01*
X95314Y145215D01*
X97486Y145215D01*
X98362Y144339D01*
X98378Y144327D01*
X98390Y144311D01*
X98478Y144255D01*
X98561Y144195D01*
X98580Y144189D01*
X98597Y144178D01*
X98698Y144153D01*
X98797Y144123D01*
X98816Y144123D01*
X98836Y144118D01*
X98939Y144126D01*
X99042Y144129D01*
X99061Y144136D01*
X99081Y144137D01*
X99176Y144178D01*
X99273Y144213D01*
X99289Y144226D01*
X99307Y144234D01*
X99438Y144339D01*
X100314Y145215D01*
X102486Y145215D01*
X103362Y144339D01*
X103378Y144327D01*
X103390Y144311D01*
X103478Y144255D01*
X103561Y144195D01*
X103580Y144189D01*
X103597Y144178D01*
X103698Y144153D01*
X103797Y144123D01*
X103816Y144123D01*
X103836Y144118D01*
X103939Y144126D01*
X104042Y144129D01*
X104061Y144136D01*
X104081Y144137D01*
X104176Y144178D01*
X104273Y144213D01*
X104289Y144226D01*
X104307Y144234D01*
X104438Y144339D01*
X105314Y145215D01*
X107486Y145215D01*
X108362Y144339D01*
X108378Y144327D01*
X108390Y144311D01*
X108478Y144255D01*
X108561Y144195D01*
X108580Y144189D01*
X108597Y144178D01*
X108698Y144153D01*
X108797Y144123D01*
X108816Y144123D01*
X108836Y144118D01*
X108939Y144126D01*
X109042Y144129D01*
X109061Y144136D01*
X109081Y144137D01*
X109176Y144178D01*
X109273Y144213D01*
X109289Y144226D01*
X109307Y144234D01*
X109438Y144339D01*
X110314Y145215D01*
X112486Y145215D01*
X113362Y144339D01*
X113378Y144327D01*
X113390Y144311D01*
X113478Y144255D01*
X113561Y144195D01*
X113580Y144189D01*
X113597Y144178D01*
X113698Y144153D01*
X113797Y144123D01*
X113816Y144123D01*
X113836Y144118D01*
X113939Y144126D01*
X114042Y144129D01*
X114061Y144136D01*
X114081Y144137D01*
X114176Y144178D01*
X114273Y144213D01*
X114289Y144226D01*
X114307Y144234D01*
X114438Y144339D01*
X115314Y145215D01*
X116914Y145215D01*
X116934Y145218D01*
X116953Y145216D01*
X117055Y145238D01*
X117157Y145254D01*
X117174Y145264D01*
X117194Y145268D01*
X117283Y145321D01*
X117374Y145370D01*
X117388Y145384D01*
X117405Y145394D01*
X117472Y145473D01*
X117544Y145548D01*
X117552Y145566D01*
X117565Y145581D01*
X117604Y145677D01*
X117647Y145771D01*
X117649Y145791D01*
X117657Y145809D01*
X117675Y145976D01*
X117675Y147576D01*
X118372Y148272D01*
X118383Y148288D01*
X118399Y148301D01*
X118455Y148388D01*
X118515Y148472D01*
X118521Y148491D01*
X118532Y148508D01*
X118557Y148608D01*
X118588Y148707D01*
X118587Y148727D01*
X118592Y148746D01*
X118584Y148849D01*
X118581Y148953D01*
X118575Y148972D01*
X118573Y148991D01*
X118533Y149086D01*
X118497Y149184D01*
X118484Y149199D01*
X118477Y149218D01*
X118372Y149349D01*
X117996Y149725D01*
X117617Y150380D01*
X117524Y150729D01*
X123246Y150729D01*
X128968Y150729D01*
X128875Y150380D01*
X128496Y149725D01*
X128344Y149573D01*
X128302Y149515D01*
X128253Y149463D01*
X128231Y149415D01*
X128201Y149373D01*
X128180Y149304D01*
X128149Y149239D01*
X128144Y149188D01*
X128128Y149138D01*
X128130Y149066D01*
X128122Y148995D01*
X128133Y148944D01*
X128135Y148892D01*
X128159Y148825D01*
X128175Y148755D01*
X128201Y148710D01*
X128219Y148661D01*
X128264Y148605D01*
X128301Y148544D01*
X128340Y148510D01*
X128373Y148469D01*
X128433Y148430D01*
X128488Y148384D01*
X128536Y148364D01*
X128580Y148336D01*
X128649Y148319D01*
X128716Y148292D01*
X128787Y148284D01*
X128818Y148276D01*
X128842Y148278D01*
X128883Y148273D01*
X132265Y148273D01*
X134446Y146093D01*
X134504Y146051D01*
X134556Y146001D01*
X134603Y145980D01*
X134645Y145949D01*
X134714Y145928D01*
X134779Y145898D01*
X134831Y145892D01*
X134881Y145877D01*
X134952Y145879D01*
X135023Y145871D01*
X135074Y145882D01*
X135126Y145883D01*
X135194Y145908D01*
X135264Y145923D01*
X135309Y145950D01*
X135357Y145968D01*
X135413Y146012D01*
X135475Y146049D01*
X135509Y146089D01*
X135549Y146121D01*
X135588Y146182D01*
X135635Y146236D01*
X135654Y146284D01*
X135682Y146328D01*
X135700Y146398D01*
X135727Y146464D01*
X135735Y146536D01*
X135743Y146567D01*
X135741Y146590D01*
X135745Y146631D01*
X135745Y146717D01*
X140208Y146717D01*
X140228Y146720D01*
X140247Y146718D01*
X140349Y146740D01*
X140451Y146757D01*
X140468Y146766D01*
X140488Y146770D01*
X140577Y146823D01*
X140668Y146872D01*
X140682Y146886D01*
X140699Y146896D01*
X140766Y146975D01*
X140837Y147050D01*
X140846Y147068D01*
X140859Y147083D01*
X140898Y147179D01*
X140941Y147273D01*
X140943Y147293D01*
X140951Y147311D01*
X140969Y147478D01*
X140969Y149002D01*
X140966Y149022D01*
X140968Y149041D01*
X140946Y149143D01*
X140929Y149245D01*
X140920Y149262D01*
X140916Y149282D01*
X140863Y149371D01*
X140814Y149462D01*
X140800Y149476D01*
X140790Y149493D01*
X140711Y149560D01*
X140636Y149631D01*
X140618Y149640D01*
X140603Y149653D01*
X140507Y149692D01*
X140413Y149735D01*
X140393Y149737D01*
X140375Y149745D01*
X140208Y149763D01*
X135745Y149763D01*
X135745Y153168D01*
X135977Y153729D01*
X136079Y153830D01*
X136121Y153888D01*
X136170Y153940D01*
X136192Y153988D01*
X136222Y154030D01*
X136244Y154099D01*
X136274Y154164D01*
X136280Y154215D01*
X136295Y154265D01*
X136293Y154337D01*
X136301Y154408D01*
X136290Y154459D01*
X136288Y154511D01*
X136264Y154578D01*
X136249Y154648D01*
X136222Y154693D01*
X136204Y154742D01*
X136159Y154798D01*
X136122Y154859D01*
X136083Y154893D01*
X136050Y154934D01*
X135990Y154973D01*
X135936Y155019D01*
X135887Y155039D01*
X135843Y155067D01*
X135774Y155084D01*
X135707Y155111D01*
X135636Y155119D01*
X135605Y155127D01*
X135582Y155125D01*
X135541Y155130D01*
X128857Y155130D01*
X128767Y155115D01*
X128676Y155108D01*
X128647Y155095D01*
X128615Y155090D01*
X128534Y155047D01*
X128450Y155012D01*
X128418Y154986D01*
X128397Y154975D01*
X128375Y154952D01*
X128319Y154907D01*
X128120Y154708D01*
X128109Y154692D01*
X128093Y154679D01*
X128037Y154592D01*
X127977Y154508D01*
X127971Y154489D01*
X127960Y154472D01*
X127935Y154372D01*
X127904Y154273D01*
X127905Y154253D01*
X127900Y154234D01*
X127908Y154131D01*
X127911Y154027D01*
X127917Y154008D01*
X127919Y153989D01*
X127959Y153894D01*
X127995Y153796D01*
X128008Y153781D01*
X128015Y153762D01*
X128120Y153631D01*
X128496Y153255D01*
X128875Y152600D01*
X128968Y152251D01*
X123246Y152251D01*
X117524Y152251D01*
X117617Y152600D01*
X117996Y153255D01*
X118372Y153631D01*
X118384Y153648D01*
X118399Y153660D01*
X118455Y153747D01*
X118515Y153831D01*
X118521Y153850D01*
X118532Y153867D01*
X118557Y153967D01*
X118588Y154066D01*
X118587Y154086D01*
X118592Y154105D01*
X118584Y154208D01*
X118581Y154312D01*
X118575Y154331D01*
X118573Y154351D01*
X118533Y154446D01*
X118497Y154543D01*
X118484Y154559D01*
X118477Y154577D01*
X118372Y154708D01*
X117675Y155404D01*
X117675Y157576D01*
X118551Y158452D01*
X118563Y158468D01*
X118579Y158480D01*
X118635Y158568D01*
X118695Y158651D01*
X118701Y158670D01*
X118712Y158687D01*
X118737Y158788D01*
X118767Y158887D01*
X118767Y158906D01*
X118772Y158926D01*
X118764Y159029D01*
X118761Y159132D01*
X118754Y159151D01*
X118753Y159171D01*
X118712Y159266D01*
X118677Y159363D01*
X118664Y159379D01*
X118656Y159397D01*
X118551Y159528D01*
X117675Y160404D01*
X117675Y162576D01*
X118551Y163452D01*
X118563Y163468D01*
X118579Y163480D01*
X118635Y163568D01*
X118695Y163651D01*
X118701Y163670D01*
X118712Y163687D01*
X118737Y163788D01*
X118767Y163887D01*
X118767Y163906D01*
X118772Y163926D01*
X118764Y164029D01*
X118761Y164132D01*
X118754Y164151D01*
X118753Y164171D01*
X118712Y164266D01*
X118677Y164363D01*
X118664Y164379D01*
X118656Y164397D01*
X118551Y164528D01*
X117675Y165404D01*
X117675Y167576D01*
X118551Y168452D01*
X118563Y168468D01*
X118579Y168480D01*
X118635Y168568D01*
X118695Y168651D01*
X118701Y168670D01*
X118712Y168687D01*
X118737Y168788D01*
X118767Y168887D01*
X118767Y168906D01*
X118772Y168926D01*
X118764Y169029D01*
X118761Y169132D01*
X118754Y169151D01*
X118753Y169171D01*
X118712Y169266D01*
X118710Y169271D01*
X118708Y169283D01*
X118703Y169291D01*
X118677Y169363D01*
X118664Y169379D01*
X118656Y169397D01*
X118590Y169480D01*
X118581Y169494D01*
X118572Y169502D01*
X118551Y169528D01*
X117675Y170404D01*
X117675Y172576D01*
X118551Y173452D01*
X118563Y173468D01*
X118579Y173480D01*
X118635Y173568D01*
X118695Y173651D01*
X118701Y173670D01*
X118712Y173687D01*
X118737Y173788D01*
X118767Y173887D01*
X118767Y173906D01*
X118772Y173926D01*
X118764Y174029D01*
X118761Y174132D01*
X118754Y174151D01*
X118753Y174171D01*
X118712Y174266D01*
X118677Y174363D01*
X118664Y174379D01*
X118656Y174397D01*
X118551Y174528D01*
X117675Y175404D01*
X117675Y177576D01*
X118551Y178452D01*
X118563Y178468D01*
X118579Y178480D01*
X118635Y178568D01*
X118695Y178651D01*
X118701Y178670D01*
X118712Y178687D01*
X118737Y178787D01*
X118767Y178887D01*
X118767Y178906D01*
X118772Y178926D01*
X118764Y179029D01*
X118761Y179132D01*
X118754Y179151D01*
X118753Y179171D01*
X118712Y179266D01*
X118677Y179363D01*
X118664Y179379D01*
X118656Y179397D01*
X118551Y179528D01*
X117675Y180404D01*
X117675Y182576D01*
X118551Y183452D01*
X118563Y183468D01*
X118579Y183480D01*
X118635Y183568D01*
X118695Y183651D01*
X118701Y183670D01*
X118712Y183687D01*
X118737Y183788D01*
X118767Y183887D01*
X118767Y183906D01*
X118772Y183926D01*
X118764Y184029D01*
X118761Y184132D01*
X118754Y184151D01*
X118753Y184171D01*
X118712Y184266D01*
X118677Y184363D01*
X118664Y184379D01*
X118656Y184397D01*
X118551Y184528D01*
X117675Y185404D01*
X117675Y187576D01*
X118551Y188452D01*
X118563Y188468D01*
X118579Y188480D01*
X118635Y188568D01*
X118695Y188651D01*
X118701Y188670D01*
X118712Y188687D01*
X118737Y188788D01*
X118767Y188887D01*
X118767Y188906D01*
X118772Y188926D01*
X118764Y189029D01*
X118761Y189132D01*
X118754Y189151D01*
X118753Y189171D01*
X118712Y189266D01*
X118677Y189363D01*
X118664Y189379D01*
X118656Y189397D01*
X118551Y189528D01*
X117675Y190404D01*
X117675Y192576D01*
X118551Y193452D01*
X118563Y193468D01*
X118579Y193480D01*
X118635Y193568D01*
X118695Y193651D01*
X118701Y193670D01*
X118712Y193687D01*
X118737Y193788D01*
X118767Y193887D01*
X118767Y193906D01*
X118772Y193926D01*
X118764Y194029D01*
X118761Y194132D01*
X118754Y194151D01*
X118753Y194171D01*
X118712Y194266D01*
X118677Y194363D01*
X118664Y194379D01*
X118656Y194397D01*
X118551Y194528D01*
X117675Y195404D01*
X117675Y197576D01*
X118551Y198452D01*
X118563Y198468D01*
X118579Y198480D01*
X118635Y198568D01*
X118695Y198651D01*
X118701Y198670D01*
X118712Y198687D01*
X118737Y198788D01*
X118767Y198887D01*
X118767Y198906D01*
X118772Y198926D01*
X118764Y199029D01*
X118761Y199132D01*
X118754Y199151D01*
X118753Y199171D01*
X118712Y199266D01*
X118677Y199363D01*
X118664Y199379D01*
X118656Y199397D01*
X118551Y199528D01*
X117675Y200404D01*
X117675Y202004D01*
X117672Y202024D01*
X117674Y202043D01*
X117652Y202145D01*
X117636Y202247D01*
X117626Y202264D01*
X117622Y202284D01*
X117569Y202373D01*
X117520Y202464D01*
X117506Y202478D01*
X117496Y202495D01*
X117417Y202562D01*
X117342Y202634D01*
X117324Y202642D01*
X117309Y202655D01*
X117213Y202694D01*
X117119Y202737D01*
X117099Y202739D01*
X117081Y202747D01*
X116914Y202765D01*
X115314Y202765D01*
X114438Y203641D01*
X114422Y203653D01*
X114410Y203669D01*
X114322Y203725D01*
X114239Y203785D01*
X114220Y203791D01*
X114203Y203802D01*
X114102Y203827D01*
X114003Y203857D01*
X113984Y203857D01*
X113964Y203862D01*
X113861Y203854D01*
X113758Y203851D01*
X113739Y203844D01*
X113719Y203843D01*
X113624Y203802D01*
X113527Y203767D01*
X113511Y203754D01*
X113493Y203746D01*
X113362Y203641D01*
X112486Y202765D01*
X110314Y202765D01*
X109438Y203641D01*
X109422Y203653D01*
X109410Y203669D01*
X109322Y203725D01*
X109239Y203785D01*
X109220Y203791D01*
X109203Y203802D01*
X109102Y203827D01*
X109003Y203857D01*
X108984Y203857D01*
X108964Y203862D01*
X108861Y203854D01*
X108758Y203851D01*
X108739Y203844D01*
X108719Y203843D01*
X108624Y203802D01*
X108527Y203767D01*
X108511Y203754D01*
X108493Y203746D01*
X108362Y203641D01*
X107486Y202765D01*
X105314Y202765D01*
X104438Y203641D01*
X104422Y203653D01*
X104410Y203669D01*
X104322Y203725D01*
X104239Y203785D01*
X104220Y203791D01*
X104203Y203802D01*
X104102Y203827D01*
X104003Y203857D01*
X103984Y203857D01*
X103964Y203862D01*
X103861Y203854D01*
X103758Y203851D01*
X103739Y203844D01*
X103719Y203843D01*
X103624Y203802D01*
X103527Y203767D01*
X103511Y203754D01*
X103493Y203746D01*
X103362Y203641D01*
X102486Y202765D01*
X100314Y202765D01*
X99618Y203462D01*
X99602Y203473D01*
X99589Y203489D01*
X99502Y203545D01*
X99418Y203605D01*
X99399Y203611D01*
X99382Y203622D01*
X99282Y203647D01*
X99183Y203678D01*
X99163Y203677D01*
X99144Y203682D01*
X99041Y203674D01*
X98937Y203671D01*
X98918Y203665D01*
X98899Y203663D01*
X98804Y203623D01*
X98706Y203587D01*
X98691Y203574D01*
X98672Y203567D01*
X98541Y203462D01*
X98165Y203086D01*
X97510Y202707D01*
X97161Y202614D01*
X97161Y208336D01*
X97161Y214058D01*
X97510Y213965D01*
X98165Y213586D01*
X98268Y213484D01*
X98326Y213442D01*
X98378Y213393D01*
X98425Y213371D01*
X98467Y213340D01*
X98536Y213319D01*
X98601Y213289D01*
X98653Y213283D01*
X98702Y213268D01*
X98774Y213270D01*
X98845Y213262D01*
X98896Y213273D01*
X98948Y213274D01*
X99016Y213299D01*
X99086Y213314D01*
X99131Y213341D01*
X99179Y213359D01*
X99235Y213403D01*
X99297Y213440D01*
X99331Y213480D01*
X99371Y213512D01*
X99410Y213573D01*
X99457Y213627D01*
X99476Y213675D01*
X99504Y213719D01*
X99522Y213789D01*
X99549Y213855D01*
X99557Y213927D01*
X99565Y213958D01*
X99563Y213981D01*
X99567Y214022D01*
X99567Y223563D01*
X99564Y223583D01*
X99566Y223602D01*
X99544Y223704D01*
X99528Y223806D01*
X99518Y223823D01*
X99514Y223843D01*
X99461Y223932D01*
X99412Y224023D01*
X99398Y224037D01*
X99388Y224054D01*
X99309Y224121D01*
X99234Y224193D01*
X99216Y224201D01*
X99201Y224214D01*
X99105Y224253D01*
X99011Y224296D01*
X98991Y224298D01*
X98973Y224306D01*
X98806Y224324D01*
X96104Y224324D01*
X95359Y225069D01*
X95359Y235371D01*
X95490Y235502D01*
X95502Y235518D01*
X95517Y235531D01*
X95573Y235618D01*
X95634Y235702D01*
X95639Y235721D01*
X95650Y235738D01*
X95675Y235838D01*
X95706Y235937D01*
X95705Y235957D01*
X95710Y235976D01*
X95702Y236079D01*
X95700Y236183D01*
X95693Y236202D01*
X95691Y236221D01*
X95651Y236317D01*
X95615Y236414D01*
X95603Y236429D01*
X95595Y236448D01*
X95490Y236579D01*
X95337Y236731D01*
X95135Y237219D01*
X95084Y237302D01*
X95038Y237388D01*
X95020Y237406D01*
X95006Y237428D01*
X94930Y237491D01*
X94860Y237557D01*
X94836Y237568D01*
X94816Y237585D01*
X94725Y237620D01*
X94637Y237661D01*
X94611Y237664D01*
X94587Y237673D01*
X94489Y237677D01*
X94393Y237688D01*
X94367Y237683D01*
X94341Y237684D01*
X94247Y237657D01*
X94152Y237636D01*
X94130Y237622D01*
X94105Y237615D01*
X94025Y237560D01*
X93941Y237510D01*
X93924Y237490D01*
X93903Y237475D01*
X93844Y237397D01*
X93781Y237323D01*
X93771Y237299D01*
X93756Y237278D01*
X93726Y237185D01*
X93689Y237095D01*
X93686Y237062D01*
X93680Y237044D01*
X93680Y237011D01*
X93671Y236928D01*
X93671Y236424D01*
X92735Y235488D01*
X92724Y235472D01*
X92708Y235460D01*
X92652Y235372D01*
X92592Y235289D01*
X92586Y235270D01*
X92575Y235253D01*
X92550Y235152D01*
X92519Y235053D01*
X92520Y235034D01*
X92515Y235014D01*
X92523Y234911D01*
X92526Y234808D01*
X92533Y234789D01*
X92534Y234769D01*
X92575Y234674D01*
X92610Y234577D01*
X92623Y234561D01*
X92631Y234543D01*
X92735Y234412D01*
X93671Y233476D01*
X93671Y226424D01*
X92926Y225679D01*
X91694Y225679D01*
X91674Y225676D01*
X91655Y225678D01*
X91553Y225656D01*
X91451Y225640D01*
X91434Y225630D01*
X91414Y225626D01*
X91325Y225573D01*
X91234Y225524D01*
X91220Y225510D01*
X91203Y225500D01*
X91136Y225421D01*
X91064Y225346D01*
X91056Y225328D01*
X91043Y225313D01*
X91004Y225217D01*
X90961Y225123D01*
X90959Y225103D01*
X90951Y225085D01*
X90933Y224918D01*
X90933Y215470D01*
X90947Y215380D01*
X90955Y215289D01*
X90967Y215259D01*
X90972Y215227D01*
X91015Y215147D01*
X91051Y215063D01*
X91077Y215030D01*
X91088Y215010D01*
X91111Y214988D01*
X91156Y214932D01*
X91958Y214130D01*
X92032Y214077D01*
X92101Y214017D01*
X92131Y214005D01*
X92157Y213986D01*
X92244Y213959D01*
X92329Y213925D01*
X92370Y213921D01*
X92392Y213914D01*
X92425Y213915D01*
X92484Y213908D01*
X93182Y213210D01*
X93198Y213199D01*
X93211Y213183D01*
X93298Y213127D01*
X93382Y213067D01*
X93401Y213061D01*
X93418Y213050D01*
X93518Y213025D01*
X93617Y212994D01*
X93637Y212995D01*
X93656Y212990D01*
X93759Y212998D01*
X93863Y213001D01*
X93882Y213007D01*
X93901Y213009D01*
X93996Y213049D01*
X94094Y213085D01*
X94109Y213098D01*
X94128Y213105D01*
X94259Y213210D01*
X94635Y213586D01*
X95290Y213965D01*
X95639Y214058D01*
X95639Y208336D01*
X95639Y202614D01*
X95290Y202707D01*
X94635Y203086D01*
X94259Y203462D01*
X94242Y203474D01*
X94230Y203489D01*
X94143Y203545D01*
X94059Y203605D01*
X94040Y203611D01*
X94023Y203622D01*
X93923Y203647D01*
X93824Y203678D01*
X93804Y203677D01*
X93785Y203682D01*
X93682Y203674D01*
X93578Y203671D01*
X93559Y203665D01*
X93539Y203663D01*
X93444Y203623D01*
X93347Y203587D01*
X93331Y203574D01*
X93313Y203567D01*
X93182Y203462D01*
X92486Y202765D01*
X90314Y202765D01*
X89438Y203641D01*
X89422Y203653D01*
X89410Y203669D01*
X89322Y203725D01*
X89239Y203785D01*
X89220Y203791D01*
X89203Y203802D01*
X89102Y203827D01*
X89003Y203857D01*
X88984Y203857D01*
X88964Y203862D01*
X88861Y203854D01*
X88758Y203851D01*
X88739Y203844D01*
X88719Y203843D01*
X88624Y203802D01*
X88527Y203767D01*
X88511Y203754D01*
X88493Y203746D01*
X88362Y203641D01*
X87486Y202765D01*
X85314Y202765D01*
X84438Y203641D01*
X84422Y203653D01*
X84410Y203669D01*
X84322Y203725D01*
X84239Y203785D01*
X84220Y203791D01*
X84203Y203802D01*
X84102Y203827D01*
X84003Y203857D01*
X83984Y203857D01*
X83964Y203862D01*
X83861Y203854D01*
X83758Y203851D01*
X83739Y203844D01*
X83719Y203843D01*
X83624Y203802D01*
X83527Y203767D01*
X83511Y203754D01*
X83493Y203746D01*
X83362Y203641D01*
X82486Y202765D01*
X80314Y202765D01*
X79438Y203641D01*
X79422Y203653D01*
X79410Y203669D01*
X79322Y203725D01*
X79239Y203785D01*
X79220Y203791D01*
X79203Y203802D01*
X79102Y203827D01*
X79003Y203857D01*
X78984Y203857D01*
X78964Y203862D01*
X78861Y203854D01*
X78758Y203851D01*
X78739Y203844D01*
X78719Y203843D01*
X78624Y203802D01*
X78527Y203767D01*
X78511Y203754D01*
X78493Y203746D01*
X78362Y203641D01*
X77486Y202765D01*
X75314Y202765D01*
X74438Y203641D01*
X74422Y203653D01*
X74410Y203669D01*
X74322Y203725D01*
X74239Y203785D01*
X74220Y203791D01*
X74203Y203802D01*
X74102Y203827D01*
X74003Y203857D01*
X73984Y203857D01*
X73964Y203862D01*
X73861Y203854D01*
X73758Y203851D01*
X73739Y203844D01*
X73719Y203843D01*
X73624Y203802D01*
X73527Y203767D01*
X73511Y203754D01*
X73493Y203746D01*
X73362Y203641D01*
X72486Y202765D01*
X70314Y202765D01*
X69438Y203641D01*
X69422Y203653D01*
X69410Y203669D01*
X69322Y203725D01*
X69239Y203785D01*
X69220Y203791D01*
X69203Y203802D01*
X69102Y203827D01*
X69003Y203857D01*
X68984Y203857D01*
X68964Y203862D01*
X68861Y203854D01*
X68758Y203851D01*
X68739Y203844D01*
X68719Y203843D01*
X68624Y203802D01*
X68527Y203767D01*
X68511Y203754D01*
X68493Y203746D01*
X68362Y203641D01*
X67486Y202765D01*
X65314Y202765D01*
X64438Y203641D01*
X64422Y203653D01*
X64410Y203669D01*
X64322Y203725D01*
X64239Y203785D01*
X64220Y203791D01*
X64203Y203802D01*
X64102Y203827D01*
X64003Y203857D01*
X63984Y203857D01*
X63964Y203862D01*
X63861Y203854D01*
X63758Y203851D01*
X63739Y203844D01*
X63719Y203843D01*
X63624Y203802D01*
X63527Y203767D01*
X63511Y203754D01*
X63493Y203746D01*
X63362Y203641D01*
X62486Y202765D01*
X60886Y202765D01*
X60866Y202762D01*
X60847Y202764D01*
X60745Y202742D01*
X60643Y202726D01*
X60626Y202716D01*
X60606Y202712D01*
X60517Y202659D01*
X60426Y202610D01*
X60412Y202596D01*
X60395Y202586D01*
X60328Y202507D01*
X60256Y202432D01*
X60248Y202414D01*
X60235Y202399D01*
X60196Y202303D01*
X60153Y202209D01*
X60151Y202189D01*
X60143Y202171D01*
X60125Y202004D01*
X60125Y200404D01*
X59428Y199708D01*
X59417Y199692D01*
X59401Y199679D01*
X59345Y199592D01*
X59285Y199508D01*
X59279Y199489D01*
X59268Y199472D01*
X59243Y199372D01*
X59212Y199273D01*
X59213Y199253D01*
X59208Y199234D01*
X59216Y199131D01*
X59219Y199027D01*
X59225Y199008D01*
X59227Y198989D01*
X59267Y198894D01*
X59303Y198796D01*
X59316Y198781D01*
X59323Y198762D01*
X59428Y198631D01*
X59804Y198255D01*
X60183Y197600D01*
X60276Y197251D01*
X54554Y197251D01*
X48832Y197251D01*
X48925Y197600D01*
X49304Y198255D01*
X49680Y198631D01*
X49692Y198648D01*
X49707Y198660D01*
X49763Y198747D01*
X49823Y198831D01*
X49829Y198850D01*
X49840Y198867D01*
X49865Y198967D01*
X49896Y199066D01*
X49895Y199086D01*
X49900Y199105D01*
X49892Y199208D01*
X49889Y199312D01*
X49883Y199331D01*
X49881Y199351D01*
X49841Y199446D01*
X49805Y199543D01*
X49792Y199559D01*
X49785Y199577D01*
X49680Y199708D01*
X48983Y200404D01*
X48983Y202576D01*
X49560Y203153D01*
X49613Y203227D01*
X49673Y203296D01*
X49685Y203326D01*
X49704Y203352D01*
X49731Y203439D01*
X49765Y203524D01*
X49769Y203565D01*
X49776Y203587D01*
X49775Y203620D01*
X49783Y203691D01*
X49783Y204747D01*
X49769Y204837D01*
X49761Y204928D01*
X49749Y204958D01*
X49744Y204990D01*
X49701Y205071D01*
X49665Y205155D01*
X49639Y205187D01*
X49628Y205207D01*
X49605Y205230D01*
X49560Y205286D01*
X48537Y206309D01*
X48537Y207628D01*
X48534Y207648D01*
X48536Y207667D01*
X48514Y207769D01*
X48498Y207871D01*
X48488Y207888D01*
X48484Y207908D01*
X48431Y207997D01*
X48382Y208088D01*
X48368Y208102D01*
X48358Y208119D01*
X48279Y208186D01*
X48204Y208258D01*
X48186Y208266D01*
X48171Y208279D01*
X48075Y208318D01*
X47981Y208361D01*
X47961Y208363D01*
X47943Y208371D01*
X47776Y208389D01*
X37679Y208389D01*
X37548Y208520D01*
X37532Y208532D01*
X37519Y208547D01*
X37432Y208603D01*
X37348Y208664D01*
X37329Y208669D01*
X37312Y208680D01*
X37212Y208705D01*
X37113Y208736D01*
X37093Y208735D01*
X37074Y208740D01*
X36971Y208732D01*
X36867Y208730D01*
X36848Y208723D01*
X36829Y208721D01*
X36733Y208681D01*
X36636Y208645D01*
X36621Y208633D01*
X36602Y208625D01*
X36471Y208520D01*
X36319Y208367D01*
X35758Y208135D01*
X34093Y208135D01*
X34022Y208124D01*
X33951Y208122D01*
X33902Y208104D01*
X33850Y208096D01*
X33787Y208062D01*
X33720Y208037D01*
X33679Y208005D01*
X33633Y207980D01*
X33584Y207929D01*
X33528Y207884D01*
X33499Y207840D01*
X33464Y207802D01*
X33433Y207737D01*
X33395Y207677D01*
X33382Y207626D01*
X33360Y207579D01*
X33352Y207508D01*
X33335Y207438D01*
X33339Y207386D01*
X33333Y207335D01*
X33348Y207264D01*
X33354Y207193D01*
X33374Y207145D01*
X33385Y207094D01*
X33422Y207033D01*
X33450Y206967D01*
X33495Y206911D01*
X33511Y206883D01*
X33529Y206868D01*
X33555Y206836D01*
X33568Y206822D01*
X33568Y203652D01*
X33571Y203632D01*
X33569Y203613D01*
X33591Y203511D01*
X33608Y203409D01*
X33617Y203392D01*
X33622Y203372D01*
X33675Y203283D01*
X33723Y203192D01*
X33737Y203178D01*
X33748Y203161D01*
X33826Y203094D01*
X33901Y203022D01*
X33919Y203014D01*
X33935Y203001D01*
X34031Y202962D01*
X34124Y202919D01*
X34144Y202917D01*
X34163Y202909D01*
X34329Y202891D01*
X39006Y202891D01*
X39751Y202146D01*
X39751Y196802D01*
X39765Y196712D01*
X39773Y196621D01*
X39785Y196591D01*
X39790Y196559D01*
X39833Y196478D01*
X39869Y196394D01*
X39895Y196362D01*
X39906Y196342D01*
X39929Y196320D01*
X39974Y196264D01*
X41894Y194343D01*
X41968Y194290D01*
X42037Y194231D01*
X42068Y194219D01*
X42094Y194200D01*
X42181Y194173D01*
X42266Y194139D01*
X42307Y194134D01*
X42329Y194127D01*
X42361Y194128D01*
X42432Y194120D01*
X48334Y194120D01*
X48428Y194136D01*
X48523Y194144D01*
X48549Y194155D01*
X48577Y194160D01*
X48661Y194205D01*
X48749Y194243D01*
X48769Y194262D01*
X48794Y194275D01*
X48860Y194344D01*
X48931Y194408D01*
X48944Y194433D01*
X48964Y194453D01*
X49004Y194540D01*
X49050Y194623D01*
X49055Y194651D01*
X49067Y194676D01*
X49078Y194771D01*
X49095Y194865D01*
X49091Y194893D01*
X49094Y194921D01*
X49074Y195014D01*
X49061Y195109D01*
X49047Y195141D01*
X49042Y195161D01*
X49040Y195166D01*
X49025Y195190D01*
X48993Y195262D01*
X48925Y195380D01*
X48832Y195729D01*
X54554Y195729D01*
X60276Y195729D01*
X60183Y195380D01*
X59804Y194725D01*
X59428Y194349D01*
X59416Y194332D01*
X59401Y194320D01*
X59345Y194233D01*
X59285Y194149D01*
X59279Y194130D01*
X59268Y194113D01*
X59243Y194013D01*
X59212Y193914D01*
X59213Y193894D01*
X59208Y193875D01*
X59216Y193772D01*
X59219Y193668D01*
X59225Y193649D01*
X59227Y193629D01*
X59267Y193534D01*
X59303Y193437D01*
X59316Y193421D01*
X59323Y193403D01*
X59428Y193272D01*
X60125Y192576D01*
X60125Y190404D01*
X59249Y189528D01*
X59237Y189512D01*
X59221Y189500D01*
X59165Y189412D01*
X59105Y189329D01*
X59099Y189310D01*
X59088Y189293D01*
X59063Y189192D01*
X59033Y189093D01*
X59033Y189074D01*
X59028Y189054D01*
X59036Y188951D01*
X59039Y188848D01*
X59046Y188829D01*
X59047Y188809D01*
X59088Y188714D01*
X59123Y188617D01*
X59136Y188601D01*
X59144Y188583D01*
X59249Y188452D01*
X60125Y187576D01*
X60125Y185404D01*
X59249Y184528D01*
X59237Y184512D01*
X59221Y184500D01*
X59165Y184412D01*
X59105Y184329D01*
X59099Y184310D01*
X59088Y184293D01*
X59063Y184192D01*
X59033Y184093D01*
X59033Y184074D01*
X59028Y184054D01*
X59036Y183951D01*
X59039Y183848D01*
X59046Y183829D01*
X59047Y183809D01*
X59088Y183714D01*
X59123Y183617D01*
X59136Y183601D01*
X59144Y183583D01*
X59249Y183452D01*
X60125Y182576D01*
X60125Y180404D01*
X59249Y179528D01*
X59237Y179512D01*
X59221Y179500D01*
X59165Y179412D01*
X59105Y179329D01*
X59099Y179310D01*
X59088Y179293D01*
X59063Y179192D01*
X59033Y179093D01*
X59033Y179074D01*
X59028Y179054D01*
X59036Y178951D01*
X59039Y178848D01*
X59046Y178829D01*
X59047Y178809D01*
X59088Y178714D01*
X59123Y178617D01*
X59136Y178601D01*
X59144Y178583D01*
X59249Y178452D01*
X60125Y177576D01*
X60125Y175404D01*
X59249Y174528D01*
X59237Y174512D01*
X59221Y174500D01*
X59165Y174412D01*
X59105Y174329D01*
X59099Y174310D01*
X59088Y174293D01*
X59063Y174192D01*
X59033Y174093D01*
X59033Y174074D01*
X59028Y174054D01*
X59036Y173951D01*
X59039Y173848D01*
X59046Y173829D01*
X59047Y173809D01*
X59088Y173714D01*
X59123Y173617D01*
X59136Y173601D01*
X59144Y173583D01*
X59249Y173452D01*
X60125Y172576D01*
X60125Y170404D01*
X59249Y169528D01*
X59237Y169512D01*
X59221Y169500D01*
X59192Y169454D01*
X59171Y169432D01*
X59156Y169399D01*
X59105Y169329D01*
X59099Y169310D01*
X59088Y169293D01*
X59063Y169192D01*
X59033Y169093D01*
X59033Y169074D01*
X59028Y169054D01*
X59036Y168951D01*
X59039Y168848D01*
X59046Y168829D01*
X59047Y168809D01*
X59088Y168714D01*
X59123Y168617D01*
X59136Y168601D01*
X59144Y168583D01*
X59249Y168452D01*
X60125Y167576D01*
X60125Y165404D01*
X59249Y164528D01*
X59237Y164512D01*
X59221Y164500D01*
X59165Y164412D01*
X59105Y164329D01*
X59099Y164310D01*
X59088Y164293D01*
X59063Y164192D01*
X59033Y164093D01*
X59033Y164074D01*
X59028Y164054D01*
X59036Y163951D01*
X59039Y163848D01*
X59046Y163829D01*
X59047Y163809D01*
X59088Y163714D01*
X59123Y163617D01*
X59136Y163601D01*
X59144Y163583D01*
X59249Y163452D01*
X60125Y162576D01*
X60125Y160404D01*
X59249Y159528D01*
X59237Y159512D01*
X59221Y159500D01*
X59165Y159412D01*
X59105Y159329D01*
X59099Y159310D01*
X59088Y159293D01*
X59063Y159192D01*
X59033Y159093D01*
X59033Y159074D01*
X59028Y159054D01*
X59036Y158951D01*
X59039Y158848D01*
X59046Y158829D01*
X59047Y158809D01*
X59088Y158714D01*
X59123Y158617D01*
X59136Y158601D01*
X59144Y158583D01*
X59249Y158452D01*
X60125Y157576D01*
X60125Y155404D01*
X59249Y154528D01*
X59237Y154512D01*
X59221Y154500D01*
X59165Y154412D01*
X59105Y154329D01*
X59099Y154310D01*
X59088Y154293D01*
X59063Y154192D01*
X59033Y154093D01*
X59033Y154074D01*
X59028Y154054D01*
X59036Y153951D01*
X59039Y153848D01*
X59046Y153829D01*
X59047Y153809D01*
X59088Y153714D01*
X59123Y153617D01*
X59136Y153601D01*
X59144Y153583D01*
X59249Y153452D01*
X60125Y152576D01*
X60125Y150404D01*
X59249Y149528D01*
X59237Y149512D01*
X59221Y149500D01*
X59165Y149412D01*
X59105Y149329D01*
X59099Y149310D01*
X59088Y149293D01*
X59063Y149192D01*
X59033Y149093D01*
X59033Y149074D01*
X59028Y149054D01*
X59036Y148951D01*
X59039Y148848D01*
X59046Y148829D01*
X59047Y148809D01*
X59088Y148714D01*
X59123Y148617D01*
X59136Y148601D01*
X59144Y148583D01*
X59249Y148452D01*
X60125Y147576D01*
X60125Y145976D01*
X60128Y145956D01*
X60126Y145937D01*
X60148Y145835D01*
X60164Y145733D01*
X60174Y145716D01*
X60178Y145696D01*
X60231Y145607D01*
X60280Y145516D01*
X60294Y145502D01*
X60304Y145485D01*
X60383Y145418D01*
X60458Y145346D01*
X60476Y145338D01*
X60491Y145325D01*
X60587Y145286D01*
X60681Y145243D01*
X60701Y145241D01*
X60719Y145233D01*
X60886Y145215D01*
X62486Y145215D01*
X63182Y144518D01*
X63198Y144507D01*
X63211Y144491D01*
X63298Y144435D01*
X63382Y144375D01*
X63401Y144369D01*
X63418Y144358D01*
X63518Y144333D01*
X63617Y144302D01*
X63637Y144303D01*
X63656Y144298D01*
X63759Y144306D01*
X63863Y144309D01*
X63882Y144316D01*
X63901Y144317D01*
X63996Y144357D01*
X64094Y144393D01*
X64109Y144406D01*
X64128Y144413D01*
X64259Y144518D01*
X64635Y144894D01*
X65290Y145273D01*
X65639Y145366D01*
X65639Y139644D01*
X65642Y139625D01*
X65640Y139605D01*
X65662Y139504D01*
X65678Y139402D01*
X65688Y139384D01*
X65692Y139365D01*
X65745Y139275D01*
X65793Y139184D01*
X65808Y139171D01*
X65818Y139153D01*
X65897Y139086D01*
X65972Y139015D01*
X65990Y139006D01*
X66005Y138993D01*
X66101Y138955D01*
X66195Y138911D01*
X66215Y138909D01*
X66233Y138902D01*
X66400Y138883D01*
X66420Y138886D01*
G37*
G36*
X98944Y15172D02*
X98944Y15172D01*
X99021Y15179D01*
X99063Y15198D01*
X99108Y15208D01*
X99175Y15248D01*
X99246Y15279D01*
X99280Y15310D01*
X99319Y15334D01*
X99370Y15393D01*
X99427Y15446D01*
X99449Y15486D01*
X99479Y15521D01*
X99508Y15593D01*
X99545Y15661D01*
X99554Y15706D01*
X99571Y15749D01*
X99586Y15885D01*
X99589Y15903D01*
X99588Y15908D01*
X99589Y15916D01*
X99589Y32806D01*
X100334Y33551D01*
X119531Y33551D01*
X119551Y33554D01*
X119570Y33552D01*
X119672Y33574D01*
X119774Y33590D01*
X119791Y33600D01*
X119811Y33604D01*
X119900Y33657D01*
X119991Y33706D01*
X120005Y33720D01*
X120022Y33730D01*
X120089Y33809D01*
X120161Y33884D01*
X120169Y33902D01*
X120182Y33917D01*
X120221Y34013D01*
X120264Y34107D01*
X120266Y34127D01*
X120274Y34145D01*
X120292Y34312D01*
X120292Y35306D01*
X120289Y35326D01*
X120291Y35345D01*
X120269Y35447D01*
X120253Y35549D01*
X120243Y35566D01*
X120239Y35586D01*
X120186Y35675D01*
X120137Y35766D01*
X120123Y35780D01*
X120113Y35797D01*
X120034Y35864D01*
X119959Y35936D01*
X119941Y35944D01*
X119926Y35957D01*
X119830Y35996D01*
X119736Y36039D01*
X119716Y36041D01*
X119698Y36049D01*
X119531Y36067D01*
X94408Y36067D01*
X10288Y120187D01*
X10257Y120209D01*
X10232Y120238D01*
X10158Y120281D01*
X10088Y120331D01*
X10052Y120342D01*
X10019Y120361D01*
X9935Y120378D01*
X9853Y120403D01*
X9815Y120402D01*
X9778Y120410D01*
X9693Y120399D01*
X9607Y120397D01*
X9572Y120384D01*
X9534Y120379D01*
X9457Y120342D01*
X9376Y120312D01*
X9347Y120288D01*
X9312Y120272D01*
X9251Y120212D01*
X9184Y120159D01*
X9164Y120127D01*
X9137Y120100D01*
X9098Y120024D01*
X9051Y119952D01*
X9042Y119915D01*
X9025Y119881D01*
X9012Y119796D01*
X8991Y119713D01*
X8994Y119675D01*
X8989Y119638D01*
X9010Y119471D01*
X12399Y105353D01*
X12412Y105323D01*
X12436Y105240D01*
X21077Y84378D01*
X21095Y84350D01*
X21132Y84271D01*
X32930Y65018D01*
X32952Y64993D01*
X33000Y64921D01*
X47666Y47750D01*
X47691Y47729D01*
X47750Y47666D01*
X64921Y33000D01*
X64949Y32983D01*
X65018Y32930D01*
X67633Y31328D01*
X68875Y30566D01*
X70117Y29805D01*
X71359Y29044D01*
X77571Y25238D01*
X78813Y24476D01*
X80055Y23715D01*
X81297Y22954D01*
X82540Y22193D01*
X84271Y21132D01*
X84302Y21119D01*
X84378Y21077D01*
X98537Y15212D01*
X98581Y15202D01*
X98623Y15183D01*
X98700Y15174D01*
X98776Y15156D01*
X98822Y15161D01*
X98867Y15155D01*
X98944Y15172D01*
G37*
G36*
X221063Y163961D02*
X221063Y163961D01*
X221083Y163959D01*
X221184Y163981D01*
X221286Y163997D01*
X221304Y164007D01*
X221323Y164011D01*
X221412Y164064D01*
X221504Y164113D01*
X221517Y164127D01*
X221534Y164137D01*
X221602Y164216D01*
X221673Y164291D01*
X221681Y164309D01*
X221694Y164324D01*
X221733Y164420D01*
X221777Y164514D01*
X221779Y164534D01*
X221786Y164552D01*
X221805Y164719D01*
X221805Y201509D01*
X221790Y201599D01*
X221783Y201690D01*
X221770Y201720D01*
X221765Y201752D01*
X221722Y201832D01*
X221687Y201916D01*
X221661Y201948D01*
X221650Y201969D01*
X221627Y201991D01*
X221582Y202047D01*
X220140Y203489D01*
X220124Y203500D01*
X220111Y203516D01*
X220024Y203572D01*
X219940Y203632D01*
X219921Y203638D01*
X219905Y203649D01*
X219804Y203674D01*
X219705Y203705D01*
X219685Y203704D01*
X219666Y203709D01*
X219563Y203701D01*
X219459Y203698D01*
X219441Y203691D01*
X219421Y203690D01*
X219326Y203650D01*
X219228Y203614D01*
X219213Y203601D01*
X219195Y203594D01*
X219064Y203489D01*
X213393Y197818D01*
X211980Y196405D01*
X201260Y196405D01*
X201170Y196390D01*
X201079Y196383D01*
X201049Y196370D01*
X201017Y196365D01*
X200937Y196322D01*
X200853Y196287D01*
X200821Y196261D01*
X200800Y196250D01*
X200778Y196227D01*
X200722Y196182D01*
X196817Y192277D01*
X181643Y192277D01*
X177738Y196182D01*
X177664Y196235D01*
X177595Y196294D01*
X177565Y196307D01*
X177538Y196325D01*
X177451Y196352D01*
X177367Y196386D01*
X177326Y196391D01*
X177303Y196398D01*
X177271Y196397D01*
X177200Y196405D01*
X169204Y196405D01*
X169133Y196393D01*
X169062Y196391D01*
X169013Y196373D01*
X168961Y196365D01*
X168898Y196332D01*
X168831Y196307D01*
X168790Y196274D01*
X168744Y196250D01*
X168695Y196198D01*
X168639Y196153D01*
X168610Y196109D01*
X168575Y196072D01*
X168544Y196007D01*
X168506Y195946D01*
X168493Y195896D01*
X168471Y195849D01*
X168463Y195777D01*
X168446Y195708D01*
X168450Y195656D01*
X168444Y195604D01*
X168459Y195534D01*
X168465Y195462D01*
X168485Y195415D01*
X168496Y195364D01*
X168533Y195302D01*
X168561Y195236D01*
X168606Y195180D01*
X168622Y195153D01*
X168633Y195144D01*
X168633Y193332D01*
X168634Y193325D01*
X168634Y193324D01*
X168635Y193318D01*
X168647Y193242D01*
X168655Y193151D01*
X168667Y193122D01*
X168672Y193090D01*
X168715Y193009D01*
X168751Y192925D01*
X168777Y192893D01*
X168788Y192872D01*
X168811Y192850D01*
X168856Y192794D01*
X168894Y192756D01*
X168961Y192708D01*
X168966Y192703D01*
X168970Y192701D01*
X169037Y192643D01*
X169068Y192631D01*
X169094Y192612D01*
X169181Y192585D01*
X169266Y192551D01*
X169307Y192547D01*
X169329Y192540D01*
X169361Y192541D01*
X169432Y192533D01*
X175467Y192533D01*
X176881Y191119D01*
X181682Y186318D01*
X181755Y186265D01*
X181825Y186206D01*
X181855Y186193D01*
X181881Y186175D01*
X181968Y186148D01*
X182053Y186114D01*
X182094Y186109D01*
X182116Y186102D01*
X182149Y186103D01*
X182220Y186095D01*
X184026Y186095D01*
X186095Y184026D01*
X186095Y181099D01*
X184818Y179822D01*
X184776Y179764D01*
X184727Y179712D01*
X184705Y179665D01*
X184675Y179623D01*
X184654Y179554D01*
X184623Y179489D01*
X184618Y179437D01*
X184602Y179387D01*
X184604Y179316D01*
X184596Y179245D01*
X184607Y179194D01*
X184609Y179142D01*
X184633Y179074D01*
X184649Y179004D01*
X184675Y178959D01*
X184693Y178911D01*
X184738Y178855D01*
X184775Y178793D01*
X184814Y178759D01*
X184847Y178719D01*
X184907Y178680D01*
X184962Y178633D01*
X185010Y178614D01*
X185054Y178586D01*
X185123Y178568D01*
X185190Y178541D01*
X185261Y178533D01*
X185292Y178525D01*
X185316Y178527D01*
X185357Y178523D01*
X211606Y178523D01*
X211626Y178526D01*
X211645Y178524D01*
X211747Y178546D01*
X211849Y178562D01*
X211866Y178572D01*
X211886Y178576D01*
X211975Y178629D01*
X212066Y178678D01*
X212080Y178692D01*
X212097Y178702D01*
X212164Y178781D01*
X212236Y178856D01*
X212244Y178874D01*
X212257Y178889D01*
X212296Y178985D01*
X212339Y179079D01*
X212341Y179099D01*
X212349Y179117D01*
X212367Y179284D01*
X212367Y180851D01*
X214437Y182920D01*
X217363Y182920D01*
X219433Y180851D01*
X219433Y177924D01*
X217363Y175855D01*
X215557Y175855D01*
X215467Y175840D01*
X215377Y175833D01*
X215347Y175820D01*
X215315Y175815D01*
X215234Y175772D01*
X215150Y175737D01*
X215118Y175711D01*
X215097Y175700D01*
X215075Y175677D01*
X215019Y175632D01*
X214981Y175594D01*
X214981Y175593D01*
X213567Y174180D01*
X211883Y174180D01*
X211828Y174234D01*
X211755Y174287D01*
X211685Y174347D01*
X211655Y174359D01*
X211629Y174378D01*
X211542Y174405D01*
X211457Y174439D01*
X211416Y174443D01*
X211394Y174450D01*
X211361Y174449D01*
X211290Y174457D01*
X156909Y174457D01*
X153814Y177552D01*
X153740Y177605D01*
X153670Y177665D01*
X153640Y177677D01*
X153614Y177696D01*
X153527Y177723D01*
X153442Y177757D01*
X153401Y177761D01*
X153379Y177768D01*
X153347Y177767D01*
X153275Y177775D01*
X152033Y177775D01*
X151943Y177761D01*
X151852Y177753D01*
X151822Y177741D01*
X151790Y177736D01*
X151709Y177693D01*
X151625Y177657D01*
X151593Y177631D01*
X151573Y177620D01*
X151550Y177597D01*
X151494Y177552D01*
X148399Y174457D01*
X128773Y174457D01*
X128702Y174446D01*
X128630Y174444D01*
X128581Y174426D01*
X128530Y174418D01*
X128467Y174384D01*
X128399Y174359D01*
X128359Y174327D01*
X128313Y174302D01*
X128263Y174250D01*
X128207Y174206D01*
X128179Y174162D01*
X128143Y174124D01*
X128113Y174059D01*
X128074Y173999D01*
X128062Y173948D01*
X128040Y173901D01*
X128032Y173830D01*
X128014Y173760D01*
X128018Y173708D01*
X128013Y173657D01*
X128028Y173586D01*
X128033Y173515D01*
X128054Y173467D01*
X128065Y173416D01*
X128102Y173355D01*
X128130Y173289D01*
X128175Y173233D01*
X128191Y173205D01*
X128209Y173190D01*
X128235Y173158D01*
X128817Y172576D01*
X128817Y170404D01*
X128432Y170020D01*
X128390Y169961D01*
X128341Y169910D01*
X128319Y169862D01*
X128288Y169820D01*
X128267Y169752D01*
X128237Y169686D01*
X128231Y169635D01*
X128216Y169585D01*
X128218Y169513D01*
X128210Y169442D01*
X128221Y169391D01*
X128222Y169339D01*
X128247Y169272D01*
X128262Y169202D01*
X128289Y169157D01*
X128307Y169108D01*
X128352Y169052D01*
X128389Y168991D01*
X128428Y168957D01*
X128461Y168916D01*
X128521Y168877D01*
X128575Y168831D01*
X128624Y168811D01*
X128668Y168783D01*
X128737Y168766D01*
X128804Y168739D01*
X128875Y168731D01*
X128906Y168723D01*
X128929Y168725D01*
X128970Y168720D01*
X137288Y168720D01*
X137308Y168723D01*
X137327Y168721D01*
X137429Y168743D01*
X137531Y168760D01*
X137548Y168769D01*
X137568Y168774D01*
X137657Y168827D01*
X137748Y168875D01*
X137762Y168889D01*
X137779Y168900D01*
X137846Y168978D01*
X137918Y169053D01*
X137926Y169071D01*
X137939Y169087D01*
X137978Y169183D01*
X138021Y169276D01*
X138023Y169296D01*
X138031Y169315D01*
X138049Y169481D01*
X138049Y170396D01*
X138794Y171141D01*
X145846Y171141D01*
X146702Y170285D01*
X146739Y170258D01*
X146771Y170224D01*
X146839Y170187D01*
X146902Y170141D01*
X146946Y170128D01*
X146986Y170106D01*
X147063Y170092D01*
X147137Y170069D01*
X147183Y170070D01*
X147228Y170062D01*
X147305Y170073D01*
X147383Y170075D01*
X147426Y170091D01*
X147471Y170098D01*
X147541Y170133D01*
X147614Y170160D01*
X147650Y170188D01*
X147691Y170209D01*
X147745Y170265D01*
X147806Y170313D01*
X147831Y170352D01*
X147863Y170385D01*
X147929Y170505D01*
X147939Y170520D01*
X147940Y170525D01*
X147944Y170532D01*
X148027Y170734D01*
X148456Y171163D01*
X149017Y171395D01*
X150821Y171395D01*
X150821Y167108D01*
X150824Y167089D01*
X150822Y167069D01*
X150844Y166967D01*
X150860Y166865D01*
X150870Y166848D01*
X150874Y166828D01*
X150927Y166739D01*
X150976Y166648D01*
X150990Y166634D01*
X151000Y166617D01*
X151079Y166550D01*
X151154Y166479D01*
X151172Y166470D01*
X151187Y166457D01*
X151283Y166419D01*
X151377Y166375D01*
X151397Y166373D01*
X151415Y166365D01*
X151582Y166347D01*
X152297Y166347D01*
X152297Y165632D01*
X152300Y165612D01*
X152298Y165592D01*
X152320Y165491D01*
X152337Y165389D01*
X152346Y165372D01*
X152350Y165352D01*
X152403Y165263D01*
X152452Y165172D01*
X152466Y165158D01*
X152476Y165141D01*
X152555Y165074D01*
X152630Y165002D01*
X152648Y164994D01*
X152663Y164981D01*
X152760Y164942D01*
X152853Y164899D01*
X152873Y164897D01*
X152891Y164889D01*
X153058Y164871D01*
X156845Y164871D01*
X156845Y164719D01*
X156848Y164699D01*
X156846Y164680D01*
X156868Y164578D01*
X156884Y164476D01*
X156894Y164459D01*
X156898Y164439D01*
X156951Y164350D01*
X157000Y164259D01*
X157014Y164245D01*
X157024Y164228D01*
X157103Y164161D01*
X157178Y164089D01*
X157196Y164081D01*
X157211Y164068D01*
X157307Y164029D01*
X157401Y163986D01*
X157421Y163984D01*
X157439Y163976D01*
X157606Y163958D01*
X221044Y163958D01*
X221063Y163961D01*
G37*
G36*
X52904Y116000D02*
X52904Y116000D01*
X52975Y116006D01*
X53023Y116026D01*
X53074Y116037D01*
X53135Y116074D01*
X53201Y116102D01*
X53257Y116147D01*
X53285Y116163D01*
X53300Y116181D01*
X53332Y116207D01*
X59144Y122019D01*
X59197Y122093D01*
X59257Y122162D01*
X59269Y122193D01*
X59288Y122219D01*
X59315Y122306D01*
X59326Y122333D01*
X59339Y122362D01*
X59340Y122368D01*
X59349Y122391D01*
X59353Y122432D01*
X59360Y122454D01*
X59359Y122486D01*
X59367Y122557D01*
X59367Y134705D01*
X59353Y134795D01*
X59345Y134886D01*
X59333Y134916D01*
X59328Y134948D01*
X59285Y135029D01*
X59249Y135112D01*
X59223Y135145D01*
X59212Y135165D01*
X59189Y135187D01*
X59144Y135243D01*
X58779Y135608D01*
X58779Y143108D01*
X58776Y143128D01*
X58778Y143147D01*
X58756Y143249D01*
X58740Y143351D01*
X58730Y143368D01*
X58726Y143388D01*
X58673Y143477D01*
X58624Y143568D01*
X58610Y143582D01*
X58600Y143599D01*
X58521Y143666D01*
X58446Y143738D01*
X58428Y143746D01*
X58413Y143759D01*
X58317Y143798D01*
X58223Y143841D01*
X58203Y143843D01*
X58185Y143851D01*
X58018Y143869D01*
X55483Y143869D01*
X55392Y143855D01*
X55302Y143847D01*
X55272Y143835D01*
X55240Y143830D01*
X55159Y143787D01*
X55075Y143751D01*
X55043Y143725D01*
X55022Y143714D01*
X55000Y143691D01*
X54944Y143646D01*
X52510Y141212D01*
X52457Y141138D01*
X52397Y141068D01*
X52385Y141038D01*
X52366Y141012D01*
X52339Y140925D01*
X52305Y140840D01*
X52301Y140799D01*
X52294Y140777D01*
X52295Y140745D01*
X52287Y140673D01*
X52287Y134068D01*
X52301Y133978D01*
X52309Y133887D01*
X52321Y133858D01*
X52326Y133826D01*
X52369Y133745D01*
X52405Y133661D01*
X52431Y133629D01*
X52442Y133608D01*
X52465Y133586D01*
X52510Y133530D01*
X54271Y131769D01*
X54271Y128231D01*
X51769Y125729D01*
X48231Y125729D01*
X45729Y128231D01*
X45729Y131769D01*
X47490Y133530D01*
X47543Y133604D01*
X47603Y133673D01*
X47615Y133704D01*
X47634Y133730D01*
X47661Y133817D01*
X47695Y133902D01*
X47699Y133943D01*
X47706Y133965D01*
X47705Y133997D01*
X47713Y134068D01*
X47713Y142883D01*
X49071Y144241D01*
X49082Y144257D01*
X49098Y144269D01*
X49154Y144356D01*
X49214Y144440D01*
X49220Y144459D01*
X49231Y144476D01*
X49256Y144576D01*
X49287Y144675D01*
X49286Y144695D01*
X49291Y144715D01*
X49283Y144818D01*
X49280Y144921D01*
X49273Y144940D01*
X49272Y144960D01*
X49231Y145055D01*
X49196Y145152D01*
X49183Y145168D01*
X49175Y145186D01*
X49071Y145317D01*
X48983Y145404D01*
X48983Y147576D01*
X49565Y148158D01*
X49607Y148216D01*
X49657Y148268D01*
X49679Y148315D01*
X49709Y148357D01*
X49730Y148426D01*
X49760Y148491D01*
X49766Y148543D01*
X49781Y148593D01*
X49780Y148664D01*
X49787Y148735D01*
X49776Y148786D01*
X49775Y148838D01*
X49750Y148906D01*
X49735Y148976D01*
X49708Y149021D01*
X49691Y149069D01*
X49646Y149125D01*
X49609Y149187D01*
X49569Y149221D01*
X49537Y149261D01*
X49477Y149300D01*
X49422Y149347D01*
X49374Y149366D01*
X49330Y149394D01*
X49260Y149412D01*
X49194Y149439D01*
X49123Y149447D01*
X49091Y149455D01*
X49068Y149453D01*
X49027Y149457D01*
X47566Y149457D01*
X46413Y150610D01*
X46355Y150652D01*
X46303Y150701D01*
X46256Y150723D01*
X46214Y150754D01*
X46145Y150775D01*
X46080Y150805D01*
X46028Y150811D01*
X45978Y150826D01*
X45907Y150824D01*
X45835Y150832D01*
X45785Y150821D01*
X45733Y150820D01*
X45665Y150795D01*
X45595Y150780D01*
X45550Y150753D01*
X45502Y150735D01*
X45446Y150690D01*
X45384Y150654D01*
X45350Y150614D01*
X45309Y150581D01*
X45271Y150521D01*
X45224Y150467D01*
X45205Y150418D01*
X45176Y150375D01*
X45159Y150305D01*
X45132Y150238D01*
X45124Y150167D01*
X45116Y150136D01*
X45118Y150113D01*
X45114Y150072D01*
X45114Y147101D01*
X44882Y146540D01*
X44453Y146111D01*
X43892Y145879D01*
X40487Y145879D01*
X40487Y150342D01*
X40484Y150362D01*
X40486Y150381D01*
X40464Y150483D01*
X40447Y150585D01*
X40438Y150602D01*
X40434Y150622D01*
X40381Y150711D01*
X40332Y150802D01*
X40318Y150816D01*
X40308Y150833D01*
X40229Y150900D01*
X40154Y150971D01*
X40136Y150980D01*
X40121Y150993D01*
X40025Y151032D01*
X39931Y151075D01*
X39911Y151077D01*
X39893Y151085D01*
X39726Y151103D01*
X38202Y151103D01*
X38182Y151100D01*
X38163Y151102D01*
X38061Y151080D01*
X37959Y151063D01*
X37942Y151054D01*
X37922Y151050D01*
X37833Y150997D01*
X37742Y150948D01*
X37728Y150934D01*
X37711Y150924D01*
X37644Y150845D01*
X37573Y150770D01*
X37564Y150752D01*
X37551Y150737D01*
X37512Y150641D01*
X37469Y150547D01*
X37467Y150527D01*
X37459Y150509D01*
X37441Y150342D01*
X37441Y145879D01*
X34036Y145879D01*
X33475Y146111D01*
X33323Y146264D01*
X33307Y146276D01*
X33294Y146291D01*
X33207Y146347D01*
X33123Y146408D01*
X33104Y146413D01*
X33087Y146424D01*
X32987Y146449D01*
X32888Y146480D01*
X32868Y146479D01*
X32849Y146484D01*
X32746Y146476D01*
X32642Y146474D01*
X32623Y146467D01*
X32603Y146465D01*
X32508Y146425D01*
X32411Y146389D01*
X32395Y146377D01*
X32377Y146369D01*
X32246Y146264D01*
X32115Y146133D01*
X29758Y146133D01*
X29738Y146130D01*
X29719Y146132D01*
X29617Y146110D01*
X29515Y146094D01*
X29498Y146084D01*
X29478Y146080D01*
X29389Y146027D01*
X29298Y145978D01*
X29284Y145964D01*
X29267Y145954D01*
X29200Y145875D01*
X29128Y145800D01*
X29120Y145782D01*
X29107Y145767D01*
X29068Y145671D01*
X29025Y145577D01*
X29023Y145557D01*
X29015Y145539D01*
X28997Y145372D01*
X28997Y145136D01*
X22364Y138503D01*
X22311Y138429D01*
X22251Y138360D01*
X22239Y138329D01*
X22220Y138303D01*
X22193Y138216D01*
X22159Y138131D01*
X22155Y138090D01*
X22148Y138068D01*
X22149Y138036D01*
X22141Y137965D01*
X22141Y136159D01*
X21167Y135185D01*
X21155Y135168D01*
X21139Y135156D01*
X21083Y135069D01*
X21023Y134985D01*
X21017Y134966D01*
X21006Y134949D01*
X20981Y134849D01*
X20951Y134750D01*
X20951Y134730D01*
X20946Y134711D01*
X20954Y134608D01*
X20957Y134504D01*
X20964Y134485D01*
X20966Y134465D01*
X21006Y134371D01*
X21042Y134273D01*
X21054Y134257D01*
X21062Y134239D01*
X21167Y134108D01*
X24957Y130318D01*
X25031Y130265D01*
X25100Y130205D01*
X25131Y130193D01*
X25157Y130174D01*
X25244Y130147D01*
X25329Y130113D01*
X25370Y130109D01*
X25392Y130102D01*
X25424Y130103D01*
X25495Y130095D01*
X28812Y130095D01*
X28832Y130098D01*
X28851Y130096D01*
X28953Y130118D01*
X29055Y130134D01*
X29072Y130144D01*
X29092Y130148D01*
X29181Y130201D01*
X29272Y130250D01*
X29286Y130264D01*
X29303Y130274D01*
X29370Y130353D01*
X29442Y130428D01*
X29450Y130446D01*
X29463Y130461D01*
X29502Y130557D01*
X29545Y130651D01*
X29547Y130671D01*
X29555Y130689D01*
X29573Y130856D01*
X29573Y133213D01*
X30318Y133958D01*
X38770Y133958D01*
X39515Y133213D01*
X39515Y130856D01*
X39518Y130836D01*
X39516Y130817D01*
X39538Y130715D01*
X39554Y130613D01*
X39564Y130596D01*
X39568Y130576D01*
X39621Y130487D01*
X39670Y130396D01*
X39684Y130382D01*
X39694Y130365D01*
X39773Y130298D01*
X39848Y130226D01*
X39866Y130218D01*
X39881Y130205D01*
X39977Y130166D01*
X40071Y130123D01*
X40091Y130121D01*
X40109Y130113D01*
X40276Y130095D01*
X41690Y130095D01*
X52033Y119752D01*
X52033Y116745D01*
X52044Y116675D01*
X52046Y116603D01*
X52064Y116554D01*
X52072Y116503D01*
X52106Y116439D01*
X52131Y116372D01*
X52163Y116331D01*
X52188Y116285D01*
X52240Y116236D01*
X52284Y116180D01*
X52328Y116152D01*
X52366Y116116D01*
X52431Y116086D01*
X52491Y116047D01*
X52542Y116034D01*
X52589Y116012D01*
X52660Y116004D01*
X52730Y115987D01*
X52782Y115991D01*
X52833Y115985D01*
X52904Y116000D01*
G37*
G36*
X106194Y40140D02*
X106194Y40140D01*
X106240Y40138D01*
X106315Y40160D01*
X106392Y40172D01*
X106432Y40194D01*
X106477Y40207D01*
X106541Y40251D01*
X106609Y40288D01*
X106641Y40321D01*
X106679Y40347D01*
X106725Y40409D01*
X106779Y40466D01*
X106798Y40508D01*
X106825Y40544D01*
X106849Y40618D01*
X106882Y40689D01*
X106887Y40735D01*
X106902Y40778D01*
X106901Y40856D01*
X106909Y40933D01*
X106900Y40978D01*
X106899Y41024D01*
X106861Y41156D01*
X106857Y41174D01*
X106855Y41178D01*
X106852Y41185D01*
X106835Y41227D01*
X106835Y48007D01*
X118098Y48007D01*
X118118Y48010D01*
X118137Y48008D01*
X118239Y48030D01*
X118341Y48047D01*
X118358Y48056D01*
X118378Y48060D01*
X118467Y48113D01*
X118558Y48162D01*
X118572Y48176D01*
X118589Y48186D01*
X118656Y48265D01*
X118727Y48340D01*
X118736Y48358D01*
X118749Y48373D01*
X118788Y48469D01*
X118831Y48563D01*
X118833Y48583D01*
X118841Y48601D01*
X118859Y48768D01*
X118859Y50292D01*
X118856Y50312D01*
X118858Y50331D01*
X118836Y50433D01*
X118819Y50535D01*
X118810Y50552D01*
X118806Y50572D01*
X118753Y50661D01*
X118704Y50752D01*
X118690Y50766D01*
X118680Y50783D01*
X118601Y50850D01*
X118526Y50921D01*
X118508Y50930D01*
X118493Y50943D01*
X118397Y50982D01*
X118303Y51025D01*
X118283Y51027D01*
X118265Y51035D01*
X118098Y51053D01*
X106835Y51053D01*
X106835Y57531D01*
X106832Y57551D01*
X106834Y57570D01*
X106812Y57672D01*
X106796Y57774D01*
X106786Y57791D01*
X106782Y57811D01*
X106729Y57900D01*
X106680Y57991D01*
X106666Y58005D01*
X106656Y58022D01*
X106577Y58089D01*
X106502Y58161D01*
X106484Y58169D01*
X106469Y58182D01*
X106373Y58221D01*
X106279Y58264D01*
X106259Y58266D01*
X106241Y58274D01*
X106074Y58292D01*
X79770Y58292D01*
X79700Y58281D01*
X79628Y58279D01*
X79579Y58261D01*
X79528Y58253D01*
X79464Y58219D01*
X79397Y58194D01*
X79356Y58162D01*
X79310Y58137D01*
X79261Y58085D01*
X79205Y58041D01*
X79177Y57997D01*
X79141Y57959D01*
X79111Y57894D01*
X79072Y57834D01*
X79059Y57783D01*
X79037Y57736D01*
X79029Y57665D01*
X79012Y57595D01*
X79016Y57543D01*
X79010Y57492D01*
X79025Y57421D01*
X79031Y57350D01*
X79051Y57302D01*
X79062Y57251D01*
X79099Y57190D01*
X79127Y57124D01*
X79172Y57068D01*
X79188Y57040D01*
X79206Y57025D01*
X79232Y56993D01*
X95869Y40356D01*
X95943Y40303D01*
X96012Y40243D01*
X96043Y40231D01*
X96069Y40212D01*
X96156Y40185D01*
X96241Y40151D01*
X96282Y40147D01*
X96304Y40140D01*
X96336Y40141D01*
X96407Y40133D01*
X106149Y40133D01*
X106194Y40140D01*
G37*
G36*
X144358Y198254D02*
X144358Y198254D01*
X144429Y198260D01*
X144477Y198280D01*
X144528Y198291D01*
X144589Y198328D01*
X144655Y198356D01*
X144711Y198401D01*
X144739Y198417D01*
X144754Y198435D01*
X144786Y198461D01*
X148557Y202232D01*
X149970Y203645D01*
X151471Y203645D01*
X151542Y203657D01*
X151613Y203659D01*
X151662Y203677D01*
X151714Y203685D01*
X151777Y203718D01*
X151844Y203743D01*
X151885Y203776D01*
X151931Y203800D01*
X151980Y203852D01*
X152036Y203897D01*
X152065Y203941D01*
X152100Y203978D01*
X152131Y204043D01*
X152169Y204104D01*
X152182Y204154D01*
X152204Y204201D01*
X152212Y204273D01*
X152229Y204342D01*
X152225Y204394D01*
X152231Y204446D01*
X152216Y204516D01*
X152210Y204588D01*
X152190Y204635D01*
X152179Y204686D01*
X152142Y204748D01*
X152114Y204814D01*
X152069Y204870D01*
X152053Y204897D01*
X152042Y204906D01*
X152042Y206718D01*
X152028Y206808D01*
X152020Y206899D01*
X152008Y206928D01*
X152003Y206960D01*
X151960Y207041D01*
X151924Y207125D01*
X151898Y207157D01*
X151887Y207178D01*
X151864Y207200D01*
X151819Y207256D01*
X145431Y213644D01*
X145357Y213697D01*
X145288Y213757D01*
X145257Y213769D01*
X145231Y213788D01*
X145144Y213815D01*
X145059Y213849D01*
X145018Y213853D01*
X144996Y213860D01*
X144964Y213859D01*
X144893Y213867D01*
X119363Y213867D01*
X119292Y213856D01*
X119220Y213854D01*
X119171Y213836D01*
X119120Y213828D01*
X119057Y213794D01*
X118989Y213769D01*
X118949Y213737D01*
X118903Y213712D01*
X118853Y213661D01*
X118797Y213616D01*
X118769Y213572D01*
X118733Y213534D01*
X118703Y213469D01*
X118664Y213409D01*
X118652Y213358D01*
X118630Y213311D01*
X118622Y213240D01*
X118604Y213170D01*
X118608Y213118D01*
X118603Y213067D01*
X118618Y212996D01*
X118623Y212925D01*
X118644Y212877D01*
X118655Y212826D01*
X118692Y212765D01*
X118720Y212699D01*
X118764Y212643D01*
X118781Y212615D01*
X118799Y212600D01*
X118825Y212568D01*
X119021Y212372D01*
X119021Y204872D01*
X119024Y204852D01*
X119022Y204833D01*
X119044Y204731D01*
X119060Y204629D01*
X119070Y204612D01*
X119074Y204592D01*
X119127Y204503D01*
X119176Y204412D01*
X119190Y204398D01*
X119200Y204381D01*
X119279Y204314D01*
X119354Y204242D01*
X119372Y204234D01*
X119387Y204221D01*
X119483Y204182D01*
X119577Y204139D01*
X119597Y204137D01*
X119615Y204129D01*
X119782Y204111D01*
X127282Y204111D01*
X128817Y202576D01*
X128817Y200738D01*
X128828Y200667D01*
X128830Y200596D01*
X128848Y200547D01*
X128856Y200495D01*
X128890Y200432D01*
X128915Y200365D01*
X128947Y200324D01*
X128972Y200278D01*
X129023Y200229D01*
X129068Y200173D01*
X129112Y200144D01*
X129150Y200109D01*
X129215Y200078D01*
X129275Y200040D01*
X129326Y200027D01*
X129373Y200005D01*
X129444Y199997D01*
X129514Y199980D01*
X129566Y199984D01*
X129617Y199978D01*
X129688Y199993D01*
X129759Y199999D01*
X129807Y200019D01*
X129858Y200030D01*
X129919Y200067D01*
X129985Y200095D01*
X130041Y200140D01*
X130069Y200156D01*
X130084Y200174D01*
X130116Y200200D01*
X130299Y200383D01*
X133226Y200383D01*
X135122Y198487D01*
X135180Y198445D01*
X135232Y198396D01*
X135279Y198374D01*
X135321Y198343D01*
X135390Y198322D01*
X135455Y198292D01*
X135507Y198286D01*
X135557Y198271D01*
X135628Y198273D01*
X135699Y198265D01*
X135750Y198276D01*
X135802Y198277D01*
X135870Y198302D01*
X135940Y198317D01*
X135985Y198344D01*
X136033Y198362D01*
X136089Y198407D01*
X136151Y198443D01*
X136185Y198483D01*
X136225Y198515D01*
X136264Y198576D01*
X136311Y198630D01*
X136330Y198679D01*
X136358Y198722D01*
X136376Y198792D01*
X136403Y198858D01*
X136411Y198930D01*
X136419Y198961D01*
X136417Y198984D01*
X136421Y199025D01*
X136421Y200599D01*
X138491Y202669D01*
X141417Y202669D01*
X143487Y200599D01*
X143487Y198999D01*
X143498Y198929D01*
X143500Y198857D01*
X143518Y198808D01*
X143526Y198757D01*
X143560Y198693D01*
X143585Y198626D01*
X143617Y198585D01*
X143642Y198539D01*
X143694Y198490D01*
X143738Y198434D01*
X143782Y198406D01*
X143820Y198370D01*
X143885Y198340D01*
X143945Y198301D01*
X143996Y198288D01*
X144043Y198266D01*
X144114Y198258D01*
X144184Y198241D01*
X144236Y198245D01*
X144287Y198239D01*
X144358Y198254D01*
G37*
G36*
X32823Y155732D02*
X32823Y155732D01*
X32927Y155734D01*
X32946Y155741D01*
X32965Y155743D01*
X33061Y155783D01*
X33158Y155819D01*
X33173Y155831D01*
X33192Y155839D01*
X33323Y155944D01*
X33475Y156097D01*
X34036Y156329D01*
X37587Y156329D01*
X37657Y156340D01*
X37729Y156342D01*
X37778Y156360D01*
X37829Y156368D01*
X37893Y156402D01*
X37960Y156427D01*
X38001Y156459D01*
X38047Y156484D01*
X38096Y156536D01*
X38152Y156580D01*
X38180Y156624D01*
X38216Y156662D01*
X38246Y156727D01*
X38285Y156787D01*
X38298Y156838D01*
X38320Y156885D01*
X38328Y156956D01*
X38345Y157026D01*
X38341Y157078D01*
X38347Y157129D01*
X38332Y157200D01*
X38326Y157271D01*
X38306Y157319D01*
X38295Y157370D01*
X38258Y157431D01*
X38230Y157497D01*
X38185Y157553D01*
X38169Y157581D01*
X38151Y157596D01*
X38125Y157628D01*
X29734Y166019D01*
X29660Y166072D01*
X29591Y166132D01*
X29560Y166144D01*
X29534Y166163D01*
X29447Y166190D01*
X29362Y166224D01*
X29321Y166228D01*
X29299Y166235D01*
X29267Y166234D01*
X29196Y166242D01*
X23916Y166242D01*
X23826Y166228D01*
X23735Y166220D01*
X23705Y166208D01*
X23673Y166203D01*
X23593Y166160D01*
X23509Y166124D01*
X23477Y166098D01*
X23456Y166087D01*
X23434Y166064D01*
X23378Y166019D01*
X22101Y164742D01*
X19174Y164742D01*
X17105Y166812D01*
X17105Y169738D01*
X19174Y171808D01*
X20194Y171808D01*
X20214Y171811D01*
X20233Y171809D01*
X20335Y171831D01*
X20437Y171847D01*
X20454Y171857D01*
X20474Y171861D01*
X20563Y171914D01*
X20654Y171963D01*
X20668Y171977D01*
X20685Y171987D01*
X20752Y172066D01*
X20824Y172141D01*
X20832Y172159D01*
X20845Y172174D01*
X20884Y172270D01*
X20927Y172364D01*
X20929Y172384D01*
X20937Y172402D01*
X20955Y172569D01*
X20955Y173761D01*
X24742Y173761D01*
X24761Y173764D01*
X24781Y173762D01*
X24883Y173784D01*
X24985Y173800D01*
X25002Y173810D01*
X25022Y173814D01*
X25111Y173867D01*
X25202Y173916D01*
X25216Y173930D01*
X25233Y173940D01*
X25300Y174019D01*
X25371Y174094D01*
X25380Y174112D01*
X25393Y174127D01*
X25431Y174223D01*
X25475Y174317D01*
X25477Y174337D01*
X25485Y174355D01*
X25503Y174522D01*
X25503Y175998D01*
X25500Y176018D01*
X25502Y176037D01*
X25480Y176139D01*
X25463Y176241D01*
X25454Y176258D01*
X25450Y176278D01*
X25397Y176367D01*
X25348Y176458D01*
X25334Y176472D01*
X25324Y176489D01*
X25245Y176556D01*
X25170Y176628D01*
X25152Y176636D01*
X25137Y176649D01*
X25040Y176688D01*
X24947Y176731D01*
X24927Y176733D01*
X24909Y176741D01*
X24742Y176759D01*
X20955Y176759D01*
X20955Y178181D01*
X20952Y178201D01*
X20954Y178220D01*
X20932Y178321D01*
X20916Y178424D01*
X20906Y178441D01*
X20902Y178461D01*
X20849Y178550D01*
X20800Y178641D01*
X20786Y178655D01*
X20776Y178672D01*
X20697Y178739D01*
X20622Y178810D01*
X20604Y178819D01*
X20589Y178832D01*
X20493Y178871D01*
X20399Y178914D01*
X20379Y178916D01*
X20361Y178924D01*
X20194Y178942D01*
X15254Y178942D01*
X15164Y178928D01*
X15073Y178920D01*
X15044Y178908D01*
X15012Y178903D01*
X14931Y178860D01*
X14847Y178824D01*
X14815Y178798D01*
X14794Y178787D01*
X14772Y178764D01*
X14716Y178719D01*
X13202Y177205D01*
X13149Y177131D01*
X13089Y177062D01*
X13077Y177031D01*
X13058Y177005D01*
X13031Y176918D01*
X12997Y176833D01*
X12993Y176792D01*
X12986Y176770D01*
X12987Y176738D01*
X12979Y176667D01*
X12979Y164303D01*
X12993Y164213D01*
X13001Y164122D01*
X13013Y164092D01*
X13018Y164060D01*
X13061Y163980D01*
X13097Y163896D01*
X13123Y163864D01*
X13134Y163843D01*
X13157Y163821D01*
X13202Y163765D01*
X20814Y156153D01*
X20830Y156141D01*
X20843Y156125D01*
X20930Y156069D01*
X21014Y156009D01*
X21033Y156003D01*
X21050Y155992D01*
X21150Y155967D01*
X21249Y155937D01*
X21269Y155937D01*
X21288Y155932D01*
X21391Y155940D01*
X21495Y155943D01*
X21513Y155950D01*
X21533Y155951D01*
X21628Y155992D01*
X21726Y156028D01*
X21741Y156040D01*
X21760Y156048D01*
X21793Y156075D01*
X32115Y156075D01*
X32246Y155944D01*
X32262Y155932D01*
X32275Y155917D01*
X32362Y155861D01*
X32446Y155800D01*
X32465Y155795D01*
X32482Y155784D01*
X32582Y155759D01*
X32681Y155728D01*
X32701Y155729D01*
X32720Y155724D01*
X32823Y155732D01*
G37*
%LPC*%
G36*
X119187Y250467D02*
X119187Y250467D01*
X117117Y252537D01*
X117117Y255463D01*
X119187Y257533D01*
X120993Y257533D01*
X121083Y257547D01*
X121174Y257555D01*
X121204Y257567D01*
X121235Y257572D01*
X121316Y257615D01*
X121328Y257620D01*
X154418Y257620D01*
X154508Y257635D01*
X154599Y257642D01*
X154628Y257655D01*
X154660Y257660D01*
X154741Y257703D01*
X154825Y257738D01*
X154857Y257764D01*
X154878Y257775D01*
X154900Y257798D01*
X154956Y257843D01*
X162932Y265819D01*
X162985Y265893D01*
X163044Y265962D01*
X163056Y265993D01*
X163075Y266019D01*
X163102Y266106D01*
X163136Y266191D01*
X163141Y266232D01*
X163148Y266254D01*
X163147Y266286D01*
X163155Y266357D01*
X163155Y268163D01*
X165224Y270233D01*
X168151Y270233D01*
X170220Y268163D01*
X170220Y265237D01*
X168151Y263167D01*
X166345Y263167D01*
X166255Y263153D01*
X166164Y263145D01*
X166134Y263133D01*
X166102Y263128D01*
X166021Y263085D01*
X165937Y263049D01*
X165905Y263023D01*
X165885Y263012D01*
X165862Y262989D01*
X165807Y262944D01*
X156417Y253555D01*
X124944Y253555D01*
X124924Y253552D01*
X124905Y253554D01*
X124803Y253532D01*
X124701Y253515D01*
X124684Y253506D01*
X124664Y253501D01*
X124575Y253448D01*
X124484Y253400D01*
X124470Y253386D01*
X124453Y253375D01*
X124386Y253297D01*
X124314Y253222D01*
X124306Y253204D01*
X124293Y253188D01*
X124254Y253092D01*
X124211Y252999D01*
X124209Y252979D01*
X124201Y252960D01*
X124183Y252794D01*
X124183Y252537D01*
X122113Y250467D01*
X119187Y250467D01*
G37*
%LPD*%
%LPC*%
G36*
X148306Y276785D02*
X148306Y276785D01*
X145433Y277975D01*
X143235Y280173D01*
X142045Y283046D01*
X142045Y286154D01*
X143235Y289027D01*
X145433Y291225D01*
X148306Y292415D01*
X151414Y292415D01*
X154287Y291225D01*
X156485Y289027D01*
X157675Y286154D01*
X157675Y283046D01*
X156485Y280173D01*
X154287Y277975D01*
X151414Y276785D01*
X148306Y276785D01*
G37*
%LPD*%
G36*
X133584Y40144D02*
X133584Y40144D01*
X133656Y40146D01*
X133705Y40164D01*
X133756Y40172D01*
X133819Y40206D01*
X133887Y40231D01*
X133927Y40263D01*
X133973Y40288D01*
X134023Y40340D01*
X134079Y40384D01*
X134107Y40428D01*
X134143Y40466D01*
X134173Y40531D01*
X134212Y40591D01*
X134224Y40642D01*
X134246Y40689D01*
X134254Y40760D01*
X134272Y40830D01*
X134268Y40882D01*
X134273Y40933D01*
X134258Y41004D01*
X134253Y41075D01*
X134232Y41123D01*
X134221Y41174D01*
X134184Y41235D01*
X134156Y41301D01*
X134111Y41357D01*
X134095Y41385D01*
X134077Y41400D01*
X134051Y41432D01*
X133567Y41916D01*
X133335Y42477D01*
X133335Y48531D01*
X136622Y48531D01*
X136641Y48534D01*
X136661Y48532D01*
X136763Y48554D01*
X136865Y48570D01*
X136882Y48580D01*
X136902Y48584D01*
X136991Y48637D01*
X137082Y48686D01*
X137096Y48700D01*
X137113Y48710D01*
X137180Y48789D01*
X137251Y48864D01*
X137260Y48882D01*
X137273Y48897D01*
X137311Y48993D01*
X137355Y49087D01*
X137357Y49107D01*
X137365Y49125D01*
X137383Y49292D01*
X137383Y49768D01*
X137380Y49788D01*
X137382Y49807D01*
X137360Y49909D01*
X137343Y50011D01*
X137334Y50028D01*
X137330Y50048D01*
X137277Y50137D01*
X137228Y50228D01*
X137214Y50242D01*
X137204Y50259D01*
X137125Y50326D01*
X137050Y50398D01*
X137032Y50406D01*
X137017Y50419D01*
X136920Y50458D01*
X136827Y50501D01*
X136807Y50503D01*
X136789Y50511D01*
X136622Y50529D01*
X133335Y50529D01*
X133335Y56583D01*
X133607Y57240D01*
X133618Y57284D01*
X133637Y57326D01*
X133646Y57403D01*
X133663Y57479D01*
X133659Y57525D01*
X133664Y57570D01*
X133648Y57647D01*
X133640Y57724D01*
X133622Y57766D01*
X133612Y57811D01*
X133572Y57878D01*
X133540Y57949D01*
X133509Y57983D01*
X133486Y58022D01*
X133427Y58073D01*
X133374Y58130D01*
X133334Y58152D01*
X133299Y58182D01*
X133227Y58211D01*
X133158Y58248D01*
X133113Y58257D01*
X133071Y58274D01*
X132935Y58289D01*
X132916Y58292D01*
X132911Y58291D01*
X132904Y58292D01*
X131646Y58292D01*
X131626Y58289D01*
X131607Y58291D01*
X131505Y58269D01*
X131403Y58253D01*
X131386Y58243D01*
X131366Y58239D01*
X131277Y58186D01*
X131186Y58137D01*
X131172Y58123D01*
X131155Y58113D01*
X131088Y58034D01*
X131016Y57959D01*
X131008Y57941D01*
X130995Y57926D01*
X130956Y57830D01*
X130913Y57736D01*
X130911Y57716D01*
X130903Y57698D01*
X130885Y57531D01*
X130885Y51053D01*
X119622Y51053D01*
X119602Y51050D01*
X119583Y51052D01*
X119481Y51030D01*
X119379Y51013D01*
X119362Y51004D01*
X119342Y51000D01*
X119253Y50947D01*
X119162Y50898D01*
X119148Y50884D01*
X119131Y50874D01*
X119064Y50795D01*
X118993Y50720D01*
X118984Y50702D01*
X118971Y50687D01*
X118932Y50591D01*
X118889Y50497D01*
X118887Y50477D01*
X118879Y50459D01*
X118861Y50292D01*
X118861Y48768D01*
X118864Y48748D01*
X118862Y48729D01*
X118884Y48627D01*
X118901Y48525D01*
X118910Y48508D01*
X118914Y48488D01*
X118967Y48399D01*
X119016Y48308D01*
X119030Y48294D01*
X119040Y48277D01*
X119119Y48210D01*
X119194Y48139D01*
X119212Y48130D01*
X119227Y48117D01*
X119323Y48078D01*
X119417Y48035D01*
X119437Y48033D01*
X119455Y48025D01*
X119622Y48007D01*
X130885Y48007D01*
X130885Y41227D01*
X130868Y41185D01*
X130857Y41141D01*
X130838Y41099D01*
X130829Y41022D01*
X130811Y40946D01*
X130816Y40900D01*
X130811Y40855D01*
X130827Y40778D01*
X130835Y40701D01*
X130853Y40659D01*
X130863Y40614D01*
X130903Y40547D01*
X130934Y40476D01*
X130966Y40442D01*
X130989Y40403D01*
X131048Y40352D01*
X131101Y40295D01*
X131141Y40273D01*
X131176Y40243D01*
X131248Y40214D01*
X131316Y40177D01*
X131362Y40168D01*
X131404Y40151D01*
X131540Y40136D01*
X131558Y40133D01*
X131563Y40134D01*
X131571Y40133D01*
X133513Y40133D01*
X133584Y40144D01*
G37*
%LPC*%
G36*
X182383Y51053D02*
X182383Y51053D01*
X182383Y59055D01*
X191663Y59055D01*
X192224Y58823D01*
X192653Y58394D01*
X192885Y57833D01*
X192885Y51053D01*
X182383Y51053D01*
G37*
%LPD*%
%LPC*%
G36*
X168835Y51053D02*
X168835Y51053D01*
X168835Y57833D01*
X169067Y58394D01*
X169496Y58823D01*
X170057Y59055D01*
X179337Y59055D01*
X179337Y51053D01*
X168835Y51053D01*
G37*
%LPD*%
%LPC*%
G36*
X182383Y40005D02*
X182383Y40005D01*
X182383Y48007D01*
X192885Y48007D01*
X192885Y41227D01*
X192653Y40666D01*
X192224Y40237D01*
X191663Y40005D01*
X182383Y40005D01*
G37*
%LPD*%
%LPC*%
G36*
X85717Y111499D02*
X85717Y111499D01*
X85784Y111746D01*
X86172Y112419D01*
X86206Y112509D01*
X86246Y112595D01*
X86249Y112623D01*
X86259Y112649D01*
X86263Y112745D01*
X86273Y112839D01*
X86267Y112867D01*
X86268Y112895D01*
X86241Y112987D01*
X86221Y113080D01*
X86206Y113104D01*
X86198Y113131D01*
X86144Y113209D01*
X86095Y113291D01*
X86073Y113309D01*
X86057Y113332D01*
X85980Y113389D01*
X85908Y113451D01*
X85882Y113461D01*
X85859Y113478D01*
X85768Y113507D01*
X85680Y113543D01*
X85644Y113547D01*
X85625Y113553D01*
X85592Y113553D01*
X85513Y113561D01*
X82865Y113561D01*
X80795Y115631D01*
X80795Y118557D01*
X82865Y120627D01*
X85791Y120627D01*
X87861Y118557D01*
X87861Y115631D01*
X87794Y115564D01*
X87766Y115525D01*
X87731Y115492D01*
X87695Y115426D01*
X87650Y115364D01*
X87636Y115318D01*
X87613Y115276D01*
X87600Y115202D01*
X87578Y115129D01*
X87579Y115081D01*
X87571Y115034D01*
X87582Y114959D01*
X87584Y114883D01*
X87601Y114838D01*
X87608Y114791D01*
X87643Y114723D01*
X87669Y114652D01*
X87699Y114615D01*
X87721Y114572D01*
X87775Y114519D01*
X87822Y114460D01*
X87863Y114434D01*
X87897Y114401D01*
X87966Y114368D01*
X88029Y114327D01*
X88076Y114315D01*
X88119Y114295D01*
X88194Y114286D01*
X88268Y114267D01*
X88316Y114271D01*
X88363Y114265D01*
X88491Y114284D01*
X88501Y114285D01*
X88501Y111499D01*
X85717Y111499D01*
G37*
%LPD*%
%LPC*%
G36*
X120711Y280947D02*
X120711Y280947D01*
X118641Y283017D01*
X118641Y285943D01*
X120711Y288013D01*
X123637Y288013D01*
X125707Y285943D01*
X125707Y283017D01*
X123637Y280947D01*
X120711Y280947D01*
G37*
%LPD*%
%LPC*%
G36*
X197419Y47775D02*
X197419Y47775D01*
X195349Y49845D01*
X195349Y52771D01*
X197419Y54841D01*
X200345Y54841D01*
X202415Y52771D01*
X202415Y49845D01*
X200345Y47775D01*
X197419Y47775D01*
G37*
%LPD*%
%LPC*%
G36*
X166783Y115975D02*
X166783Y115975D01*
X166783Y120977D01*
X174785Y120977D01*
X174785Y117197D01*
X174553Y116636D01*
X174124Y116207D01*
X173563Y115975D01*
X166783Y115975D01*
G37*
%LPD*%
%LPC*%
G36*
X156957Y115975D02*
X156957Y115975D01*
X156396Y116207D01*
X155967Y116636D01*
X155735Y117197D01*
X155735Y120977D01*
X163737Y120977D01*
X163737Y115975D01*
X156957Y115975D01*
G37*
%LPD*%
%LPC*%
G36*
X101853Y243743D02*
X101853Y243743D01*
X101853Y248370D01*
X104333Y248370D01*
X104894Y248138D01*
X105323Y247709D01*
X105342Y247663D01*
X105379Y247602D01*
X105409Y247536D01*
X105444Y247498D01*
X105471Y247454D01*
X105527Y247408D01*
X105575Y247355D01*
X105621Y247330D01*
X105661Y247297D01*
X105728Y247271D01*
X105791Y247236D01*
X105842Y247227D01*
X105890Y247208D01*
X105962Y247205D01*
X106033Y247193D01*
X106084Y247200D01*
X106136Y247198D01*
X106205Y247218D01*
X106276Y247229D01*
X106322Y247252D01*
X106372Y247267D01*
X106431Y247308D01*
X106495Y247340D01*
X106532Y247377D01*
X106574Y247407D01*
X106617Y247464D01*
X106667Y247516D01*
X106702Y247579D01*
X106721Y247604D01*
X106728Y247626D01*
X106748Y247663D01*
X106767Y247709D01*
X107196Y248138D01*
X107757Y248370D01*
X110237Y248370D01*
X110237Y243743D01*
X101853Y243743D01*
G37*
%LPD*%
%LPC*%
G36*
X150113Y104043D02*
X150113Y104043D01*
X150113Y108670D01*
X152593Y108670D01*
X153154Y108438D01*
X153583Y108009D01*
X153815Y107448D01*
X153815Y104043D01*
X150113Y104043D01*
G37*
%LPD*%
%LPC*%
G36*
X136143Y104043D02*
X136143Y104043D01*
X136143Y108670D01*
X138623Y108670D01*
X139184Y108438D01*
X139613Y108009D01*
X139845Y107448D01*
X139845Y104043D01*
X136143Y104043D01*
G37*
%LPD*%
%LPC*%
G36*
X71373Y242473D02*
X71373Y242473D01*
X71373Y247100D01*
X73853Y247100D01*
X74414Y246868D01*
X74843Y246439D01*
X75075Y245878D01*
X75075Y242473D01*
X71373Y242473D01*
G37*
%LPD*%
%LPC*%
G36*
X113283Y243743D02*
X113283Y243743D01*
X113283Y248370D01*
X115763Y248370D01*
X116324Y248138D01*
X116753Y247709D01*
X116985Y247148D01*
X116985Y243743D01*
X113283Y243743D01*
G37*
%LPD*%
%LPC*%
G36*
X24680Y214883D02*
X24680Y214883D01*
X24680Y217363D01*
X24912Y217924D01*
X25341Y218353D01*
X25902Y218585D01*
X29307Y218585D01*
X29307Y214883D01*
X24680Y214883D01*
G37*
%LPD*%
%LPC*%
G36*
X129395Y104043D02*
X129395Y104043D01*
X129395Y107448D01*
X129627Y108009D01*
X130056Y108438D01*
X130617Y108670D01*
X133097Y108670D01*
X133097Y104043D01*
X129395Y104043D01*
G37*
%LPD*%
%LPC*%
G36*
X143365Y104043D02*
X143365Y104043D01*
X143365Y107448D01*
X143597Y108009D01*
X144026Y108438D01*
X144587Y108670D01*
X147067Y108670D01*
X147067Y104043D01*
X143365Y104043D01*
G37*
%LPD*%
%LPC*%
G36*
X36067Y109912D02*
X36067Y109912D01*
X36067Y114539D01*
X39769Y114539D01*
X39769Y111134D01*
X39537Y110573D01*
X39108Y110144D01*
X38547Y109912D01*
X36067Y109912D01*
G37*
%LPD*%
%LPC*%
G36*
X30541Y109912D02*
X30541Y109912D01*
X29980Y110144D01*
X29551Y110573D01*
X29319Y111134D01*
X29319Y114539D01*
X33021Y114539D01*
X33021Y109912D01*
X30541Y109912D01*
G37*
%LPD*%
%LPC*%
G36*
X153819Y167869D02*
X153819Y167869D01*
X153819Y171395D01*
X155623Y171395D01*
X156184Y171163D01*
X156613Y170734D01*
X156845Y170173D01*
X156845Y167869D01*
X153819Y167869D01*
G37*
%LPD*%
%LPC*%
G36*
X88253Y105784D02*
X88253Y105784D01*
X87222Y106379D01*
X86379Y107222D01*
X85784Y108253D01*
X85717Y108501D01*
X88501Y108501D01*
X88501Y105717D01*
X88253Y105784D01*
G37*
%LPD*%
%LPC*%
G36*
X180859Y49529D02*
X180859Y49529D01*
X180859Y49531D01*
X180861Y49531D01*
X180861Y49529D01*
X180859Y49529D01*
G37*
%LPD*%
D10*
X34544Y128062D03*
X34544Y116062D03*
X140970Y136240D03*
X140970Y148240D03*
X69850Y228950D03*
X69850Y240950D03*
X111760Y230220D03*
X111760Y242220D03*
X100330Y230220D03*
X100330Y242220D03*
D11*
X42830Y213360D03*
X30830Y213360D03*
D12*
X152320Y166370D03*
X142320Y166370D03*
X25480Y175260D03*
X35480Y175260D03*
D13*
X88900Y229950D03*
X88900Y239950D03*
D12*
X35480Y186690D03*
X25480Y186690D03*
X35480Y198120D03*
X25480Y198120D03*
D14*
X61400Y205386D02*
X61400Y211286D01*
X66400Y211286D02*
X66400Y205386D01*
X71400Y205386D02*
X71400Y211286D01*
X76400Y211286D02*
X76400Y205386D01*
X81400Y205386D02*
X81400Y211286D01*
X86400Y211286D02*
X86400Y205386D01*
X91400Y205386D02*
X91400Y211286D01*
X96400Y211286D02*
X96400Y205386D01*
X101400Y205386D02*
X101400Y211286D01*
X106400Y211286D02*
X106400Y205386D01*
X111400Y205386D02*
X111400Y211286D01*
X116400Y211286D02*
X116400Y205386D01*
X120296Y201490D02*
X126196Y201490D01*
X126196Y196490D02*
X120296Y196490D01*
X120296Y191490D02*
X126196Y191490D01*
X126196Y186490D02*
X120296Y186490D01*
X120296Y181490D02*
X126196Y181490D01*
X126196Y176490D02*
X120296Y176490D01*
X120296Y171490D02*
X126196Y171490D01*
X126196Y166490D02*
X120296Y166490D01*
X120296Y161490D02*
X126196Y161490D01*
X126196Y156490D02*
X120296Y156490D01*
X120296Y151490D02*
X126196Y151490D01*
X126196Y146490D02*
X120296Y146490D01*
X116400Y142594D02*
X116400Y136694D01*
X111400Y136694D02*
X111400Y142594D01*
X106400Y142594D02*
X106400Y136694D01*
X101400Y136694D02*
X101400Y142594D01*
X96400Y142594D02*
X96400Y136694D01*
X91400Y136694D02*
X91400Y142594D01*
X86400Y142594D02*
X86400Y136694D01*
X81400Y136694D02*
X81400Y142594D01*
X76400Y142594D02*
X76400Y136694D01*
X71400Y136694D02*
X71400Y142594D01*
X66400Y142594D02*
X66400Y136694D01*
X61400Y136694D02*
X61400Y142594D01*
X57504Y146490D02*
X51604Y146490D01*
X51604Y151490D02*
X57504Y151490D01*
X57504Y156490D02*
X51604Y156490D01*
X51604Y161490D02*
X57504Y161490D01*
X57504Y166490D02*
X51604Y166490D01*
X51604Y171490D02*
X57504Y171490D01*
X57504Y176490D02*
X51604Y176490D01*
X51604Y181490D02*
X57504Y181490D01*
X57504Y186490D02*
X51604Y186490D01*
X51604Y191490D02*
X57504Y191490D01*
X57504Y196490D02*
X51604Y196490D01*
X51604Y201490D02*
X57504Y201490D01*
D15*
X88900Y173990D03*
D16*
X162860Y49530D03*
X156360Y49530D03*
X149860Y49530D03*
X143360Y49530D03*
X136860Y49530D03*
D17*
X180860Y49530D03*
X118860Y49530D03*
D18*
X189860Y22780D03*
D19*
X161860Y22780D03*
X137860Y22780D03*
D18*
X109860Y22780D03*
D20*
X226060Y82500D03*
X213360Y82500D03*
X200660Y82500D03*
X187960Y82500D03*
X175260Y82500D03*
D21*
X165260Y122500D03*
D20*
X175260Y217500D03*
X187960Y217500D03*
X200660Y217500D03*
X213360Y217500D03*
X226060Y217500D03*
D11*
X26964Y151104D03*
X38964Y151104D03*
D10*
X148590Y90520D03*
X148590Y102520D03*
X134620Y90520D03*
X134620Y102520D03*
D12*
X113110Y90170D03*
X123110Y90170D03*
D22*
X70000Y130000D03*
X50000Y130000D03*
X90000Y110000D03*
X90000Y130000D03*
X70000Y110000D03*
X50000Y110000D03*
D23*
X106363Y211138D02*
X117475Y222250D01*
X106363Y211138D02*
X106363Y209550D01*
X106400Y208336D01*
D24*
X117475Y222250D03*
D23*
X123825Y196850D02*
X131763Y196850D01*
X198438Y236538D02*
X212725Y222250D01*
X212725Y219075D01*
X123825Y196850D02*
X123246Y196490D01*
X212725Y219075D02*
X213360Y217500D01*
D24*
X131763Y196850D03*
X133350Y236538D03*
D23*
X168457Y236538D02*
X198438Y236538D01*
X168457Y236538D02*
X168036Y236958D01*
X162164Y236958D01*
X161743Y236538D01*
X133350Y236538D01*
X141288Y192088D02*
X123825Y192088D01*
X141288Y192088D02*
X150813Y201613D01*
X158750Y201613D01*
X123825Y192088D02*
X123246Y191490D01*
X175260Y217500D02*
X175260Y228346D01*
X159512Y231902D02*
X159512Y209296D01*
X160528Y208280D01*
X160528Y203391D01*
X158750Y201613D01*
X175260Y228346D02*
X169863Y233744D01*
X161354Y233744D02*
X159512Y231902D01*
X167299Y233744D02*
X169863Y233744D01*
X167299Y233744D02*
X166879Y234164D01*
X163321Y234164D01*
X162901Y233744D01*
X161354Y233744D01*
X173038Y185738D02*
X123825Y185738D01*
X187325Y203200D02*
X187325Y217488D01*
X123825Y185738D02*
X123246Y186490D01*
X187325Y217488D02*
X187960Y217500D01*
D24*
X173038Y185738D03*
X187325Y203200D03*
D23*
X193675Y203200D02*
X193675Y206375D01*
X200025Y212725D01*
X200025Y217488D01*
X123825Y180975D02*
X123246Y181490D01*
X200025Y217488D02*
X200660Y217500D01*
D24*
X168275Y180975D03*
X193675Y203200D03*
D23*
X168275Y180975D02*
X157217Y180975D01*
X155590Y182602D01*
X149718Y182602D01*
X148091Y180975D01*
X123825Y180975D01*
X96400Y139644D02*
X96400Y77190D01*
X95865Y76655D01*
D24*
X95865Y76655D03*
D25*
X91400Y131400D02*
X91400Y139644D01*
X91400Y131400D02*
X90000Y130000D01*
X86400Y136400D02*
X86400Y139644D01*
X70000Y120000D02*
X70000Y110000D01*
X70000Y120000D02*
X86400Y136400D01*
X71400Y139644D02*
X71400Y131400D01*
X70000Y130000D01*
X54554Y146490D02*
X50000Y141936D01*
X50000Y130000D01*
D23*
X123825Y166688D02*
X141288Y166688D01*
X142320Y166370D01*
X123825Y166688D02*
X123246Y166490D01*
X147638Y192088D02*
X153988Y198438D01*
X211138Y198438D02*
X225425Y212725D01*
X225425Y217488D01*
X226060Y217500D01*
D24*
X20638Y168275D03*
X147638Y192088D03*
D23*
X200103Y198438D02*
X211138Y198438D01*
X200103Y198438D02*
X195975Y194310D01*
X182485Y194310D01*
X178357Y198438D02*
X153988Y198438D01*
X178357Y198438D02*
X182485Y194310D01*
X54554Y151490D02*
X48408Y151490D01*
X46228Y153670D02*
X46228Y156210D01*
X44450Y157988D01*
X40640Y157988D01*
X30353Y168275D01*
X46228Y153670D02*
X48408Y151490D01*
X30353Y168275D02*
X20638Y168275D01*
X36513Y187325D02*
X53975Y187325D01*
X36513Y187325D02*
X35480Y186690D01*
X53975Y187325D02*
X54554Y186490D01*
X161925Y38100D02*
X163513Y36513D01*
X161925Y38100D02*
X95250Y38100D01*
X11561Y121789D01*
X30163Y180975D02*
X34925Y185738D01*
X35480Y186690D01*
D24*
X163513Y36513D03*
D23*
X30163Y180975D02*
X14097Y180975D01*
X19842Y154250D02*
X19842Y145724D01*
X11561Y137443D02*
X11561Y121789D01*
X11561Y137443D02*
X19842Y145724D01*
X19842Y154250D02*
X10946Y163146D01*
X10946Y177824D02*
X14097Y180975D01*
X10946Y177824D02*
X10946Y163146D01*
X41275Y192088D02*
X36513Y196850D01*
X41275Y192088D02*
X53975Y192088D01*
X36513Y196850D02*
X35480Y198120D01*
X53975Y192088D02*
X54554Y191490D01*
X30036Y203264D02*
X30036Y205359D01*
X30036Y203264D02*
X34925Y198374D01*
X35480Y198120D01*
D24*
X173927Y37719D03*
X30036Y205359D03*
D23*
X223838Y204788D02*
X223838Y161925D01*
X158750Y161925D01*
X157163Y160338D01*
X123825Y160338D01*
X123246Y161490D01*
D24*
X223838Y204788D03*
D23*
X139700Y241300D02*
X134938Y246063D01*
X123825Y157163D02*
X222250Y157163D01*
X123825Y157163D02*
X123246Y156490D01*
D24*
X134938Y246063D03*
X182563Y241300D03*
X222250Y157163D03*
D23*
X151575Y240983D02*
X140399Y240983D01*
X139700Y241300D01*
X157208Y241300D02*
X182563Y241300D01*
X157208Y241300D02*
X156361Y240453D01*
X152503Y240453D01*
X151974Y240983D01*
X151575Y240983D01*
X165100Y193675D02*
X168275Y190500D01*
X174625Y190500D01*
X182563Y182563D01*
X122238Y138113D02*
X117475Y138113D01*
X116400Y139644D01*
D24*
X165100Y193675D03*
X182563Y182563D03*
X122238Y138113D03*
D23*
X112713Y138113D02*
X111400Y139644D01*
D24*
X133350Y133350D03*
D23*
X133312Y133312D01*
X114999Y133312D01*
X112713Y135599D02*
X112713Y138113D01*
X112713Y135599D02*
X114999Y133312D01*
X108018Y138026D02*
X106400Y139644D01*
X108018Y138026D02*
X108018Y135293D01*
X155261Y132326D02*
X158750Y132326D01*
X155261Y132326D02*
X151991Y129056D01*
X114255Y129056D02*
X108018Y135293D01*
X114255Y129056D02*
X151991Y129056D01*
X158750Y132326D02*
X164846Y138422D01*
X164846Y138430D01*
D24*
X164846Y138430D03*
X201168Y203454D03*
D23*
X194818Y197104D01*
X183642Y197104D01*
X177292Y203454D01*
X169418Y203454D01*
X165100Y207772D01*
X165100Y229870D01*
D24*
X165100Y229870D03*
D23*
X101600Y138113D02*
X101600Y136525D01*
X101600Y138113D02*
X101400Y139644D01*
D24*
X187452Y134938D03*
D23*
X182047Y129532D02*
X156418Y129532D01*
X153148Y126262D01*
X111863Y126262D01*
X101600Y136525D01*
X182047Y129532D02*
X187452Y134938D01*
X101600Y209550D02*
X101600Y230188D01*
X101600Y209550D02*
X101400Y208336D01*
X101600Y230188D02*
X111125Y230188D01*
X111760Y230220D01*
X101600Y230188D02*
X100330Y230220D01*
D24*
X113792Y99568D03*
X150114Y138176D03*
X18608Y137622D03*
X154432Y245110D03*
X34036Y230124D03*
X52070Y207772D03*
X15748Y196088D03*
X15240Y186436D03*
X198882Y51308D03*
X136906Y82300D03*
X84328Y117094D03*
D25*
X123635Y145987D02*
X131318Y145987D01*
X140399Y136906D01*
X123635Y145987D02*
X123246Y146490D01*
X140399Y136906D02*
X140970Y136240D01*
X61468Y208153D02*
X55182Y201867D01*
X54554Y201490D01*
X61468Y208153D02*
X61400Y208336D01*
X25146Y186500D02*
X15367Y186500D01*
X25146Y186500D02*
X25480Y186690D01*
X15367Y186500D02*
X15240Y186436D01*
X17463Y197676D02*
X25146Y197676D01*
X17463Y197676D02*
X16066Y196279D01*
X25146Y197676D02*
X25480Y198120D01*
X16066Y196279D02*
X15748Y196088D01*
X113157Y99187D02*
X113157Y90805D01*
X113110Y90170D01*
X113157Y99187D02*
X113792Y99568D01*
X43212Y213106D02*
X42830Y213360D01*
X46736Y213106D02*
X52070Y207772D01*
X46736Y213106D02*
X43212Y213106D01*
X52070Y201867D02*
X53785Y201867D01*
X54554Y201490D01*
X52070Y201867D02*
X52070Y207772D01*
X69152Y224917D02*
X69152Y228410D01*
D23*
X69152Y224917D02*
X61468Y217234D01*
D25*
X69152Y228410D02*
X69850Y228950D01*
X141796Y136208D02*
X148082Y136208D01*
X149479Y137605D01*
X141796Y136208D02*
X140970Y136240D01*
X149479Y137605D02*
X150114Y138176D01*
D24*
X123825Y33719D03*
X78994Y229616D03*
D25*
X83232Y239950D02*
X88900Y239950D01*
X83232Y239950D02*
X78994Y235712D01*
X78994Y229616D01*
X70516Y229616D02*
X69850Y228950D01*
X70516Y229616D02*
X78994Y229616D01*
D24*
X139954Y199136D03*
D23*
X26964Y145978D02*
X18608Y137622D01*
X26964Y145978D02*
X26964Y151104D01*
X61468Y208153D02*
X61468Y217234D01*
X61400Y139644D02*
X61400Y121400D01*
X50000Y110000D01*
X50000Y118910D01*
X40848Y128062D02*
X34544Y128062D01*
X40848Y128062D02*
X50000Y118910D01*
X34544Y128062D02*
X24430Y128062D01*
X24384Y128016D01*
X18608Y133792D01*
X18608Y137622D01*
D24*
X228600Y241300D03*
X228600Y266700D03*
X228600Y190500D03*
X228600Y165100D03*
X228600Y139700D03*
X228600Y114300D03*
X228600Y63500D03*
X228600Y38100D03*
X151638Y119126D03*
X106934Y121412D03*
X123698Y105664D03*
D25*
X54554Y196490D02*
X54483Y196977D01*
X54483Y196490D01*
D24*
X88900Y54356D03*
X94996Y47752D03*
X44450Y204470D03*
X30226Y224282D03*
X86360Y254000D03*
X139954Y227076D03*
X134366Y209804D03*
X67056Y99822D03*
X80772Y69596D03*
X183642Y61468D03*
X42672Y138684D03*
D23*
X24804Y174584D02*
X25480Y175260D01*
X24804Y174584D02*
X14544Y174584D01*
D24*
X15240Y175260D03*
X62738Y50292D03*
X152654Y175514D03*
X180000Y280000D03*
X95758Y219456D03*
X157734Y145796D03*
X199644Y127508D03*
X179832Y108712D03*
X34500Y106200D03*
D23*
X69850Y69850D02*
X79375Y60325D01*
X158750Y60325D01*
X161925Y57150D01*
X161925Y50800D01*
X162860Y49530D01*
D24*
X69850Y69850D03*
D23*
X120650Y254000D02*
X122238Y255588D01*
X155575Y255588D01*
X166688Y266700D01*
D24*
X81598Y221806D03*
X120650Y254000D03*
X166688Y266700D03*
D23*
X66400Y214990D02*
X66400Y208336D01*
X73216Y221806D02*
X81598Y221806D01*
X73216Y221806D02*
X66400Y214990D01*
X88900Y214313D02*
X88900Y229950D01*
X88900Y214313D02*
X90488Y212725D01*
X90488Y209550D01*
X91400Y208336D01*
X36513Y176213D02*
X35480Y175260D01*
X39497Y220726D02*
X52777Y234006D01*
X57904Y234006D01*
D24*
X42619Y177655D03*
X39497Y220726D03*
X57904Y234006D03*
D23*
X54554Y181490D02*
X46454Y181490D01*
X42619Y177655D01*
X37955Y177655D01*
X36513Y176213D01*
X123825Y90488D02*
X133350Y90488D01*
X123825Y90488D02*
X123110Y90170D01*
X133350Y90488D02*
X134620Y90520D01*
X134938Y90488D02*
X147638Y90488D01*
X148590Y90520D01*
X134938Y90488D02*
X134620Y90520D01*
X166688Y90488D02*
X174625Y82550D01*
X166688Y90488D02*
X149225Y90488D01*
X174625Y82550D02*
X175260Y82500D01*
X149225Y90488D02*
X148590Y90520D01*
D24*
X107950Y80963D03*
X110236Y109982D03*
D23*
X107950Y107696D02*
X107950Y80963D01*
X107950Y107696D02*
X110236Y109982D01*
X114300Y71438D02*
X115888Y69850D01*
X200025Y69850D01*
X198438Y138113D02*
X190500Y146050D01*
X177800Y146050D01*
D24*
X114300Y71438D03*
X200025Y69850D03*
X198438Y138113D03*
X177800Y146050D03*
D23*
X155575Y206375D02*
X146050Y215900D01*
X115888Y215900D01*
X112713Y212725D01*
X112713Y209550D01*
X111400Y208336D01*
D24*
X155575Y206375D03*
D23*
X212725Y176213D02*
X215900Y179388D01*
X204788Y146050D02*
X204788Y93663D01*
X195263Y93663D01*
X188913Y87313D01*
X188913Y82550D01*
X187960Y82500D01*
D24*
X215900Y179388D03*
X204788Y146050D03*
D23*
X212725Y176213D02*
X212448Y176490D01*
X154433Y179808D02*
X150875Y179808D01*
X147557Y176490D02*
X123246Y176490D01*
X157751Y176490D02*
X212448Y176490D01*
X150875Y179808D02*
X147557Y176490D01*
X154433Y179808D02*
X157751Y176490D01*
D24*
X122174Y284480D03*
M02*
