G04 EAGLE Gerber RS-274X export*
G75*
%MOMM*%
%FSLAX34Y34*%
%LPD*%
%INTop Copper*%
%IPPOS*%
%AMOC8*
5,1,8,0,0,1.08239X$1,22.5*%
G01*
%ADD10R,0.740000X0.925000*%
%ADD11R,0.925000X0.740000*%
%ADD12R,0.600000X0.700000*%
%ADD13R,0.700000X0.600000*%
%ADD14C,0.220000*%
%ADD15R,2.500000X2.500000*%
%ADD16R,1.700000X1.400000*%
%ADD17R,0.800000X1.700000*%
%ADD18R,0.800000X0.700000*%
%ADD19R,0.850000X0.600000*%
%ADD20C,0.127000*%
%ADD21R,1.400000X2.000000*%
%ADD22R,0.609200X1.180100*%
%ADD23R,0.600000X0.600000*%
%ADD24R,0.250000X0.475000*%
%ADD25R,0.475000X0.250000*%
%ADD26R,0.558800X1.473200*%
%ADD27R,1.400000X1.700000*%
%ADD28R,2.400000X1.950000*%
%ADD29C,0.152400*%
%ADD30C,0.452400*%
%ADD31C,0.150000*%
%ADD32C,0.203200*%

G36*
X172571Y7109D02*
X172571Y7109D01*
X172603Y7117D01*
X172689Y7127D01*
X194647Y12399D01*
X194677Y12412D01*
X194760Y12436D01*
X215622Y21077D01*
X215650Y21095D01*
X215729Y21132D01*
X232046Y31131D01*
X232089Y31168D01*
X232139Y31198D01*
X232182Y31248D01*
X232232Y31291D01*
X232261Y31341D01*
X232299Y31385D01*
X232324Y31446D01*
X232357Y31503D01*
X232369Y31559D01*
X232391Y31613D01*
X232402Y31713D01*
X232408Y31744D01*
X232407Y31757D01*
X232409Y31780D01*
X232409Y268220D01*
X232400Y268277D01*
X232401Y268335D01*
X232380Y268398D01*
X232370Y268463D01*
X232343Y268514D01*
X232325Y268569D01*
X232285Y268622D01*
X232254Y268680D01*
X232213Y268720D01*
X232178Y268767D01*
X232099Y268828D01*
X232076Y268850D01*
X232063Y268856D01*
X232046Y268869D01*
X231216Y269378D01*
X229974Y270139D01*
X229973Y270139D01*
X228731Y270900D01*
X228731Y270901D01*
X227489Y271662D01*
X221278Y275468D01*
X220036Y276229D01*
X218793Y276991D01*
X215729Y278868D01*
X215698Y278881D01*
X215622Y278923D01*
X209229Y281571D01*
X209193Y281579D01*
X209160Y281596D01*
X209074Y281607D01*
X208989Y281627D01*
X208953Y281624D01*
X208917Y281629D01*
X208831Y281612D01*
X208745Y281604D01*
X208711Y281589D01*
X208675Y281582D01*
X208599Y281539D01*
X208520Y281504D01*
X208493Y281479D01*
X208461Y281461D01*
X208403Y281397D01*
X208339Y281338D01*
X208321Y281306D01*
X208297Y281278D01*
X208222Y281128D01*
X206095Y275285D01*
X205672Y275087D01*
X205589Y275031D01*
X205503Y274979D01*
X205488Y274962D01*
X205469Y274949D01*
X205408Y274869D01*
X205343Y274792D01*
X205335Y274771D01*
X205321Y274753D01*
X205289Y274657D01*
X205251Y274564D01*
X205248Y274536D01*
X205243Y274519D01*
X205243Y274487D01*
X205233Y274397D01*
X205233Y273795D01*
X200574Y269136D01*
X200521Y269062D01*
X200461Y268993D01*
X200449Y268963D01*
X200430Y268937D01*
X200403Y268850D01*
X200369Y268765D01*
X200365Y268724D01*
X200358Y268702D01*
X200359Y268669D01*
X200351Y268598D01*
X200351Y264364D01*
X199415Y263428D01*
X199404Y263412D01*
X199388Y263400D01*
X199332Y263312D01*
X199272Y263229D01*
X199266Y263210D01*
X199255Y263193D01*
X199230Y263092D01*
X199199Y262993D01*
X199200Y262974D01*
X199195Y262954D01*
X199203Y262851D01*
X199206Y262748D01*
X199213Y262729D01*
X199214Y262709D01*
X199255Y262614D01*
X199290Y262517D01*
X199303Y262501D01*
X199311Y262483D01*
X199415Y262352D01*
X200351Y261416D01*
X200351Y254364D01*
X199605Y253618D01*
X199503Y253596D01*
X199401Y253580D01*
X199384Y253570D01*
X199364Y253566D01*
X199275Y253513D01*
X199184Y253464D01*
X199170Y253450D01*
X199153Y253440D01*
X199086Y253361D01*
X199014Y253286D01*
X199006Y253268D01*
X198993Y253253D01*
X198954Y253157D01*
X198911Y253063D01*
X198909Y253043D01*
X198901Y253025D01*
X198883Y252858D01*
X198883Y232932D01*
X198885Y232919D01*
X198884Y232909D01*
X198895Y232857D01*
X198897Y232842D01*
X198905Y232751D01*
X198917Y232722D01*
X198922Y232690D01*
X198965Y232609D01*
X199001Y232525D01*
X199027Y232493D01*
X199038Y232472D01*
X199061Y232450D01*
X199106Y232394D01*
X222957Y208543D01*
X223030Y208490D01*
X223100Y208431D01*
X223130Y208418D01*
X223156Y208400D01*
X223243Y208373D01*
X223328Y208339D01*
X223369Y208334D01*
X223391Y208327D01*
X223424Y208328D01*
X223495Y208320D01*
X225301Y208320D01*
X227370Y206251D01*
X227370Y203324D01*
X225301Y201255D01*
X222361Y201255D01*
X222349Y201264D01*
X222297Y201313D01*
X222250Y201335D01*
X222208Y201365D01*
X222139Y201386D01*
X222074Y201417D01*
X222022Y201422D01*
X221973Y201438D01*
X221901Y201436D01*
X221830Y201444D01*
X221779Y201433D01*
X221727Y201431D01*
X221659Y201407D01*
X221589Y201391D01*
X221544Y201365D01*
X221496Y201347D01*
X221440Y201302D01*
X221378Y201265D01*
X221344Y201226D01*
X221304Y201193D01*
X221265Y201133D01*
X221218Y201078D01*
X221199Y201030D01*
X221171Y200986D01*
X221153Y200917D01*
X221126Y200850D01*
X221118Y200779D01*
X221110Y200748D01*
X221112Y200724D01*
X221108Y200683D01*
X221108Y183720D01*
X221122Y183630D01*
X221130Y183539D01*
X221142Y183509D01*
X221147Y183477D01*
X221190Y183396D01*
X221226Y183312D01*
X221252Y183280D01*
X221263Y183260D01*
X221286Y183237D01*
X221331Y183182D01*
X222869Y181643D01*
X224283Y180230D01*
X224283Y160441D01*
X224297Y160351D01*
X224305Y160260D01*
X224317Y160230D01*
X224322Y160198D01*
X224365Y160118D01*
X224401Y160034D01*
X224427Y160002D01*
X224438Y159981D01*
X224461Y159959D01*
X224506Y159903D01*
X225783Y158626D01*
X225783Y155699D01*
X223713Y153630D01*
X220787Y153630D01*
X218553Y155864D01*
X218536Y155875D01*
X218524Y155891D01*
X218447Y155941D01*
X218434Y155952D01*
X218426Y155955D01*
X218353Y156007D01*
X218334Y156013D01*
X218317Y156024D01*
X218217Y156049D01*
X218118Y156080D01*
X218098Y156079D01*
X218079Y156084D01*
X217976Y156076D01*
X217872Y156073D01*
X217853Y156066D01*
X217833Y156065D01*
X217739Y156025D01*
X217641Y155989D01*
X217625Y155976D01*
X217607Y155969D01*
X217532Y155909D01*
X217530Y155907D01*
X217527Y155904D01*
X217476Y155864D01*
X208543Y146931D01*
X208490Y146857D01*
X208431Y146788D01*
X208418Y146757D01*
X208400Y146731D01*
X208373Y146644D01*
X208339Y146559D01*
X208334Y146518D01*
X208327Y146496D01*
X208328Y146464D01*
X208320Y146393D01*
X208320Y144587D01*
X206251Y142517D01*
X203324Y142517D01*
X201255Y144587D01*
X201255Y147513D01*
X203324Y149583D01*
X205130Y149583D01*
X205220Y149597D01*
X205311Y149605D01*
X205341Y149617D01*
X205373Y149622D01*
X205454Y149665D01*
X205537Y149701D01*
X205570Y149727D01*
X205590Y149738D01*
X205612Y149761D01*
X205668Y149806D01*
X214993Y159130D01*
X215034Y159188D01*
X215084Y159240D01*
X215106Y159287D01*
X215136Y159329D01*
X215157Y159398D01*
X215187Y159463D01*
X215193Y159515D01*
X215208Y159565D01*
X215207Y159636D01*
X215214Y159707D01*
X215203Y159758D01*
X215202Y159810D01*
X215177Y159878D01*
X215162Y159948D01*
X215135Y159993D01*
X215118Y160041D01*
X215073Y160097D01*
X215036Y160159D01*
X214996Y160193D01*
X214964Y160233D01*
X214904Y160272D01*
X214849Y160319D01*
X214801Y160338D01*
X214757Y160366D01*
X214688Y160384D01*
X214621Y160411D01*
X214550Y160419D01*
X214518Y160427D01*
X214495Y160425D01*
X214454Y160429D01*
X209169Y160429D01*
X209149Y160426D01*
X209130Y160428D01*
X209028Y160406D01*
X208926Y160390D01*
X208909Y160380D01*
X208889Y160376D01*
X208800Y160323D01*
X208709Y160274D01*
X208695Y160260D01*
X208678Y160250D01*
X208611Y160171D01*
X208539Y160096D01*
X208531Y160078D01*
X208518Y160063D01*
X208479Y159967D01*
X208436Y159873D01*
X208434Y159853D01*
X208426Y159835D01*
X208408Y159668D01*
X208408Y159495D01*
X196058Y147145D01*
X196005Y147072D01*
X195945Y147002D01*
X195933Y146972D01*
X195914Y146946D01*
X195887Y146859D01*
X195853Y146774D01*
X195849Y146733D01*
X195842Y146711D01*
X195843Y146678D01*
X195835Y146607D01*
X195835Y142344D01*
X195837Y142330D01*
X195836Y142320D01*
X195846Y142272D01*
X195848Y142201D01*
X195866Y142152D01*
X195874Y142101D01*
X195908Y142037D01*
X195933Y141970D01*
X195965Y141929D01*
X195990Y141883D01*
X196042Y141834D01*
X196086Y141778D01*
X196130Y141750D01*
X196168Y141714D01*
X196233Y141684D01*
X196293Y141645D01*
X196344Y141632D01*
X196391Y141610D01*
X196462Y141603D01*
X196532Y141585D01*
X196584Y141589D01*
X196635Y141583D01*
X196706Y141599D01*
X196777Y141604D01*
X196825Y141625D01*
X196876Y141636D01*
X196892Y141645D01*
X199901Y141645D01*
X201970Y139576D01*
X201970Y137770D01*
X201972Y137759D01*
X201971Y137753D01*
X201978Y137720D01*
X201985Y137680D01*
X201992Y137589D01*
X202005Y137559D01*
X202010Y137527D01*
X202053Y137446D01*
X202088Y137363D01*
X202114Y137330D01*
X202125Y137310D01*
X202148Y137288D01*
X202193Y137232D01*
X221108Y118317D01*
X221108Y102345D01*
X202281Y83518D01*
X202239Y83460D01*
X202192Y83410D01*
X202183Y83393D01*
X202168Y83375D01*
X202156Y83345D01*
X202137Y83319D01*
X202114Y83243D01*
X202088Y83187D01*
X202086Y83172D01*
X202076Y83147D01*
X202072Y83106D01*
X202065Y83084D01*
X202066Y83051D01*
X202058Y82980D01*
X202058Y73129D01*
X202072Y73039D01*
X202080Y72948D01*
X202092Y72918D01*
X202097Y72886D01*
X202140Y72805D01*
X202176Y72721D01*
X202202Y72689D01*
X202213Y72669D01*
X202236Y72646D01*
X202281Y72590D01*
X203558Y71313D01*
X203558Y68387D01*
X202147Y66976D01*
X202105Y66918D01*
X202056Y66866D01*
X202034Y66819D01*
X202004Y66777D01*
X201983Y66708D01*
X201952Y66643D01*
X201947Y66591D01*
X201931Y66541D01*
X201933Y66470D01*
X201925Y66399D01*
X201936Y66348D01*
X201938Y66296D01*
X201962Y66228D01*
X201978Y66158D01*
X202004Y66113D01*
X202022Y66065D01*
X202067Y66009D01*
X202104Y65947D01*
X202143Y65913D01*
X202176Y65873D01*
X202236Y65834D01*
X202291Y65787D01*
X202339Y65768D01*
X202383Y65740D01*
X202452Y65722D01*
X202519Y65695D01*
X202590Y65687D01*
X202621Y65679D01*
X202645Y65681D01*
X202686Y65677D01*
X203359Y65677D01*
X203359Y61214D01*
X203362Y61194D01*
X203360Y61175D01*
X203382Y61073D01*
X203399Y60971D01*
X203408Y60954D01*
X203412Y60934D01*
X203465Y60845D01*
X203514Y60754D01*
X203528Y60740D01*
X203538Y60723D01*
X203617Y60656D01*
X203692Y60585D01*
X203710Y60576D01*
X203725Y60563D01*
X203821Y60524D01*
X203915Y60481D01*
X203935Y60479D01*
X203953Y60471D01*
X204120Y60453D01*
X204883Y60453D01*
X204883Y60451D01*
X204120Y60451D01*
X204100Y60448D01*
X204081Y60450D01*
X203979Y60428D01*
X203877Y60411D01*
X203860Y60402D01*
X203840Y60398D01*
X203751Y60345D01*
X203660Y60296D01*
X203646Y60282D01*
X203629Y60272D01*
X203562Y60193D01*
X203491Y60118D01*
X203482Y60100D01*
X203469Y60085D01*
X203430Y59989D01*
X203387Y59895D01*
X203385Y59875D01*
X203377Y59857D01*
X203359Y59690D01*
X203359Y55227D01*
X201797Y55227D01*
X201726Y55216D01*
X201654Y55214D01*
X201605Y55196D01*
X201554Y55188D01*
X201490Y55154D01*
X201423Y55129D01*
X201382Y55097D01*
X201336Y55072D01*
X201287Y55020D01*
X201231Y54976D01*
X201203Y54932D01*
X201167Y54894D01*
X201137Y54829D01*
X201098Y54769D01*
X201085Y54718D01*
X201063Y54671D01*
X201056Y54600D01*
X201038Y54530D01*
X201042Y54478D01*
X201036Y54427D01*
X201052Y54356D01*
X201057Y54285D01*
X201078Y54237D01*
X201089Y54186D01*
X201125Y54125D01*
X201153Y54059D01*
X201198Y54003D01*
X201215Y53975D01*
X201233Y53960D01*
X201258Y53928D01*
X202415Y52771D01*
X202415Y49845D01*
X200345Y47775D01*
X198708Y47775D01*
X198618Y47761D01*
X198527Y47753D01*
X198497Y47741D01*
X198465Y47736D01*
X198385Y47693D01*
X198301Y47657D01*
X198269Y47631D01*
X198248Y47620D01*
X198226Y47597D01*
X198170Y47552D01*
X174874Y24256D01*
X165752Y24256D01*
X165732Y24253D01*
X165713Y24255D01*
X165611Y24233D01*
X165509Y24217D01*
X165492Y24207D01*
X165472Y24203D01*
X165383Y24150D01*
X165292Y24101D01*
X165278Y24087D01*
X165261Y24077D01*
X165194Y23998D01*
X165122Y23923D01*
X165114Y23905D01*
X165101Y23890D01*
X165062Y23794D01*
X165019Y23700D01*
X165017Y23680D01*
X165009Y23662D01*
X164991Y23495D01*
X164991Y21169D01*
X164860Y21038D01*
X164848Y21022D01*
X164833Y21009D01*
X164777Y20922D01*
X164716Y20838D01*
X164711Y20819D01*
X164700Y20802D01*
X164675Y20702D01*
X164644Y20603D01*
X164645Y20583D01*
X164640Y20564D01*
X164648Y20461D01*
X164650Y20357D01*
X164657Y20338D01*
X164659Y20319D01*
X164699Y20223D01*
X164735Y20126D01*
X164747Y20111D01*
X164755Y20092D01*
X164860Y19961D01*
X165013Y19809D01*
X165245Y19248D01*
X165245Y15843D01*
X160782Y15843D01*
X160762Y15840D01*
X160743Y15842D01*
X160641Y15820D01*
X160539Y15803D01*
X160522Y15794D01*
X160502Y15790D01*
X160413Y15737D01*
X160322Y15688D01*
X160308Y15674D01*
X160291Y15664D01*
X160224Y15585D01*
X160153Y15510D01*
X160144Y15492D01*
X160131Y15477D01*
X160092Y15381D01*
X160049Y15287D01*
X160047Y15267D01*
X160039Y15249D01*
X160021Y15082D01*
X160021Y14319D01*
X160019Y14319D01*
X160019Y15082D01*
X160016Y15102D01*
X160018Y15121D01*
X159996Y15222D01*
X159979Y15325D01*
X159970Y15342D01*
X159966Y15362D01*
X159913Y15451D01*
X159864Y15542D01*
X159850Y15556D01*
X159840Y15573D01*
X159761Y15640D01*
X159686Y15711D01*
X159668Y15720D01*
X159653Y15733D01*
X159557Y15772D01*
X159463Y15815D01*
X159443Y15817D01*
X159425Y15825D01*
X159258Y15843D01*
X154795Y15843D01*
X154795Y19248D01*
X155027Y19809D01*
X155180Y19961D01*
X155192Y19977D01*
X155207Y19990D01*
X155263Y20077D01*
X155324Y20161D01*
X155329Y20180D01*
X155340Y20197D01*
X155365Y20297D01*
X155396Y20396D01*
X155395Y20416D01*
X155400Y20435D01*
X155392Y20538D01*
X155390Y20642D01*
X155383Y20661D01*
X155381Y20681D01*
X155341Y20776D01*
X155305Y20873D01*
X155293Y20889D01*
X155285Y20907D01*
X155180Y21038D01*
X155049Y21169D01*
X155049Y29704D01*
X155047Y29720D01*
X155048Y29734D01*
X155037Y29784D01*
X155036Y29846D01*
X155018Y29895D01*
X155010Y29946D01*
X154997Y29970D01*
X154996Y29975D01*
X154984Y29994D01*
X154976Y30010D01*
X154951Y30077D01*
X154919Y30118D01*
X154894Y30164D01*
X154842Y30213D01*
X154798Y30269D01*
X154754Y30297D01*
X154716Y30333D01*
X154651Y30363D01*
X154591Y30402D01*
X154540Y30415D01*
X154493Y30437D01*
X154422Y30445D01*
X154352Y30462D01*
X154300Y30458D01*
X154249Y30464D01*
X154178Y30449D01*
X154107Y30443D01*
X154059Y30423D01*
X154008Y30412D01*
X153947Y30375D01*
X153881Y30347D01*
X153833Y30309D01*
X153819Y30301D01*
X153813Y30295D01*
X153797Y30285D01*
X153782Y30268D01*
X153750Y30242D01*
X152314Y28806D01*
X152261Y28732D01*
X152201Y28663D01*
X152189Y28632D01*
X152170Y28606D01*
X152143Y28519D01*
X152109Y28434D01*
X152105Y28393D01*
X152098Y28371D01*
X152099Y28339D01*
X152091Y28268D01*
X152091Y23064D01*
X151235Y22208D01*
X151208Y22171D01*
X151174Y22139D01*
X151137Y22071D01*
X151091Y22008D01*
X151078Y21964D01*
X151056Y21924D01*
X151042Y21847D01*
X151019Y21773D01*
X151020Y21727D01*
X151012Y21682D01*
X151023Y21605D01*
X151025Y21527D01*
X151041Y21484D01*
X151048Y21439D01*
X151083Y21369D01*
X151110Y21296D01*
X151138Y21260D01*
X151159Y21219D01*
X151215Y21165D01*
X151263Y21104D01*
X151302Y21079D01*
X151335Y21047D01*
X151455Y20981D01*
X151470Y20971D01*
X151475Y20970D01*
X151482Y20966D01*
X151684Y20883D01*
X152113Y20454D01*
X152345Y19893D01*
X152345Y18089D01*
X148058Y18089D01*
X148039Y18086D01*
X148019Y18088D01*
X147917Y18066D01*
X147815Y18050D01*
X147798Y18040D01*
X147778Y18036D01*
X147689Y17983D01*
X147598Y17934D01*
X147584Y17920D01*
X147567Y17910D01*
X147500Y17831D01*
X147429Y17756D01*
X147420Y17738D01*
X147407Y17723D01*
X147369Y17627D01*
X147325Y17533D01*
X147323Y17513D01*
X147316Y17495D01*
X147303Y17571D01*
X147294Y17588D01*
X147290Y17608D01*
X147237Y17697D01*
X147188Y17788D01*
X147174Y17802D01*
X147164Y17819D01*
X147085Y17886D01*
X147010Y17958D01*
X146992Y17966D01*
X146977Y17979D01*
X146880Y18018D01*
X146787Y18061D01*
X146767Y18063D01*
X146749Y18071D01*
X146582Y18089D01*
X142295Y18089D01*
X142295Y19893D01*
X142527Y20454D01*
X142956Y20883D01*
X143158Y20966D01*
X143197Y20990D01*
X143240Y21006D01*
X143301Y21055D01*
X143367Y21096D01*
X143396Y21131D01*
X143432Y21160D01*
X143474Y21225D01*
X143524Y21285D01*
X143541Y21328D01*
X143565Y21367D01*
X143584Y21442D01*
X143612Y21515D01*
X143614Y21561D01*
X143625Y21605D01*
X143619Y21683D01*
X143623Y21761D01*
X143610Y21805D01*
X143606Y21851D01*
X143576Y21922D01*
X143554Y21997D01*
X143528Y22035D01*
X143510Y22077D01*
X143425Y22184D01*
X143414Y22199D01*
X143410Y22202D01*
X143405Y22208D01*
X142549Y23064D01*
X142549Y30116D01*
X143294Y30861D01*
X148338Y30861D01*
X148428Y30875D01*
X148519Y30883D01*
X148548Y30895D01*
X148580Y30900D01*
X148661Y30943D01*
X148745Y30979D01*
X148777Y31005D01*
X148798Y31016D01*
X148820Y31039D01*
X148876Y31084D01*
X152696Y34904D01*
X152749Y34978D01*
X152809Y35047D01*
X152821Y35078D01*
X152840Y35104D01*
X152867Y35191D01*
X152901Y35276D01*
X152905Y35317D01*
X152912Y35339D01*
X152911Y35371D01*
X152919Y35442D01*
X152919Y39179D01*
X152916Y39198D01*
X152918Y39218D01*
X152896Y39319D01*
X152880Y39421D01*
X152870Y39439D01*
X152866Y39458D01*
X152813Y39547D01*
X152764Y39639D01*
X152750Y39652D01*
X152740Y39669D01*
X152661Y39737D01*
X152586Y39808D01*
X152568Y39816D01*
X152553Y39829D01*
X152457Y39868D01*
X152363Y39912D01*
X152343Y39914D01*
X152325Y39921D01*
X152158Y39940D01*
X149892Y39940D01*
X149887Y39941D01*
X149870Y39952D01*
X149770Y39977D01*
X149671Y40008D01*
X149651Y40007D01*
X149632Y40012D01*
X149529Y40004D01*
X149425Y40002D01*
X149406Y39995D01*
X149387Y39993D01*
X149292Y39953D01*
X149194Y39917D01*
X149179Y39905D01*
X149160Y39897D01*
X149029Y39792D01*
X133630Y24392D01*
X95161Y24392D01*
X82783Y36770D01*
X81369Y38184D01*
X81369Y59670D01*
X93609Y71909D01*
X93662Y71983D01*
X93721Y72052D01*
X93734Y72083D01*
X93752Y72109D01*
X93779Y72196D01*
X93813Y72281D01*
X93818Y72322D01*
X93825Y72344D01*
X93824Y72376D01*
X93832Y72447D01*
X93832Y73376D01*
X93817Y73466D01*
X93810Y73557D01*
X93797Y73587D01*
X93792Y73619D01*
X93749Y73699D01*
X93714Y73783D01*
X93688Y73815D01*
X93677Y73836D01*
X93654Y73858D01*
X93609Y73914D01*
X92332Y75191D01*
X92332Y78118D01*
X94401Y80187D01*
X97328Y80187D01*
X99397Y78118D01*
X99397Y75191D01*
X98120Y73914D01*
X98067Y73840D01*
X98008Y73771D01*
X97995Y73741D01*
X97977Y73714D01*
X97950Y73627D01*
X97916Y73543D01*
X97911Y73502D01*
X97904Y73479D01*
X97905Y73447D01*
X97897Y73376D01*
X97897Y70448D01*
X96484Y69034D01*
X85658Y58208D01*
X85605Y58135D01*
X85545Y58065D01*
X85533Y58035D01*
X85514Y58009D01*
X85487Y57922D01*
X85453Y57837D01*
X85449Y57796D01*
X85442Y57774D01*
X85443Y57741D01*
X85435Y57670D01*
X85435Y40183D01*
X85449Y40093D01*
X85457Y40002D01*
X85469Y39973D01*
X85474Y39941D01*
X85517Y39860D01*
X85553Y39776D01*
X85579Y39744D01*
X85590Y39723D01*
X85613Y39701D01*
X85658Y39645D01*
X96622Y28681D01*
X96696Y28628D01*
X96765Y28568D01*
X96796Y28556D01*
X96822Y28537D01*
X96909Y28510D01*
X96994Y28476D01*
X97035Y28472D01*
X97057Y28465D01*
X97089Y28466D01*
X97160Y28458D01*
X131630Y28458D01*
X131720Y28472D01*
X131811Y28480D01*
X131841Y28492D01*
X131873Y28497D01*
X131954Y28540D01*
X132037Y28576D01*
X132070Y28602D01*
X132090Y28613D01*
X132112Y28636D01*
X132168Y28681D01*
X142154Y38667D01*
X142166Y38683D01*
X142182Y38695D01*
X142238Y38783D01*
X142298Y38866D01*
X142304Y38885D01*
X142315Y38902D01*
X142340Y39003D01*
X142370Y39102D01*
X142370Y39121D01*
X142375Y39141D01*
X142367Y39244D01*
X142364Y39347D01*
X142357Y39366D01*
X142356Y39386D01*
X142315Y39481D01*
X142280Y39578D01*
X142267Y39594D01*
X142259Y39612D01*
X142154Y39743D01*
X140569Y41328D01*
X140569Y41656D01*
X140566Y41676D01*
X140568Y41695D01*
X140546Y41797D01*
X140530Y41899D01*
X140520Y41916D01*
X140516Y41936D01*
X140463Y42025D01*
X140414Y42116D01*
X140400Y42130D01*
X140390Y42147D01*
X140311Y42214D01*
X140236Y42286D01*
X140218Y42294D01*
X140203Y42307D01*
X140107Y42346D01*
X140013Y42389D01*
X139993Y42391D01*
X139975Y42399D01*
X139808Y42417D01*
X137371Y42417D01*
X137351Y42414D01*
X137332Y42416D01*
X137230Y42394D01*
X137128Y42378D01*
X137111Y42368D01*
X137091Y42364D01*
X137002Y42311D01*
X136911Y42262D01*
X136897Y42248D01*
X136880Y42238D01*
X136813Y42159D01*
X136741Y42084D01*
X136733Y42066D01*
X136720Y42051D01*
X136681Y41955D01*
X136638Y41861D01*
X136636Y41841D01*
X136628Y41823D01*
X136610Y41656D01*
X136610Y37684D01*
X135865Y36939D01*
X130595Y36939D01*
X130505Y36925D01*
X130414Y36917D01*
X130384Y36905D01*
X130352Y36900D01*
X130272Y36857D01*
X130188Y36821D01*
X130156Y36795D01*
X130135Y36784D01*
X130113Y36761D01*
X130057Y36716D01*
X127581Y34240D01*
X127528Y34166D01*
X127468Y34097D01*
X127456Y34067D01*
X127437Y34041D01*
X127410Y33954D01*
X127376Y33869D01*
X127372Y33828D01*
X127365Y33805D01*
X127366Y33773D01*
X127358Y33702D01*
X127358Y32255D01*
X125288Y30186D01*
X122362Y30186D01*
X120292Y32255D01*
X120292Y35182D01*
X120496Y35386D01*
X120538Y35444D01*
X120587Y35496D01*
X120609Y35543D01*
X120640Y35585D01*
X120661Y35654D01*
X120691Y35719D01*
X120697Y35771D01*
X120712Y35821D01*
X120710Y35892D01*
X120718Y35963D01*
X120707Y36014D01*
X120706Y36066D01*
X120681Y36134D01*
X120666Y36204D01*
X120639Y36249D01*
X120621Y36297D01*
X120576Y36353D01*
X120540Y36415D01*
X120500Y36449D01*
X120468Y36489D01*
X120407Y36528D01*
X120353Y36575D01*
X120304Y36594D01*
X120261Y36622D01*
X120237Y36628D01*
X120237Y41148D01*
X120234Y41168D01*
X120236Y41187D01*
X120214Y41289D01*
X120197Y41391D01*
X120188Y41408D01*
X120184Y41428D01*
X120131Y41517D01*
X120082Y41608D01*
X120068Y41622D01*
X120058Y41639D01*
X119979Y41706D01*
X119904Y41777D01*
X119886Y41786D01*
X119871Y41799D01*
X119775Y41838D01*
X119681Y41881D01*
X119661Y41883D01*
X119643Y41891D01*
X119476Y41909D01*
X118713Y41909D01*
X118713Y41911D01*
X119476Y41911D01*
X119496Y41914D01*
X119515Y41912D01*
X119617Y41934D01*
X119719Y41951D01*
X119736Y41960D01*
X119756Y41964D01*
X119845Y42017D01*
X119936Y42066D01*
X119950Y42080D01*
X119967Y42090D01*
X120034Y42169D01*
X120105Y42244D01*
X120114Y42262D01*
X120127Y42277D01*
X120166Y42373D01*
X120209Y42467D01*
X120211Y42487D01*
X120219Y42505D01*
X120237Y42672D01*
X120237Y47135D01*
X123642Y47135D01*
X124203Y46903D01*
X124355Y46750D01*
X124371Y46738D01*
X124384Y46723D01*
X124471Y46667D01*
X124555Y46606D01*
X124574Y46601D01*
X124591Y46590D01*
X124691Y46565D01*
X124790Y46534D01*
X124810Y46535D01*
X124829Y46530D01*
X124932Y46538D01*
X125036Y46540D01*
X125055Y46547D01*
X125075Y46549D01*
X125170Y46589D01*
X125267Y46625D01*
X125283Y46637D01*
X125301Y46645D01*
X125432Y46750D01*
X125563Y46881D01*
X132739Y46881D01*
X132830Y46895D01*
X132920Y46903D01*
X132950Y46915D01*
X132982Y46920D01*
X133063Y46963D01*
X133128Y46991D01*
X139808Y46991D01*
X139828Y46994D01*
X139847Y46992D01*
X139949Y47014D01*
X140051Y47030D01*
X140068Y47040D01*
X140088Y47044D01*
X140177Y47097D01*
X140268Y47146D01*
X140282Y47160D01*
X140299Y47170D01*
X140366Y47249D01*
X140438Y47324D01*
X140446Y47342D01*
X140459Y47357D01*
X140498Y47453D01*
X140541Y47547D01*
X140543Y47567D01*
X140551Y47585D01*
X140569Y47752D01*
X140569Y49200D01*
X141603Y50233D01*
X141615Y50249D01*
X141630Y50262D01*
X141686Y50349D01*
X141747Y50433D01*
X141752Y50452D01*
X141763Y50469D01*
X141789Y50569D01*
X141819Y50668D01*
X141818Y50688D01*
X141823Y50707D01*
X141815Y50810D01*
X141813Y50914D01*
X141806Y50933D01*
X141804Y50953D01*
X141764Y51047D01*
X141728Y51145D01*
X141716Y51161D01*
X141708Y51179D01*
X141603Y51310D01*
X141480Y51433D01*
X141464Y51445D01*
X141451Y51460D01*
X141364Y51516D01*
X141280Y51577D01*
X141261Y51582D01*
X141244Y51593D01*
X141144Y51619D01*
X141045Y51649D01*
X141025Y51648D01*
X141006Y51653D01*
X140903Y51645D01*
X140799Y51643D01*
X140780Y51636D01*
X140761Y51634D01*
X140666Y51594D01*
X140568Y51558D01*
X140553Y51546D01*
X140534Y51538D01*
X140403Y51433D01*
X139370Y50399D01*
X131498Y50399D01*
X130110Y51788D01*
X130110Y53752D01*
X130589Y54232D01*
X130601Y54248D01*
X130617Y54260D01*
X130673Y54348D01*
X130733Y54431D01*
X130739Y54450D01*
X130750Y54467D01*
X130775Y54568D01*
X130805Y54667D01*
X130805Y54686D01*
X130810Y54706D01*
X130802Y54809D01*
X130799Y54912D01*
X130792Y54931D01*
X130791Y54951D01*
X130750Y55046D01*
X130715Y55143D01*
X130702Y55159D01*
X130694Y55177D01*
X130589Y55308D01*
X130110Y55788D01*
X130110Y57752D01*
X130410Y58052D01*
X130422Y58068D01*
X130437Y58081D01*
X130493Y58168D01*
X130553Y58252D01*
X130559Y58271D01*
X130570Y58288D01*
X130595Y58388D01*
X130626Y58487D01*
X130625Y58507D01*
X130630Y58526D01*
X130622Y58629D01*
X130619Y58733D01*
X130613Y58752D01*
X130611Y58772D01*
X130571Y58867D01*
X130535Y58964D01*
X130522Y58980D01*
X130515Y58998D01*
X130410Y59129D01*
X130346Y59193D01*
X130320Y59225D01*
X130246Y59317D01*
X130242Y59319D01*
X130240Y59323D01*
X130139Y59386D01*
X130039Y59450D01*
X130035Y59451D01*
X130031Y59453D01*
X129916Y59481D01*
X129800Y59510D01*
X129796Y59510D01*
X129792Y59511D01*
X129672Y59500D01*
X129555Y59491D01*
X129551Y59490D01*
X129547Y59489D01*
X129438Y59441D01*
X129329Y59395D01*
X129325Y59392D01*
X129322Y59390D01*
X129312Y59381D01*
X129198Y59290D01*
X126914Y57006D01*
X126861Y56932D01*
X126801Y56863D01*
X126789Y56832D01*
X126770Y56806D01*
X126743Y56719D01*
X126709Y56634D01*
X126705Y56593D01*
X126698Y56571D01*
X126699Y56539D01*
X126691Y56468D01*
X126691Y51074D01*
X125946Y50329D01*
X117894Y50329D01*
X117149Y51074D01*
X117149Y58126D01*
X118085Y59062D01*
X118096Y59078D01*
X118112Y59090D01*
X118168Y59178D01*
X118228Y59261D01*
X118234Y59280D01*
X118245Y59297D01*
X118270Y59398D01*
X118301Y59497D01*
X118300Y59516D01*
X118305Y59536D01*
X118297Y59639D01*
X118294Y59742D01*
X118287Y59761D01*
X118286Y59781D01*
X118245Y59876D01*
X118210Y59973D01*
X118197Y59989D01*
X118189Y60007D01*
X118085Y60138D01*
X117149Y61074D01*
X117149Y62294D01*
X117146Y62313D01*
X117148Y62333D01*
X117126Y62434D01*
X117110Y62536D01*
X117100Y62554D01*
X117096Y62573D01*
X117043Y62662D01*
X116994Y62754D01*
X116980Y62767D01*
X116970Y62784D01*
X116891Y62852D01*
X116816Y62923D01*
X116798Y62931D01*
X116783Y62944D01*
X116687Y62983D01*
X116593Y63027D01*
X116573Y63029D01*
X116555Y63036D01*
X116388Y63055D01*
X113458Y63055D01*
X112044Y64468D01*
X107331Y69182D01*
X105917Y70595D01*
X105917Y77684D01*
X105916Y77691D01*
X105916Y77693D01*
X105914Y77701D01*
X105903Y77774D01*
X105895Y77865D01*
X105883Y77895D01*
X105878Y77927D01*
X105835Y78007D01*
X105799Y78091D01*
X105773Y78123D01*
X105762Y78144D01*
X105739Y78166D01*
X105694Y78222D01*
X104417Y79499D01*
X104417Y81069D01*
X104414Y81089D01*
X104416Y81108D01*
X104394Y81210D01*
X104378Y81312D01*
X104368Y81329D01*
X104364Y81349D01*
X104311Y81438D01*
X104262Y81529D01*
X104248Y81543D01*
X104238Y81560D01*
X104159Y81627D01*
X104084Y81699D01*
X104066Y81707D01*
X104051Y81720D01*
X103955Y81759D01*
X103861Y81802D01*
X103841Y81804D01*
X103823Y81812D01*
X103656Y81830D01*
X103123Y81830D01*
X103123Y86457D01*
X106825Y86457D01*
X106825Y85256D01*
X106827Y85241D01*
X106826Y85226D01*
X106826Y85223D01*
X106826Y85217D01*
X106848Y85116D01*
X106864Y85014D01*
X106874Y84996D01*
X106878Y84977D01*
X106931Y84888D01*
X106980Y84796D01*
X106994Y84783D01*
X107004Y84766D01*
X107083Y84698D01*
X107158Y84627D01*
X107176Y84619D01*
X107191Y84606D01*
X107287Y84567D01*
X107381Y84523D01*
X107401Y84521D01*
X107419Y84514D01*
X107586Y84495D01*
X109413Y84495D01*
X111483Y82426D01*
X111483Y79499D01*
X110206Y78222D01*
X110153Y78148D01*
X110093Y78079D01*
X110081Y78049D01*
X110062Y78022D01*
X110035Y77935D01*
X110001Y77851D01*
X109997Y77810D01*
X109990Y77787D01*
X109991Y77755D01*
X109983Y77684D01*
X109983Y73954D01*
X109994Y73883D01*
X109996Y73812D01*
X110014Y73763D01*
X110022Y73711D01*
X110056Y73648D01*
X110081Y73581D01*
X110113Y73540D01*
X110138Y73494D01*
X110190Y73445D01*
X110234Y73389D01*
X110278Y73360D01*
X110316Y73325D01*
X110381Y73294D01*
X110441Y73256D01*
X110492Y73243D01*
X110539Y73221D01*
X110610Y73213D01*
X110680Y73196D01*
X110732Y73200D01*
X110783Y73194D01*
X110854Y73209D01*
X110925Y73215D01*
X110973Y73235D01*
X111024Y73246D01*
X111085Y73283D01*
X111151Y73311D01*
X111207Y73356D01*
X111235Y73372D01*
X111250Y73390D01*
X111282Y73416D01*
X112837Y74970D01*
X114643Y74970D01*
X114733Y74985D01*
X114824Y74992D01*
X114853Y75005D01*
X114885Y75010D01*
X114966Y75053D01*
X115050Y75088D01*
X115082Y75114D01*
X115103Y75125D01*
X115125Y75148D01*
X115181Y75193D01*
X116714Y76726D01*
X116757Y76752D01*
X116848Y76800D01*
X116862Y76814D01*
X116879Y76825D01*
X116946Y76903D01*
X117018Y76978D01*
X117026Y76996D01*
X117039Y77012D01*
X117078Y77108D01*
X117121Y77201D01*
X117123Y77221D01*
X117131Y77240D01*
X117149Y77406D01*
X117149Y78536D01*
X118085Y79472D01*
X118096Y79488D01*
X118112Y79500D01*
X118168Y79588D01*
X118228Y79671D01*
X118234Y79690D01*
X118245Y79707D01*
X118270Y79808D01*
X118301Y79907D01*
X118300Y79926D01*
X118305Y79946D01*
X118297Y80049D01*
X118294Y80152D01*
X118287Y80171D01*
X118286Y80191D01*
X118245Y80286D01*
X118210Y80383D01*
X118197Y80399D01*
X118189Y80417D01*
X118085Y80548D01*
X117149Y81484D01*
X117149Y88536D01*
X117894Y89281D01*
X125946Y89281D01*
X126691Y88536D01*
X126691Y86931D01*
X126694Y86912D01*
X126692Y86892D01*
X126714Y86791D01*
X126730Y86689D01*
X126740Y86671D01*
X126744Y86652D01*
X126797Y86563D01*
X126846Y86471D01*
X126860Y86458D01*
X126870Y86441D01*
X126949Y86373D01*
X127024Y86302D01*
X127042Y86294D01*
X127057Y86281D01*
X127153Y86242D01*
X127247Y86198D01*
X127267Y86196D01*
X127285Y86189D01*
X127452Y86170D01*
X129430Y86170D01*
X132074Y83526D01*
X132132Y83484D01*
X132184Y83435D01*
X132231Y83413D01*
X132273Y83382D01*
X132342Y83361D01*
X132407Y83331D01*
X132459Y83325D01*
X132509Y83310D01*
X132580Y83312D01*
X132651Y83304D01*
X132702Y83315D01*
X132754Y83316D01*
X132822Y83341D01*
X132892Y83356D01*
X132937Y83383D01*
X132985Y83401D01*
X133041Y83446D01*
X133103Y83482D01*
X133137Y83522D01*
X133177Y83555D01*
X133201Y83591D01*
X135443Y85833D01*
X136068Y85833D01*
X136158Y85847D01*
X136249Y85855D01*
X136279Y85867D01*
X136311Y85872D01*
X136391Y85915D01*
X136475Y85951D01*
X136507Y85977D01*
X136528Y85988D01*
X136550Y86011D01*
X136606Y86056D01*
X136657Y86107D01*
X139808Y86107D01*
X139828Y86110D01*
X139847Y86108D01*
X139949Y86130D01*
X140051Y86146D01*
X140068Y86156D01*
X140088Y86160D01*
X140177Y86213D01*
X140268Y86262D01*
X140282Y86276D01*
X140299Y86286D01*
X140366Y86365D01*
X140438Y86440D01*
X140446Y86458D01*
X140459Y86473D01*
X140498Y86569D01*
X140541Y86663D01*
X140543Y86683D01*
X140551Y86701D01*
X140569Y86868D01*
X140569Y88212D01*
X141678Y89320D01*
X141690Y89337D01*
X141705Y89349D01*
X141736Y89397D01*
X141744Y89405D01*
X141751Y89420D01*
X141761Y89436D01*
X141822Y89520D01*
X141828Y89539D01*
X141838Y89556D01*
X141864Y89656D01*
X141894Y89755D01*
X141894Y89775D01*
X141898Y89795D01*
X141890Y89897D01*
X141888Y90001D01*
X141881Y90020D01*
X141879Y90040D01*
X141839Y90135D01*
X141803Y90232D01*
X141791Y90248D01*
X141783Y90266D01*
X141678Y90397D01*
X136739Y95336D01*
X136665Y95389D01*
X136596Y95449D01*
X136565Y95461D01*
X136539Y95480D01*
X136452Y95507D01*
X136367Y95541D01*
X136326Y95545D01*
X136304Y95552D01*
X136272Y95551D01*
X136201Y95559D01*
X130474Y95559D01*
X129729Y96304D01*
X129729Y104356D01*
X130474Y105101D01*
X136249Y105101D01*
X136320Y105112D01*
X136392Y105114D01*
X136441Y105132D01*
X136492Y105140D01*
X136555Y105174D01*
X136623Y105199D01*
X136663Y105231D01*
X136709Y105256D01*
X136759Y105308D01*
X136815Y105352D01*
X136843Y105396D01*
X136879Y105434D01*
X136909Y105499D01*
X136948Y105559D01*
X136960Y105610D01*
X136982Y105657D01*
X136990Y105728D01*
X137008Y105798D01*
X137004Y105850D01*
X137009Y105901D01*
X136994Y105972D01*
X136989Y106043D01*
X136968Y106091D01*
X136957Y106142D01*
X136920Y106203D01*
X136892Y106269D01*
X136848Y106325D01*
X136831Y106353D01*
X136813Y106368D01*
X136788Y106400D01*
X131261Y111926D01*
X131188Y111979D01*
X131118Y112039D01*
X131088Y112051D01*
X131062Y112070D01*
X130975Y112097D01*
X130890Y112131D01*
X130849Y112135D01*
X130827Y112142D01*
X130794Y112141D01*
X130723Y112149D01*
X115829Y112149D01*
X115787Y112179D01*
X115768Y112185D01*
X115752Y112196D01*
X115651Y112221D01*
X115552Y112252D01*
X115532Y112251D01*
X115513Y112256D01*
X115410Y112248D01*
X115307Y112245D01*
X115288Y112239D01*
X115268Y112237D01*
X115173Y112197D01*
X115075Y112161D01*
X115060Y112148D01*
X115041Y112141D01*
X114911Y112036D01*
X113992Y111117D01*
X113939Y111043D01*
X113879Y110974D01*
X113867Y110943D01*
X113848Y110917D01*
X113821Y110830D01*
X113787Y110745D01*
X113783Y110704D01*
X113776Y110682D01*
X113777Y110650D01*
X113769Y110579D01*
X113769Y108519D01*
X111699Y106449D01*
X108773Y106449D01*
X106703Y108519D01*
X106703Y111445D01*
X108773Y113515D01*
X109982Y113515D01*
X110002Y113518D01*
X110021Y113516D01*
X110123Y113538D01*
X110225Y113554D01*
X110242Y113564D01*
X110262Y113568D01*
X110351Y113621D01*
X110442Y113670D01*
X110456Y113684D01*
X110473Y113694D01*
X110540Y113773D01*
X110612Y113848D01*
X110620Y113866D01*
X110633Y113881D01*
X110672Y113977D01*
X110715Y114071D01*
X110717Y114091D01*
X110725Y114109D01*
X110743Y114276D01*
X110743Y144860D01*
X120824Y154941D01*
X124368Y154941D01*
X124388Y154944D01*
X124407Y154942D01*
X124509Y154964D01*
X124611Y154980D01*
X124628Y154990D01*
X124648Y154994D01*
X124737Y155047D01*
X124828Y155096D01*
X124842Y155110D01*
X124859Y155120D01*
X124926Y155199D01*
X124998Y155274D01*
X125006Y155292D01*
X125019Y155307D01*
X125058Y155403D01*
X125101Y155497D01*
X125103Y155517D01*
X125111Y155535D01*
X125129Y155702D01*
X125129Y170296D01*
X125874Y171041D01*
X150926Y171041D01*
X151862Y170105D01*
X151878Y170094D01*
X151890Y170078D01*
X151978Y170022D01*
X152061Y169962D01*
X152080Y169956D01*
X152097Y169945D01*
X152198Y169920D01*
X152297Y169889D01*
X152316Y169890D01*
X152336Y169885D01*
X152439Y169893D01*
X152542Y169896D01*
X152561Y169903D01*
X152581Y169904D01*
X152676Y169945D01*
X152773Y169980D01*
X152789Y169993D01*
X152807Y170001D01*
X152938Y170105D01*
X153874Y171041D01*
X178926Y171041D01*
X179230Y170737D01*
X179289Y170695D01*
X179340Y170646D01*
X179388Y170624D01*
X179430Y170593D01*
X179498Y170572D01*
X179564Y170542D01*
X179615Y170536D01*
X179665Y170521D01*
X179737Y170523D01*
X179808Y170515D01*
X179859Y170526D01*
X179911Y170527D01*
X179978Y170552D01*
X180048Y170567D01*
X180093Y170594D01*
X180142Y170612D01*
X180198Y170657D01*
X180259Y170693D01*
X180293Y170733D01*
X180334Y170765D01*
X180373Y170826D01*
X180419Y170880D01*
X180439Y170929D01*
X180467Y170972D01*
X180484Y171042D01*
X180495Y171068D01*
X180502Y171082D01*
X180502Y171085D01*
X180511Y171108D01*
X180519Y171180D01*
X180527Y171211D01*
X180525Y171234D01*
X180530Y171275D01*
X180530Y179284D01*
X180515Y179374D01*
X180508Y179465D01*
X180495Y179495D01*
X180490Y179527D01*
X180447Y179607D01*
X180412Y179691D01*
X180386Y179723D01*
X180375Y179744D01*
X180352Y179766D01*
X180307Y179822D01*
X178865Y181264D01*
X178849Y181275D01*
X178837Y181291D01*
X178749Y181347D01*
X178665Y181407D01*
X178646Y181413D01*
X178630Y181424D01*
X178529Y181449D01*
X178430Y181480D01*
X178410Y181479D01*
X178391Y181484D01*
X178288Y181476D01*
X178184Y181473D01*
X178166Y181466D01*
X178146Y181465D01*
X178051Y181425D01*
X177953Y181389D01*
X177938Y181376D01*
X177920Y181369D01*
X177789Y181264D01*
X175467Y178942D01*
X171554Y178942D01*
X171464Y178928D01*
X171373Y178920D01*
X171343Y178908D01*
X171311Y178903D01*
X171230Y178860D01*
X171146Y178824D01*
X171114Y178798D01*
X171094Y178787D01*
X171071Y178764D01*
X171015Y178719D01*
X169738Y177442D01*
X166812Y177442D01*
X164742Y179512D01*
X164742Y182438D01*
X166812Y184508D01*
X168744Y184508D01*
X168763Y184511D01*
X168783Y184509D01*
X168884Y184531D01*
X168986Y184547D01*
X169004Y184557D01*
X169023Y184561D01*
X169112Y184614D01*
X169204Y184663D01*
X169217Y184677D01*
X169234Y184687D01*
X169302Y184766D01*
X169373Y184841D01*
X169381Y184859D01*
X169394Y184874D01*
X169433Y184970D01*
X169477Y185064D01*
X169479Y185084D01*
X169486Y185102D01*
X169505Y185269D01*
X169505Y187201D01*
X171574Y189270D01*
X174501Y189270D01*
X174522Y189249D01*
X174539Y189237D01*
X174551Y189221D01*
X174638Y189165D01*
X174722Y189105D01*
X174741Y189099D01*
X174758Y189088D01*
X174858Y189063D01*
X174957Y189033D01*
X174977Y189033D01*
X174996Y189028D01*
X175099Y189036D01*
X175203Y189039D01*
X175222Y189046D01*
X175242Y189048D01*
X175336Y189088D01*
X175434Y189124D01*
X175450Y189136D01*
X175468Y189144D01*
X175599Y189249D01*
X185069Y198719D01*
X185122Y198793D01*
X185182Y198862D01*
X185194Y198893D01*
X185213Y198919D01*
X185240Y199006D01*
X185274Y199091D01*
X185278Y199132D01*
X185285Y199154D01*
X185284Y199186D01*
X185292Y199257D01*
X185292Y199921D01*
X185278Y200011D01*
X185270Y200102D01*
X185258Y200132D01*
X185253Y200164D01*
X185210Y200245D01*
X185174Y200329D01*
X185148Y200361D01*
X185137Y200381D01*
X185114Y200404D01*
X185069Y200460D01*
X183792Y201737D01*
X183792Y204663D01*
X185862Y206733D01*
X188788Y206733D01*
X189962Y205559D01*
X189978Y205548D01*
X189990Y205532D01*
X190078Y205476D01*
X190161Y205416D01*
X190180Y205410D01*
X190197Y205399D01*
X190298Y205374D01*
X190397Y205343D01*
X190416Y205344D01*
X190436Y205339D01*
X190539Y205347D01*
X190642Y205350D01*
X190661Y205357D01*
X190681Y205358D01*
X190776Y205399D01*
X190873Y205434D01*
X190889Y205447D01*
X190907Y205455D01*
X191038Y205559D01*
X192212Y206733D01*
X195138Y206733D01*
X196756Y205115D01*
X196772Y205103D01*
X196785Y205088D01*
X196872Y205031D01*
X196956Y204971D01*
X196975Y204965D01*
X196992Y204955D01*
X197092Y204929D01*
X197191Y204899D01*
X197211Y204899D01*
X197230Y204895D01*
X197333Y204903D01*
X197437Y204905D01*
X197456Y204912D01*
X197476Y204914D01*
X197570Y204954D01*
X197668Y204990D01*
X197684Y205002D01*
X197702Y205010D01*
X197833Y205115D01*
X197844Y205131D01*
X197860Y205144D01*
X197916Y205231D01*
X197976Y205315D01*
X197982Y205334D01*
X197993Y205350D01*
X198018Y205451D01*
X198049Y205550D01*
X198048Y205570D01*
X198053Y205589D01*
X198045Y205692D01*
X198042Y205796D01*
X198036Y205814D01*
X198034Y205834D01*
X197994Y205929D01*
X197958Y206027D01*
X197945Y206042D01*
X197938Y206060D01*
X197833Y206191D01*
X194330Y209694D01*
X194256Y209747D01*
X194187Y209807D01*
X194156Y209819D01*
X194130Y209838D01*
X194043Y209865D01*
X193958Y209899D01*
X193918Y209903D01*
X193895Y209910D01*
X193863Y209909D01*
X193792Y209917D01*
X171038Y209917D01*
X170967Y209906D01*
X170895Y209904D01*
X170846Y209886D01*
X170795Y209878D01*
X170732Y209844D01*
X170664Y209819D01*
X170623Y209787D01*
X170577Y209762D01*
X170528Y209711D01*
X170472Y209666D01*
X170444Y209622D01*
X170408Y209584D01*
X170378Y209519D01*
X170339Y209459D01*
X170326Y209408D01*
X170304Y209361D01*
X170297Y209290D01*
X170279Y209220D01*
X170283Y209168D01*
X170277Y209117D01*
X170293Y209046D01*
X170298Y208975D01*
X170319Y208927D01*
X170330Y208876D01*
X170366Y208815D01*
X170391Y208758D01*
X170391Y206796D01*
X170403Y206719D01*
X170407Y206641D01*
X170426Y206583D01*
X170430Y206553D01*
X170443Y206530D01*
X170459Y206482D01*
X170474Y206448D01*
X170439Y206356D01*
X170429Y206304D01*
X170409Y206255D01*
X170397Y206143D01*
X170391Y206115D01*
X170393Y206104D01*
X170391Y206088D01*
X170391Y205862D01*
X170405Y205772D01*
X170413Y205681D01*
X170425Y205651D01*
X170430Y205619D01*
X170473Y205538D01*
X170509Y205455D01*
X170535Y205422D01*
X170546Y205402D01*
X170569Y205380D01*
X170614Y205324D01*
X171895Y204042D01*
X171895Y197595D01*
X168856Y194556D01*
X168803Y194482D01*
X168743Y194413D01*
X168731Y194382D01*
X168712Y194356D01*
X168685Y194269D01*
X168651Y194184D01*
X168647Y194143D01*
X168640Y194121D01*
X168641Y194089D01*
X168633Y194018D01*
X168633Y192212D01*
X166563Y190142D01*
X163637Y190142D01*
X161567Y192212D01*
X161567Y195138D01*
X161809Y195380D01*
X161851Y195438D01*
X161900Y195490D01*
X161922Y195537D01*
X161952Y195579D01*
X161973Y195648D01*
X162004Y195713D01*
X162009Y195765D01*
X162025Y195815D01*
X162023Y195886D01*
X162031Y195957D01*
X162020Y196008D01*
X162018Y196060D01*
X161994Y196128D01*
X161978Y196198D01*
X161952Y196243D01*
X161934Y196291D01*
X161889Y196347D01*
X161852Y196409D01*
X161813Y196443D01*
X161780Y196483D01*
X161720Y196522D01*
X161665Y196569D01*
X161617Y196588D01*
X161573Y196616D01*
X161504Y196634D01*
X161437Y196661D01*
X161366Y196669D01*
X161335Y196677D01*
X161311Y196675D01*
X161270Y196679D01*
X158344Y196679D01*
X158158Y196865D01*
X158142Y196876D01*
X158130Y196892D01*
X158042Y196948D01*
X157959Y197008D01*
X157940Y197014D01*
X157923Y197025D01*
X157822Y197050D01*
X157724Y197081D01*
X157704Y197080D01*
X157684Y197085D01*
X157581Y197077D01*
X157478Y197074D01*
X157459Y197067D01*
X157439Y197066D01*
X157344Y197025D01*
X157247Y196990D01*
X157231Y196977D01*
X157213Y196969D01*
X157082Y196865D01*
X156896Y196679D01*
X153344Y196679D01*
X153158Y196865D01*
X153142Y196876D01*
X153130Y196892D01*
X153042Y196948D01*
X152959Y197008D01*
X152940Y197014D01*
X152923Y197025D01*
X152822Y197050D01*
X152723Y197081D01*
X152703Y197080D01*
X152684Y197085D01*
X152581Y197077D01*
X152478Y197074D01*
X152459Y197067D01*
X152439Y197066D01*
X152344Y197025D01*
X152247Y196990D01*
X152231Y196977D01*
X152213Y196969D01*
X152082Y196865D01*
X151896Y196679D01*
X149880Y196679D01*
X149809Y196668D01*
X149737Y196666D01*
X149688Y196648D01*
X149637Y196640D01*
X149573Y196606D01*
X149506Y196581D01*
X149465Y196549D01*
X149419Y196524D01*
X149370Y196472D01*
X149314Y196428D01*
X149286Y196384D01*
X149250Y196346D01*
X149220Y196281D01*
X149181Y196221D01*
X149168Y196170D01*
X149146Y196123D01*
X149139Y196052D01*
X149121Y195982D01*
X149125Y195930D01*
X149119Y195879D01*
X149135Y195808D01*
X149140Y195737D01*
X149161Y195689D01*
X149172Y195638D01*
X149208Y195577D01*
X149236Y195511D01*
X149281Y195455D01*
X149298Y195427D01*
X149316Y195412D01*
X149341Y195380D01*
X151170Y193551D01*
X151170Y190624D01*
X149101Y188555D01*
X147295Y188555D01*
X147205Y188540D01*
X147114Y188533D01*
X147084Y188520D01*
X147052Y188515D01*
X146972Y188472D01*
X146888Y188437D01*
X146855Y188411D01*
X146835Y188400D01*
X146813Y188377D01*
X146757Y188332D01*
X145131Y186706D01*
X143717Y185292D01*
X106473Y185292D01*
X95299Y196466D01*
X95216Y196526D01*
X95137Y196590D01*
X95112Y196600D01*
X95099Y196610D01*
X95068Y196620D01*
X94983Y196656D01*
X90834Y197925D01*
X91719Y200818D01*
X93076Y200403D01*
X93085Y200402D01*
X93094Y200398D01*
X93206Y200385D01*
X93320Y200370D01*
X93329Y200372D01*
X93338Y200371D01*
X93449Y200395D01*
X93561Y200416D01*
X93569Y200421D01*
X93578Y200423D01*
X93677Y200482D01*
X93775Y200537D01*
X93782Y200544D01*
X93790Y200549D01*
X93864Y200636D01*
X93940Y200720D01*
X93943Y200729D01*
X93949Y200736D01*
X93992Y200842D01*
X94037Y200946D01*
X94038Y200956D01*
X94041Y200964D01*
X94060Y201131D01*
X94060Y202161D01*
X94045Y202251D01*
X94038Y202342D01*
X94025Y202371D01*
X94020Y202403D01*
X93977Y202484D01*
X93942Y202568D01*
X93916Y202600D01*
X93905Y202621D01*
X93882Y202643D01*
X93837Y202699D01*
X86360Y210175D01*
X86294Y210223D01*
X86233Y210278D01*
X86194Y210295D01*
X86161Y210319D01*
X86082Y210343D01*
X86007Y210376D01*
X85965Y210379D01*
X85926Y210391D01*
X85844Y210389D01*
X85762Y210396D01*
X85721Y210386D01*
X85680Y210385D01*
X85603Y210357D01*
X85523Y210337D01*
X85488Y210315D01*
X85449Y210301D01*
X85384Y210249D01*
X85315Y210205D01*
X85289Y210173D01*
X85257Y210147D01*
X85212Y210078D01*
X85161Y210014D01*
X85139Y209964D01*
X85124Y209940D01*
X85117Y209912D01*
X85094Y209860D01*
X82882Y202623D01*
X82879Y202603D01*
X82871Y202585D01*
X82862Y202482D01*
X82849Y202379D01*
X82852Y202359D01*
X82851Y202340D01*
X82876Y202239D01*
X82895Y202137D01*
X82905Y202120D01*
X82910Y202101D01*
X82965Y202013D01*
X83016Y201923D01*
X83031Y201910D01*
X83042Y201893D01*
X83122Y201828D01*
X83199Y201759D01*
X83217Y201751D01*
X83233Y201739D01*
X83387Y201672D01*
X83645Y201593D01*
X83763Y201577D01*
X83877Y201560D01*
X83883Y201561D01*
X83889Y201560D01*
X84005Y201583D01*
X84119Y201603D01*
X84124Y201606D01*
X84131Y201607D01*
X84233Y201665D01*
X84335Y201720D01*
X84340Y201725D01*
X84345Y201728D01*
X84357Y201742D01*
X84455Y201837D01*
X84791Y202245D01*
X85327Y202529D01*
X85931Y202588D01*
X88851Y201695D01*
X88335Y200007D01*
X88323Y199916D01*
X88303Y199827D01*
X88306Y199795D01*
X88302Y199763D01*
X88319Y199673D01*
X88329Y199583D01*
X88344Y199544D01*
X88349Y199521D01*
X88364Y199494D01*
X88391Y199427D01*
X88678Y198887D01*
X88370Y197882D01*
X88368Y197862D01*
X88360Y197844D01*
X88351Y197741D01*
X88337Y197638D01*
X88341Y197619D01*
X88340Y197599D01*
X88364Y197498D01*
X88384Y197397D01*
X88394Y197379D01*
X88398Y197360D01*
X88454Y197273D01*
X88505Y197183D01*
X88520Y197169D01*
X88530Y197153D01*
X88611Y197087D01*
X88656Y197047D01*
X88283Y197161D01*
X88193Y197173D01*
X88104Y197193D01*
X88072Y197189D01*
X88040Y197194D01*
X87950Y197177D01*
X87859Y197167D01*
X87821Y197152D01*
X87798Y197147D01*
X87770Y197132D01*
X87742Y197120D01*
X87735Y197118D01*
X87730Y197115D01*
X87703Y197105D01*
X87677Y197091D01*
X87615Y197044D01*
X87584Y197026D01*
X87577Y197018D01*
X87571Y197015D01*
X87569Y197013D01*
X87527Y196986D01*
X87507Y196961D01*
X87481Y196942D01*
X87430Y196867D01*
X87401Y196837D01*
X87395Y196823D01*
X87372Y196795D01*
X87356Y196757D01*
X87343Y196738D01*
X87334Y196707D01*
X87306Y196641D01*
X86205Y193041D01*
X83285Y193934D01*
X82817Y194319D01*
X82532Y194855D01*
X82474Y195459D01*
X82952Y197024D01*
X82955Y197043D01*
X82963Y197061D01*
X82971Y197165D01*
X82985Y197267D01*
X82981Y197287D01*
X82983Y197307D01*
X82958Y197407D01*
X82939Y197509D01*
X82929Y197526D01*
X82924Y197545D01*
X82868Y197633D01*
X82818Y197723D01*
X82803Y197736D01*
X82792Y197753D01*
X82712Y197818D01*
X82635Y197887D01*
X82616Y197895D01*
X82601Y197908D01*
X82447Y197974D01*
X82273Y198027D01*
X82253Y198030D01*
X82235Y198038D01*
X82132Y198046D01*
X82029Y198060D01*
X82009Y198057D01*
X81989Y198058D01*
X81889Y198033D01*
X81787Y198014D01*
X81770Y198004D01*
X81751Y197999D01*
X81663Y197944D01*
X81573Y197893D01*
X81560Y197878D01*
X81543Y197867D01*
X81478Y197787D01*
X81409Y197710D01*
X81401Y197691D01*
X81388Y197676D01*
X81385Y197668D01*
X80434Y197162D01*
X60301Y203317D01*
X59807Y204247D01*
X64208Y218642D01*
X65137Y219136D01*
X73009Y216729D01*
X73069Y216721D01*
X73128Y216703D01*
X73190Y216705D01*
X73252Y216696D01*
X73313Y216708D01*
X73374Y216710D01*
X73433Y216731D01*
X73494Y216743D01*
X73547Y216773D01*
X73605Y216794D01*
X73654Y216833D01*
X73708Y216864D01*
X73749Y216910D01*
X73797Y216948D01*
X73831Y217000D01*
X73872Y217047D01*
X73897Y217103D01*
X73930Y217155D01*
X73945Y217216D01*
X73970Y217273D01*
X73975Y217334D01*
X73990Y217393D01*
X73985Y217456D01*
X73990Y217518D01*
X73975Y217578D01*
X73971Y217638D01*
X73946Y217696D01*
X73931Y217757D01*
X73898Y217809D01*
X73874Y217865D01*
X73817Y217937D01*
X73799Y217964D01*
X73786Y217975D01*
X73770Y217996D01*
X67453Y224312D01*
X67379Y224365D01*
X67310Y224425D01*
X67279Y224437D01*
X67253Y224456D01*
X67166Y224483D01*
X67081Y224517D01*
X67040Y224521D01*
X67018Y224528D01*
X66986Y224527D01*
X66915Y224535D01*
X59411Y224535D01*
X59401Y224534D01*
X59390Y224535D01*
X59279Y224514D01*
X59168Y224496D01*
X59159Y224491D01*
X59149Y224488D01*
X59050Y224433D01*
X58951Y224380D01*
X58944Y224373D01*
X58934Y224367D01*
X58859Y224284D01*
X58782Y224202D01*
X58777Y224192D01*
X58770Y224184D01*
X58725Y224081D01*
X58678Y223979D01*
X58677Y223968D01*
X58673Y223959D01*
X58663Y223845D01*
X58651Y223735D01*
X58653Y223724D01*
X58652Y223713D01*
X58679Y223604D01*
X58703Y223494D01*
X58709Y223485D01*
X58711Y223475D01*
X58772Y223379D01*
X58829Y223283D01*
X58838Y223276D01*
X58843Y223267D01*
X58931Y223197D01*
X59016Y223123D01*
X59026Y223119D01*
X59035Y223112D01*
X59189Y223046D01*
X61947Y222203D01*
X62441Y221273D01*
X60087Y213572D01*
X59157Y213078D01*
X50500Y215725D01*
X50006Y216654D01*
X50969Y219803D01*
X50977Y219864D01*
X50995Y219922D01*
X50993Y219985D01*
X51002Y220047D01*
X50990Y220107D01*
X50989Y220168D01*
X50967Y220227D01*
X50955Y220288D01*
X50925Y220341D01*
X50904Y220399D01*
X50865Y220448D01*
X50834Y220502D01*
X50789Y220543D01*
X50750Y220591D01*
X50698Y220625D01*
X50651Y220667D01*
X50595Y220691D01*
X50543Y220724D01*
X50483Y220739D01*
X50425Y220764D01*
X50364Y220769D01*
X50305Y220784D01*
X50243Y220779D01*
X50180Y220784D01*
X50121Y220770D01*
X50060Y220765D01*
X50002Y220740D01*
X49941Y220725D01*
X49890Y220692D01*
X49833Y220669D01*
X49770Y220617D01*
X49762Y220614D01*
X49757Y220608D01*
X49734Y220593D01*
X49723Y220581D01*
X49702Y220564D01*
X48340Y219201D01*
X44220Y219201D01*
X44132Y219289D01*
X44116Y219300D01*
X44104Y219316D01*
X44016Y219372D01*
X43933Y219432D01*
X43914Y219438D01*
X43897Y219449D01*
X43796Y219474D01*
X43697Y219505D01*
X43678Y219504D01*
X43658Y219509D01*
X43555Y219501D01*
X43452Y219498D01*
X43433Y219491D01*
X43413Y219490D01*
X43318Y219449D01*
X43221Y219414D01*
X43205Y219401D01*
X43187Y219393D01*
X43056Y219289D01*
X40960Y217193D01*
X39154Y217193D01*
X39064Y217179D01*
X38973Y217171D01*
X38944Y217159D01*
X38912Y217154D01*
X38831Y217111D01*
X38747Y217075D01*
X38715Y217049D01*
X38694Y217038D01*
X38672Y217015D01*
X38616Y216970D01*
X37181Y215535D01*
X37128Y215461D01*
X37068Y215392D01*
X37056Y215361D01*
X37037Y215335D01*
X37010Y215248D01*
X36976Y215163D01*
X36972Y215122D01*
X36965Y215100D01*
X36966Y215068D01*
X36958Y214997D01*
X36958Y187974D01*
X36972Y187884D01*
X36980Y187793D01*
X36992Y187764D01*
X36997Y187732D01*
X37040Y187651D01*
X37076Y187567D01*
X37102Y187535D01*
X37113Y187514D01*
X37136Y187492D01*
X37181Y187436D01*
X39227Y185390D01*
X39266Y185351D01*
X39332Y185303D01*
X39394Y185248D01*
X39432Y185232D01*
X39465Y185207D01*
X39544Y185183D01*
X39620Y185151D01*
X39661Y185147D01*
X39700Y185135D01*
X39783Y185137D01*
X39865Y185130D01*
X39905Y185140D01*
X39946Y185141D01*
X40024Y185169D01*
X40104Y185189D01*
X40139Y185211D01*
X40177Y185226D01*
X40241Y185277D01*
X40311Y185321D01*
X40337Y185353D01*
X40369Y185379D01*
X40414Y185448D01*
X40466Y185513D01*
X40487Y185562D01*
X40503Y185586D01*
X40510Y185614D01*
X40532Y185667D01*
X42127Y190885D01*
X43057Y191379D01*
X51714Y188732D01*
X52208Y187803D01*
X49854Y180102D01*
X49058Y179679D01*
X49009Y179642D01*
X48955Y179613D01*
X48912Y179568D01*
X48862Y179530D01*
X48828Y179479D01*
X48786Y179435D01*
X48760Y179378D01*
X48725Y179326D01*
X48708Y179267D01*
X48682Y179211D01*
X48675Y179149D01*
X48659Y179089D01*
X48662Y179028D01*
X48655Y178967D01*
X48669Y178906D01*
X48672Y178843D01*
X48695Y178786D01*
X48708Y178727D01*
X48740Y178673D01*
X48763Y178615D01*
X48802Y178568D01*
X48834Y178516D01*
X48881Y178475D01*
X48922Y178427D01*
X48974Y178395D01*
X49021Y178356D01*
X49079Y178332D01*
X49132Y178300D01*
X49192Y178287D01*
X49249Y178264D01*
X49341Y178254D01*
X49372Y178246D01*
X49389Y178248D01*
X49415Y178245D01*
X55127Y178245D01*
X55138Y178247D01*
X55149Y178246D01*
X55259Y178267D01*
X55370Y178285D01*
X55380Y178290D01*
X55390Y178292D01*
X55488Y178348D01*
X55588Y178400D01*
X55595Y178408D01*
X55604Y178413D01*
X55680Y178497D01*
X55757Y178578D01*
X55761Y178588D01*
X55769Y178596D01*
X55813Y178700D01*
X55861Y178801D01*
X55862Y178812D01*
X55866Y178822D01*
X55875Y178935D01*
X55888Y179046D01*
X55885Y179056D01*
X55886Y179067D01*
X55859Y179177D01*
X55835Y179286D01*
X55830Y179295D01*
X55827Y179306D01*
X55767Y179401D01*
X55709Y179497D01*
X55701Y179504D01*
X55695Y179513D01*
X55608Y179584D01*
X55522Y179657D01*
X55512Y179661D01*
X55504Y179668D01*
X55350Y179734D01*
X53284Y180366D01*
X52790Y181296D01*
X57191Y195691D01*
X58120Y196185D01*
X78253Y190029D01*
X78766Y189066D01*
X78755Y188991D01*
X78759Y188971D01*
X78757Y188951D01*
X78782Y188851D01*
X78802Y188749D01*
X78812Y188732D01*
X78816Y188713D01*
X78872Y188625D01*
X78923Y188535D01*
X78938Y188522D01*
X78948Y188505D01*
X79029Y188440D01*
X79106Y188371D01*
X79124Y188363D01*
X79140Y188350D01*
X79294Y188284D01*
X79711Y188156D01*
X79731Y188154D01*
X79749Y188146D01*
X79852Y188137D01*
X79955Y188123D01*
X79974Y188127D01*
X79994Y188126D01*
X80095Y188150D01*
X80196Y188170D01*
X80213Y188180D01*
X80233Y188185D01*
X80320Y188240D01*
X80410Y188291D01*
X80424Y188306D01*
X80440Y188317D01*
X80505Y188397D01*
X80575Y188474D01*
X80582Y188492D01*
X80595Y188508D01*
X80661Y188662D01*
X81205Y190440D01*
X82134Y190934D01*
X91270Y188141D01*
X91764Y187212D01*
X91481Y186285D01*
X91470Y186205D01*
X91450Y186127D01*
X91453Y186084D01*
X91448Y186041D01*
X91463Y185962D01*
X91469Y185882D01*
X91486Y185842D01*
X91494Y185800D01*
X91534Y185729D01*
X91566Y185655D01*
X91601Y185611D01*
X91615Y185586D01*
X91636Y185567D01*
X91670Y185524D01*
X94108Y183087D01*
X94108Y148844D01*
X94111Y148824D01*
X94109Y148805D01*
X94131Y148703D01*
X94147Y148601D01*
X94157Y148584D01*
X94161Y148564D01*
X94214Y148475D01*
X94263Y148384D01*
X94277Y148370D01*
X94287Y148353D01*
X94366Y148286D01*
X94441Y148214D01*
X94459Y148206D01*
X94474Y148193D01*
X94570Y148154D01*
X94664Y148111D01*
X94684Y148109D01*
X94702Y148101D01*
X94869Y148083D01*
X96640Y148083D01*
X97385Y147338D01*
X97385Y131554D01*
X96640Y130809D01*
X90000Y130809D01*
X89206Y131603D01*
X89169Y131630D01*
X89138Y131664D01*
X89069Y131701D01*
X89006Y131746D01*
X88962Y131760D01*
X88922Y131782D01*
X88846Y131796D01*
X88771Y131819D01*
X88725Y131818D01*
X88680Y131826D01*
X88603Y131814D01*
X88525Y131812D01*
X88482Y131797D01*
X88437Y131790D01*
X88367Y131755D01*
X88294Y131728D01*
X88258Y131699D01*
X88218Y131678D01*
X88163Y131623D01*
X88102Y131574D01*
X88077Y131536D01*
X88045Y131503D01*
X87979Y131383D01*
X87969Y131367D01*
X87968Y131362D01*
X87964Y131356D01*
X87907Y131216D01*
X87478Y130787D01*
X86917Y130555D01*
X85216Y130555D01*
X85216Y138811D01*
X85213Y138830D01*
X85215Y138850D01*
X85193Y138952D01*
X85177Y139054D01*
X85167Y139071D01*
X85163Y139091D01*
X85110Y139180D01*
X85061Y139271D01*
X85047Y139285D01*
X85037Y139302D01*
X84958Y139369D01*
X84883Y139440D01*
X84865Y139448D01*
X84915Y139475D01*
X84929Y139489D01*
X84946Y139499D01*
X85013Y139578D01*
X85085Y139653D01*
X85093Y139671D01*
X85106Y139686D01*
X85145Y139783D01*
X85188Y139876D01*
X85190Y139896D01*
X85198Y139914D01*
X85216Y140081D01*
X85216Y148337D01*
X86917Y148337D01*
X87478Y148105D01*
X87907Y147676D01*
X87964Y147536D01*
X87989Y147497D01*
X88004Y147454D01*
X88053Y147393D01*
X88094Y147327D01*
X88129Y147298D01*
X88158Y147262D01*
X88224Y147220D01*
X88283Y147170D01*
X88326Y147154D01*
X88365Y147129D01*
X88440Y147110D01*
X88513Y147082D01*
X88559Y147080D01*
X88604Y147069D01*
X88681Y147075D01*
X88759Y147072D01*
X88803Y147084D01*
X88849Y147088D01*
X88920Y147118D01*
X88995Y147140D01*
X89033Y147166D01*
X89075Y147184D01*
X89182Y147270D01*
X89197Y147280D01*
X89200Y147284D01*
X89206Y147289D01*
X89819Y147902D01*
X89873Y147977D01*
X89932Y148046D01*
X89944Y148076D01*
X89963Y148102D01*
X89990Y148189D01*
X89998Y148210D01*
X90014Y148245D01*
X90015Y148252D01*
X90024Y148274D01*
X90028Y148315D01*
X90035Y148337D01*
X90034Y148369D01*
X90042Y148441D01*
X90042Y154034D01*
X90039Y154054D01*
X90041Y154073D01*
X90019Y154175D01*
X90003Y154277D01*
X89993Y154294D01*
X89989Y154314D01*
X89936Y154403D01*
X89887Y154494D01*
X89873Y154508D01*
X89863Y154525D01*
X89784Y154592D01*
X89709Y154664D01*
X89691Y154672D01*
X89676Y154685D01*
X89580Y154724D01*
X89486Y154767D01*
X89466Y154769D01*
X89448Y154777D01*
X89281Y154795D01*
X86263Y154795D01*
X86263Y159258D01*
X86260Y159278D01*
X86262Y159297D01*
X86240Y159399D01*
X86223Y159501D01*
X86214Y159518D01*
X86210Y159538D01*
X86157Y159627D01*
X86108Y159718D01*
X86094Y159732D01*
X86084Y159749D01*
X86005Y159816D01*
X85930Y159887D01*
X85912Y159896D01*
X85897Y159909D01*
X85801Y159948D01*
X85707Y159991D01*
X85687Y159993D01*
X85669Y160001D01*
X85502Y160019D01*
X83978Y160019D01*
X83958Y160016D01*
X83939Y160018D01*
X83837Y159996D01*
X83735Y159979D01*
X83718Y159970D01*
X83698Y159966D01*
X83609Y159913D01*
X83518Y159864D01*
X83504Y159850D01*
X83487Y159840D01*
X83420Y159761D01*
X83349Y159686D01*
X83340Y159668D01*
X83327Y159653D01*
X83288Y159557D01*
X83245Y159463D01*
X83243Y159443D01*
X83235Y159425D01*
X83217Y159258D01*
X83217Y154795D01*
X79812Y154795D01*
X79251Y155027D01*
X79099Y155180D01*
X79083Y155192D01*
X79070Y155207D01*
X78983Y155263D01*
X78899Y155324D01*
X78880Y155329D01*
X78863Y155340D01*
X78763Y155365D01*
X78664Y155396D01*
X78644Y155395D01*
X78625Y155400D01*
X78522Y155392D01*
X78418Y155390D01*
X78399Y155383D01*
X78379Y155381D01*
X78284Y155341D01*
X78187Y155305D01*
X78171Y155293D01*
X78153Y155285D01*
X78022Y155180D01*
X77891Y155049D01*
X75819Y155049D01*
X75799Y155046D01*
X75780Y155048D01*
X75678Y155026D01*
X75576Y155010D01*
X75559Y155000D01*
X75539Y154996D01*
X75450Y154943D01*
X75359Y154894D01*
X75345Y154880D01*
X75328Y154870D01*
X75261Y154791D01*
X75189Y154716D01*
X75181Y154698D01*
X75168Y154683D01*
X75129Y154587D01*
X75086Y154493D01*
X75084Y154473D01*
X75076Y154455D01*
X75058Y154288D01*
X75058Y148844D01*
X75061Y148824D01*
X75059Y148805D01*
X75081Y148703D01*
X75097Y148601D01*
X75107Y148584D01*
X75111Y148564D01*
X75164Y148475D01*
X75213Y148384D01*
X75227Y148370D01*
X75237Y148353D01*
X75316Y148286D01*
X75391Y148214D01*
X75409Y148206D01*
X75424Y148193D01*
X75520Y148154D01*
X75614Y148111D01*
X75634Y148109D01*
X75652Y148101D01*
X75819Y148083D01*
X77640Y148083D01*
X78434Y147289D01*
X78471Y147262D01*
X78502Y147229D01*
X78571Y147191D01*
X78634Y147146D01*
X78677Y147132D01*
X78718Y147110D01*
X78795Y147096D01*
X78869Y147073D01*
X78915Y147074D01*
X78960Y147066D01*
X79037Y147078D01*
X79115Y147080D01*
X79158Y147095D01*
X79203Y147102D01*
X79273Y147137D01*
X79346Y147164D01*
X79382Y147193D01*
X79422Y147214D01*
X79477Y147269D01*
X79538Y147318D01*
X79563Y147356D01*
X79595Y147389D01*
X79661Y147509D01*
X79671Y147525D01*
X79672Y147529D01*
X79676Y147536D01*
X79733Y147676D01*
X80162Y148105D01*
X80723Y148337D01*
X82424Y148337D01*
X82424Y140081D01*
X82427Y140062D01*
X82425Y140042D01*
X82447Y139940D01*
X82463Y139838D01*
X82473Y139821D01*
X82477Y139801D01*
X82530Y139712D01*
X82579Y139621D01*
X82593Y139607D01*
X82603Y139590D01*
X82682Y139523D01*
X82757Y139452D01*
X82774Y139444D01*
X82725Y139417D01*
X82711Y139403D01*
X82694Y139393D01*
X82627Y139314D01*
X82555Y139239D01*
X82547Y139221D01*
X82534Y139206D01*
X82495Y139109D01*
X82452Y139016D01*
X82450Y138996D01*
X82442Y138978D01*
X82424Y138811D01*
X82424Y130555D01*
X80723Y130555D01*
X80162Y130787D01*
X79733Y131216D01*
X79676Y131356D01*
X79651Y131395D01*
X79636Y131438D01*
X79587Y131499D01*
X79546Y131565D01*
X79511Y131594D01*
X79482Y131630D01*
X79417Y131672D01*
X79356Y131722D01*
X79314Y131738D01*
X79275Y131763D01*
X79199Y131782D01*
X79127Y131810D01*
X79081Y131812D01*
X79036Y131823D01*
X78959Y131817D01*
X78881Y131820D01*
X78837Y131808D01*
X78791Y131804D01*
X78720Y131774D01*
X78645Y131752D01*
X78607Y131726D01*
X78565Y131708D01*
X78458Y131622D01*
X78443Y131612D01*
X78440Y131608D01*
X78434Y131603D01*
X77640Y130809D01*
X71000Y130809D01*
X70255Y131554D01*
X70255Y147338D01*
X70769Y147852D01*
X70822Y147926D01*
X70882Y147996D01*
X70894Y148026D01*
X70913Y148052D01*
X70940Y148139D01*
X70974Y148224D01*
X70978Y148265D01*
X70985Y148287D01*
X70984Y148319D01*
X70992Y148391D01*
X70992Y154288D01*
X70989Y154308D01*
X70991Y154327D01*
X70969Y154429D01*
X70953Y154531D01*
X70943Y154548D01*
X70939Y154568D01*
X70886Y154657D01*
X70837Y154748D01*
X70823Y154762D01*
X70813Y154779D01*
X70734Y154846D01*
X70659Y154918D01*
X70641Y154926D01*
X70626Y154939D01*
X70530Y154978D01*
X70436Y155021D01*
X70416Y155023D01*
X70398Y155031D01*
X70231Y155049D01*
X67589Y155049D01*
X66844Y155794D01*
X66844Y164251D01*
X66885Y164308D01*
X66945Y164378D01*
X66957Y164408D01*
X66976Y164434D01*
X67003Y164521D01*
X67037Y164606D01*
X67041Y164647D01*
X67048Y164669D01*
X67047Y164701D01*
X67055Y164773D01*
X67055Y167499D01*
X67053Y167511D01*
X67054Y167520D01*
X67044Y167567D01*
X67041Y167589D01*
X67033Y167680D01*
X67021Y167709D01*
X67016Y167741D01*
X66973Y167822D01*
X66937Y167906D01*
X66911Y167938D01*
X66900Y167959D01*
X66877Y167981D01*
X66832Y168037D01*
X65245Y169625D01*
X65187Y169666D01*
X65135Y169716D01*
X65087Y169738D01*
X65045Y169768D01*
X64977Y169789D01*
X64911Y169819D01*
X64860Y169825D01*
X64810Y169840D01*
X64738Y169839D01*
X64667Y169846D01*
X64616Y169835D01*
X64564Y169834D01*
X64497Y169809D01*
X64427Y169794D01*
X64382Y169768D01*
X64333Y169750D01*
X64277Y169705D01*
X64216Y169668D01*
X64182Y169628D01*
X64141Y169596D01*
X64102Y169536D01*
X64056Y169481D01*
X64036Y169433D01*
X64008Y169389D01*
X63991Y169320D01*
X63964Y169253D01*
X63956Y169182D01*
X63948Y169150D01*
X63950Y169127D01*
X63945Y169086D01*
X63945Y117045D01*
X63960Y116955D01*
X63967Y116864D01*
X63980Y116834D01*
X63985Y116802D01*
X64028Y116721D01*
X64063Y116638D01*
X64089Y116605D01*
X64100Y116585D01*
X64123Y116563D01*
X64168Y116507D01*
X68956Y111719D01*
X69014Y111677D01*
X69066Y111628D01*
X69113Y111606D01*
X69155Y111575D01*
X69224Y111554D01*
X69289Y111524D01*
X69341Y111518D01*
X69391Y111503D01*
X69462Y111505D01*
X69533Y111497D01*
X69584Y111508D01*
X69636Y111509D01*
X69704Y111534D01*
X69774Y111549D01*
X69819Y111576D01*
X69867Y111594D01*
X69923Y111639D01*
X69985Y111675D01*
X70019Y111715D01*
X70059Y111748D01*
X70098Y111808D01*
X70145Y111862D01*
X70164Y111911D01*
X70192Y111955D01*
X70210Y112024D01*
X70237Y112091D01*
X70245Y112162D01*
X70253Y112193D01*
X70251Y112216D01*
X70255Y112257D01*
X70255Y124986D01*
X71000Y125731D01*
X77640Y125731D01*
X78385Y124986D01*
X78385Y115305D01*
X78399Y115215D01*
X78407Y115124D01*
X78419Y115095D01*
X78424Y115063D01*
X78467Y114982D01*
X78503Y114898D01*
X78529Y114866D01*
X78540Y114845D01*
X78563Y114823D01*
X78608Y114767D01*
X79994Y113381D01*
X81408Y111967D01*
X81408Y106637D01*
X81411Y106617D01*
X81409Y106598D01*
X81431Y106496D01*
X81447Y106394D01*
X81457Y106377D01*
X81461Y106357D01*
X81514Y106268D01*
X81563Y106177D01*
X81577Y106163D01*
X81587Y106146D01*
X81666Y106079D01*
X81741Y106007D01*
X81759Y105999D01*
X81774Y105986D01*
X81870Y105947D01*
X81964Y105904D01*
X81984Y105902D01*
X82002Y105894D01*
X82169Y105876D01*
X84236Y105876D01*
X84981Y105131D01*
X84981Y104434D01*
X84992Y104363D01*
X84994Y104291D01*
X85012Y104242D01*
X85020Y104191D01*
X85054Y104128D01*
X85079Y104060D01*
X85111Y104020D01*
X85136Y103973D01*
X85188Y103924D01*
X85232Y103868D01*
X85276Y103840D01*
X85314Y103804D01*
X85379Y103774D01*
X85439Y103735D01*
X85490Y103722D01*
X85537Y103700D01*
X85608Y103693D01*
X85678Y103675D01*
X85730Y103679D01*
X85781Y103673D01*
X85852Y103689D01*
X85923Y103694D01*
X85971Y103715D01*
X86022Y103726D01*
X86083Y103762D01*
X86149Y103791D01*
X86205Y103835D01*
X86233Y103852D01*
X86248Y103870D01*
X86280Y103895D01*
X86906Y104521D01*
X94958Y104521D01*
X95330Y104149D01*
X95388Y104107D01*
X95440Y104058D01*
X95487Y104036D01*
X95529Y104006D01*
X95598Y103985D01*
X95663Y103954D01*
X95715Y103949D01*
X95765Y103933D01*
X95836Y103935D01*
X95907Y103927D01*
X95958Y103938D01*
X96010Y103940D01*
X96078Y103964D01*
X96148Y103980D01*
X96193Y104006D01*
X96241Y104024D01*
X96297Y104069D01*
X96359Y104106D01*
X96393Y104145D01*
X96433Y104178D01*
X96472Y104238D01*
X96519Y104293D01*
X96538Y104341D01*
X96566Y104385D01*
X96584Y104454D01*
X96611Y104521D01*
X96619Y104592D01*
X96627Y104623D01*
X96625Y104647D01*
X96629Y104688D01*
X96629Y105131D01*
X97374Y105876D01*
X98552Y105876D01*
X98572Y105879D01*
X98591Y105877D01*
X98693Y105899D01*
X98795Y105915D01*
X98812Y105925D01*
X98832Y105929D01*
X98921Y105982D01*
X99012Y106031D01*
X99026Y106045D01*
X99043Y106055D01*
X99110Y106134D01*
X99182Y106209D01*
X99190Y106227D01*
X99203Y106242D01*
X99242Y106338D01*
X99285Y106432D01*
X99287Y106452D01*
X99295Y106470D01*
X99313Y106637D01*
X99313Y111513D01*
X99299Y111603D01*
X99291Y111694D01*
X99279Y111724D01*
X99274Y111756D01*
X99231Y111837D01*
X99195Y111921D01*
X99169Y111953D01*
X99158Y111974D01*
X99135Y111996D01*
X99090Y112052D01*
X98684Y112458D01*
X98626Y112500D01*
X98574Y112549D01*
X98552Y112559D01*
X98551Y112561D01*
X98540Y112565D01*
X98527Y112571D01*
X98485Y112601D01*
X98416Y112622D01*
X98351Y112653D01*
X98299Y112658D01*
X98249Y112674D01*
X98178Y112672D01*
X98107Y112680D01*
X98056Y112669D01*
X98004Y112667D01*
X97936Y112643D01*
X97866Y112628D01*
X97821Y112601D01*
X97773Y112583D01*
X97717Y112538D01*
X97655Y112501D01*
X97621Y112462D01*
X97581Y112429D01*
X97542Y112369D01*
X97495Y112314D01*
X97476Y112266D01*
X97448Y112222D01*
X97430Y112153D01*
X97426Y112144D01*
X97413Y112115D01*
X97412Y112109D01*
X97403Y112086D01*
X97395Y112015D01*
X97387Y111984D01*
X97389Y111960D01*
X97385Y111920D01*
X97385Y109202D01*
X96640Y108457D01*
X90000Y108457D01*
X89255Y109202D01*
X89255Y114046D01*
X89252Y114066D01*
X89254Y114085D01*
X89232Y114187D01*
X89216Y114289D01*
X89206Y114306D01*
X89202Y114326D01*
X89149Y114415D01*
X89100Y114506D01*
X89086Y114520D01*
X89076Y114537D01*
X88997Y114604D01*
X88922Y114676D01*
X88904Y114684D01*
X88889Y114697D01*
X88793Y114736D01*
X88699Y114779D01*
X88679Y114781D01*
X88661Y114789D01*
X88494Y114807D01*
X87353Y114807D01*
X87263Y114793D01*
X87172Y114785D01*
X87142Y114773D01*
X87110Y114768D01*
X87029Y114725D01*
X86945Y114689D01*
X86913Y114663D01*
X86892Y114652D01*
X86870Y114629D01*
X86814Y114584D01*
X85791Y113561D01*
X82865Y113561D01*
X80795Y115631D01*
X80795Y118557D01*
X82865Y120627D01*
X85791Y120627D01*
X86814Y119604D01*
X86888Y119551D01*
X86958Y119491D01*
X86988Y119479D01*
X87014Y119460D01*
X87101Y119433D01*
X87186Y119399D01*
X87227Y119395D01*
X87249Y119388D01*
X87281Y119389D01*
X87353Y119381D01*
X88494Y119381D01*
X88514Y119384D01*
X88533Y119382D01*
X88635Y119404D01*
X88737Y119420D01*
X88754Y119430D01*
X88774Y119434D01*
X88863Y119487D01*
X88954Y119536D01*
X88968Y119550D01*
X88985Y119560D01*
X89052Y119639D01*
X89124Y119714D01*
X89132Y119732D01*
X89145Y119747D01*
X89184Y119843D01*
X89227Y119937D01*
X89229Y119957D01*
X89237Y119975D01*
X89255Y120142D01*
X89255Y124986D01*
X90000Y125731D01*
X96640Y125731D01*
X97385Y124986D01*
X97385Y120142D01*
X97388Y120122D01*
X97386Y120103D01*
X97408Y120001D01*
X97424Y119899D01*
X97434Y119882D01*
X97438Y119862D01*
X97491Y119773D01*
X97540Y119682D01*
X97554Y119668D01*
X97564Y119651D01*
X97643Y119584D01*
X97718Y119512D01*
X97736Y119504D01*
X97751Y119491D01*
X97847Y119452D01*
X97941Y119409D01*
X97961Y119407D01*
X97979Y119399D01*
X98146Y119381D01*
X98229Y119381D01*
X103887Y113723D01*
X103887Y106637D01*
X103890Y106617D01*
X103888Y106598D01*
X103910Y106496D01*
X103926Y106394D01*
X103936Y106377D01*
X103940Y106357D01*
X103993Y106268D01*
X104042Y106177D01*
X104056Y106163D01*
X104066Y106146D01*
X104145Y106079D01*
X104220Y106007D01*
X104238Y105999D01*
X104253Y105986D01*
X104349Y105947D01*
X104443Y105904D01*
X104463Y105902D01*
X104481Y105894D01*
X104648Y105876D01*
X105826Y105876D01*
X106571Y105131D01*
X106571Y94829D01*
X106440Y94698D01*
X106428Y94682D01*
X106413Y94669D01*
X106357Y94582D01*
X106296Y94498D01*
X106291Y94479D01*
X106280Y94462D01*
X106254Y94361D01*
X106224Y94263D01*
X106225Y94243D01*
X106220Y94224D01*
X106228Y94121D01*
X106230Y94017D01*
X106237Y93998D01*
X106239Y93979D01*
X106279Y93884D01*
X106315Y93786D01*
X106327Y93771D01*
X106335Y93752D01*
X106440Y93621D01*
X106593Y93469D01*
X106825Y92908D01*
X106825Y89503D01*
X102362Y89503D01*
X102342Y89500D01*
X102323Y89502D01*
X102221Y89480D01*
X102119Y89463D01*
X102102Y89454D01*
X102082Y89450D01*
X101993Y89397D01*
X101902Y89348D01*
X101888Y89334D01*
X101871Y89324D01*
X101804Y89245D01*
X101733Y89170D01*
X101724Y89152D01*
X101711Y89137D01*
X101672Y89041D01*
X101629Y88947D01*
X101627Y88927D01*
X101619Y88909D01*
X101601Y88742D01*
X101601Y87979D01*
X100838Y87979D01*
X100818Y87976D01*
X100799Y87978D01*
X100697Y87956D01*
X100595Y87939D01*
X100578Y87930D01*
X100558Y87926D01*
X100469Y87873D01*
X100378Y87824D01*
X100364Y87810D01*
X100347Y87800D01*
X100280Y87721D01*
X100209Y87646D01*
X100200Y87628D01*
X100187Y87613D01*
X100148Y87517D01*
X100105Y87423D01*
X100103Y87403D01*
X100095Y87385D01*
X100077Y87218D01*
X100077Y81830D01*
X97597Y81830D01*
X97036Y82062D01*
X96607Y82491D01*
X96375Y83052D01*
X96375Y85558D01*
X96364Y85629D01*
X96362Y85701D01*
X96344Y85750D01*
X96336Y85801D01*
X96302Y85864D01*
X96277Y85932D01*
X96245Y85973D01*
X96220Y86019D01*
X96169Y86068D01*
X96124Y86124D01*
X96080Y86152D01*
X96042Y86188D01*
X95977Y86218D01*
X95917Y86257D01*
X95866Y86270D01*
X95819Y86292D01*
X95748Y86299D01*
X95678Y86317D01*
X95626Y86313D01*
X95575Y86319D01*
X95504Y86303D01*
X95433Y86298D01*
X95385Y86277D01*
X95334Y86266D01*
X95273Y86230D01*
X95207Y86201D01*
X95151Y86157D01*
X95123Y86140D01*
X95108Y86122D01*
X95076Y86097D01*
X94958Y85979D01*
X86906Y85979D01*
X86534Y86351D01*
X86476Y86393D01*
X86424Y86442D01*
X86377Y86464D01*
X86335Y86494D01*
X86266Y86515D01*
X86201Y86546D01*
X86149Y86551D01*
X86099Y86567D01*
X86028Y86565D01*
X85956Y86573D01*
X85906Y86562D01*
X85854Y86560D01*
X85786Y86536D01*
X85716Y86520D01*
X85671Y86494D01*
X85623Y86476D01*
X85567Y86431D01*
X85505Y86394D01*
X85471Y86355D01*
X85430Y86322D01*
X85392Y86262D01*
X85345Y86207D01*
X85326Y86159D01*
X85298Y86115D01*
X85280Y86046D01*
X85253Y85979D01*
X85245Y85908D01*
X85237Y85877D01*
X85239Y85853D01*
X85235Y85812D01*
X85235Y83052D01*
X85003Y82491D01*
X84574Y82062D01*
X84013Y81830D01*
X81533Y81830D01*
X81533Y87218D01*
X81530Y87238D01*
X81532Y87257D01*
X81510Y87359D01*
X81493Y87461D01*
X81484Y87478D01*
X81480Y87498D01*
X81427Y87587D01*
X81378Y87678D01*
X81364Y87692D01*
X81354Y87709D01*
X81275Y87776D01*
X81200Y87847D01*
X81182Y87856D01*
X81167Y87869D01*
X81071Y87908D01*
X80977Y87951D01*
X80957Y87953D01*
X80939Y87961D01*
X80772Y87979D01*
X79248Y87979D01*
X79228Y87976D01*
X79209Y87978D01*
X79107Y87956D01*
X79005Y87939D01*
X78988Y87930D01*
X78968Y87926D01*
X78879Y87873D01*
X78788Y87824D01*
X78774Y87810D01*
X78757Y87800D01*
X78690Y87721D01*
X78619Y87646D01*
X78610Y87628D01*
X78597Y87613D01*
X78558Y87517D01*
X78515Y87423D01*
X78513Y87403D01*
X78505Y87385D01*
X78487Y87218D01*
X78487Y81830D01*
X77406Y81830D01*
X77387Y81827D01*
X77367Y81829D01*
X77266Y81807D01*
X77164Y81791D01*
X77146Y81781D01*
X77127Y81777D01*
X77038Y81724D01*
X76946Y81675D01*
X76933Y81661D01*
X76916Y81651D01*
X76848Y81572D01*
X76777Y81497D01*
X76769Y81479D01*
X76756Y81464D01*
X76717Y81368D01*
X76673Y81274D01*
X76671Y81254D01*
X76664Y81236D01*
X76645Y81069D01*
X76645Y67420D01*
X72280Y63055D01*
X59483Y63055D01*
X58069Y64468D01*
X24053Y98484D01*
X24053Y98485D01*
X23467Y99069D01*
X23467Y99919D01*
X23467Y99920D01*
X23420Y135601D01*
X23408Y135671D01*
X23406Y135742D01*
X23388Y135792D01*
X23379Y135843D01*
X23346Y135906D01*
X23322Y135973D01*
X23289Y136014D01*
X23264Y136061D01*
X23212Y136110D01*
X23168Y136165D01*
X23124Y136194D01*
X23085Y136230D01*
X23021Y136260D01*
X22961Y136298D01*
X22910Y136311D01*
X22862Y136333D01*
X22791Y136341D01*
X22722Y136358D01*
X22670Y136354D01*
X22618Y136360D01*
X22548Y136345D01*
X22477Y136339D01*
X22429Y136319D01*
X22378Y136307D01*
X22316Y136271D01*
X22251Y136243D01*
X22194Y136197D01*
X22167Y136181D01*
X22152Y136163D01*
X22120Y136138D01*
X20071Y134089D01*
X17145Y134089D01*
X15075Y136159D01*
X15075Y139085D01*
X17145Y141155D01*
X20071Y141155D01*
X22115Y139111D01*
X22173Y139069D01*
X22226Y139020D01*
X22273Y138998D01*
X22314Y138968D01*
X22383Y138947D01*
X22449Y138916D01*
X22500Y138911D01*
X22549Y138896D01*
X22621Y138897D01*
X22693Y138890D01*
X22744Y138901D01*
X22795Y138902D01*
X22863Y138927D01*
X22934Y138942D01*
X22978Y138969D01*
X23026Y138986D01*
X23083Y139032D01*
X23145Y139069D01*
X23178Y139108D01*
X23218Y139140D01*
X23257Y139201D01*
X23304Y139256D01*
X23323Y139304D01*
X23351Y139347D01*
X23369Y139417D01*
X23396Y139484D01*
X23404Y139554D01*
X23411Y139586D01*
X23410Y139609D01*
X23414Y139651D01*
X23381Y164186D01*
X23370Y164256D01*
X23368Y164327D01*
X23350Y164377D01*
X23341Y164429D01*
X23308Y164491D01*
X23283Y164558D01*
X23250Y164599D01*
X23226Y164646D01*
X23174Y164695D01*
X23130Y164750D01*
X23085Y164779D01*
X23047Y164815D01*
X22983Y164845D01*
X22923Y164883D01*
X22872Y164896D01*
X22824Y164918D01*
X22753Y164926D01*
X22684Y164943D01*
X22632Y164939D01*
X22580Y164945D01*
X22510Y164930D01*
X22439Y164924D01*
X22391Y164904D01*
X22339Y164893D01*
X22278Y164856D01*
X22213Y164828D01*
X22156Y164783D01*
X22128Y164766D01*
X22113Y164748D01*
X22106Y164742D01*
X19174Y164742D01*
X17105Y166812D01*
X17105Y169738D01*
X18382Y171015D01*
X18435Y171089D01*
X18494Y171159D01*
X18507Y171189D01*
X18525Y171215D01*
X18552Y171302D01*
X18586Y171387D01*
X18591Y171428D01*
X18598Y171450D01*
X18597Y171482D01*
X18605Y171554D01*
X18605Y182967D01*
X18593Y183038D01*
X18591Y183109D01*
X18573Y183158D01*
X18565Y183210D01*
X18531Y183273D01*
X18507Y183340D01*
X18474Y183381D01*
X18450Y183427D01*
X18398Y183476D01*
X18353Y183532D01*
X18309Y183561D01*
X18272Y183596D01*
X18207Y183627D01*
X18146Y183665D01*
X18096Y183678D01*
X18049Y183700D01*
X17977Y183708D01*
X17908Y183725D01*
X17856Y183721D01*
X17804Y183727D01*
X17734Y183712D01*
X17663Y183706D01*
X17615Y183686D01*
X17564Y183675D01*
X17502Y183638D01*
X17436Y183610D01*
X17380Y183565D01*
X17353Y183549D01*
X17337Y183531D01*
X17305Y183505D01*
X16703Y182903D01*
X13777Y182903D01*
X11707Y184973D01*
X11707Y185334D01*
X11702Y185367D01*
X11704Y185401D01*
X11682Y185488D01*
X11668Y185577D01*
X11652Y185607D01*
X11643Y185640D01*
X11594Y185715D01*
X11552Y185794D01*
X11528Y185817D01*
X11509Y185846D01*
X11439Y185902D01*
X11374Y185963D01*
X11343Y185978D01*
X11317Y185999D01*
X11232Y186029D01*
X11151Y186067D01*
X11117Y186071D01*
X11085Y186082D01*
X10995Y186084D01*
X10907Y186094D01*
X10873Y186087D01*
X10839Y186088D01*
X10754Y186061D01*
X10666Y186042D01*
X10637Y186024D01*
X10604Y186014D01*
X10532Y185962D01*
X10455Y185916D01*
X10433Y185890D01*
X10405Y185870D01*
X10353Y185797D01*
X10295Y185729D01*
X10282Y185697D01*
X10263Y185669D01*
X10206Y185512D01*
X7127Y172689D01*
X7125Y172656D01*
X7109Y172571D01*
X6071Y159382D01*
X6077Y159307D01*
X6074Y159231D01*
X6087Y159185D01*
X6091Y159137D01*
X6121Y159068D01*
X6142Y158995D01*
X6170Y158955D01*
X6189Y158911D01*
X6240Y158855D01*
X6283Y158793D01*
X6321Y158764D01*
X6353Y158728D01*
X6419Y158691D01*
X6480Y158646D01*
X6526Y158631D01*
X6568Y158608D01*
X6642Y158593D01*
X6714Y158570D01*
X6762Y158570D01*
X6809Y158561D01*
X6884Y158572D01*
X6960Y158572D01*
X7022Y158590D01*
X7053Y158595D01*
X7076Y158606D01*
X7121Y158619D01*
X8197Y159065D01*
X11803Y159065D01*
X15135Y157685D01*
X17685Y155135D01*
X19065Y151803D01*
X19065Y148197D01*
X17685Y144865D01*
X15135Y142315D01*
X11803Y140935D01*
X8197Y140935D01*
X7121Y141381D01*
X7047Y141398D01*
X6976Y141425D01*
X6928Y141426D01*
X6881Y141437D01*
X6806Y141430D01*
X6731Y141432D01*
X6685Y141419D01*
X6637Y141414D01*
X6567Y141383D01*
X6495Y141361D01*
X6456Y141334D01*
X6412Y141314D01*
X6356Y141263D01*
X6295Y141219D01*
X6266Y141180D01*
X6231Y141148D01*
X6194Y141081D01*
X6150Y141020D01*
X6135Y140974D01*
X6112Y140932D01*
X6099Y140858D01*
X6076Y140786D01*
X6074Y140721D01*
X6068Y140690D01*
X6072Y140665D01*
X6071Y140618D01*
X7109Y127429D01*
X7117Y127397D01*
X7127Y127311D01*
X12399Y105353D01*
X12412Y105323D01*
X12436Y105240D01*
X21077Y84378D01*
X21095Y84350D01*
X21132Y84271D01*
X32930Y65018D01*
X32952Y64993D01*
X33000Y64921D01*
X47666Y47750D01*
X47691Y47729D01*
X47750Y47666D01*
X64921Y33000D01*
X64949Y32983D01*
X65018Y32930D01*
X67633Y31328D01*
X68875Y30566D01*
X70117Y29805D01*
X71359Y29044D01*
X77571Y25238D01*
X78813Y24476D01*
X80055Y23715D01*
X81297Y22954D01*
X82540Y22193D01*
X84271Y21132D01*
X84302Y21119D01*
X84378Y21077D01*
X105240Y12436D01*
X105272Y12428D01*
X105354Y12399D01*
X127311Y7127D01*
X127344Y7125D01*
X127429Y7109D01*
X149940Y5337D01*
X149973Y5340D01*
X150060Y5337D01*
X172571Y7109D01*
G37*
G36*
X211626Y176974D02*
X211626Y176974D01*
X211645Y176972D01*
X211747Y176994D01*
X211849Y177010D01*
X211866Y177020D01*
X211886Y177024D01*
X211975Y177077D01*
X212066Y177126D01*
X212080Y177140D01*
X212097Y177150D01*
X212164Y177229D01*
X212236Y177304D01*
X212244Y177322D01*
X212257Y177337D01*
X212296Y177433D01*
X212339Y177527D01*
X212341Y177547D01*
X212349Y177565D01*
X212367Y177732D01*
X212367Y180851D01*
X214437Y182920D01*
X216281Y182920D01*
X216301Y182923D01*
X216320Y182921D01*
X216422Y182943D01*
X216524Y182960D01*
X216541Y182969D01*
X216561Y182974D01*
X216650Y183027D01*
X216741Y183075D01*
X216755Y183089D01*
X216772Y183100D01*
X216839Y183178D01*
X216911Y183253D01*
X216919Y183271D01*
X216932Y183287D01*
X216971Y183383D01*
X217014Y183476D01*
X217016Y183496D01*
X217024Y183515D01*
X217042Y183681D01*
X217042Y203630D01*
X217028Y203720D01*
X217020Y203811D01*
X217008Y203841D01*
X217003Y203873D01*
X216960Y203954D01*
X216924Y204037D01*
X216898Y204070D01*
X216887Y204090D01*
X216864Y204112D01*
X216819Y204168D01*
X183443Y237544D01*
X183370Y237597D01*
X183300Y237657D01*
X183270Y237669D01*
X183244Y237688D01*
X183157Y237715D01*
X183072Y237749D01*
X183031Y237753D01*
X183009Y237760D01*
X182976Y237759D01*
X182905Y237767D01*
X181099Y237767D01*
X179030Y239837D01*
X179030Y242763D01*
X181099Y244833D01*
X184026Y244833D01*
X186095Y242763D01*
X186095Y240957D01*
X186110Y240867D01*
X186117Y240776D01*
X186130Y240747D01*
X186135Y240715D01*
X186178Y240634D01*
X186213Y240550D01*
X186239Y240518D01*
X186250Y240497D01*
X186273Y240475D01*
X186318Y240419D01*
X193518Y233219D01*
X193576Y233178D01*
X193628Y233128D01*
X193675Y233106D01*
X193717Y233076D01*
X193786Y233055D01*
X193851Y233025D01*
X193903Y233019D01*
X193953Y233004D01*
X194024Y233005D01*
X194095Y232998D01*
X194146Y233009D01*
X194198Y233010D01*
X194266Y233035D01*
X194336Y233050D01*
X194381Y233077D01*
X194429Y233094D01*
X194485Y233139D01*
X194547Y233176D01*
X194581Y233216D01*
X194621Y233248D01*
X194660Y233308D01*
X194707Y233363D01*
X194726Y233411D01*
X194754Y233455D01*
X194772Y233524D01*
X194799Y233591D01*
X194807Y233662D01*
X194815Y233694D01*
X194813Y233717D01*
X194817Y233758D01*
X194817Y252858D01*
X194814Y252878D01*
X194816Y252897D01*
X194794Y252999D01*
X194778Y253101D01*
X194768Y253118D01*
X194764Y253138D01*
X194711Y253227D01*
X194662Y253318D01*
X194648Y253332D01*
X194638Y253349D01*
X194559Y253416D01*
X194484Y253488D01*
X194466Y253496D01*
X194451Y253509D01*
X194355Y253548D01*
X194261Y253591D01*
X194241Y253593D01*
X194223Y253601D01*
X194056Y253619D01*
X191554Y253619D01*
X190809Y254364D01*
X190809Y261416D01*
X191745Y262352D01*
X191756Y262368D01*
X191772Y262380D01*
X191828Y262468D01*
X191888Y262551D01*
X191894Y262570D01*
X191905Y262587D01*
X191930Y262688D01*
X191961Y262787D01*
X191960Y262806D01*
X191965Y262826D01*
X191957Y262929D01*
X191954Y263032D01*
X191947Y263051D01*
X191946Y263071D01*
X191905Y263166D01*
X191870Y263263D01*
X191857Y263279D01*
X191849Y263297D01*
X191745Y263428D01*
X190809Y264364D01*
X190809Y271416D01*
X191554Y272161D01*
X197533Y272161D01*
X197623Y272175D01*
X197714Y272183D01*
X197744Y272195D01*
X197776Y272200D01*
X197857Y272243D01*
X197941Y272279D01*
X197973Y272305D01*
X197993Y272316D01*
X198015Y272339D01*
X198071Y272384D01*
X200914Y275226D01*
X200950Y275277D01*
X200994Y275321D01*
X201021Y275376D01*
X201057Y275426D01*
X201076Y275485D01*
X201103Y275541D01*
X201112Y275602D01*
X201130Y275661D01*
X201128Y275723D01*
X201136Y275785D01*
X201125Y275845D01*
X201123Y275907D01*
X201102Y275965D01*
X201090Y276027D01*
X201060Y276080D01*
X201039Y276138D01*
X201000Y276186D01*
X200969Y276241D01*
X200923Y276282D01*
X200885Y276330D01*
X200833Y276363D01*
X200786Y276405D01*
X200706Y276445D01*
X200678Y276463D01*
X200661Y276467D01*
X200636Y276480D01*
X198514Y277252D01*
X198069Y278206D01*
X200346Y284462D01*
X200347Y284465D01*
X200348Y284468D01*
X200352Y284491D01*
X200361Y284508D01*
X200369Y284581D01*
X200370Y284586D01*
X200392Y284704D01*
X200391Y284707D01*
X200392Y284710D01*
X200387Y284745D01*
X200388Y284753D01*
X200382Y284781D01*
X200375Y284829D01*
X200358Y284948D01*
X200357Y284950D01*
X200356Y284954D01*
X200302Y285061D01*
X200248Y285168D01*
X200246Y285170D01*
X200245Y285173D01*
X200160Y285256D01*
X200074Y285341D01*
X200071Y285343D01*
X200069Y285345D01*
X199922Y285426D01*
X199291Y285687D01*
X199256Y285696D01*
X199223Y285712D01*
X199137Y285724D01*
X199052Y285743D01*
X199016Y285740D01*
X198979Y285745D01*
X198894Y285728D01*
X198807Y285720D01*
X198774Y285705D01*
X198738Y285699D01*
X198662Y285656D01*
X198582Y285620D01*
X198555Y285596D01*
X198524Y285578D01*
X198465Y285513D01*
X198401Y285454D01*
X198384Y285422D01*
X198359Y285395D01*
X198285Y285244D01*
X197716Y283682D01*
X194158Y284977D01*
X194139Y284981D01*
X194121Y284990D01*
X194018Y285004D01*
X193916Y285023D01*
X193897Y285020D01*
X193877Y285023D01*
X193775Y285004D01*
X193673Y284989D01*
X193655Y284980D01*
X193635Y284977D01*
X193545Y284926D01*
X193453Y284880D01*
X193439Y284866D01*
X193421Y284856D01*
X193352Y284779D01*
X193279Y284706D01*
X193270Y284688D01*
X193257Y284673D01*
X193271Y284748D01*
X193269Y284768D01*
X193271Y284788D01*
X193252Y284889D01*
X193238Y284992D01*
X193229Y285010D01*
X193225Y285029D01*
X193174Y285119D01*
X193128Y285212D01*
X193114Y285226D01*
X193104Y285244D01*
X193027Y285313D01*
X192954Y285386D01*
X192936Y285395D01*
X192921Y285408D01*
X192771Y285482D01*
X189213Y286777D01*
X189633Y287933D01*
X189645Y287995D01*
X189666Y288054D01*
X189668Y288115D01*
X189679Y288175D01*
X189670Y288237D01*
X189672Y288300D01*
X189654Y288358D01*
X189645Y288418D01*
X189617Y288475D01*
X189598Y288535D01*
X189563Y288584D01*
X189535Y288639D01*
X189491Y288683D01*
X189454Y288734D01*
X189404Y288769D01*
X189361Y288812D01*
X189305Y288840D01*
X189253Y288877D01*
X189170Y288907D01*
X189141Y288921D01*
X189123Y288924D01*
X189096Y288934D01*
X173070Y292781D01*
X172961Y292789D01*
X172853Y292801D01*
X172839Y292798D01*
X172824Y292799D01*
X172719Y292772D01*
X172612Y292749D01*
X172600Y292742D01*
X172586Y292738D01*
X172495Y292679D01*
X172401Y292623D01*
X172392Y292612D01*
X172380Y292604D01*
X172312Y292519D01*
X172241Y292436D01*
X172236Y292423D01*
X172227Y292412D01*
X172190Y292309D01*
X172149Y292208D01*
X172147Y292191D01*
X172144Y292180D01*
X172143Y292151D01*
X172131Y292041D01*
X172131Y275574D01*
X171386Y274829D01*
X169481Y274829D01*
X169462Y274826D01*
X169442Y274828D01*
X169341Y274806D01*
X169239Y274790D01*
X169221Y274780D01*
X169202Y274776D01*
X169113Y274723D01*
X169021Y274674D01*
X169008Y274660D01*
X168991Y274650D01*
X168923Y274571D01*
X168852Y274496D01*
X168844Y274478D01*
X168831Y274463D01*
X168792Y274367D01*
X168748Y274273D01*
X168746Y274253D01*
X168739Y274235D01*
X168720Y274068D01*
X168720Y269979D01*
X168735Y269889D01*
X168742Y269798D01*
X168755Y269768D01*
X168760Y269736D01*
X168803Y269655D01*
X168838Y269571D01*
X168864Y269539D01*
X168875Y269518D01*
X168898Y269496D01*
X168943Y269440D01*
X170220Y268163D01*
X170220Y265237D01*
X168151Y263167D01*
X165224Y263167D01*
X163155Y265237D01*
X163155Y268163D01*
X164432Y269440D01*
X164485Y269514D01*
X164544Y269584D01*
X164556Y269614D01*
X164575Y269640D01*
X164602Y269727D01*
X164636Y269812D01*
X164641Y269853D01*
X164648Y269875D01*
X164647Y269907D01*
X164655Y269979D01*
X164655Y274068D01*
X164652Y274083D01*
X164654Y274095D01*
X164653Y274099D01*
X164654Y274107D01*
X164632Y274209D01*
X164615Y274311D01*
X164606Y274328D01*
X164601Y274348D01*
X164548Y274437D01*
X164500Y274528D01*
X164486Y274542D01*
X164475Y274559D01*
X164397Y274626D01*
X164322Y274698D01*
X164304Y274706D01*
X164288Y274719D01*
X164192Y274758D01*
X164099Y274801D01*
X164079Y274803D01*
X164060Y274811D01*
X163894Y274829D01*
X162334Y274829D01*
X161589Y275574D01*
X161589Y293052D01*
X161571Y293164D01*
X161556Y293275D01*
X161551Y293284D01*
X161550Y293295D01*
X161497Y293394D01*
X161447Y293496D01*
X161439Y293503D01*
X161434Y293512D01*
X161353Y293590D01*
X161273Y293670D01*
X161264Y293674D01*
X161256Y293681D01*
X161154Y293729D01*
X161052Y293779D01*
X161040Y293782D01*
X161033Y293785D01*
X161008Y293788D01*
X160888Y293811D01*
X150060Y294663D01*
X150027Y294660D01*
X149940Y294663D01*
X138832Y293789D01*
X138723Y293762D01*
X138612Y293738D01*
X138603Y293732D01*
X138593Y293730D01*
X138498Y293670D01*
X138401Y293612D01*
X138394Y293604D01*
X138386Y293598D01*
X138315Y293511D01*
X138241Y293425D01*
X138237Y293415D01*
X138231Y293407D01*
X138192Y293302D01*
X138149Y293197D01*
X138148Y293184D01*
X138145Y293177D01*
X138144Y293152D01*
X138131Y293030D01*
X138131Y275574D01*
X137396Y274839D01*
X137384Y274823D01*
X137369Y274810D01*
X137313Y274723D01*
X137252Y274639D01*
X137246Y274620D01*
X137236Y274603D01*
X137210Y274503D01*
X137180Y274404D01*
X137180Y274384D01*
X137176Y274365D01*
X137184Y274262D01*
X137186Y274158D01*
X137193Y274139D01*
X137195Y274119D01*
X137235Y274025D01*
X137271Y273927D01*
X137283Y273911D01*
X137291Y273893D01*
X137396Y273762D01*
X153234Y257924D01*
X153308Y257871D01*
X153378Y257811D01*
X153408Y257799D01*
X153434Y257780D01*
X153521Y257753D01*
X153606Y257719D01*
X153647Y257715D01*
X153669Y257708D01*
X153701Y257709D01*
X153773Y257701D01*
X159741Y257701D01*
X160486Y256956D01*
X160486Y248504D01*
X159741Y247759D01*
X158617Y247759D01*
X158546Y247748D01*
X158474Y247746D01*
X158425Y247728D01*
X158374Y247720D01*
X158310Y247686D01*
X158243Y247661D01*
X158202Y247629D01*
X158156Y247604D01*
X158107Y247552D01*
X158051Y247508D01*
X158023Y247464D01*
X157987Y247426D01*
X157957Y247361D01*
X157918Y247301D01*
X157905Y247250D01*
X157883Y247203D01*
X157876Y247132D01*
X157858Y247062D01*
X157862Y247010D01*
X157856Y246959D01*
X157872Y246888D01*
X157877Y246817D01*
X157898Y246769D01*
X157909Y246718D01*
X157945Y246657D01*
X157965Y246611D01*
X157965Y243602D01*
X157935Y243561D01*
X157914Y243492D01*
X157883Y243427D01*
X157878Y243375D01*
X157862Y243326D01*
X157864Y243254D01*
X157856Y243183D01*
X157867Y243132D01*
X157869Y243080D01*
X157893Y243012D01*
X157909Y242942D01*
X157935Y242897D01*
X157953Y242849D01*
X157998Y242793D01*
X158035Y242731D01*
X158074Y242697D01*
X158107Y242657D01*
X158167Y242618D01*
X158222Y242571D01*
X158270Y242552D01*
X158314Y242524D01*
X158383Y242506D01*
X158450Y242479D01*
X158521Y242471D01*
X158552Y242463D01*
X158576Y242465D01*
X158617Y242461D01*
X159741Y242461D01*
X160486Y241716D01*
X160486Y233264D01*
X159741Y232519D01*
X158115Y232519D01*
X158095Y232516D01*
X158076Y232518D01*
X157974Y232496D01*
X157872Y232480D01*
X157855Y232470D01*
X157835Y232466D01*
X157746Y232413D01*
X157655Y232364D01*
X157641Y232350D01*
X157624Y232340D01*
X157557Y232261D01*
X157485Y232186D01*
X157477Y232168D01*
X157464Y232153D01*
X157425Y232057D01*
X157382Y231963D01*
X157380Y231943D01*
X157372Y231925D01*
X157354Y231758D01*
X157354Y227982D01*
X157357Y227962D01*
X157355Y227943D01*
X157377Y227841D01*
X157393Y227739D01*
X157403Y227722D01*
X157407Y227702D01*
X157460Y227613D01*
X157509Y227522D01*
X157523Y227508D01*
X157533Y227491D01*
X157612Y227424D01*
X157687Y227352D01*
X157705Y227344D01*
X157720Y227331D01*
X157816Y227292D01*
X157910Y227249D01*
X157930Y227247D01*
X157948Y227239D01*
X158115Y227221D01*
X160915Y227221D01*
X160986Y227232D01*
X161058Y227234D01*
X161107Y227252D01*
X161158Y227260D01*
X161222Y227294D01*
X161289Y227319D01*
X161330Y227351D01*
X161376Y227376D01*
X161425Y227428D01*
X161481Y227472D01*
X161509Y227516D01*
X161545Y227554D01*
X161575Y227619D01*
X161614Y227679D01*
X161627Y227730D01*
X161649Y227777D01*
X161656Y227848D01*
X161674Y227918D01*
X161670Y227970D01*
X161676Y228021D01*
X161660Y228092D01*
X161655Y228163D01*
X161634Y228211D01*
X161623Y228262D01*
X161587Y228323D01*
X161567Y228369D01*
X161567Y231333D01*
X163637Y233403D01*
X166563Y233403D01*
X168633Y231333D01*
X168633Y228407D01*
X167710Y227484D01*
X167698Y227468D01*
X167683Y227455D01*
X167626Y227368D01*
X167566Y227284D01*
X167560Y227265D01*
X167550Y227248D01*
X167524Y227148D01*
X167494Y227049D01*
X167494Y227029D01*
X167490Y227010D01*
X167498Y226907D01*
X167500Y226803D01*
X167507Y226784D01*
X167509Y226764D01*
X167549Y226669D01*
X167585Y226572D01*
X167597Y226556D01*
X167605Y226538D01*
X167641Y226494D01*
X167641Y220648D01*
X167624Y220613D01*
X167594Y220571D01*
X167573Y220502D01*
X167542Y220437D01*
X167537Y220385D01*
X167521Y220336D01*
X167523Y220264D01*
X167515Y220193D01*
X167526Y220142D01*
X167528Y220090D01*
X167552Y220022D01*
X167568Y219952D01*
X167594Y219907D01*
X167612Y219859D01*
X167657Y219803D01*
X167694Y219741D01*
X167733Y219707D01*
X167766Y219667D01*
X167826Y219628D01*
X167881Y219581D01*
X167929Y219562D01*
X167973Y219534D01*
X168042Y219516D01*
X168109Y219489D01*
X168180Y219481D01*
X168211Y219473D01*
X168235Y219475D01*
X168276Y219471D01*
X169646Y219471D01*
X170391Y218726D01*
X170391Y218026D01*
X170394Y218006D01*
X170392Y217987D01*
X170414Y217885D01*
X170430Y217783D01*
X170440Y217766D01*
X170444Y217746D01*
X170497Y217657D01*
X170546Y217566D01*
X170560Y217552D01*
X170570Y217535D01*
X170649Y217468D01*
X170724Y217396D01*
X170742Y217388D01*
X170757Y217375D01*
X170853Y217336D01*
X170947Y217293D01*
X170967Y217291D01*
X170985Y217283D01*
X171152Y217265D01*
X197006Y217265D01*
X201110Y213161D01*
X201184Y213108D01*
X201254Y213048D01*
X201284Y213036D01*
X201310Y213017D01*
X201397Y212990D01*
X201482Y212956D01*
X201523Y212952D01*
X201545Y212945D01*
X201577Y212946D01*
X201648Y212938D01*
X205096Y212938D01*
X210652Y207382D01*
X210652Y198858D01*
X200088Y188295D01*
X200035Y188221D01*
X199976Y188151D01*
X199963Y188121D01*
X199945Y188095D01*
X199918Y188008D01*
X199884Y187923D01*
X199879Y187882D01*
X199872Y187860D01*
X199873Y187828D01*
X199865Y187756D01*
X199865Y178421D01*
X199715Y178270D01*
X199673Y178212D01*
X199624Y178160D01*
X199602Y178113D01*
X199571Y178071D01*
X199550Y178002D01*
X199520Y177937D01*
X199514Y177885D01*
X199499Y177835D01*
X199501Y177764D01*
X199493Y177693D01*
X199504Y177642D01*
X199505Y177590D01*
X199530Y177522D01*
X199545Y177452D01*
X199572Y177407D01*
X199590Y177359D01*
X199635Y177303D01*
X199671Y177241D01*
X199711Y177207D01*
X199744Y177167D01*
X199804Y177128D01*
X199858Y177081D01*
X199907Y177062D01*
X199950Y177034D01*
X200020Y177016D01*
X200087Y176989D01*
X200158Y176981D01*
X200189Y176973D01*
X200212Y176975D01*
X200253Y176971D01*
X211606Y176971D01*
X211626Y176974D01*
G37*
G36*
X77394Y220539D02*
X77394Y220539D01*
X77446Y220540D01*
X77513Y220565D01*
X77583Y220580D01*
X77628Y220607D01*
X77677Y220624D01*
X77733Y220669D01*
X77794Y220706D01*
X77828Y220746D01*
X77869Y220778D01*
X77908Y220838D01*
X77954Y220893D01*
X77974Y220941D01*
X78002Y220985D01*
X78019Y221054D01*
X78046Y221121D01*
X78054Y221192D01*
X78062Y221224D01*
X78060Y221247D01*
X78065Y221288D01*
X78065Y223269D01*
X79580Y224784D01*
X79622Y224842D01*
X79671Y224894D01*
X79693Y224941D01*
X79723Y224983D01*
X79744Y225052D01*
X79775Y225117D01*
X79780Y225169D01*
X79796Y225219D01*
X79794Y225290D01*
X79802Y225361D01*
X79791Y225412D01*
X79789Y225464D01*
X79765Y225532D01*
X79749Y225602D01*
X79723Y225647D01*
X79705Y225695D01*
X79660Y225751D01*
X79623Y225813D01*
X79584Y225847D01*
X79551Y225887D01*
X79491Y225926D01*
X79436Y225973D01*
X79388Y225992D01*
X79344Y226020D01*
X79275Y226038D01*
X79208Y226065D01*
X79137Y226073D01*
X79106Y226081D01*
X79082Y226079D01*
X79041Y226083D01*
X77531Y226083D01*
X75461Y228153D01*
X75461Y231079D01*
X77531Y233149D01*
X80457Y233149D01*
X82527Y231079D01*
X82527Y228153D01*
X81012Y226638D01*
X80970Y226580D01*
X80921Y226528D01*
X80899Y226480D01*
X80868Y226438D01*
X80847Y226370D01*
X80817Y226304D01*
X80811Y226253D01*
X80796Y226203D01*
X80798Y226131D01*
X80790Y226060D01*
X80801Y226009D01*
X80802Y225957D01*
X80827Y225890D01*
X80842Y225820D01*
X80869Y225775D01*
X80887Y225726D01*
X80932Y225670D01*
X80968Y225609D01*
X81008Y225575D01*
X81040Y225534D01*
X81101Y225495D01*
X81155Y225449D01*
X81204Y225429D01*
X81247Y225401D01*
X81317Y225384D01*
X81383Y225357D01*
X81455Y225349D01*
X81486Y225341D01*
X81509Y225343D01*
X81550Y225338D01*
X83061Y225338D01*
X84338Y224061D01*
X84412Y224008D01*
X84481Y223949D01*
X84511Y223937D01*
X84538Y223918D01*
X84625Y223891D01*
X84709Y223857D01*
X84750Y223852D01*
X84773Y223845D01*
X84805Y223846D01*
X84876Y223838D01*
X88568Y223838D01*
X88658Y223853D01*
X88749Y223860D01*
X88779Y223873D01*
X88811Y223878D01*
X88892Y223921D01*
X88975Y223956D01*
X89008Y223982D01*
X89028Y223993D01*
X89050Y224016D01*
X89106Y224061D01*
X116894Y251849D01*
X116947Y251923D01*
X117007Y251992D01*
X117019Y252023D01*
X117038Y252049D01*
X117065Y252136D01*
X117099Y252221D01*
X117103Y252262D01*
X117110Y252284D01*
X117109Y252316D01*
X117117Y252387D01*
X117117Y255476D01*
X117126Y255489D01*
X117175Y255540D01*
X117197Y255588D01*
X117228Y255630D01*
X117249Y255699D01*
X117279Y255764D01*
X117285Y255815D01*
X117300Y255865D01*
X117298Y255937D01*
X117306Y256008D01*
X117295Y256059D01*
X117294Y256111D01*
X117269Y256178D01*
X117254Y256248D01*
X117227Y256293D01*
X117209Y256342D01*
X117165Y256398D01*
X117128Y256459D01*
X117088Y256493D01*
X117056Y256534D01*
X116995Y256573D01*
X116941Y256619D01*
X116892Y256639D01*
X116849Y256667D01*
X116779Y256684D01*
X116713Y256711D01*
X116641Y256719D01*
X116610Y256727D01*
X116587Y256725D01*
X116546Y256730D01*
X105862Y256730D01*
X105842Y256727D01*
X105823Y256729D01*
X105721Y256707D01*
X105619Y256690D01*
X105602Y256681D01*
X105582Y256676D01*
X105493Y256623D01*
X105402Y256575D01*
X105388Y256561D01*
X105371Y256550D01*
X105304Y256472D01*
X105232Y256397D01*
X105224Y256379D01*
X105211Y256363D01*
X105172Y256267D01*
X105129Y256174D01*
X105127Y256154D01*
X105119Y256135D01*
X105101Y255969D01*
X105101Y255634D01*
X104356Y254889D01*
X96304Y254889D01*
X95559Y255634D01*
X95559Y262686D01*
X96495Y263622D01*
X96506Y263638D01*
X96522Y263650D01*
X96550Y263694D01*
X96586Y263732D01*
X96607Y263779D01*
X96638Y263821D01*
X96644Y263840D01*
X96655Y263857D01*
X96668Y263909D01*
X96689Y263955D01*
X96695Y264005D01*
X96711Y264057D01*
X96710Y264076D01*
X96715Y264096D01*
X96711Y264149D01*
X96716Y264199D01*
X96706Y264248D01*
X96704Y264302D01*
X96697Y264321D01*
X96696Y264341D01*
X96675Y264391D01*
X96664Y264440D01*
X96638Y264482D01*
X96620Y264533D01*
X96607Y264549D01*
X96599Y264567D01*
X96553Y264626D01*
X96538Y264651D01*
X96522Y264664D01*
X96495Y264698D01*
X95559Y265634D01*
X95559Y271138D01*
X95545Y271228D01*
X95537Y271319D01*
X95525Y271349D01*
X95520Y271381D01*
X95477Y271461D01*
X95441Y271545D01*
X95415Y271578D01*
X95404Y271598D01*
X95381Y271620D01*
X95336Y271676D01*
X93320Y273693D01*
X93306Y273703D01*
X93295Y273716D01*
X93206Y273774D01*
X93120Y273836D01*
X93104Y273841D01*
X93089Y273851D01*
X92986Y273878D01*
X92885Y273909D01*
X92868Y273908D01*
X92851Y273913D01*
X92745Y273905D01*
X92639Y273902D01*
X92623Y273897D01*
X92606Y273895D01*
X92564Y273880D01*
X91551Y274229D01*
X88755Y279962D01*
X88685Y280061D01*
X88617Y280158D01*
X88615Y280160D01*
X88613Y280163D01*
X88516Y280233D01*
X88420Y280305D01*
X88417Y280306D01*
X88414Y280308D01*
X88300Y280344D01*
X88186Y280381D01*
X88183Y280381D01*
X88179Y280382D01*
X88059Y280380D01*
X87940Y280378D01*
X87936Y280377D01*
X87933Y280377D01*
X87922Y280373D01*
X87779Y280332D01*
X87148Y280070D01*
X87111Y280047D01*
X87070Y280033D01*
X87007Y279983D01*
X86939Y279941D01*
X86911Y279907D01*
X86877Y279881D01*
X86833Y279813D01*
X86782Y279751D01*
X86766Y279711D01*
X86743Y279675D01*
X86723Y279597D01*
X86694Y279521D01*
X86692Y279478D01*
X86681Y279436D01*
X86687Y279356D01*
X86683Y279276D01*
X86695Y279234D01*
X86698Y279191D01*
X86749Y279051D01*
X86752Y279040D01*
X86753Y279037D01*
X86755Y279033D01*
X87366Y277780D01*
X83963Y276120D01*
X83947Y276109D01*
X83928Y276102D01*
X83847Y276038D01*
X83762Y275978D01*
X83750Y275962D01*
X83735Y275950D01*
X83678Y275863D01*
X83617Y275779D01*
X83611Y275760D01*
X83600Y275744D01*
X83574Y275643D01*
X83543Y275545D01*
X83544Y275525D01*
X83539Y275505D01*
X83546Y275402D01*
X83548Y275299D01*
X83554Y275280D01*
X83556Y275261D01*
X83512Y275323D01*
X83496Y275335D01*
X83483Y275351D01*
X83397Y275407D01*
X83313Y275468D01*
X83294Y275474D01*
X83277Y275485D01*
X83177Y275511D01*
X83078Y275542D01*
X83059Y275542D01*
X83039Y275547D01*
X82936Y275539D01*
X82833Y275537D01*
X82814Y275531D01*
X82794Y275529D01*
X82636Y275473D01*
X79233Y273813D01*
X78861Y274575D01*
X78828Y274621D01*
X78804Y274672D01*
X78758Y274721D01*
X78719Y274776D01*
X78673Y274809D01*
X78634Y274850D01*
X78575Y274881D01*
X78520Y274920D01*
X78466Y274937D01*
X78416Y274964D01*
X78350Y274974D01*
X78286Y274995D01*
X78229Y274993D01*
X78173Y275002D01*
X78107Y274991D01*
X78040Y274990D01*
X77987Y274971D01*
X77931Y274962D01*
X77837Y274918D01*
X77808Y274907D01*
X77798Y274899D01*
X77779Y274890D01*
X65784Y267539D01*
X65701Y267468D01*
X65616Y267400D01*
X65609Y267388D01*
X65598Y267379D01*
X65542Y267285D01*
X65483Y267193D01*
X65480Y267179D01*
X65472Y267167D01*
X65450Y267060D01*
X65423Y266955D01*
X65424Y266941D01*
X65421Y266927D01*
X65434Y266818D01*
X65442Y266709D01*
X65448Y266696D01*
X65449Y266682D01*
X65496Y266583D01*
X65539Y266483D01*
X65549Y266470D01*
X65554Y266460D01*
X65574Y266438D01*
X65643Y266352D01*
X77630Y254365D01*
X77630Y253312D01*
X71229Y246911D01*
X71056Y246911D01*
X71037Y246908D01*
X71017Y246910D01*
X70916Y246888D01*
X70814Y246872D01*
X70796Y246862D01*
X70777Y246858D01*
X70688Y246805D01*
X70596Y246756D01*
X70583Y246742D01*
X70566Y246732D01*
X70498Y246653D01*
X70427Y246578D01*
X70419Y246560D01*
X70406Y246545D01*
X70367Y246449D01*
X70323Y246355D01*
X70321Y246335D01*
X70314Y246317D01*
X70295Y246150D01*
X70295Y243522D01*
X68882Y242108D01*
X61660Y234886D01*
X61607Y234812D01*
X61547Y234743D01*
X61535Y234713D01*
X61516Y234687D01*
X61489Y234600D01*
X61455Y234515D01*
X61451Y234474D01*
X61444Y234452D01*
X61445Y234419D01*
X61437Y234348D01*
X61437Y232542D01*
X59367Y230473D01*
X56441Y230473D01*
X54371Y232542D01*
X54371Y235469D01*
X54788Y235886D01*
X54830Y235944D01*
X54879Y235996D01*
X54901Y236043D01*
X54932Y236085D01*
X54953Y236154D01*
X54983Y236219D01*
X54989Y236271D01*
X55004Y236321D01*
X55002Y236392D01*
X55010Y236463D01*
X54999Y236514D01*
X54998Y236566D01*
X54973Y236634D01*
X54958Y236704D01*
X54931Y236749D01*
X54913Y236797D01*
X54868Y236853D01*
X54832Y236915D01*
X54792Y236949D01*
X54760Y236989D01*
X54699Y237028D01*
X54645Y237075D01*
X54596Y237094D01*
X54553Y237122D01*
X54483Y237140D01*
X54417Y237167D01*
X54345Y237175D01*
X54314Y237183D01*
X54291Y237181D01*
X54250Y237185D01*
X53946Y237185D01*
X51073Y238375D01*
X48875Y240573D01*
X47685Y243446D01*
X47685Y246554D01*
X48875Y249427D01*
X51073Y251625D01*
X53946Y252815D01*
X57054Y252815D01*
X59927Y251625D01*
X62125Y249427D01*
X63315Y246554D01*
X63315Y244129D01*
X63326Y244058D01*
X63328Y243986D01*
X63346Y243937D01*
X63354Y243886D01*
X63388Y243823D01*
X63413Y243755D01*
X63445Y243715D01*
X63470Y243669D01*
X63522Y243619D01*
X63566Y243563D01*
X63610Y243535D01*
X63648Y243499D01*
X63713Y243469D01*
X63773Y243430D01*
X63824Y243418D01*
X63871Y243396D01*
X63942Y243388D01*
X64012Y243370D01*
X64064Y243374D01*
X64115Y243369D01*
X64186Y243384D01*
X64257Y243389D01*
X64305Y243410D01*
X64356Y243421D01*
X64417Y243458D01*
X64483Y243486D01*
X64539Y243530D01*
X64567Y243547D01*
X64582Y243565D01*
X64614Y243590D01*
X66007Y244983D01*
X66060Y245057D01*
X66119Y245126D01*
X66131Y245157D01*
X66150Y245183D01*
X66177Y245270D01*
X66211Y245355D01*
X66216Y245396D01*
X66223Y245418D01*
X66222Y245450D01*
X66230Y245521D01*
X66230Y250543D01*
X66215Y250633D01*
X66208Y250724D01*
X66195Y250753D01*
X66190Y250785D01*
X66147Y250866D01*
X66112Y250950D01*
X66086Y250982D01*
X66075Y251003D01*
X66052Y251025D01*
X66007Y251081D01*
X57418Y259669D01*
X57327Y259735D01*
X57237Y259804D01*
X57227Y259807D01*
X57219Y259813D01*
X57111Y259846D01*
X57004Y259882D01*
X56993Y259882D01*
X56984Y259885D01*
X56871Y259882D01*
X56758Y259882D01*
X56748Y259879D01*
X56738Y259879D01*
X56632Y259840D01*
X56524Y259804D01*
X56514Y259797D01*
X56507Y259794D01*
X56487Y259779D01*
X56386Y259710D01*
X47750Y252334D01*
X47729Y252309D01*
X47666Y252250D01*
X40751Y244154D01*
X40692Y244057D01*
X40631Y243962D01*
X40629Y243952D01*
X40623Y243943D01*
X40599Y243833D01*
X40571Y243723D01*
X40572Y243713D01*
X40570Y243703D01*
X40581Y243590D01*
X40590Y243478D01*
X40594Y243469D01*
X40595Y243459D01*
X40643Y243355D01*
X40686Y243252D01*
X40694Y243242D01*
X40698Y243235D01*
X40715Y243216D01*
X40791Y243121D01*
X44596Y239316D01*
X44674Y239260D01*
X44748Y239199D01*
X44779Y239185D01*
X44795Y239173D01*
X44827Y239163D01*
X44901Y239130D01*
X44949Y239115D01*
X44983Y239110D01*
X45015Y239097D01*
X45182Y239078D01*
X45651Y239078D01*
X45800Y238930D01*
X45878Y238873D01*
X45952Y238812D01*
X45983Y238798D01*
X45999Y238786D01*
X46031Y238776D01*
X46105Y238743D01*
X46305Y238679D01*
X46520Y238261D01*
X46540Y238233D01*
X46554Y238202D01*
X46659Y238071D01*
X46991Y237739D01*
X46991Y237529D01*
X46999Y237480D01*
X46998Y237476D01*
X47002Y237458D01*
X47006Y237433D01*
X47015Y237337D01*
X47027Y237306D01*
X47030Y237286D01*
X47046Y237257D01*
X47046Y237256D01*
X47051Y237236D01*
X47059Y237221D01*
X47075Y237181D01*
X47234Y236871D01*
X47237Y236831D01*
X47252Y236797D01*
X47258Y236760D01*
X47300Y236684D01*
X47333Y236605D01*
X47363Y236567D01*
X47376Y236544D01*
X47399Y236523D01*
X47438Y236474D01*
X53589Y230324D01*
X53589Y229362D01*
X53592Y229342D01*
X53590Y229323D01*
X53612Y229221D01*
X53628Y229119D01*
X53638Y229102D01*
X53642Y229082D01*
X53695Y228993D01*
X53744Y228902D01*
X53758Y228888D01*
X53768Y228871D01*
X53847Y228804D01*
X53922Y228732D01*
X53940Y228724D01*
X53955Y228711D01*
X54051Y228672D01*
X54145Y228629D01*
X54165Y228627D01*
X54183Y228619D01*
X54350Y228601D01*
X68914Y228601D01*
X76765Y220749D01*
X76823Y220708D01*
X76875Y220658D01*
X76923Y220636D01*
X76965Y220606D01*
X77033Y220585D01*
X77099Y220555D01*
X77150Y220549D01*
X77200Y220534D01*
X77272Y220535D01*
X77343Y220528D01*
X77394Y220539D01*
G37*
G36*
X141808Y189372D02*
X141808Y189372D01*
X141899Y189380D01*
X141928Y189392D01*
X141960Y189397D01*
X142041Y189440D01*
X142125Y189476D01*
X142157Y189502D01*
X142178Y189513D01*
X142200Y189536D01*
X142256Y189581D01*
X143882Y191207D01*
X143935Y191281D01*
X143994Y191350D01*
X144006Y191380D01*
X144025Y191406D01*
X144052Y191493D01*
X144086Y191578D01*
X144091Y191619D01*
X144098Y191641D01*
X144097Y191674D01*
X144105Y191745D01*
X144105Y193551D01*
X146174Y195620D01*
X147565Y195620D01*
X147636Y195632D01*
X147707Y195634D01*
X147756Y195652D01*
X147808Y195660D01*
X147871Y195694D01*
X147938Y195718D01*
X147979Y195751D01*
X148025Y195775D01*
X148074Y195827D01*
X148130Y195872D01*
X148159Y195916D01*
X148194Y195953D01*
X148225Y196018D01*
X148263Y196079D01*
X148276Y196129D01*
X148298Y196176D01*
X148306Y196248D01*
X148323Y196317D01*
X148319Y196369D01*
X148325Y196421D01*
X148310Y196491D01*
X148304Y196562D01*
X148284Y196610D01*
X148273Y196661D01*
X148236Y196723D01*
X148208Y196789D01*
X148163Y196845D01*
X148147Y196872D01*
X148129Y196888D01*
X148120Y196898D01*
X148120Y196899D01*
X148119Y196900D01*
X148103Y196920D01*
X147599Y197424D01*
X147596Y197441D01*
X147598Y197461D01*
X147576Y197562D01*
X147560Y197664D01*
X147550Y197682D01*
X147546Y197701D01*
X147493Y197790D01*
X147444Y197882D01*
X147430Y197895D01*
X147420Y197912D01*
X147341Y197980D01*
X147276Y198042D01*
X147104Y198214D01*
X147030Y198267D01*
X146960Y198326D01*
X146930Y198338D01*
X146904Y198357D01*
X146817Y198384D01*
X146732Y198418D01*
X146691Y198423D01*
X146669Y198430D01*
X146637Y198429D01*
X146566Y198437D01*
X144248Y198437D01*
X144228Y198434D01*
X144209Y198436D01*
X144107Y198414D01*
X144005Y198397D01*
X143988Y198388D01*
X143968Y198383D01*
X143879Y198330D01*
X143788Y198282D01*
X143774Y198268D01*
X143757Y198257D01*
X143690Y198179D01*
X143618Y198104D01*
X143610Y198086D01*
X143597Y198070D01*
X143558Y197974D01*
X143515Y197881D01*
X143513Y197861D01*
X143505Y197842D01*
X143487Y197676D01*
X143487Y197673D01*
X141417Y195603D01*
X138491Y195603D01*
X136595Y197499D01*
X136537Y197541D01*
X136485Y197590D01*
X136437Y197612D01*
X136395Y197643D01*
X136327Y197664D01*
X136261Y197694D01*
X136210Y197700D01*
X136160Y197715D01*
X136088Y197713D01*
X136017Y197721D01*
X135966Y197710D01*
X135914Y197709D01*
X135847Y197684D01*
X135777Y197669D01*
X135732Y197642D01*
X135683Y197624D01*
X135627Y197579D01*
X135566Y197543D01*
X135532Y197503D01*
X135491Y197471D01*
X135452Y197410D01*
X135406Y197356D01*
X135386Y197307D01*
X135358Y197264D01*
X135341Y197194D01*
X135314Y197128D01*
X135306Y197056D01*
X135298Y197025D01*
X135300Y197002D01*
X135295Y196961D01*
X135295Y195387D01*
X133226Y193317D01*
X130299Y193317D01*
X128230Y195387D01*
X128230Y198313D01*
X129507Y199590D01*
X129560Y199664D01*
X129619Y199734D01*
X129632Y199764D01*
X129650Y199790D01*
X129677Y199877D01*
X129711Y199962D01*
X129716Y200003D01*
X129723Y200025D01*
X129722Y200057D01*
X129730Y200129D01*
X129730Y200455D01*
X129715Y200545D01*
X129708Y200636D01*
X129695Y200666D01*
X129690Y200698D01*
X129647Y200779D01*
X129612Y200862D01*
X129586Y200895D01*
X129575Y200915D01*
X129552Y200937D01*
X129507Y200993D01*
X110680Y219820D01*
X110680Y224680D01*
X124570Y238570D01*
X130071Y238570D01*
X130161Y238585D01*
X130252Y238592D01*
X130282Y238605D01*
X130314Y238610D01*
X130395Y238653D01*
X130479Y238688D01*
X130511Y238714D01*
X130531Y238725D01*
X130554Y238748D01*
X130610Y238793D01*
X131887Y240070D01*
X134813Y240070D01*
X135141Y239743D01*
X135199Y239701D01*
X135251Y239652D01*
X135298Y239630D01*
X135340Y239599D01*
X135409Y239578D01*
X135474Y239548D01*
X135526Y239542D01*
X135576Y239527D01*
X135647Y239529D01*
X135718Y239521D01*
X135769Y239532D01*
X135821Y239533D01*
X135889Y239558D01*
X135959Y239573D01*
X136004Y239600D01*
X136052Y239618D01*
X136108Y239662D01*
X136170Y239699D01*
X136204Y239739D01*
X136244Y239771D01*
X136283Y239832D01*
X136330Y239886D01*
X136349Y239935D01*
X136377Y239978D01*
X136395Y240048D01*
X136422Y240114D01*
X136430Y240186D01*
X136438Y240217D01*
X136436Y240240D01*
X136440Y240281D01*
X136440Y241506D01*
X136444Y241522D01*
X136463Y241564D01*
X136472Y241641D01*
X136490Y241717D01*
X136485Y241762D01*
X136491Y241808D01*
X136474Y241884D01*
X136467Y241961D01*
X136448Y242003D01*
X136438Y242048D01*
X136398Y242115D01*
X136367Y242186D01*
X136336Y242220D01*
X136312Y242259D01*
X136253Y242310D01*
X136200Y242367D01*
X136160Y242389D01*
X136125Y242419D01*
X136053Y242449D01*
X135985Y242486D01*
X135940Y242494D01*
X135897Y242511D01*
X135761Y242526D01*
X135743Y242530D01*
X135738Y242529D01*
X135730Y242530D01*
X133474Y242530D01*
X131405Y244599D01*
X131405Y246405D01*
X131390Y246495D01*
X131383Y246586D01*
X131370Y246616D01*
X131365Y246648D01*
X131322Y246729D01*
X131287Y246812D01*
X131261Y246845D01*
X131250Y246865D01*
X131227Y246887D01*
X131182Y246943D01*
X125424Y252701D01*
X125408Y252713D01*
X125395Y252729D01*
X125308Y252785D01*
X125224Y252845D01*
X125205Y252851D01*
X125188Y252862D01*
X125088Y252887D01*
X124989Y252917D01*
X124969Y252917D01*
X124950Y252922D01*
X124847Y252914D01*
X124743Y252911D01*
X124724Y252904D01*
X124705Y252902D01*
X124610Y252862D01*
X124512Y252826D01*
X124497Y252814D01*
X124478Y252806D01*
X124347Y252701D01*
X122113Y250467D01*
X121577Y250467D01*
X121487Y250453D01*
X121396Y250445D01*
X121367Y250433D01*
X121335Y250428D01*
X121254Y250385D01*
X121170Y250349D01*
X121138Y250323D01*
X121117Y250312D01*
X121108Y250303D01*
X121107Y250302D01*
X121093Y250287D01*
X121039Y250244D01*
X90568Y219773D01*
X84876Y219773D01*
X84786Y219758D01*
X84695Y219751D01*
X84665Y219738D01*
X84633Y219733D01*
X84553Y219690D01*
X84469Y219655D01*
X84437Y219629D01*
X84416Y219618D01*
X84394Y219595D01*
X84338Y219550D01*
X83838Y219050D01*
X83796Y218991D01*
X83746Y218939D01*
X83724Y218892D01*
X83694Y218850D01*
X83673Y218781D01*
X83643Y218716D01*
X83637Y218664D01*
X83622Y218615D01*
X83624Y218543D01*
X83616Y218472D01*
X83627Y218421D01*
X83628Y218369D01*
X83653Y218301D01*
X83668Y218231D01*
X83695Y218187D01*
X83712Y218138D01*
X83757Y218082D01*
X83794Y218020D01*
X83834Y217986D01*
X83866Y217946D01*
X83926Y217907D01*
X83981Y217860D01*
X84029Y217841D01*
X84073Y217813D01*
X84143Y217795D01*
X84209Y217768D01*
X84280Y217761D01*
X84312Y217753D01*
X84335Y217755D01*
X84376Y217750D01*
X84535Y217750D01*
X98125Y204160D01*
X98125Y199705D01*
X98140Y199615D01*
X98147Y199524D01*
X98160Y199494D01*
X98165Y199462D01*
X98208Y199381D01*
X98244Y199297D01*
X98269Y199265D01*
X98280Y199245D01*
X98304Y199222D01*
X98348Y199166D01*
X107934Y189581D01*
X108008Y189528D01*
X108077Y189468D01*
X108108Y189456D01*
X108134Y189437D01*
X108221Y189410D01*
X108306Y189376D01*
X108347Y189372D01*
X108369Y189365D01*
X108401Y189366D01*
X108472Y189358D01*
X141718Y189358D01*
X141808Y189372D01*
G37*
G36*
X143372Y237494D02*
X143372Y237494D01*
X143391Y237492D01*
X143493Y237514D01*
X143595Y237531D01*
X143612Y237540D01*
X143632Y237544D01*
X143721Y237597D01*
X143812Y237646D01*
X143826Y237660D01*
X143843Y237670D01*
X143910Y237749D01*
X143981Y237824D01*
X143990Y237842D01*
X144003Y237857D01*
X144042Y237953D01*
X144085Y238047D01*
X144087Y238067D01*
X144095Y238085D01*
X144113Y238252D01*
X144113Y242715D01*
X147518Y242715D01*
X148079Y242483D01*
X148231Y242330D01*
X148247Y242318D01*
X148260Y242303D01*
X148347Y242247D01*
X148431Y242186D01*
X148450Y242181D01*
X148467Y242170D01*
X148567Y242145D01*
X148666Y242114D01*
X148686Y242115D01*
X148705Y242110D01*
X148808Y242118D01*
X148912Y242120D01*
X148931Y242127D01*
X148951Y242129D01*
X149046Y242169D01*
X149143Y242205D01*
X149159Y242217D01*
X149177Y242225D01*
X149308Y242330D01*
X149439Y242461D01*
X150247Y242461D01*
X150318Y242472D01*
X150390Y242474D01*
X150439Y242492D01*
X150490Y242500D01*
X150554Y242534D01*
X150621Y242559D01*
X150662Y242591D01*
X150708Y242616D01*
X150757Y242668D01*
X150813Y242712D01*
X150841Y242756D01*
X150877Y242794D01*
X150907Y242859D01*
X150946Y242919D01*
X150959Y242970D01*
X150981Y243017D01*
X150988Y243088D01*
X151006Y243158D01*
X151002Y243210D01*
X151008Y243261D01*
X150992Y243332D01*
X150987Y243403D01*
X150966Y243451D01*
X150955Y243502D01*
X150919Y243563D01*
X150899Y243609D01*
X150899Y246618D01*
X150929Y246659D01*
X150950Y246728D01*
X150981Y246793D01*
X150986Y246845D01*
X151002Y246894D01*
X151000Y246966D01*
X151008Y247037D01*
X150997Y247088D01*
X150995Y247140D01*
X150971Y247208D01*
X150955Y247278D01*
X150929Y247323D01*
X150911Y247371D01*
X150866Y247427D01*
X150829Y247489D01*
X150790Y247523D01*
X150757Y247563D01*
X150697Y247602D01*
X150642Y247649D01*
X150594Y247668D01*
X150550Y247696D01*
X150481Y247714D01*
X150414Y247741D01*
X150343Y247749D01*
X150312Y247757D01*
X150288Y247755D01*
X150247Y247759D01*
X149439Y247759D01*
X149308Y247890D01*
X149292Y247902D01*
X149279Y247917D01*
X149192Y247973D01*
X149108Y248034D01*
X149089Y248039D01*
X149072Y248050D01*
X148972Y248075D01*
X148873Y248106D01*
X148853Y248105D01*
X148834Y248110D01*
X148731Y248102D01*
X148627Y248100D01*
X148608Y248093D01*
X148589Y248091D01*
X148493Y248051D01*
X148396Y248015D01*
X148381Y248003D01*
X148362Y247995D01*
X148231Y247890D01*
X148079Y247737D01*
X147518Y247505D01*
X144113Y247505D01*
X144113Y251968D01*
X144110Y251988D01*
X144112Y252007D01*
X144090Y252109D01*
X144073Y252211D01*
X144064Y252228D01*
X144060Y252248D01*
X144007Y252337D01*
X143958Y252428D01*
X143944Y252442D01*
X143934Y252459D01*
X143855Y252526D01*
X143780Y252597D01*
X143762Y252606D01*
X143747Y252619D01*
X143651Y252658D01*
X143557Y252701D01*
X143537Y252703D01*
X143519Y252711D01*
X143352Y252729D01*
X142589Y252729D01*
X142589Y252731D01*
X143352Y252731D01*
X143372Y252734D01*
X143391Y252732D01*
X143493Y252754D01*
X143595Y252771D01*
X143612Y252780D01*
X143632Y252784D01*
X143721Y252837D01*
X143812Y252886D01*
X143826Y252900D01*
X143843Y252910D01*
X143910Y252989D01*
X143981Y253064D01*
X143990Y253082D01*
X144003Y253097D01*
X144042Y253193D01*
X144085Y253287D01*
X144087Y253307D01*
X144095Y253325D01*
X144113Y253492D01*
X144113Y257955D01*
X144898Y257955D01*
X144968Y257966D01*
X145040Y257968D01*
X145089Y257986D01*
X145140Y257994D01*
X145204Y258028D01*
X145271Y258053D01*
X145312Y258085D01*
X145358Y258110D01*
X145407Y258161D01*
X145463Y258206D01*
X145491Y258250D01*
X145527Y258288D01*
X145557Y258353D01*
X145596Y258413D01*
X145609Y258464D01*
X145631Y258511D01*
X145639Y258582D01*
X145656Y258652D01*
X145652Y258704D01*
X145658Y258755D01*
X145643Y258826D01*
X145637Y258897D01*
X145617Y258945D01*
X145606Y258996D01*
X145569Y259057D01*
X145541Y259123D01*
X145496Y259179D01*
X145479Y259207D01*
X145462Y259222D01*
X145436Y259254D01*
X131127Y273563D01*
X131127Y274068D01*
X131124Y274083D01*
X131126Y274095D01*
X131125Y274099D01*
X131126Y274107D01*
X131104Y274209D01*
X131087Y274311D01*
X131078Y274328D01*
X131073Y274348D01*
X131020Y274437D01*
X130972Y274528D01*
X130958Y274542D01*
X130947Y274559D01*
X130869Y274626D01*
X130794Y274698D01*
X130776Y274706D01*
X130760Y274719D01*
X130664Y274758D01*
X130571Y274801D01*
X130551Y274803D01*
X130532Y274811D01*
X130366Y274829D01*
X128334Y274829D01*
X127589Y275574D01*
X127589Y291974D01*
X127572Y292082D01*
X127558Y292190D01*
X127552Y292202D01*
X127550Y292217D01*
X127498Y292313D01*
X127451Y292411D01*
X127441Y292421D01*
X127434Y292434D01*
X127355Y292509D01*
X127279Y292587D01*
X127266Y292593D01*
X127256Y292603D01*
X127157Y292649D01*
X127060Y292699D01*
X127046Y292701D01*
X127033Y292707D01*
X126925Y292719D01*
X126817Y292735D01*
X126800Y292733D01*
X126789Y292734D01*
X126760Y292728D01*
X126650Y292714D01*
X105354Y287601D01*
X105323Y287588D01*
X105240Y287564D01*
X97094Y284190D01*
X97058Y284167D01*
X97017Y284153D01*
X96954Y284103D01*
X96885Y284061D01*
X96858Y284027D01*
X96824Y284001D01*
X96780Y283933D01*
X96729Y283871D01*
X96713Y283831D01*
X96689Y283795D01*
X96669Y283717D01*
X96640Y283641D01*
X96639Y283598D01*
X96628Y283556D01*
X96633Y283476D01*
X96630Y283396D01*
X96642Y283354D01*
X96645Y283311D01*
X96695Y283171D01*
X96698Y283160D01*
X96700Y283157D01*
X96701Y283153D01*
X99228Y277974D01*
X98885Y276978D01*
X97760Y276430D01*
X97741Y276417D01*
X97720Y276409D01*
X97641Y276346D01*
X97559Y276287D01*
X97546Y276269D01*
X97528Y276255D01*
X97473Y276170D01*
X97414Y276089D01*
X97407Y276067D01*
X97395Y276048D01*
X97370Y275950D01*
X97340Y275854D01*
X97340Y275832D01*
X97335Y275810D01*
X97343Y275709D01*
X97345Y275608D01*
X97352Y275587D01*
X97354Y275564D01*
X97393Y275472D01*
X97427Y275377D01*
X97441Y275359D01*
X97450Y275338D01*
X97555Y275207D01*
X99109Y273654D01*
X99182Y273601D01*
X99252Y273541D01*
X99282Y273529D01*
X99308Y273510D01*
X99395Y273483D01*
X99480Y273449D01*
X99521Y273445D01*
X99543Y273438D01*
X99576Y273439D01*
X99647Y273431D01*
X104356Y273431D01*
X105101Y272686D01*
X105101Y265634D01*
X104165Y264698D01*
X104154Y264682D01*
X104138Y264670D01*
X104109Y264624D01*
X104074Y264588D01*
X104053Y264543D01*
X104022Y264499D01*
X104016Y264480D01*
X104005Y264463D01*
X103992Y264410D01*
X103971Y264365D01*
X103965Y264315D01*
X103949Y264263D01*
X103950Y264244D01*
X103945Y264224D01*
X103949Y264170D01*
X103944Y264120D01*
X103954Y264071D01*
X103956Y264018D01*
X103963Y263999D01*
X103964Y263979D01*
X103985Y263930D01*
X103996Y263880D01*
X104022Y263836D01*
X104040Y263787D01*
X104053Y263771D01*
X104061Y263753D01*
X104106Y263696D01*
X104122Y263669D01*
X104140Y263654D01*
X104165Y263622D01*
X105101Y262686D01*
X105101Y261556D01*
X105104Y261537D01*
X105102Y261517D01*
X105124Y261416D01*
X105140Y261314D01*
X105150Y261296D01*
X105154Y261277D01*
X105207Y261188D01*
X105256Y261096D01*
X105270Y261083D01*
X105280Y261066D01*
X105359Y260998D01*
X105434Y260927D01*
X105452Y260919D01*
X105467Y260906D01*
X105563Y260867D01*
X105657Y260823D01*
X105677Y260821D01*
X105695Y260814D01*
X105862Y260795D01*
X123080Y260795D01*
X134057Y249818D01*
X134130Y249765D01*
X134200Y249706D01*
X134230Y249693D01*
X134256Y249675D01*
X134343Y249648D01*
X134428Y249614D01*
X134469Y249609D01*
X134491Y249602D01*
X134524Y249603D01*
X134595Y249595D01*
X135679Y249595D01*
X135699Y249598D01*
X135718Y249596D01*
X135820Y249618D01*
X135922Y249635D01*
X135939Y249644D01*
X135959Y249649D01*
X136048Y249702D01*
X136139Y249750D01*
X136153Y249764D01*
X136170Y249775D01*
X136237Y249853D01*
X136309Y249928D01*
X136317Y249946D01*
X136330Y249962D01*
X136369Y250058D01*
X136412Y250151D01*
X136414Y250171D01*
X136422Y250190D01*
X136440Y250356D01*
X136440Y251207D01*
X141067Y251207D01*
X141067Y247505D01*
X139231Y247505D01*
X139212Y247502D01*
X139192Y247504D01*
X139091Y247482D01*
X138989Y247466D01*
X138971Y247456D01*
X138952Y247452D01*
X138863Y247399D01*
X138771Y247350D01*
X138758Y247336D01*
X138741Y247326D01*
X138673Y247247D01*
X138602Y247172D01*
X138594Y247154D01*
X138581Y247139D01*
X138542Y247043D01*
X138498Y246949D01*
X138496Y246929D01*
X138489Y246911D01*
X138470Y246744D01*
X138470Y244599D01*
X137885Y244014D01*
X137843Y243956D01*
X137794Y243904D01*
X137772Y243857D01*
X137742Y243815D01*
X137721Y243746D01*
X137690Y243681D01*
X137685Y243629D01*
X137669Y243579D01*
X137671Y243508D01*
X137663Y243437D01*
X137674Y243386D01*
X137676Y243334D01*
X137700Y243266D01*
X137716Y243196D01*
X137742Y243151D01*
X137760Y243103D01*
X137805Y243047D01*
X137842Y242985D01*
X137881Y242951D01*
X137914Y242911D01*
X137974Y242872D01*
X138029Y242825D01*
X138077Y242806D01*
X138121Y242778D01*
X138190Y242760D01*
X138257Y242733D01*
X138328Y242725D01*
X138359Y242717D01*
X138383Y242719D01*
X138424Y242715D01*
X141067Y242715D01*
X141067Y238252D01*
X141068Y238243D01*
X141068Y238238D01*
X141070Y238229D01*
X141068Y238213D01*
X141090Y238111D01*
X141107Y238009D01*
X141116Y237992D01*
X141120Y237972D01*
X141173Y237883D01*
X141222Y237792D01*
X141236Y237778D01*
X141246Y237761D01*
X141325Y237694D01*
X141400Y237623D01*
X141418Y237614D01*
X141433Y237601D01*
X141529Y237562D01*
X141623Y237519D01*
X141643Y237517D01*
X141661Y237509D01*
X141828Y237491D01*
X143352Y237491D01*
X143372Y237494D01*
G37*
G36*
X66472Y87634D02*
X66472Y87634D01*
X66491Y87632D01*
X66593Y87654D01*
X66695Y87671D01*
X66712Y87680D01*
X66732Y87684D01*
X66821Y87737D01*
X66912Y87786D01*
X66926Y87800D01*
X66943Y87810D01*
X67010Y87889D01*
X67081Y87964D01*
X67090Y87982D01*
X67103Y87997D01*
X67142Y88093D01*
X67185Y88187D01*
X67187Y88207D01*
X67195Y88225D01*
X67213Y88392D01*
X67213Y92855D01*
X70231Y92855D01*
X70251Y92858D01*
X70270Y92856D01*
X70372Y92878D01*
X70474Y92894D01*
X70491Y92904D01*
X70511Y92908D01*
X70600Y92961D01*
X70691Y93010D01*
X70705Y93024D01*
X70722Y93034D01*
X70789Y93113D01*
X70861Y93188D01*
X70869Y93206D01*
X70882Y93221D01*
X70921Y93317D01*
X70964Y93411D01*
X70966Y93431D01*
X70974Y93449D01*
X70992Y93616D01*
X70992Y103618D01*
X70978Y103708D01*
X70970Y103799D01*
X70958Y103828D01*
X70953Y103860D01*
X70910Y103941D01*
X70874Y104025D01*
X70848Y104057D01*
X70837Y104078D01*
X70814Y104100D01*
X70769Y104156D01*
X60619Y114306D01*
X60545Y114359D01*
X60476Y114419D01*
X60445Y114431D01*
X60419Y114450D01*
X60332Y114477D01*
X60247Y114511D01*
X60206Y114515D01*
X60184Y114522D01*
X60152Y114521D01*
X60081Y114529D01*
X57299Y114529D01*
X57299Y118055D01*
X59119Y118055D01*
X59138Y118058D01*
X59158Y118056D01*
X59259Y118078D01*
X59361Y118094D01*
X59379Y118104D01*
X59398Y118108D01*
X59487Y118161D01*
X59579Y118210D01*
X59592Y118224D01*
X59609Y118234D01*
X59677Y118313D01*
X59748Y118388D01*
X59756Y118406D01*
X59769Y118421D01*
X59808Y118517D01*
X59852Y118611D01*
X59854Y118631D01*
X59861Y118649D01*
X59880Y118816D01*
X59880Y160838D01*
X59877Y160858D01*
X59879Y160877D01*
X59857Y160979D01*
X59840Y161081D01*
X59831Y161098D01*
X59826Y161118D01*
X59773Y161207D01*
X59725Y161298D01*
X59711Y161312D01*
X59700Y161329D01*
X59622Y161396D01*
X59547Y161468D01*
X59529Y161476D01*
X59513Y161489D01*
X59417Y161528D01*
X59324Y161571D01*
X59304Y161573D01*
X59285Y161581D01*
X59119Y161599D01*
X58356Y161599D01*
X58337Y161596D01*
X58317Y161598D01*
X58216Y161576D01*
X58114Y161560D01*
X58096Y161550D01*
X58077Y161546D01*
X57988Y161493D01*
X57896Y161444D01*
X57883Y161430D01*
X57866Y161420D01*
X57798Y161341D01*
X57727Y161266D01*
X57719Y161248D01*
X57706Y161233D01*
X57667Y161137D01*
X57623Y161043D01*
X57621Y161023D01*
X57614Y161005D01*
X57595Y160838D01*
X57595Y157359D01*
X57610Y157269D01*
X57617Y157178D01*
X57630Y157148D01*
X57635Y157116D01*
X57678Y157035D01*
X57713Y156951D01*
X57739Y156919D01*
X57750Y156899D01*
X57773Y156876D01*
X57818Y156820D01*
X58267Y156372D01*
X58267Y143518D01*
X57522Y142774D01*
X50378Y142774D01*
X49918Y143234D01*
X49902Y143245D01*
X49889Y143261D01*
X49802Y143317D01*
X49718Y143377D01*
X49699Y143383D01*
X49682Y143394D01*
X49582Y143419D01*
X49483Y143449D01*
X49463Y143449D01*
X49444Y143454D01*
X49341Y143446D01*
X49237Y143443D01*
X49218Y143436D01*
X49199Y143435D01*
X49104Y143394D01*
X49006Y143359D01*
X48991Y143346D01*
X48972Y143338D01*
X48841Y143234D01*
X48360Y142752D01*
X47799Y142520D01*
X45972Y142520D01*
X45972Y149184D01*
X45969Y149203D01*
X45971Y149223D01*
X45949Y149325D01*
X45933Y149427D01*
X45923Y149444D01*
X45919Y149464D01*
X45866Y149553D01*
X45817Y149644D01*
X45803Y149658D01*
X45793Y149675D01*
X45714Y149742D01*
X45639Y149813D01*
X45621Y149822D01*
X45606Y149835D01*
X45510Y149873D01*
X45416Y149917D01*
X45396Y149919D01*
X45378Y149927D01*
X45211Y149945D01*
X45231Y149948D01*
X45250Y149946D01*
X45352Y149968D01*
X45454Y149985D01*
X45471Y149994D01*
X45491Y149998D01*
X45580Y150051D01*
X45671Y150100D01*
X45685Y150114D01*
X45702Y150124D01*
X45769Y150203D01*
X45841Y150278D01*
X45849Y150296D01*
X45862Y150311D01*
X45901Y150408D01*
X45944Y150501D01*
X45946Y150521D01*
X45954Y150539D01*
X45972Y150706D01*
X45972Y157370D01*
X47799Y157370D01*
X48360Y157138D01*
X48841Y156656D01*
X48858Y156645D01*
X48870Y156629D01*
X48957Y156573D01*
X49041Y156513D01*
X49060Y156507D01*
X49077Y156496D01*
X49177Y156471D01*
X49276Y156441D01*
X49296Y156441D01*
X49315Y156436D01*
X49418Y156444D01*
X49522Y156447D01*
X49541Y156454D01*
X49561Y156455D01*
X49656Y156496D01*
X49753Y156531D01*
X49769Y156544D01*
X49787Y156552D01*
X49918Y156656D01*
X50378Y157116D01*
X52769Y157116D01*
X52788Y157119D01*
X52808Y157117D01*
X52909Y157139D01*
X53011Y157156D01*
X53029Y157165D01*
X53048Y157170D01*
X53137Y157223D01*
X53229Y157271D01*
X53242Y157285D01*
X53259Y157296D01*
X53327Y157374D01*
X53398Y157449D01*
X53406Y157467D01*
X53419Y157483D01*
X53458Y157579D01*
X53502Y157672D01*
X53504Y157692D01*
X53511Y157711D01*
X53530Y157877D01*
X53530Y160838D01*
X53527Y160858D01*
X53529Y160877D01*
X53507Y160979D01*
X53490Y161081D01*
X53481Y161098D01*
X53476Y161118D01*
X53423Y161207D01*
X53375Y161298D01*
X53361Y161312D01*
X53350Y161329D01*
X53272Y161396D01*
X53197Y161468D01*
X53179Y161476D01*
X53163Y161489D01*
X53067Y161528D01*
X52974Y161571D01*
X52954Y161573D01*
X52935Y161581D01*
X52769Y161599D01*
X52274Y161599D01*
X51338Y162535D01*
X51322Y162546D01*
X51310Y162562D01*
X51222Y162618D01*
X51139Y162678D01*
X51120Y162684D01*
X51103Y162695D01*
X51002Y162720D01*
X50903Y162751D01*
X50884Y162750D01*
X50864Y162755D01*
X50761Y162747D01*
X50658Y162744D01*
X50639Y162737D01*
X50619Y162736D01*
X50524Y162695D01*
X50427Y162660D01*
X50411Y162647D01*
X50393Y162639D01*
X50262Y162535D01*
X49326Y161599D01*
X42274Y161599D01*
X41529Y162344D01*
X41529Y166992D01*
X41518Y167062D01*
X41516Y167134D01*
X41498Y167183D01*
X41490Y167234D01*
X41456Y167298D01*
X41431Y167365D01*
X41399Y167406D01*
X41374Y167452D01*
X41323Y167501D01*
X41278Y167557D01*
X41234Y167585D01*
X41196Y167621D01*
X41131Y167651D01*
X41071Y167690D01*
X41020Y167703D01*
X40973Y167725D01*
X40902Y167733D01*
X40832Y167750D01*
X40780Y167746D01*
X40729Y167752D01*
X40658Y167737D01*
X40587Y167731D01*
X40539Y167711D01*
X40488Y167700D01*
X40427Y167663D01*
X40361Y167635D01*
X40305Y167590D01*
X40277Y167574D01*
X40262Y167556D01*
X40230Y167530D01*
X38768Y166068D01*
X38715Y165995D01*
X38656Y165925D01*
X38643Y165895D01*
X38625Y165869D01*
X38598Y165782D01*
X38564Y165697D01*
X38559Y165656D01*
X38552Y165634D01*
X38553Y165601D01*
X38545Y165530D01*
X38545Y157409D01*
X38560Y157319D01*
X38567Y157228D01*
X38580Y157198D01*
X38585Y157166D01*
X38628Y157085D01*
X38663Y157001D01*
X38689Y156969D01*
X38700Y156949D01*
X38723Y156926D01*
X38768Y156870D01*
X38982Y156656D01*
X38998Y156645D01*
X39011Y156629D01*
X39098Y156573D01*
X39182Y156513D01*
X39201Y156507D01*
X39218Y156496D01*
X39318Y156471D01*
X39417Y156441D01*
X39437Y156441D01*
X39456Y156436D01*
X39559Y156444D01*
X39663Y156447D01*
X39682Y156454D01*
X39701Y156455D01*
X39797Y156496D01*
X39894Y156531D01*
X39909Y156544D01*
X39928Y156552D01*
X40059Y156656D01*
X40540Y157138D01*
X41101Y157370D01*
X42928Y157370D01*
X42928Y150706D01*
X42929Y150698D01*
X42929Y150694D01*
X42931Y150685D01*
X42929Y150667D01*
X42951Y150565D01*
X42967Y150463D01*
X42977Y150446D01*
X42981Y150426D01*
X43034Y150337D01*
X43083Y150246D01*
X43097Y150232D01*
X43107Y150215D01*
X43186Y150148D01*
X43261Y150077D01*
X43279Y150068D01*
X43294Y150055D01*
X43390Y150017D01*
X43484Y149973D01*
X43504Y149971D01*
X43522Y149963D01*
X43689Y149945D01*
X43669Y149942D01*
X43649Y149944D01*
X43548Y149922D01*
X43446Y149905D01*
X43429Y149896D01*
X43409Y149892D01*
X43320Y149839D01*
X43229Y149790D01*
X43215Y149776D01*
X43198Y149766D01*
X43131Y149687D01*
X43059Y149612D01*
X43051Y149594D01*
X43038Y149579D01*
X42999Y149482D01*
X42956Y149389D01*
X42954Y149369D01*
X42946Y149351D01*
X42928Y149184D01*
X42928Y142520D01*
X41101Y142520D01*
X40540Y142752D01*
X40059Y143234D01*
X40042Y143245D01*
X40030Y143261D01*
X39943Y143317D01*
X39859Y143377D01*
X39840Y143383D01*
X39823Y143394D01*
X39723Y143419D01*
X39624Y143449D01*
X39604Y143449D01*
X39585Y143454D01*
X39482Y143446D01*
X39378Y143443D01*
X39359Y143436D01*
X39339Y143435D01*
X39244Y143394D01*
X39147Y143359D01*
X39131Y143346D01*
X39113Y143338D01*
X38982Y143234D01*
X38522Y142774D01*
X31369Y142774D01*
X31349Y142771D01*
X31330Y142773D01*
X31228Y142751D01*
X31126Y142734D01*
X31109Y142725D01*
X31089Y142720D01*
X31000Y142667D01*
X30909Y142619D01*
X30895Y142605D01*
X30878Y142594D01*
X30811Y142516D01*
X30739Y142441D01*
X30731Y142423D01*
X30718Y142407D01*
X30679Y142311D01*
X30636Y142218D01*
X30634Y142198D01*
X30626Y142179D01*
X30608Y142013D01*
X30608Y137682D01*
X30622Y137592D01*
X30630Y137501D01*
X30642Y137472D01*
X30647Y137440D01*
X30690Y137359D01*
X30726Y137275D01*
X30752Y137243D01*
X30763Y137222D01*
X30786Y137200D01*
X30831Y137144D01*
X31126Y136849D01*
X31199Y136796D01*
X31269Y136737D01*
X31299Y136724D01*
X31325Y136706D01*
X31412Y136679D01*
X31497Y136645D01*
X31538Y136640D01*
X31560Y136633D01*
X31593Y136634D01*
X31664Y136626D01*
X38522Y136626D01*
X39267Y135882D01*
X39267Y123028D01*
X38768Y122530D01*
X38715Y122456D01*
X38656Y122386D01*
X38643Y122356D01*
X38625Y122330D01*
X38598Y122243D01*
X38564Y122158D01*
X38559Y122117D01*
X38552Y122095D01*
X38553Y122063D01*
X38545Y121991D01*
X38545Y113870D01*
X38560Y113780D01*
X38567Y113689D01*
X38580Y113659D01*
X38585Y113627D01*
X38628Y113547D01*
X38663Y113463D01*
X38689Y113430D01*
X38700Y113410D01*
X38723Y113388D01*
X38768Y113332D01*
X40230Y111870D01*
X40288Y111828D01*
X40340Y111779D01*
X40387Y111757D01*
X40429Y111726D01*
X40498Y111705D01*
X40563Y111675D01*
X40615Y111669D01*
X40665Y111654D01*
X40736Y111656D01*
X40807Y111648D01*
X40858Y111659D01*
X40910Y111660D01*
X40978Y111685D01*
X41048Y111700D01*
X41093Y111727D01*
X41141Y111745D01*
X41197Y111790D01*
X41259Y111826D01*
X41293Y111866D01*
X41333Y111899D01*
X41372Y111959D01*
X41419Y112013D01*
X41438Y112062D01*
X41466Y112106D01*
X41484Y112175D01*
X41511Y112242D01*
X41519Y112313D01*
X41527Y112344D01*
X41525Y112367D01*
X41529Y112408D01*
X41529Y117056D01*
X42274Y117801D01*
X43244Y117801D01*
X43263Y117804D01*
X43283Y117802D01*
X43384Y117824D01*
X43486Y117840D01*
X43504Y117850D01*
X43523Y117854D01*
X43612Y117907D01*
X43704Y117956D01*
X43717Y117970D01*
X43734Y117980D01*
X43802Y118059D01*
X43873Y118134D01*
X43881Y118152D01*
X43894Y118167D01*
X43933Y118263D01*
X43977Y118357D01*
X43979Y118377D01*
X43986Y118395D01*
X44005Y118562D01*
X44005Y123080D01*
X49410Y128485D01*
X49463Y128559D01*
X49523Y128628D01*
X49535Y128659D01*
X49554Y128685D01*
X49581Y128772D01*
X49615Y128857D01*
X49619Y128898D01*
X49626Y128920D01*
X49625Y128952D01*
X49633Y129023D01*
X49633Y135882D01*
X50378Y136626D01*
X57522Y136626D01*
X58267Y135882D01*
X58267Y123028D01*
X57522Y122284D01*
X50378Y122284D01*
X50206Y122455D01*
X50190Y122467D01*
X50178Y122482D01*
X50091Y122538D01*
X50007Y122599D01*
X49988Y122604D01*
X49971Y122615D01*
X49871Y122641D01*
X49772Y122671D01*
X49752Y122670D01*
X49732Y122675D01*
X49629Y122667D01*
X49526Y122665D01*
X49507Y122658D01*
X49487Y122656D01*
X49392Y122616D01*
X49295Y122580D01*
X49279Y122568D01*
X49261Y122560D01*
X49130Y122455D01*
X48293Y121618D01*
X48240Y121544D01*
X48181Y121475D01*
X48169Y121445D01*
X48150Y121419D01*
X48123Y121332D01*
X48089Y121247D01*
X48084Y121206D01*
X48077Y121184D01*
X48078Y121151D01*
X48070Y121080D01*
X48070Y118562D01*
X48073Y118542D01*
X48071Y118523D01*
X48093Y118421D01*
X48110Y118319D01*
X48119Y118302D01*
X48124Y118282D01*
X48177Y118193D01*
X48225Y118102D01*
X48239Y118088D01*
X48250Y118071D01*
X48328Y118004D01*
X48403Y117932D01*
X48421Y117924D01*
X48437Y117911D01*
X48533Y117872D01*
X48626Y117829D01*
X48646Y117827D01*
X48665Y117819D01*
X48831Y117801D01*
X49326Y117801D01*
X50182Y116945D01*
X50219Y116918D01*
X50251Y116884D01*
X50319Y116847D01*
X50382Y116801D01*
X50426Y116788D01*
X50466Y116766D01*
X50543Y116752D01*
X50617Y116729D01*
X50663Y116730D01*
X50708Y116722D01*
X50785Y116733D01*
X50863Y116735D01*
X50906Y116751D01*
X50951Y116758D01*
X51021Y116793D01*
X51094Y116820D01*
X51130Y116848D01*
X51171Y116869D01*
X51225Y116925D01*
X51286Y116973D01*
X51311Y117012D01*
X51343Y117045D01*
X51409Y117165D01*
X51419Y117180D01*
X51420Y117185D01*
X51424Y117192D01*
X51507Y117394D01*
X51936Y117823D01*
X52497Y118055D01*
X54301Y118055D01*
X54301Y113768D01*
X54304Y113749D01*
X54302Y113729D01*
X54324Y113627D01*
X54340Y113525D01*
X54350Y113508D01*
X54354Y113488D01*
X54407Y113399D01*
X54456Y113308D01*
X54470Y113294D01*
X54480Y113277D01*
X54559Y113210D01*
X54634Y113139D01*
X54652Y113130D01*
X54667Y113117D01*
X54763Y113079D01*
X54857Y113035D01*
X54877Y113033D01*
X54895Y113026D01*
X54819Y113013D01*
X54802Y113004D01*
X54782Y113000D01*
X54693Y112947D01*
X54602Y112898D01*
X54588Y112884D01*
X54571Y112874D01*
X54504Y112795D01*
X54432Y112720D01*
X54424Y112702D01*
X54411Y112687D01*
X54372Y112590D01*
X54329Y112497D01*
X54327Y112477D01*
X54319Y112459D01*
X54301Y112292D01*
X54301Y108005D01*
X52497Y108005D01*
X51936Y108237D01*
X51507Y108666D01*
X51424Y108868D01*
X51400Y108907D01*
X51384Y108950D01*
X51335Y109011D01*
X51294Y109077D01*
X51259Y109106D01*
X51230Y109142D01*
X51165Y109184D01*
X51105Y109234D01*
X51062Y109251D01*
X51023Y109275D01*
X50948Y109294D01*
X50875Y109322D01*
X50829Y109324D01*
X50785Y109335D01*
X50707Y109329D01*
X50629Y109333D01*
X50585Y109320D01*
X50539Y109316D01*
X50468Y109286D01*
X50393Y109264D01*
X50355Y109238D01*
X50313Y109220D01*
X50206Y109135D01*
X50191Y109124D01*
X50188Y109120D01*
X50182Y109115D01*
X49326Y108259D01*
X45656Y108259D01*
X45637Y108256D01*
X45617Y108258D01*
X45516Y108236D01*
X45414Y108220D01*
X45396Y108210D01*
X45377Y108206D01*
X45288Y108153D01*
X45196Y108104D01*
X45183Y108090D01*
X45166Y108080D01*
X45098Y108001D01*
X45027Y107926D01*
X45019Y107908D01*
X45006Y107893D01*
X44967Y107797D01*
X44923Y107703D01*
X44921Y107683D01*
X44914Y107665D01*
X44895Y107498D01*
X44895Y106062D01*
X44898Y106042D01*
X44896Y106023D01*
X44918Y105921D01*
X44935Y105819D01*
X44944Y105802D01*
X44949Y105782D01*
X45002Y105693D01*
X45050Y105602D01*
X45064Y105588D01*
X45075Y105571D01*
X45153Y105504D01*
X45228Y105432D01*
X45246Y105424D01*
X45262Y105411D01*
X45358Y105372D01*
X45451Y105329D01*
X45471Y105327D01*
X45490Y105319D01*
X45656Y105301D01*
X48681Y105301D01*
X48812Y105170D01*
X48828Y105158D01*
X48841Y105143D01*
X48928Y105087D01*
X49012Y105026D01*
X49031Y105021D01*
X49048Y105010D01*
X49148Y104985D01*
X49247Y104954D01*
X49267Y104955D01*
X49286Y104950D01*
X49389Y104958D01*
X49493Y104960D01*
X49512Y104967D01*
X49531Y104969D01*
X49627Y105009D01*
X49724Y105045D01*
X49739Y105057D01*
X49758Y105065D01*
X49889Y105170D01*
X50041Y105323D01*
X50602Y105555D01*
X54007Y105555D01*
X54007Y101092D01*
X54010Y101072D01*
X54008Y101053D01*
X54030Y100951D01*
X54047Y100849D01*
X54056Y100832D01*
X54060Y100812D01*
X54113Y100723D01*
X54162Y100632D01*
X54176Y100618D01*
X54186Y100601D01*
X54265Y100534D01*
X54340Y100463D01*
X54358Y100454D01*
X54373Y100441D01*
X54469Y100402D01*
X54563Y100359D01*
X54583Y100357D01*
X54601Y100349D01*
X54768Y100331D01*
X55531Y100331D01*
X55531Y100329D01*
X54768Y100329D01*
X54748Y100326D01*
X54729Y100328D01*
X54627Y100306D01*
X54525Y100289D01*
X54508Y100280D01*
X54488Y100276D01*
X54399Y100223D01*
X54308Y100174D01*
X54294Y100160D01*
X54277Y100150D01*
X54210Y100071D01*
X54139Y99996D01*
X54130Y99978D01*
X54117Y99963D01*
X54078Y99867D01*
X54035Y99773D01*
X54033Y99753D01*
X54025Y99735D01*
X54007Y99568D01*
X54007Y95105D01*
X50895Y95105D01*
X50824Y95094D01*
X50752Y95092D01*
X50703Y95074D01*
X50652Y95066D01*
X50589Y95032D01*
X50521Y95007D01*
X50481Y94975D01*
X50435Y94950D01*
X50385Y94898D01*
X50329Y94854D01*
X50301Y94810D01*
X50265Y94772D01*
X50235Y94707D01*
X50196Y94647D01*
X50184Y94596D01*
X50162Y94549D01*
X50154Y94478D01*
X50136Y94408D01*
X50140Y94356D01*
X50135Y94305D01*
X50150Y94234D01*
X50155Y94163D01*
X50176Y94115D01*
X50187Y94064D01*
X50224Y94003D01*
X50252Y93937D01*
X50296Y93881D01*
X50313Y93853D01*
X50331Y93838D01*
X50356Y93806D01*
X51339Y92824D01*
X51413Y92771D01*
X51482Y92711D01*
X51512Y92699D01*
X51538Y92680D01*
X51625Y92653D01*
X51710Y92619D01*
X51751Y92615D01*
X51773Y92608D01*
X51806Y92609D01*
X51877Y92601D01*
X58841Y92601D01*
X58972Y92470D01*
X58988Y92458D01*
X59001Y92443D01*
X59088Y92387D01*
X59172Y92326D01*
X59191Y92321D01*
X59208Y92310D01*
X59308Y92285D01*
X59407Y92254D01*
X59427Y92255D01*
X59446Y92250D01*
X59549Y92258D01*
X59653Y92260D01*
X59672Y92267D01*
X59691Y92269D01*
X59787Y92309D01*
X59884Y92345D01*
X59899Y92357D01*
X59918Y92365D01*
X60049Y92470D01*
X60201Y92623D01*
X60762Y92855D01*
X64167Y92855D01*
X64167Y88392D01*
X64170Y88372D01*
X64168Y88353D01*
X64190Y88251D01*
X64207Y88149D01*
X64216Y88132D01*
X64220Y88112D01*
X64273Y88023D01*
X64322Y87932D01*
X64336Y87918D01*
X64346Y87901D01*
X64425Y87834D01*
X64500Y87763D01*
X64518Y87754D01*
X64533Y87741D01*
X64629Y87702D01*
X64723Y87659D01*
X64743Y87657D01*
X64761Y87649D01*
X64928Y87631D01*
X66452Y87631D01*
X66472Y87634D01*
G37*
G36*
X150078Y97689D02*
X150078Y97689D01*
X150130Y97690D01*
X150198Y97715D01*
X150268Y97730D01*
X150313Y97757D01*
X150361Y97775D01*
X150417Y97820D01*
X150479Y97856D01*
X150513Y97896D01*
X150553Y97929D01*
X150592Y97989D01*
X150639Y98043D01*
X150658Y98092D01*
X150686Y98136D01*
X150704Y98205D01*
X150731Y98272D01*
X150739Y98343D01*
X150747Y98374D01*
X150745Y98397D01*
X150749Y98438D01*
X150749Y104356D01*
X151494Y105101D01*
X155886Y105101D01*
X155976Y105115D01*
X156067Y105123D01*
X156096Y105135D01*
X156128Y105140D01*
X156209Y105183D01*
X156293Y105219D01*
X156325Y105245D01*
X156346Y105256D01*
X156368Y105279D01*
X156424Y105324D01*
X172906Y121806D01*
X172959Y121880D01*
X173019Y121949D01*
X173031Y121980D01*
X173050Y122006D01*
X173077Y122093D01*
X173111Y122178D01*
X173115Y122219D01*
X173122Y122241D01*
X173121Y122273D01*
X173129Y122344D01*
X173129Y130556D01*
X173126Y130576D01*
X173128Y130595D01*
X173106Y130697D01*
X173090Y130799D01*
X173080Y130816D01*
X173076Y130836D01*
X173023Y130925D01*
X172974Y131016D01*
X172960Y131030D01*
X172950Y131047D01*
X172871Y131114D01*
X172796Y131186D01*
X172778Y131194D01*
X172763Y131207D01*
X172667Y131246D01*
X172573Y131289D01*
X172553Y131291D01*
X172535Y131299D01*
X172368Y131317D01*
X136629Y131317D01*
X136539Y131303D01*
X136448Y131295D01*
X136418Y131283D01*
X136386Y131278D01*
X136305Y131235D01*
X136221Y131199D01*
X136189Y131173D01*
X136169Y131162D01*
X136146Y131139D01*
X136090Y131094D01*
X134813Y129817D01*
X132432Y129817D01*
X132412Y129814D01*
X132393Y129816D01*
X132291Y129794D01*
X132189Y129778D01*
X132172Y129768D01*
X132152Y129764D01*
X132063Y129711D01*
X131972Y129662D01*
X131958Y129648D01*
X131941Y129638D01*
X131874Y129559D01*
X131802Y129484D01*
X131794Y129466D01*
X131781Y129451D01*
X131742Y129355D01*
X131699Y129261D01*
X131697Y129241D01*
X131689Y129223D01*
X131671Y129056D01*
X131671Y117582D01*
X131685Y117492D01*
X131693Y117401D01*
X131705Y117371D01*
X131710Y117339D01*
X131753Y117258D01*
X131789Y117175D01*
X131815Y117142D01*
X131826Y117122D01*
X131849Y117100D01*
X131894Y117044D01*
X143614Y105324D01*
X143687Y105271D01*
X143757Y105211D01*
X143787Y105199D01*
X143813Y105180D01*
X143900Y105153D01*
X143985Y105119D01*
X144026Y105115D01*
X144048Y105108D01*
X144081Y105109D01*
X144152Y105101D01*
X147526Y105101D01*
X148271Y104356D01*
X148271Y99394D01*
X148285Y99304D01*
X148293Y99213D01*
X148305Y99183D01*
X148310Y99152D01*
X148353Y99071D01*
X148389Y98987D01*
X148415Y98955D01*
X148426Y98934D01*
X148449Y98912D01*
X148494Y98856D01*
X149450Y97900D01*
X149508Y97858D01*
X149560Y97809D01*
X149607Y97787D01*
X149649Y97756D01*
X149718Y97735D01*
X149783Y97705D01*
X149835Y97699D01*
X149885Y97684D01*
X149956Y97686D01*
X150027Y97678D01*
X150078Y97689D01*
G37*
G36*
X135750Y198276D02*
X135750Y198276D01*
X135802Y198277D01*
X135870Y198302D01*
X135940Y198317D01*
X135985Y198344D01*
X136033Y198362D01*
X136089Y198407D01*
X136151Y198443D01*
X136185Y198483D01*
X136225Y198515D01*
X136264Y198576D01*
X136311Y198630D01*
X136330Y198679D01*
X136358Y198722D01*
X136376Y198792D01*
X136403Y198858D01*
X136411Y198930D01*
X136419Y198961D01*
X136417Y198984D01*
X136421Y199025D01*
X136421Y200599D01*
X138491Y202669D01*
X141439Y202669D01*
X141504Y202613D01*
X141534Y202600D01*
X141561Y202582D01*
X141648Y202555D01*
X141732Y202521D01*
X141773Y202516D01*
X141796Y202509D01*
X141828Y202510D01*
X141899Y202502D01*
X146566Y202502D01*
X146656Y202517D01*
X146747Y202524D01*
X146776Y202537D01*
X146808Y202542D01*
X146889Y202585D01*
X146973Y202620D01*
X147005Y202646D01*
X147026Y202657D01*
X147048Y202680D01*
X147104Y202725D01*
X147254Y202876D01*
X147296Y202934D01*
X147346Y202986D01*
X147368Y203033D01*
X147398Y203075D01*
X147419Y203144D01*
X147449Y203209D01*
X147455Y203261D01*
X147470Y203311D01*
X147468Y203382D01*
X147476Y203453D01*
X147465Y203504D01*
X147464Y203556D01*
X147439Y203624D01*
X147424Y203694D01*
X147397Y203738D01*
X147379Y203787D01*
X147335Y203843D01*
X147298Y203905D01*
X147258Y203939D01*
X147226Y203979D01*
X147165Y204018D01*
X147111Y204065D01*
X147063Y204084D01*
X147019Y204112D01*
X146949Y204130D01*
X146883Y204157D01*
X146811Y204165D01*
X146780Y204173D01*
X146757Y204171D01*
X146716Y204175D01*
X145817Y204175D01*
X145256Y204407D01*
X144827Y204836D01*
X144595Y205397D01*
X144595Y206189D01*
X148495Y206189D01*
X148514Y206192D01*
X148534Y206190D01*
X148635Y206212D01*
X148737Y206228D01*
X148755Y206238D01*
X148774Y206242D01*
X148864Y206295D01*
X148955Y206343D01*
X148968Y206358D01*
X148986Y206368D01*
X148986Y206369D01*
X149053Y206447D01*
X149094Y206490D01*
X149125Y206522D01*
X149133Y206540D01*
X149146Y206555D01*
X149185Y206652D01*
X149228Y206745D01*
X149230Y206765D01*
X149238Y206784D01*
X149256Y206950D01*
X149256Y211189D01*
X152395Y211189D01*
X152395Y210397D01*
X152299Y210167D01*
X152277Y210072D01*
X152249Y209979D01*
X152249Y209953D01*
X152243Y209927D01*
X152252Y209830D01*
X152255Y209733D01*
X152264Y209708D01*
X152266Y209682D01*
X152306Y209593D01*
X152339Y209502D01*
X152356Y209482D01*
X152366Y209458D01*
X152432Y209386D01*
X152493Y209310D01*
X152515Y209296D01*
X152533Y209276D01*
X152618Y209230D01*
X152700Y209177D01*
X152725Y209170D01*
X152748Y209158D01*
X152844Y209141D01*
X152939Y209117D01*
X152965Y209119D01*
X152990Y209114D01*
X153087Y209128D01*
X153184Y209136D01*
X153208Y209146D01*
X153234Y209150D01*
X153320Y209194D01*
X153410Y209232D01*
X153436Y209253D01*
X153453Y209261D01*
X153476Y209285D01*
X153541Y209337D01*
X154112Y209908D01*
X157038Y209908D01*
X159108Y207838D01*
X159108Y204732D01*
X159111Y204712D01*
X159109Y204693D01*
X159131Y204591D01*
X159147Y204489D01*
X159157Y204472D01*
X159161Y204452D01*
X159214Y204363D01*
X159263Y204272D01*
X159277Y204258D01*
X159287Y204241D01*
X159366Y204174D01*
X159441Y204102D01*
X159459Y204094D01*
X159474Y204081D01*
X159570Y204042D01*
X159664Y203999D01*
X159684Y203997D01*
X159702Y203989D01*
X159869Y203971D01*
X161896Y203971D01*
X162082Y203785D01*
X162098Y203774D01*
X162110Y203758D01*
X162198Y203702D01*
X162281Y203642D01*
X162300Y203636D01*
X162317Y203625D01*
X162418Y203600D01*
X162516Y203569D01*
X162536Y203570D01*
X162556Y203565D01*
X162659Y203573D01*
X162762Y203576D01*
X162781Y203583D01*
X162801Y203584D01*
X162896Y203625D01*
X162993Y203660D01*
X163009Y203673D01*
X163027Y203680D01*
X163158Y203785D01*
X163285Y203912D01*
X163296Y203928D01*
X163312Y203940D01*
X163368Y204028D01*
X163428Y204111D01*
X163434Y204130D01*
X163445Y204147D01*
X163470Y204247D01*
X163501Y204346D01*
X163500Y204366D01*
X163505Y204386D01*
X163497Y204489D01*
X163494Y204592D01*
X163487Y204611D01*
X163486Y204631D01*
X163445Y204726D01*
X163410Y204823D01*
X163397Y204839D01*
X163389Y204857D01*
X163285Y204988D01*
X163099Y205174D01*
X163099Y208726D01*
X163285Y208912D01*
X163296Y208928D01*
X163312Y208940D01*
X163368Y209028D01*
X163428Y209111D01*
X163434Y209130D01*
X163445Y209147D01*
X163470Y209248D01*
X163501Y209346D01*
X163500Y209366D01*
X163505Y209386D01*
X163497Y209489D01*
X163494Y209592D01*
X163487Y209611D01*
X163486Y209631D01*
X163445Y209726D01*
X163410Y209823D01*
X163397Y209839D01*
X163389Y209857D01*
X163285Y209988D01*
X163099Y210174D01*
X163099Y213726D01*
X163285Y213912D01*
X163296Y213928D01*
X163312Y213940D01*
X163368Y214028D01*
X163428Y214111D01*
X163434Y214130D01*
X163445Y214147D01*
X163470Y214248D01*
X163501Y214346D01*
X163500Y214366D01*
X163505Y214386D01*
X163497Y214489D01*
X163494Y214592D01*
X163487Y214611D01*
X163486Y214631D01*
X163445Y214726D01*
X163410Y214823D01*
X163397Y214839D01*
X163389Y214857D01*
X163285Y214988D01*
X163099Y215174D01*
X163099Y218726D01*
X163285Y218912D01*
X163296Y218928D01*
X163312Y218940D01*
X163368Y219028D01*
X163428Y219111D01*
X163434Y219130D01*
X163445Y219147D01*
X163470Y219248D01*
X163501Y219346D01*
X163500Y219366D01*
X163505Y219386D01*
X163497Y219489D01*
X163494Y219592D01*
X163487Y219611D01*
X163486Y219631D01*
X163445Y219726D01*
X163410Y219823D01*
X163397Y219839D01*
X163390Y219857D01*
X163285Y219988D01*
X163158Y220115D01*
X163142Y220126D01*
X163130Y220142D01*
X163042Y220198D01*
X162959Y220258D01*
X162940Y220264D01*
X162923Y220275D01*
X162823Y220300D01*
X162724Y220331D01*
X162704Y220330D01*
X162684Y220335D01*
X162581Y220327D01*
X162478Y220324D01*
X162459Y220317D01*
X162439Y220316D01*
X162344Y220275D01*
X162247Y220240D01*
X162231Y220227D01*
X162213Y220219D01*
X162082Y220115D01*
X161896Y219929D01*
X158344Y219929D01*
X158158Y220115D01*
X158142Y220126D01*
X158130Y220142D01*
X158042Y220198D01*
X157959Y220258D01*
X157940Y220264D01*
X157923Y220275D01*
X157822Y220300D01*
X157724Y220331D01*
X157704Y220330D01*
X157684Y220335D01*
X157581Y220327D01*
X157478Y220324D01*
X157459Y220317D01*
X157439Y220316D01*
X157344Y220275D01*
X157247Y220240D01*
X157231Y220227D01*
X157213Y220219D01*
X157082Y220115D01*
X156832Y219865D01*
X156798Y219847D01*
X156714Y219811D01*
X156681Y219785D01*
X156661Y219774D01*
X156639Y219751D01*
X156583Y219706D01*
X155791Y218915D01*
X152364Y215487D01*
X152311Y215413D01*
X152251Y215344D01*
X152239Y215314D01*
X152220Y215288D01*
X152205Y215238D01*
X152135Y215168D01*
X152123Y215152D01*
X152108Y215139D01*
X152052Y215052D01*
X151991Y214968D01*
X151986Y214949D01*
X151975Y214932D01*
X151950Y214832D01*
X151919Y214733D01*
X151920Y214713D01*
X151915Y214694D01*
X151923Y214591D01*
X151925Y214487D01*
X151932Y214468D01*
X151934Y214449D01*
X151974Y214353D01*
X152010Y214256D01*
X152022Y214241D01*
X152030Y214222D01*
X152135Y214091D01*
X152163Y214064D01*
X152395Y213503D01*
X152395Y212711D01*
X148495Y212711D01*
X144595Y212711D01*
X144595Y213503D01*
X144827Y214064D01*
X144855Y214091D01*
X144867Y214107D01*
X144882Y214120D01*
X144938Y214207D01*
X144999Y214291D01*
X145004Y214310D01*
X145015Y214327D01*
X145040Y214427D01*
X145071Y214526D01*
X145070Y214546D01*
X145075Y214565D01*
X145067Y214668D01*
X145065Y214772D01*
X145058Y214791D01*
X145056Y214811D01*
X145016Y214906D01*
X144980Y215003D01*
X144968Y215019D01*
X144960Y215037D01*
X144855Y215168D01*
X144849Y215174D01*
X144849Y218726D01*
X145041Y218918D01*
X145082Y218976D01*
X145132Y219028D01*
X145154Y219075D01*
X145184Y219117D01*
X145205Y219186D01*
X145236Y219251D01*
X145241Y219303D01*
X145257Y219353D01*
X145255Y219424D01*
X145263Y219495D01*
X145252Y219546D01*
X145250Y219598D01*
X145226Y219666D01*
X145210Y219736D01*
X145184Y219781D01*
X145166Y219829D01*
X145121Y219885D01*
X145084Y219947D01*
X145045Y219981D01*
X145012Y220021D01*
X144952Y220060D01*
X144897Y220107D01*
X144849Y220126D01*
X144805Y220154D01*
X144736Y220172D01*
X144669Y220199D01*
X144598Y220207D01*
X144567Y220215D01*
X144543Y220213D01*
X144502Y220217D01*
X120754Y220217D01*
X120664Y220203D01*
X120573Y220195D01*
X120543Y220183D01*
X120511Y220178D01*
X120430Y220135D01*
X120346Y220099D01*
X120314Y220073D01*
X120294Y220062D01*
X120271Y220039D01*
X120215Y219994D01*
X118774Y218553D01*
X118762Y218536D01*
X118746Y218524D01*
X118690Y218437D01*
X118630Y218353D01*
X118624Y218334D01*
X118613Y218317D01*
X118588Y218217D01*
X118558Y218118D01*
X118558Y218098D01*
X118553Y218079D01*
X118561Y217976D01*
X118564Y217872D01*
X118571Y217853D01*
X118573Y217833D01*
X118613Y217739D01*
X118649Y217641D01*
X118661Y217625D01*
X118669Y217607D01*
X118774Y217476D01*
X133795Y202455D01*
X133795Y200129D01*
X133810Y200039D01*
X133817Y199948D01*
X133830Y199918D01*
X133835Y199886D01*
X133878Y199805D01*
X133913Y199721D01*
X133939Y199689D01*
X133950Y199669D01*
X133973Y199646D01*
X134018Y199590D01*
X135122Y198487D01*
X135180Y198445D01*
X135232Y198396D01*
X135279Y198374D01*
X135321Y198343D01*
X135390Y198322D01*
X135455Y198292D01*
X135507Y198286D01*
X135557Y198271D01*
X135628Y198273D01*
X135699Y198265D01*
X135750Y198276D01*
G37*
G36*
X129076Y131694D02*
X129076Y131694D01*
X129095Y131692D01*
X129197Y131714D01*
X129299Y131730D01*
X129316Y131740D01*
X129336Y131744D01*
X129425Y131797D01*
X129516Y131846D01*
X129530Y131860D01*
X129547Y131870D01*
X129614Y131949D01*
X129686Y132024D01*
X129694Y132042D01*
X129707Y132057D01*
X129746Y132153D01*
X129789Y132247D01*
X129791Y132267D01*
X129799Y132285D01*
X129817Y132452D01*
X129817Y134813D01*
X129975Y134971D01*
X130017Y135029D01*
X130066Y135081D01*
X130088Y135128D01*
X130118Y135170D01*
X130139Y135239D01*
X130170Y135304D01*
X130175Y135356D01*
X130191Y135406D01*
X130189Y135477D01*
X130197Y135548D01*
X130186Y135599D01*
X130184Y135651D01*
X130160Y135719D01*
X130144Y135789D01*
X130118Y135834D01*
X130100Y135882D01*
X130055Y135938D01*
X130018Y136000D01*
X129979Y136034D01*
X129946Y136074D01*
X129886Y136113D01*
X129831Y136160D01*
X129783Y136179D01*
X129739Y136207D01*
X129670Y136225D01*
X129603Y136252D01*
X129532Y136260D01*
X129501Y136268D01*
X129477Y136266D01*
X129436Y136270D01*
X125707Y136270D01*
X125617Y136256D01*
X125526Y136248D01*
X125496Y136236D01*
X125464Y136231D01*
X125383Y136188D01*
X125299Y136152D01*
X125267Y136126D01*
X125247Y136115D01*
X125246Y136115D01*
X125224Y136092D01*
X125168Y136047D01*
X123701Y134580D01*
X120774Y134580D01*
X118705Y136649D01*
X118705Y139576D01*
X120774Y141645D01*
X123701Y141645D01*
X124787Y140559D01*
X124861Y140506D01*
X124931Y140446D01*
X124961Y140434D01*
X124987Y140415D01*
X125074Y140388D01*
X125159Y140354D01*
X125200Y140350D01*
X125222Y140343D01*
X125254Y140344D01*
X125326Y140336D01*
X142035Y140336D01*
X142125Y140350D01*
X142216Y140358D01*
X142246Y140370D01*
X142278Y140375D01*
X142359Y140418D01*
X142442Y140454D01*
X142475Y140480D01*
X142495Y140491D01*
X142517Y140514D01*
X142573Y140559D01*
X146637Y144622D01*
X155710Y144622D01*
X156574Y143758D01*
X156648Y143705D01*
X156718Y143645D01*
X156748Y143633D01*
X156774Y143614D01*
X156861Y143587D01*
X156946Y143553D01*
X156987Y143549D01*
X157009Y143542D01*
X157041Y143543D01*
X157113Y143535D01*
X159395Y143535D01*
X159485Y143549D01*
X159576Y143557D01*
X159605Y143569D01*
X159637Y143574D01*
X159718Y143617D01*
X159802Y143653D01*
X159834Y143679D01*
X159855Y143690D01*
X159877Y143713D01*
X159933Y143758D01*
X161718Y145543D01*
X171657Y145543D01*
X172968Y144232D01*
X173026Y144190D01*
X173078Y144141D01*
X173125Y144119D01*
X173167Y144088D01*
X173236Y144067D01*
X173301Y144037D01*
X173353Y144031D01*
X173403Y144016D01*
X173474Y144018D01*
X173545Y144010D01*
X173596Y144021D01*
X173648Y144022D01*
X173716Y144047D01*
X173786Y144062D01*
X173831Y144089D01*
X173879Y144107D01*
X173935Y144152D01*
X173997Y144188D01*
X174031Y144228D01*
X174071Y144261D01*
X174110Y144321D01*
X174157Y144375D01*
X174176Y144424D01*
X174204Y144468D01*
X174222Y144537D01*
X174249Y144604D01*
X174257Y144675D01*
X174265Y144706D01*
X174263Y144729D01*
X174267Y144770D01*
X174267Y146393D01*
X174253Y146483D01*
X174245Y146574D01*
X174233Y146603D01*
X174228Y146635D01*
X174185Y146716D01*
X174149Y146800D01*
X174123Y146832D01*
X174112Y146853D01*
X174089Y146875D01*
X174044Y146931D01*
X172199Y148776D01*
X172125Y148829D01*
X172056Y148889D01*
X172025Y148901D01*
X171999Y148920D01*
X171912Y148947D01*
X171827Y148981D01*
X171786Y148985D01*
X171764Y148992D01*
X171732Y148991D01*
X171661Y148999D01*
X153874Y148999D01*
X152938Y149935D01*
X152922Y149946D01*
X152910Y149962D01*
X152822Y150018D01*
X152739Y150078D01*
X152720Y150084D01*
X152703Y150095D01*
X152602Y150120D01*
X152503Y150151D01*
X152484Y150150D01*
X152464Y150155D01*
X152361Y150147D01*
X152258Y150144D01*
X152239Y150137D01*
X152219Y150136D01*
X152124Y150095D01*
X152027Y150060D01*
X152011Y150047D01*
X151993Y150039D01*
X151862Y149935D01*
X150926Y148999D01*
X125874Y148999D01*
X125129Y149744D01*
X125129Y150114D01*
X125126Y150134D01*
X125128Y150153D01*
X125106Y150255D01*
X125090Y150357D01*
X125080Y150374D01*
X125076Y150394D01*
X125023Y150483D01*
X124974Y150574D01*
X124960Y150588D01*
X124950Y150605D01*
X124871Y150672D01*
X124796Y150744D01*
X124778Y150752D01*
X124763Y150765D01*
X124667Y150804D01*
X124573Y150847D01*
X124553Y150849D01*
X124535Y150857D01*
X124368Y150875D01*
X122823Y150875D01*
X122733Y150861D01*
X122642Y150853D01*
X122613Y150841D01*
X122581Y150836D01*
X122500Y150793D01*
X122416Y150757D01*
X122384Y150731D01*
X122363Y150720D01*
X122341Y150697D01*
X122285Y150652D01*
X115032Y143399D01*
X114979Y143325D01*
X114919Y143256D01*
X114907Y143225D01*
X114888Y143199D01*
X114861Y143112D01*
X114827Y143027D01*
X114823Y142986D01*
X114816Y142964D01*
X114817Y142932D01*
X114809Y142861D01*
X114809Y132452D01*
X114811Y132437D01*
X114810Y132424D01*
X114811Y132420D01*
X114810Y132413D01*
X114832Y132311D01*
X114848Y132209D01*
X114858Y132192D01*
X114862Y132172D01*
X114915Y132083D01*
X114964Y131992D01*
X114978Y131978D01*
X114988Y131961D01*
X115067Y131894D01*
X115142Y131822D01*
X115160Y131814D01*
X115175Y131801D01*
X115271Y131762D01*
X115365Y131719D01*
X115385Y131717D01*
X115403Y131709D01*
X115570Y131691D01*
X129056Y131691D01*
X129076Y131694D01*
G37*
G36*
X172754Y28844D02*
X172754Y28844D01*
X172845Y28852D01*
X172875Y28864D01*
X172907Y28869D01*
X172987Y28912D01*
X173071Y28948D01*
X173103Y28974D01*
X173124Y28985D01*
X173146Y29008D01*
X173202Y29053D01*
X194602Y50452D01*
X194613Y50468D01*
X194629Y50481D01*
X194685Y50568D01*
X194745Y50652D01*
X194751Y50671D01*
X194762Y50688D01*
X194787Y50788D01*
X194818Y50887D01*
X194817Y50907D01*
X194822Y50926D01*
X194814Y51029D01*
X194811Y51133D01*
X194804Y51152D01*
X194803Y51172D01*
X194763Y51266D01*
X194727Y51364D01*
X194714Y51380D01*
X194707Y51398D01*
X194631Y51492D01*
X194626Y51501D01*
X194620Y51505D01*
X194602Y51529D01*
X192062Y54069D01*
X190872Y55258D01*
X190798Y55311D01*
X190729Y55371D01*
X190699Y55383D01*
X190673Y55402D01*
X190586Y55429D01*
X190501Y55463D01*
X190460Y55467D01*
X190437Y55474D01*
X190405Y55473D01*
X190334Y55481D01*
X187731Y55481D01*
X186986Y56226D01*
X186986Y63379D01*
X186972Y63469D01*
X186964Y63560D01*
X186952Y63590D01*
X186947Y63622D01*
X186904Y63703D01*
X186868Y63786D01*
X186842Y63819D01*
X186831Y63839D01*
X186808Y63861D01*
X186763Y63917D01*
X185880Y64800D01*
X185807Y64853D01*
X185737Y64913D01*
X185707Y64925D01*
X185681Y64944D01*
X185594Y64971D01*
X185509Y65005D01*
X185468Y65009D01*
X185446Y65016D01*
X185413Y65015D01*
X185342Y65023D01*
X182259Y65023D01*
X182169Y65009D01*
X182078Y65001D01*
X182049Y64989D01*
X182017Y64984D01*
X181936Y64941D01*
X181852Y64905D01*
X181820Y64879D01*
X181799Y64868D01*
X181777Y64845D01*
X181721Y64800D01*
X179841Y62920D01*
X179815Y62884D01*
X179783Y62855D01*
X179744Y62785D01*
X179697Y62720D01*
X179684Y62678D01*
X179663Y62640D01*
X179648Y62561D01*
X179625Y62485D01*
X179626Y62441D01*
X179618Y62398D01*
X179629Y62319D01*
X179631Y62239D01*
X179646Y62198D01*
X179652Y62155D01*
X179711Y62021D01*
X179715Y62008D01*
X179718Y62005D01*
X179720Y62001D01*
X179845Y61783D01*
X179913Y61531D01*
X174446Y61531D01*
X174427Y61528D01*
X174407Y61530D01*
X174306Y61508D01*
X174204Y61492D01*
X174186Y61482D01*
X174167Y61478D01*
X174077Y61425D01*
X173986Y61377D01*
X173986Y61376D01*
X173972Y61362D01*
X173955Y61352D01*
X173955Y61351D01*
X173888Y61273D01*
X173816Y61198D01*
X173808Y61180D01*
X173795Y61165D01*
X173756Y61068D01*
X173713Y60975D01*
X173711Y60955D01*
X173703Y60936D01*
X173685Y60770D01*
X173685Y56770D01*
X173688Y56751D01*
X173686Y56731D01*
X173708Y56630D01*
X173724Y56528D01*
X173734Y56510D01*
X173738Y56491D01*
X173791Y56401D01*
X173839Y56310D01*
X173840Y56310D01*
X173854Y56296D01*
X173864Y56279D01*
X173865Y56279D01*
X173943Y56212D01*
X174018Y56140D01*
X174036Y56132D01*
X174051Y56119D01*
X174148Y56080D01*
X174241Y56037D01*
X174261Y56035D01*
X174280Y56027D01*
X174446Y56009D01*
X179913Y56009D01*
X179845Y55757D01*
X179500Y55158D01*
X179470Y55129D01*
X179458Y55112D01*
X179443Y55100D01*
X179387Y55013D01*
X179327Y54929D01*
X179321Y54910D01*
X179310Y54893D01*
X179285Y54793D01*
X179254Y54694D01*
X179255Y54674D01*
X179250Y54655D01*
X179258Y54552D01*
X179261Y54448D01*
X179267Y54429D01*
X179269Y54409D01*
X179309Y54314D01*
X179345Y54217D01*
X179358Y54201D01*
X179365Y54183D01*
X179470Y54052D01*
X179770Y53752D01*
X179770Y51788D01*
X178382Y50399D01*
X176720Y50399D01*
X176701Y50396D01*
X176681Y50398D01*
X176580Y50376D01*
X176478Y50360D01*
X176460Y50350D01*
X176441Y50346D01*
X176352Y50293D01*
X176260Y50244D01*
X176247Y50230D01*
X176230Y50220D01*
X176162Y50141D01*
X176091Y50066D01*
X176083Y50048D01*
X176070Y50033D01*
X176031Y49937D01*
X175987Y49843D01*
X175985Y49823D01*
X175978Y49805D01*
X175959Y49638D01*
X175959Y40998D01*
X175974Y40908D01*
X175981Y40817D01*
X175994Y40787D01*
X175999Y40755D01*
X176042Y40674D01*
X176077Y40590D01*
X176103Y40558D01*
X176114Y40538D01*
X176137Y40515D01*
X176182Y40459D01*
X177459Y39182D01*
X177459Y36256D01*
X175390Y34186D01*
X172463Y34186D01*
X170394Y36256D01*
X170394Y39182D01*
X171671Y40459D01*
X171724Y40533D01*
X171783Y40603D01*
X171796Y40633D01*
X171814Y40659D01*
X171841Y40746D01*
X171875Y40831D01*
X171880Y40872D01*
X171887Y40894D01*
X171886Y40926D01*
X171894Y40998D01*
X171894Y49638D01*
X171891Y49658D01*
X171893Y49677D01*
X171871Y49779D01*
X171854Y49881D01*
X171845Y49898D01*
X171840Y49918D01*
X171787Y50007D01*
X171739Y50098D01*
X171725Y50112D01*
X171714Y50129D01*
X171636Y50196D01*
X171561Y50268D01*
X171543Y50276D01*
X171527Y50289D01*
X171431Y50328D01*
X171338Y50371D01*
X171318Y50373D01*
X171299Y50381D01*
X171133Y50399D01*
X170511Y50399D01*
X170342Y50568D01*
X170322Y50582D01*
X170307Y50601D01*
X170223Y50654D01*
X170142Y50712D01*
X170119Y50719D01*
X170099Y50731D01*
X170002Y50755D01*
X169907Y50784D01*
X169883Y50783D01*
X169859Y50789D01*
X169760Y50780D01*
X169661Y50778D01*
X169638Y50769D01*
X169614Y50767D01*
X169523Y50727D01*
X169430Y50693D01*
X169411Y50678D01*
X169389Y50668D01*
X169316Y50602D01*
X169238Y50539D01*
X169225Y50519D01*
X169207Y50503D01*
X169159Y50416D01*
X169105Y50333D01*
X169099Y50309D01*
X169087Y50288D01*
X169069Y50190D01*
X169045Y50094D01*
X169047Y50070D01*
X169042Y50046D01*
X169056Y49948D01*
X169064Y49849D01*
X169074Y49826D01*
X169077Y49803D01*
X169144Y49649D01*
X169386Y49231D01*
X169565Y48563D01*
X169565Y46025D01*
X166940Y46025D01*
X166921Y46022D01*
X166901Y46024D01*
X166800Y46002D01*
X166698Y45986D01*
X166680Y45976D01*
X166661Y45972D01*
X166571Y45919D01*
X166480Y45871D01*
X166467Y45856D01*
X166449Y45846D01*
X166382Y45767D01*
X166311Y45692D01*
X166302Y45674D01*
X166289Y45659D01*
X166251Y45563D01*
X166207Y45469D01*
X166205Y45449D01*
X166198Y45431D01*
X166179Y45264D01*
X166182Y45244D01*
X166180Y45225D01*
X166180Y45224D01*
X166202Y45123D01*
X166219Y45021D01*
X166228Y45004D01*
X166232Y44984D01*
X166286Y44895D01*
X166334Y44804D01*
X166348Y44790D01*
X166359Y44773D01*
X166437Y44706D01*
X166512Y44634D01*
X166530Y44626D01*
X166545Y44613D01*
X166642Y44574D01*
X166735Y44531D01*
X166755Y44529D01*
X166774Y44521D01*
X166940Y44503D01*
X169565Y44503D01*
X169565Y41965D01*
X169386Y41297D01*
X169040Y40699D01*
X168552Y40210D01*
X167953Y39865D01*
X167286Y39686D01*
X167173Y39686D01*
X167102Y39674D01*
X167031Y39672D01*
X166982Y39654D01*
X166930Y39646D01*
X166867Y39613D01*
X166800Y39588D01*
X166759Y39555D01*
X166713Y39531D01*
X166664Y39479D01*
X166608Y39434D01*
X166579Y39390D01*
X166544Y39353D01*
X166513Y39288D01*
X166475Y39227D01*
X166462Y39177D01*
X166440Y39130D01*
X166432Y39058D01*
X166415Y38989D01*
X166419Y38937D01*
X166413Y38885D01*
X166428Y38815D01*
X166434Y38743D01*
X166454Y38696D01*
X166465Y38645D01*
X166502Y38583D01*
X166530Y38517D01*
X166575Y38461D01*
X166591Y38434D01*
X166609Y38418D01*
X166635Y38386D01*
X167045Y37976D01*
X167045Y35049D01*
X164767Y32771D01*
X164756Y32755D01*
X164740Y32743D01*
X164684Y32655D01*
X164624Y32572D01*
X164618Y32553D01*
X164607Y32536D01*
X164582Y32435D01*
X164551Y32336D01*
X164552Y32317D01*
X164547Y32297D01*
X164555Y32194D01*
X164558Y32091D01*
X164565Y32072D01*
X164566Y32052D01*
X164607Y31957D01*
X164642Y31860D01*
X164655Y31844D01*
X164663Y31826D01*
X164767Y31695D01*
X164991Y31471D01*
X164991Y29591D01*
X164994Y29571D01*
X164992Y29552D01*
X165014Y29450D01*
X165030Y29348D01*
X165040Y29331D01*
X165044Y29311D01*
X165097Y29222D01*
X165146Y29131D01*
X165160Y29117D01*
X165170Y29100D01*
X165249Y29033D01*
X165324Y28961D01*
X165342Y28953D01*
X165357Y28940D01*
X165453Y28901D01*
X165547Y28858D01*
X165567Y28856D01*
X165585Y28848D01*
X165752Y28830D01*
X172664Y28830D01*
X172754Y28844D01*
G37*
G36*
X53558Y75147D02*
X53558Y75147D01*
X53610Y75148D01*
X53678Y75173D01*
X53748Y75188D01*
X53793Y75215D01*
X53841Y75232D01*
X53897Y75277D01*
X53959Y75314D01*
X53993Y75354D01*
X54033Y75386D01*
X54072Y75446D01*
X54119Y75501D01*
X54138Y75549D01*
X54166Y75593D01*
X54184Y75662D01*
X54211Y75729D01*
X54219Y75800D01*
X54227Y75832D01*
X54225Y75855D01*
X54229Y75896D01*
X54229Y81550D01*
X54236Y81559D01*
X54257Y81628D01*
X54288Y81693D01*
X54293Y81745D01*
X54309Y81794D01*
X54307Y81866D01*
X54315Y81937D01*
X54304Y81988D01*
X54302Y82040D01*
X54278Y82108D01*
X54262Y82178D01*
X54236Y82222D01*
X54218Y82271D01*
X54173Y82327D01*
X54136Y82389D01*
X54097Y82423D01*
X54064Y82463D01*
X54004Y82502D01*
X53949Y82549D01*
X53901Y82568D01*
X53857Y82596D01*
X53788Y82614D01*
X53721Y82641D01*
X53650Y82649D01*
X53619Y82657D01*
X53595Y82655D01*
X53554Y82659D01*
X48539Y82659D01*
X47794Y83404D01*
X47794Y90303D01*
X47780Y90393D01*
X47772Y90484D01*
X47760Y90514D01*
X47755Y90546D01*
X47712Y90627D01*
X47676Y90710D01*
X47650Y90743D01*
X47639Y90763D01*
X47616Y90785D01*
X47571Y90841D01*
X43276Y95136D01*
X43203Y95189D01*
X43133Y95249D01*
X43103Y95261D01*
X43077Y95280D01*
X42990Y95307D01*
X42905Y95341D01*
X42864Y95345D01*
X42842Y95352D01*
X42809Y95351D01*
X42738Y95359D01*
X38379Y95359D01*
X37634Y96104D01*
X37634Y104556D01*
X38379Y105301D01*
X39212Y105301D01*
X39282Y105312D01*
X39354Y105314D01*
X39403Y105332D01*
X39454Y105340D01*
X39518Y105374D01*
X39585Y105399D01*
X39626Y105431D01*
X39672Y105456D01*
X39721Y105508D01*
X39777Y105552D01*
X39805Y105596D01*
X39841Y105634D01*
X39871Y105699D01*
X39910Y105759D01*
X39923Y105810D01*
X39945Y105857D01*
X39953Y105928D01*
X39970Y105998D01*
X39966Y106050D01*
X39972Y106101D01*
X39957Y106172D01*
X39951Y106243D01*
X39931Y106291D01*
X39920Y106342D01*
X39883Y106403D01*
X39855Y106469D01*
X39810Y106525D01*
X39794Y106553D01*
X39776Y106568D01*
X39750Y106600D01*
X35893Y110457D01*
X34480Y111870D01*
X34480Y121523D01*
X34477Y121542D01*
X34479Y121562D01*
X34457Y121663D01*
X34440Y121765D01*
X34431Y121783D01*
X34426Y121802D01*
X34373Y121891D01*
X34325Y121983D01*
X34311Y121996D01*
X34300Y122013D01*
X34222Y122081D01*
X34147Y122152D01*
X34129Y122160D01*
X34113Y122173D01*
X34017Y122212D01*
X33924Y122256D01*
X33904Y122258D01*
X33885Y122265D01*
X33719Y122284D01*
X31378Y122284D01*
X30633Y123028D01*
X30633Y131277D01*
X30619Y131367D01*
X30611Y131458D01*
X30599Y131487D01*
X30594Y131519D01*
X30551Y131600D01*
X30515Y131684D01*
X30489Y131716D01*
X30478Y131737D01*
X30455Y131759D01*
X30410Y131815D01*
X28788Y133437D01*
X28729Y133479D01*
X28677Y133529D01*
X28630Y133551D01*
X28588Y133581D01*
X28519Y133602D01*
X28454Y133632D01*
X28402Y133638D01*
X28353Y133653D01*
X28281Y133651D01*
X28209Y133659D01*
X28159Y133648D01*
X28107Y133647D01*
X28040Y133622D01*
X27969Y133606D01*
X27925Y133580D01*
X27876Y133562D01*
X27820Y133517D01*
X27758Y133480D01*
X27725Y133441D01*
X27684Y133409D01*
X27645Y133348D01*
X27598Y133293D01*
X27579Y133245D01*
X27551Y133202D01*
X27534Y133132D01*
X27507Y133065D01*
X27499Y132994D01*
X27491Y132963D01*
X27493Y132940D01*
X27489Y132898D01*
X27531Y101070D01*
X27546Y100981D01*
X27553Y100890D01*
X27566Y100860D01*
X27571Y100828D01*
X27614Y100747D01*
X27649Y100664D01*
X27675Y100631D01*
X27687Y100610D01*
X27710Y100588D01*
X27754Y100533D01*
X52930Y75357D01*
X52988Y75316D01*
X53040Y75266D01*
X53087Y75244D01*
X53129Y75214D01*
X53198Y75193D01*
X53263Y75163D01*
X53315Y75157D01*
X53365Y75142D01*
X53436Y75143D01*
X53507Y75136D01*
X53558Y75147D01*
G37*
G36*
X146858Y224286D02*
X146858Y224286D01*
X146877Y224284D01*
X146979Y224306D01*
X147081Y224322D01*
X147098Y224332D01*
X147118Y224336D01*
X147207Y224389D01*
X147298Y224438D01*
X147312Y224452D01*
X147329Y224462D01*
X147396Y224541D01*
X147468Y224616D01*
X147476Y224634D01*
X147489Y224649D01*
X147528Y224745D01*
X147571Y224839D01*
X147573Y224859D01*
X147581Y224877D01*
X147599Y225044D01*
X147599Y226476D01*
X148344Y227221D01*
X152019Y227221D01*
X152039Y227224D01*
X152058Y227222D01*
X152160Y227244D01*
X152262Y227260D01*
X152279Y227270D01*
X152299Y227274D01*
X152388Y227327D01*
X152479Y227376D01*
X152493Y227390D01*
X152510Y227400D01*
X152577Y227479D01*
X152649Y227554D01*
X152657Y227572D01*
X152670Y227587D01*
X152709Y227683D01*
X152752Y227777D01*
X152754Y227797D01*
X152762Y227815D01*
X152780Y227982D01*
X152780Y231758D01*
X152777Y231778D01*
X152779Y231797D01*
X152757Y231899D01*
X152741Y232001D01*
X152731Y232018D01*
X152727Y232038D01*
X152674Y232127D01*
X152625Y232218D01*
X152611Y232232D01*
X152601Y232249D01*
X152522Y232316D01*
X152447Y232388D01*
X152429Y232396D01*
X152414Y232409D01*
X152318Y232448D01*
X152224Y232491D01*
X152204Y232493D01*
X152186Y232501D01*
X152019Y232519D01*
X149439Y232519D01*
X149308Y232650D01*
X149292Y232662D01*
X149279Y232677D01*
X149192Y232733D01*
X149108Y232794D01*
X149089Y232799D01*
X149072Y232810D01*
X148972Y232835D01*
X148873Y232866D01*
X148853Y232865D01*
X148834Y232870D01*
X148731Y232862D01*
X148627Y232860D01*
X148608Y232853D01*
X148589Y232851D01*
X148493Y232811D01*
X148396Y232775D01*
X148381Y232763D01*
X148362Y232755D01*
X148231Y232650D01*
X148079Y232497D01*
X147518Y232265D01*
X144113Y232265D01*
X144113Y236728D01*
X144110Y236748D01*
X144112Y236767D01*
X144090Y236869D01*
X144073Y236971D01*
X144064Y236988D01*
X144060Y237008D01*
X144007Y237097D01*
X143958Y237188D01*
X143944Y237202D01*
X143934Y237219D01*
X143855Y237286D01*
X143780Y237357D01*
X143762Y237366D01*
X143747Y237379D01*
X143651Y237418D01*
X143557Y237461D01*
X143537Y237463D01*
X143519Y237471D01*
X143352Y237489D01*
X141828Y237489D01*
X141808Y237486D01*
X141789Y237488D01*
X141687Y237466D01*
X141585Y237449D01*
X141568Y237440D01*
X141548Y237436D01*
X141459Y237383D01*
X141368Y237334D01*
X141354Y237320D01*
X141337Y237310D01*
X141270Y237231D01*
X141199Y237156D01*
X141190Y237138D01*
X141177Y237123D01*
X141138Y237026D01*
X141095Y236933D01*
X141093Y236913D01*
X141085Y236895D01*
X141067Y236728D01*
X141067Y232265D01*
X137662Y232265D01*
X137101Y232497D01*
X136672Y232926D01*
X136541Y233244D01*
X136517Y233283D01*
X136501Y233326D01*
X136453Y233386D01*
X136421Y233439D01*
X136418Y233442D01*
X136411Y233453D01*
X136376Y233482D01*
X136347Y233518D01*
X136282Y233560D01*
X136222Y233610D01*
X136179Y233626D01*
X136140Y233651D01*
X136065Y233670D01*
X135992Y233698D01*
X135946Y233700D01*
X135902Y233711D01*
X135858Y233708D01*
X135839Y233710D01*
X135834Y233710D01*
X135809Y233706D01*
X135746Y233708D01*
X135702Y233695D01*
X135657Y233692D01*
X135614Y233674D01*
X135591Y233670D01*
X135562Y233655D01*
X135510Y233640D01*
X135472Y233614D01*
X135430Y233596D01*
X135391Y233564D01*
X135373Y233555D01*
X135355Y233535D01*
X135323Y233510D01*
X135308Y233499D01*
X135305Y233496D01*
X135299Y233491D01*
X134813Y233005D01*
X131887Y233005D01*
X130610Y234282D01*
X130536Y234335D01*
X130466Y234394D01*
X130436Y234407D01*
X130410Y234425D01*
X130323Y234452D01*
X130238Y234486D01*
X130197Y234491D01*
X130175Y234498D01*
X130143Y234497D01*
X130071Y234505D01*
X126570Y234505D01*
X126480Y234490D01*
X126389Y234483D01*
X126359Y234470D01*
X126327Y234465D01*
X126246Y234422D01*
X126163Y234387D01*
X126130Y234361D01*
X126110Y234350D01*
X126088Y234327D01*
X126032Y234282D01*
X118774Y227024D01*
X118762Y227008D01*
X118746Y226995D01*
X118690Y226908D01*
X118630Y226824D01*
X118624Y226805D01*
X118613Y226788D01*
X118588Y226688D01*
X118558Y226589D01*
X118558Y226569D01*
X118553Y226550D01*
X118561Y226447D01*
X118564Y226343D01*
X118571Y226324D01*
X118573Y226305D01*
X118613Y226210D01*
X118649Y226112D01*
X118661Y226097D01*
X118669Y226078D01*
X118774Y225947D01*
X120215Y224506D01*
X120289Y224453D01*
X120359Y224393D01*
X120389Y224381D01*
X120415Y224362D01*
X120502Y224335D01*
X120587Y224301D01*
X120628Y224297D01*
X120650Y224290D01*
X120682Y224291D01*
X120754Y224283D01*
X146838Y224283D01*
X146858Y224286D01*
G37*
G36*
X180039Y103953D02*
X180039Y103953D01*
X180142Y103956D01*
X180161Y103963D01*
X180181Y103964D01*
X180276Y104005D01*
X180373Y104040D01*
X180389Y104053D01*
X180407Y104061D01*
X180538Y104165D01*
X181474Y105101D01*
X184461Y105101D01*
X184551Y105115D01*
X184642Y105123D01*
X184671Y105135D01*
X184703Y105140D01*
X184784Y105183D01*
X184868Y105219D01*
X184900Y105245D01*
X184921Y105256D01*
X184943Y105279D01*
X184999Y105324D01*
X191546Y111871D01*
X191599Y111945D01*
X191659Y112014D01*
X191671Y112045D01*
X191690Y112071D01*
X191717Y112158D01*
X191751Y112243D01*
X191755Y112284D01*
X191762Y112306D01*
X191761Y112338D01*
X191769Y112409D01*
X191769Y132421D01*
X191758Y132491D01*
X191756Y132563D01*
X191738Y132612D01*
X191730Y132664D01*
X191696Y132727D01*
X191671Y132794D01*
X191639Y132835D01*
X191614Y132881D01*
X191563Y132930D01*
X191518Y132986D01*
X191474Y133015D01*
X191436Y133050D01*
X191371Y133081D01*
X191311Y133119D01*
X191260Y133132D01*
X191213Y133154D01*
X191142Y133162D01*
X191072Y133179D01*
X191020Y133175D01*
X190969Y133181D01*
X190898Y133166D01*
X190827Y133160D01*
X190779Y133140D01*
X190728Y133129D01*
X190667Y133092D01*
X190601Y133064D01*
X190545Y133019D01*
X190517Y133003D01*
X190502Y132985D01*
X190470Y132959D01*
X189602Y132092D01*
X189590Y132075D01*
X189575Y132063D01*
X189519Y131976D01*
X189459Y131892D01*
X189453Y131873D01*
X189442Y131856D01*
X189417Y131756D01*
X189386Y131657D01*
X189387Y131637D01*
X189382Y131617D01*
X189390Y131514D01*
X189393Y131411D01*
X189399Y131392D01*
X189401Y131372D01*
X189441Y131277D01*
X189477Y131180D01*
X189489Y131164D01*
X189497Y131146D01*
X189602Y131015D01*
X189671Y130946D01*
X189671Y112894D01*
X188926Y112149D01*
X173874Y112149D01*
X173129Y112894D01*
X173129Y114442D01*
X173118Y114512D01*
X173116Y114584D01*
X173098Y114633D01*
X173090Y114684D01*
X173056Y114748D01*
X173031Y114815D01*
X172999Y114856D01*
X172974Y114902D01*
X172923Y114951D01*
X172878Y115007D01*
X172834Y115035D01*
X172796Y115071D01*
X172731Y115101D01*
X172671Y115140D01*
X172620Y115153D01*
X172573Y115175D01*
X172502Y115183D01*
X172432Y115200D01*
X172380Y115196D01*
X172329Y115202D01*
X172258Y115187D01*
X172187Y115181D01*
X172139Y115161D01*
X172088Y115150D01*
X172027Y115113D01*
X171961Y115085D01*
X171905Y115040D01*
X171877Y115024D01*
X171862Y115006D01*
X171830Y114980D01*
X163250Y106400D01*
X163208Y106342D01*
X163159Y106290D01*
X163137Y106243D01*
X163106Y106201D01*
X163085Y106132D01*
X163055Y106067D01*
X163049Y106015D01*
X163034Y105965D01*
X163036Y105894D01*
X163028Y105823D01*
X163039Y105772D01*
X163040Y105720D01*
X163065Y105652D01*
X163080Y105582D01*
X163107Y105538D01*
X163125Y105489D01*
X163170Y105432D01*
X163206Y105371D01*
X163246Y105337D01*
X163279Y105297D01*
X163339Y105258D01*
X163393Y105211D01*
X163442Y105192D01*
X163486Y105164D01*
X163555Y105146D01*
X163622Y105119D01*
X163693Y105111D01*
X163724Y105103D01*
X163747Y105105D01*
X163788Y105101D01*
X168546Y105101D01*
X169472Y104175D01*
X169488Y104164D01*
X169500Y104148D01*
X169588Y104092D01*
X169671Y104032D01*
X169690Y104026D01*
X169707Y104015D01*
X169808Y103990D01*
X169907Y103959D01*
X169926Y103960D01*
X169946Y103955D01*
X170049Y103963D01*
X170152Y103966D01*
X170171Y103973D01*
X170191Y103974D01*
X170286Y104015D01*
X170383Y104050D01*
X170399Y104063D01*
X170417Y104071D01*
X170548Y104175D01*
X171474Y105101D01*
X178526Y105101D01*
X179462Y104165D01*
X179478Y104154D01*
X179490Y104138D01*
X179578Y104082D01*
X179661Y104022D01*
X179680Y104016D01*
X179697Y104005D01*
X179798Y103980D01*
X179897Y103949D01*
X179916Y103950D01*
X179936Y103945D01*
X180039Y103953D01*
G37*
%LPC*%
G36*
X148306Y276785D02*
X148306Y276785D01*
X145433Y277975D01*
X143235Y280173D01*
X142045Y283046D01*
X142045Y286154D01*
X143235Y289027D01*
X145433Y291225D01*
X148306Y292415D01*
X151414Y292415D01*
X154287Y291225D01*
X156485Y289027D01*
X157675Y286154D01*
X157675Y283046D01*
X156485Y280173D01*
X154287Y277975D01*
X151414Y276785D01*
X148306Y276785D01*
G37*
%LPD*%
G36*
X196706Y117915D02*
X196706Y117915D01*
X196777Y117920D01*
X196825Y117941D01*
X196876Y117952D01*
X196937Y117988D01*
X197003Y118017D01*
X197059Y118061D01*
X197087Y118078D01*
X197102Y118096D01*
X197134Y118121D01*
X197984Y118971D01*
X212867Y118971D01*
X212937Y118982D01*
X213009Y118984D01*
X213058Y119002D01*
X213109Y119010D01*
X213173Y119044D01*
X213240Y119069D01*
X213281Y119101D01*
X213327Y119126D01*
X213376Y119178D01*
X213432Y119222D01*
X213460Y119266D01*
X213496Y119304D01*
X213526Y119369D01*
X213565Y119429D01*
X213578Y119480D01*
X213600Y119527D01*
X213608Y119598D01*
X213625Y119668D01*
X213621Y119720D01*
X213627Y119771D01*
X213612Y119842D01*
X213606Y119913D01*
X213586Y119961D01*
X213575Y120012D01*
X213538Y120073D01*
X213510Y120139D01*
X213465Y120195D01*
X213449Y120223D01*
X213431Y120238D01*
X213405Y120270D01*
X199318Y134357D01*
X199245Y134410D01*
X199175Y134469D01*
X199145Y134482D01*
X199119Y134500D01*
X199032Y134527D01*
X198947Y134561D01*
X198906Y134566D01*
X198884Y134573D01*
X198851Y134572D01*
X198780Y134580D01*
X196881Y134580D01*
X196866Y134584D01*
X196801Y134615D01*
X196749Y134620D01*
X196700Y134636D01*
X196628Y134634D01*
X196557Y134642D01*
X196506Y134631D01*
X196454Y134629D01*
X196386Y134605D01*
X196316Y134589D01*
X196271Y134563D01*
X196223Y134545D01*
X196167Y134500D01*
X196105Y134463D01*
X196071Y134424D01*
X196031Y134391D01*
X195992Y134331D01*
X195945Y134276D01*
X195926Y134228D01*
X195898Y134184D01*
X195880Y134115D01*
X195853Y134048D01*
X195845Y133977D01*
X195837Y133946D01*
X195839Y133922D01*
X195835Y133881D01*
X195835Y118660D01*
X195846Y118589D01*
X195848Y118517D01*
X195866Y118468D01*
X195874Y118417D01*
X195908Y118354D01*
X195933Y118286D01*
X195965Y118246D01*
X195990Y118199D01*
X196042Y118150D01*
X196086Y118094D01*
X196130Y118066D01*
X196168Y118030D01*
X196233Y118000D01*
X196293Y117961D01*
X196344Y117948D01*
X196391Y117926D01*
X196462Y117919D01*
X196532Y117901D01*
X196584Y117905D01*
X196635Y117899D01*
X196706Y117915D01*
G37*
G36*
X20257Y210702D02*
X20257Y210702D01*
X20353Y210709D01*
X20377Y210720D01*
X20403Y210723D01*
X20490Y210768D01*
X20580Y210806D01*
X20605Y210826D01*
X20623Y210835D01*
X20646Y210859D01*
X20711Y210910D01*
X35092Y225292D01*
X35134Y225350D01*
X35183Y225402D01*
X35205Y225449D01*
X35236Y225491D01*
X35257Y225560D01*
X35287Y225625D01*
X35293Y225677D01*
X35308Y225727D01*
X35306Y225798D01*
X35314Y225869D01*
X35303Y225920D01*
X35302Y225972D01*
X35277Y226040D01*
X35262Y226110D01*
X35235Y226155D01*
X35217Y226203D01*
X35172Y226259D01*
X35136Y226321D01*
X35096Y226355D01*
X35063Y226395D01*
X35003Y226434D01*
X34949Y226481D01*
X34900Y226500D01*
X34856Y226528D01*
X34787Y226546D01*
X34720Y226573D01*
X34649Y226581D01*
X34618Y226589D01*
X34595Y226587D01*
X34554Y226591D01*
X32573Y226591D01*
X30289Y228875D01*
X30200Y228939D01*
X30114Y229006D01*
X30101Y229010D01*
X30089Y229019D01*
X29985Y229051D01*
X29882Y229087D01*
X29868Y229087D01*
X29854Y229091D01*
X29745Y229088D01*
X29636Y229089D01*
X29622Y229085D01*
X29608Y229085D01*
X29506Y229047D01*
X29402Y229014D01*
X29390Y229005D01*
X29377Y229000D01*
X29292Y228932D01*
X29204Y228867D01*
X29194Y228853D01*
X29185Y228847D01*
X29169Y228822D01*
X29101Y228735D01*
X21132Y215729D01*
X21119Y215698D01*
X21077Y215622D01*
X19469Y211740D01*
X19447Y211645D01*
X19418Y211552D01*
X19419Y211526D01*
X19413Y211501D01*
X19422Y211404D01*
X19425Y211306D01*
X19434Y211282D01*
X19436Y211256D01*
X19476Y211167D01*
X19509Y211075D01*
X19525Y211055D01*
X19536Y211031D01*
X19602Y210959D01*
X19663Y210883D01*
X19685Y210869D01*
X19702Y210850D01*
X19788Y210803D01*
X19870Y210750D01*
X19895Y210744D01*
X19918Y210731D01*
X20014Y210714D01*
X20108Y210690D01*
X20134Y210692D01*
X20160Y210688D01*
X20257Y210702D01*
G37*
G36*
X85522Y160024D02*
X85522Y160024D01*
X85541Y160022D01*
X85643Y160044D01*
X85745Y160061D01*
X85762Y160070D01*
X85782Y160074D01*
X85871Y160127D01*
X85962Y160176D01*
X85976Y160190D01*
X85993Y160200D01*
X86060Y160279D01*
X86131Y160354D01*
X86140Y160372D01*
X86153Y160387D01*
X86192Y160483D01*
X86235Y160577D01*
X86237Y160597D01*
X86245Y160615D01*
X86263Y160782D01*
X86263Y165245D01*
X89281Y165245D01*
X89301Y165248D01*
X89320Y165246D01*
X89422Y165268D01*
X89524Y165284D01*
X89541Y165294D01*
X89561Y165298D01*
X89650Y165351D01*
X89741Y165400D01*
X89755Y165414D01*
X89772Y165424D01*
X89839Y165503D01*
X89911Y165578D01*
X89919Y165596D01*
X89932Y165611D01*
X89971Y165707D01*
X90014Y165801D01*
X90016Y165821D01*
X90024Y165839D01*
X90042Y166006D01*
X90042Y179381D01*
X90029Y179463D01*
X90025Y179545D01*
X90009Y179583D01*
X90003Y179624D01*
X89964Y179697D01*
X89934Y179773D01*
X89907Y179805D01*
X89887Y179841D01*
X89828Y179898D01*
X89775Y179961D01*
X89739Y179982D01*
X89709Y180011D01*
X89635Y180045D01*
X89564Y180088D01*
X89524Y180097D01*
X89486Y180114D01*
X89404Y180124D01*
X89324Y180141D01*
X89283Y180137D01*
X89242Y180142D01*
X89161Y180124D01*
X89079Y180115D01*
X89029Y180095D01*
X89001Y180089D01*
X88976Y180074D01*
X88924Y180053D01*
X88772Y179973D01*
X88470Y180066D01*
X88461Y180067D01*
X88452Y180071D01*
X88340Y180083D01*
X88226Y180099D01*
X88217Y180097D01*
X88208Y180098D01*
X88097Y180074D01*
X87985Y180052D01*
X87977Y180047D01*
X87968Y180046D01*
X87870Y179987D01*
X87771Y179931D01*
X87764Y179924D01*
X87757Y179919D01*
X87682Y179833D01*
X87606Y179748D01*
X87603Y179739D01*
X87597Y179732D01*
X87554Y179626D01*
X87509Y179522D01*
X87508Y179513D01*
X87505Y179504D01*
X87486Y179338D01*
X87486Y171924D01*
X82106Y166544D01*
X82065Y166486D01*
X82015Y166434D01*
X81993Y166387D01*
X81963Y166345D01*
X81942Y166276D01*
X81912Y166211D01*
X81906Y166159D01*
X81891Y166109D01*
X81892Y166038D01*
X81885Y165967D01*
X81896Y165916D01*
X81897Y165864D01*
X81922Y165796D01*
X81937Y165726D01*
X81964Y165681D01*
X81981Y165633D01*
X82026Y165577D01*
X82063Y165515D01*
X82103Y165481D01*
X82135Y165441D01*
X82195Y165402D01*
X82250Y165355D01*
X82298Y165336D01*
X82342Y165308D01*
X82411Y165290D01*
X82478Y165263D01*
X82549Y165255D01*
X82581Y165247D01*
X82604Y165249D01*
X82645Y165245D01*
X83217Y165245D01*
X83217Y160782D01*
X83220Y160762D01*
X83218Y160743D01*
X83240Y160641D01*
X83257Y160539D01*
X83266Y160522D01*
X83270Y160502D01*
X83323Y160413D01*
X83372Y160322D01*
X83386Y160308D01*
X83396Y160291D01*
X83475Y160224D01*
X83550Y160153D01*
X83568Y160144D01*
X83583Y160131D01*
X83679Y160092D01*
X83773Y160049D01*
X83793Y160047D01*
X83811Y160039D01*
X83978Y160021D01*
X85502Y160021D01*
X85522Y160024D01*
G37*
%LPC*%
G36*
X120711Y280947D02*
X120711Y280947D01*
X118641Y283017D01*
X118641Y285943D01*
X120711Y288013D01*
X123637Y288013D01*
X125707Y285943D01*
X125707Y283017D01*
X123637Y280947D01*
X120711Y280947D01*
G37*
%LPD*%
%LPC*%
G36*
X50607Y204239D02*
X50607Y204239D01*
X48537Y206309D01*
X48537Y209235D01*
X50607Y211305D01*
X53533Y211305D01*
X55603Y209235D01*
X55603Y206309D01*
X53533Y204239D01*
X50607Y204239D01*
G37*
%LPD*%
%LPC*%
G36*
X112329Y96035D02*
X112329Y96035D01*
X110259Y98105D01*
X110259Y101031D01*
X112329Y103101D01*
X115255Y103101D01*
X117325Y101031D01*
X117325Y98105D01*
X115255Y96035D01*
X112329Y96035D01*
G37*
%LPD*%
%LPC*%
G36*
X57053Y101853D02*
X57053Y101853D01*
X57053Y105555D01*
X60458Y105555D01*
X61019Y105323D01*
X61448Y104894D01*
X61680Y104333D01*
X61680Y101853D01*
X57053Y101853D01*
G37*
%LPD*%
%LPC*%
G36*
X206405Y61975D02*
X206405Y61975D01*
X206405Y65677D01*
X209810Y65677D01*
X210371Y65445D01*
X210800Y65016D01*
X211032Y64455D01*
X211032Y61975D01*
X206405Y61975D01*
G37*
%LPD*%
%LPC*%
G36*
X136440Y254253D02*
X136440Y254253D01*
X136440Y256733D01*
X136672Y257294D01*
X137101Y257723D01*
X137662Y257955D01*
X141067Y257955D01*
X141067Y254253D01*
X136440Y254253D01*
G37*
%LPD*%
%LPC*%
G36*
X112564Y43433D02*
X112564Y43433D01*
X112564Y45913D01*
X112796Y46474D01*
X113225Y46903D01*
X113786Y47135D01*
X117191Y47135D01*
X117191Y43433D01*
X112564Y43433D01*
G37*
%LPD*%
%LPC*%
G36*
X57053Y95105D02*
X57053Y95105D01*
X57053Y98807D01*
X61680Y98807D01*
X61680Y96327D01*
X61448Y95766D01*
X61019Y95337D01*
X60458Y95105D01*
X57053Y95105D01*
G37*
%LPD*%
%LPC*%
G36*
X206405Y55227D02*
X206405Y55227D01*
X206405Y58929D01*
X211032Y58929D01*
X211032Y56449D01*
X210800Y55888D01*
X210371Y55459D01*
X209810Y55227D01*
X206405Y55227D01*
G37*
%LPD*%
%LPC*%
G36*
X161543Y8170D02*
X161543Y8170D01*
X161543Y12797D01*
X165245Y12797D01*
X165245Y9392D01*
X165013Y8831D01*
X164584Y8402D01*
X164023Y8170D01*
X161543Y8170D01*
G37*
%LPD*%
%LPC*%
G36*
X113786Y36685D02*
X113786Y36685D01*
X113225Y36917D01*
X112796Y37346D01*
X112564Y37907D01*
X112564Y40387D01*
X117191Y40387D01*
X117191Y36685D01*
X113786Y36685D01*
G37*
%LPD*%
%LPC*%
G36*
X156017Y8170D02*
X156017Y8170D01*
X155456Y8402D01*
X155027Y8831D01*
X154795Y9392D01*
X154795Y12797D01*
X158497Y12797D01*
X158497Y8170D01*
X156017Y8170D01*
G37*
%LPD*%
%LPC*%
G36*
X89073Y192164D02*
X89073Y192164D01*
X89957Y195057D01*
X94046Y193807D01*
X93519Y192082D01*
X93133Y191614D01*
X92597Y191329D01*
X91993Y191271D01*
X89073Y192164D01*
G37*
%LPD*%
%LPC*%
G36*
X175207Y57531D02*
X175207Y57531D01*
X175207Y60009D01*
X179913Y60009D01*
X179845Y59757D01*
X179495Y59151D01*
X179471Y59087D01*
X179439Y59028D01*
X179428Y58973D01*
X179408Y58921D01*
X179406Y58853D01*
X179394Y58787D01*
X179401Y58731D01*
X179399Y58675D01*
X179418Y58610D01*
X179428Y58543D01*
X179460Y58470D01*
X179469Y58439D01*
X179481Y58422D01*
X179495Y58389D01*
X179845Y57783D01*
X179913Y57531D01*
X175207Y57531D01*
G37*
%LPD*%
%LPC*%
G36*
X144595Y207711D02*
X144595Y207711D01*
X144595Y208503D01*
X144867Y209159D01*
X144888Y209247D01*
X144916Y209334D01*
X144916Y209367D01*
X144923Y209398D01*
X144914Y209489D01*
X144913Y209580D01*
X144902Y209620D01*
X144900Y209643D01*
X144887Y209672D01*
X144867Y209741D01*
X144595Y210397D01*
X144595Y211189D01*
X147734Y211189D01*
X147734Y207711D01*
X144595Y207711D01*
G37*
%LPD*%
%LPC*%
G36*
X57299Y108005D02*
X57299Y108005D01*
X57299Y111531D01*
X60325Y111531D01*
X60325Y109227D01*
X60093Y108666D01*
X59664Y108237D01*
X59103Y108005D01*
X57299Y108005D01*
G37*
%LPD*%
%LPC*%
G36*
X148819Y12065D02*
X148819Y12065D01*
X148819Y15091D01*
X152345Y15091D01*
X152345Y13287D01*
X152113Y12726D01*
X151684Y12297D01*
X151123Y12065D01*
X148819Y12065D01*
G37*
%LPD*%
%LPC*%
G36*
X143517Y12065D02*
X143517Y12065D01*
X142956Y12297D01*
X142527Y12726D01*
X142295Y13287D01*
X142295Y15091D01*
X145821Y15091D01*
X145821Y12065D01*
X143517Y12065D01*
G37*
%LPD*%
%LPC*%
G36*
X192813Y279056D02*
X192813Y279056D01*
X193848Y281899D01*
X196691Y280865D01*
X196074Y279169D01*
X195664Y278722D01*
X195114Y278466D01*
X194508Y278439D01*
X192813Y279056D01*
G37*
%LPD*%
%LPC*%
G36*
X188300Y280699D02*
X188300Y280699D01*
X187853Y281109D01*
X187597Y281659D01*
X187570Y282265D01*
X188187Y283960D01*
X191030Y282925D01*
X189995Y280082D01*
X188300Y280699D01*
G37*
%LPD*%
%LPC*%
G36*
X85961Y273759D02*
X85961Y273759D01*
X88681Y275085D01*
X89471Y273463D01*
X89508Y272858D01*
X89311Y272284D01*
X88909Y271830D01*
X87288Y271039D01*
X85961Y273759D01*
G37*
%LPD*%
%LPC*%
G36*
X81792Y269095D02*
X81792Y269095D01*
X81338Y269496D01*
X80547Y271118D01*
X83266Y272444D01*
X84593Y269725D01*
X82971Y268934D01*
X82366Y268897D01*
X81792Y269095D01*
G37*
%LPD*%
G36*
X135453Y60012D02*
X135453Y60012D01*
X135473Y60010D01*
X135574Y60032D01*
X135676Y60048D01*
X135694Y60058D01*
X135713Y60062D01*
X135803Y60115D01*
X135894Y60163D01*
X135907Y60178D01*
X135925Y60188D01*
X135992Y60267D01*
X136063Y60342D01*
X136072Y60360D01*
X136085Y60375D01*
X136123Y60471D01*
X136167Y60565D01*
X136169Y60585D01*
X136176Y60603D01*
X136195Y60770D01*
X136192Y60790D01*
X136194Y60809D01*
X136194Y60810D01*
X136172Y60911D01*
X136155Y61013D01*
X136146Y61030D01*
X136142Y61050D01*
X136088Y61139D01*
X136040Y61230D01*
X136026Y61244D01*
X136015Y61261D01*
X135937Y61328D01*
X135862Y61400D01*
X135844Y61408D01*
X135829Y61421D01*
X135732Y61460D01*
X135639Y61503D01*
X135619Y61505D01*
X135600Y61513D01*
X135434Y61531D01*
X131754Y61531D01*
X131682Y61520D01*
X131609Y61517D01*
X131561Y61500D01*
X131512Y61492D01*
X131447Y61457D01*
X131378Y61432D01*
X131322Y61391D01*
X131294Y61377D01*
X131294Y61376D01*
X131277Y61359D01*
X131242Y61333D01*
X131186Y61263D01*
X131125Y61198D01*
X131110Y61167D01*
X131089Y61140D01*
X131059Y61056D01*
X131021Y60975D01*
X131017Y60941D01*
X131006Y60909D01*
X131004Y60819D01*
X130994Y60730D01*
X131001Y60697D01*
X131000Y60663D01*
X131027Y60577D01*
X131046Y60490D01*
X131064Y60461D01*
X131074Y60428D01*
X131126Y60356D01*
X131172Y60279D01*
X131198Y60257D01*
X131218Y60229D01*
X131291Y60177D01*
X131359Y60119D01*
X131391Y60106D01*
X131418Y60087D01*
X131504Y60061D01*
X131587Y60027D01*
X131631Y60022D01*
X131654Y60015D01*
X131686Y60016D01*
X131754Y60009D01*
X135434Y60009D01*
X135453Y60012D01*
G37*
D10*
X160020Y26320D03*
X160020Y14320D03*
D11*
X192882Y60452D03*
X204882Y60452D03*
X130714Y41910D03*
X118714Y41910D03*
D12*
X68500Y77470D03*
X58500Y77470D03*
D13*
X191770Y81200D03*
X191770Y71200D03*
D14*
X177399Y52770D02*
X171493Y52770D01*
X171493Y56770D02*
X177399Y56770D01*
X177399Y60770D02*
X171493Y60770D01*
X171493Y64770D02*
X177399Y64770D01*
X177399Y68770D02*
X171493Y68770D01*
X171493Y72770D02*
X177399Y72770D01*
X177399Y76770D02*
X171493Y76770D01*
X166940Y81323D02*
X166940Y87229D01*
X162940Y87229D02*
X162940Y81323D01*
X158940Y81323D02*
X158940Y87229D01*
X154940Y87229D02*
X154940Y81323D01*
X150940Y81323D02*
X150940Y87229D01*
X146940Y87229D02*
X146940Y81323D01*
X142940Y81323D02*
X142940Y87229D01*
X138387Y76770D02*
X132481Y76770D01*
X132481Y72770D02*
X138387Y72770D01*
X138387Y68770D02*
X132481Y68770D01*
X132481Y64770D02*
X138387Y64770D01*
X138387Y60770D02*
X132481Y60770D01*
X132481Y56770D02*
X138387Y56770D01*
X138387Y52770D02*
X132481Y52770D01*
X142940Y48217D02*
X142940Y42311D01*
X146940Y42311D02*
X146940Y48217D01*
X150940Y48217D02*
X150940Y42311D01*
X154940Y42311D02*
X154940Y48217D01*
X158940Y48217D02*
X158940Y42311D01*
X162940Y42311D02*
X162940Y48217D01*
X166940Y48217D02*
X166940Y42311D01*
D15*
X154940Y64770D03*
D16*
X207010Y110700D03*
X207010Y168700D03*
D17*
X166860Y284600D03*
X132860Y284600D03*
G36*
X58683Y260202D02*
X64340Y265859D01*
X76359Y253840D01*
X70702Y248183D01*
X58683Y260202D01*
G37*
G36*
X34641Y236160D02*
X40298Y241817D01*
X52317Y229798D01*
X46660Y224141D01*
X34641Y236160D01*
G37*
D18*
G36*
X59025Y214448D02*
X51376Y216787D01*
X53423Y223480D01*
X61072Y221141D01*
X59025Y214448D01*
G37*
G36*
X48792Y180977D02*
X41143Y183316D01*
X43190Y190009D01*
X50839Y187670D01*
X48792Y180977D01*
G37*
D19*
G36*
X92149Y192818D02*
X84021Y195303D01*
X85775Y201040D01*
X93903Y198555D01*
X92149Y192818D01*
G37*
G36*
X88640Y181343D02*
X80512Y183828D01*
X82266Y189565D01*
X90394Y187080D01*
X88640Y181343D01*
G37*
D20*
X86624Y198690D02*
X79930Y200736D01*
X75837Y187348D02*
X82531Y185301D01*
D21*
G36*
X61176Y204379D02*
X65269Y217766D01*
X84394Y211919D01*
X80301Y198532D01*
X61176Y204379D01*
G37*
G36*
X54160Y181428D02*
X58253Y194815D01*
X77378Y188968D01*
X73285Y175581D01*
X54160Y181428D01*
G37*
D22*
X53950Y149945D03*
X44450Y149945D03*
X34950Y149945D03*
X34950Y129455D03*
X53950Y129455D03*
D23*
G36*
X30488Y176346D02*
X32041Y182141D01*
X37836Y180588D01*
X36283Y174793D01*
X30488Y176346D01*
G37*
G36*
X27640Y165720D02*
X29193Y171515D01*
X34988Y169962D01*
X33435Y164167D01*
X27640Y165720D01*
G37*
G36*
X194745Y279976D02*
X189107Y282028D01*
X191159Y287666D01*
X196797Y285614D01*
X194745Y279976D01*
G37*
G36*
X205081Y276214D02*
X199443Y278266D01*
X201495Y283904D01*
X207133Y281852D01*
X205081Y276214D01*
G37*
D11*
X72740Y160020D03*
X84740Y160020D03*
X53690Y87630D03*
X65690Y87630D03*
D24*
X165120Y223575D03*
X160120Y223575D03*
X155120Y223575D03*
X150120Y223575D03*
D25*
X148495Y216950D03*
X148495Y211950D03*
X148495Y206950D03*
D24*
X150120Y200325D03*
X155120Y200325D03*
X160120Y200325D03*
X165120Y200325D03*
D25*
X166745Y206950D03*
X166745Y211950D03*
X166745Y216950D03*
D11*
X154590Y252730D03*
X142590Y252730D03*
X154590Y237490D03*
X142590Y237490D03*
D13*
X147320Y26590D03*
X147320Y16590D03*
D26*
X93320Y139446D03*
X83820Y139446D03*
X74320Y139446D03*
X74320Y117094D03*
X93320Y117094D03*
D10*
X101600Y99980D03*
X101600Y87980D03*
D11*
X43530Y100330D03*
X55530Y100330D03*
D13*
X90932Y100250D03*
X90932Y90250D03*
D10*
X80010Y99980D03*
X80010Y87980D03*
D12*
X55800Y113030D03*
X45800Y113030D03*
X45800Y166370D03*
X55800Y166370D03*
D23*
G36*
X87968Y273068D02*
X82576Y270438D01*
X79946Y275830D01*
X85338Y278460D01*
X87968Y273068D01*
G37*
G36*
X97854Y277890D02*
X92462Y275260D01*
X89832Y280652D01*
X95224Y283282D01*
X97854Y277890D01*
G37*
D13*
X195580Y267890D03*
X195580Y257890D03*
X100330Y269160D03*
X100330Y259160D03*
D12*
X185000Y100330D03*
X175000Y100330D03*
X155020Y100330D03*
X165020Y100330D03*
X144000Y100330D03*
X134000Y100330D03*
D13*
X121920Y85010D03*
X121920Y75010D03*
X121920Y54600D03*
X121920Y64600D03*
D27*
X181400Y121920D03*
X123400Y121920D03*
D28*
X166400Y160020D03*
X138400Y160020D03*
D29*
X149225Y222250D02*
X117475Y222250D01*
X149225Y222250D02*
X150120Y223575D01*
D30*
X117475Y222250D03*
D29*
X131763Y201613D02*
X131763Y196850D01*
X131763Y201613D02*
X112713Y220663D01*
X112713Y223838D01*
X125413Y236538D01*
X133350Y236538D01*
D30*
X131763Y196850D03*
X133350Y236538D03*
D29*
X187325Y203200D02*
X187325Y198100D01*
X174963Y185738D01*
X173038Y185738D01*
D30*
X173038Y185738D03*
X187325Y203200D03*
D29*
X174625Y180975D02*
X168275Y180975D01*
D30*
X168275Y180975D03*
X193675Y203200D03*
D29*
X193426Y199776D02*
X174625Y180975D01*
X193426Y202951D02*
X193675Y203200D01*
X193426Y202951D02*
X193426Y199776D01*
X146940Y40578D02*
X132788Y26425D01*
X95865Y71290D02*
X95865Y76655D01*
D30*
X95865Y76655D03*
D29*
X96003Y26425D02*
X132788Y26425D01*
X96003Y26425D02*
X83402Y39026D01*
X83402Y58828D01*
X95865Y71290D01*
X146940Y45264D02*
X146940Y40578D01*
X20638Y168275D02*
X20638Y207963D01*
X142875Y187325D02*
X147638Y192088D01*
D30*
X20638Y168275D03*
X147638Y192088D03*
D29*
X41276Y225020D02*
X37695Y225020D01*
X45062Y221234D02*
X47498Y221234D01*
X45062Y221234D02*
X41276Y225020D01*
X47498Y221234D02*
X52832Y226568D01*
X68072Y226568D01*
X37695Y225020D02*
X20638Y207963D01*
X107315Y187325D02*
X142875Y187325D01*
X78923Y215717D02*
X68072Y226568D01*
X78923Y215717D02*
X83693Y215717D01*
X96093Y198547D02*
X107315Y187325D01*
X96093Y203318D02*
X83693Y215717D01*
X96093Y203318D02*
X96093Y198547D01*
D30*
X163513Y36513D03*
D31*
X162940Y37085D02*
X162940Y45264D01*
X162940Y37085D02*
X163513Y36513D01*
D29*
X173927Y37719D02*
X173927Y52388D01*
X174446Y52770D01*
D30*
X173927Y37719D03*
X30036Y205359D03*
D29*
X196850Y231775D02*
X196850Y257175D01*
X196850Y231775D02*
X223838Y204788D01*
X196850Y257175D02*
X195580Y257890D01*
D30*
X223838Y204788D03*
D29*
X122238Y258763D02*
X101600Y258763D01*
X122238Y258763D02*
X134938Y246063D01*
X182563Y241300D02*
X219075Y204788D01*
X219075Y182563D01*
X222250Y179388D01*
X222250Y157163D01*
X101600Y258763D02*
X100330Y259160D01*
D30*
X134938Y246063D03*
X182563Y241300D03*
X222250Y157163D03*
D29*
X168275Y204788D02*
X168275Y206375D01*
X168275Y204788D02*
X169863Y203200D01*
X169863Y198438D01*
X165100Y193675D01*
X168275Y206375D02*
X166745Y206950D01*
D30*
X165100Y193675D03*
X182563Y182563D03*
X122238Y138113D03*
D29*
X122238Y138303D02*
X143193Y138303D01*
X147479Y142589D01*
X122238Y138303D02*
X122238Y138113D01*
X182563Y144740D02*
X182563Y182563D01*
X182563Y144740D02*
X179579Y141756D01*
X172569Y141756D01*
X154868Y142589D02*
X147479Y142589D01*
X154868Y142589D02*
X155955Y141502D01*
X160552Y141502D01*
X162560Y143510D01*
X170815Y143510D01*
X172569Y141756D01*
X179075Y133350D02*
X133350Y133350D01*
D30*
X133350Y133350D03*
D29*
X179075Y133350D02*
X188214Y142489D01*
X188214Y173927D01*
X194949Y211950D02*
X166745Y211950D01*
X194463Y180176D02*
X188214Y173927D01*
X194463Y180176D02*
X194463Y189496D01*
X205825Y205383D02*
X203097Y208111D01*
X198788Y208111D02*
X194949Y211950D01*
X198788Y208111D02*
X203097Y208111D01*
X205825Y200858D02*
X194463Y189496D01*
X205825Y200858D02*
X205825Y205383D01*
D30*
X164846Y138430D03*
D29*
X165378Y138962D01*
X180736Y138962D02*
X185420Y143646D01*
X185420Y175446D01*
X180736Y138962D02*
X165378Y138962D01*
X185420Y175446D02*
X191516Y181542D01*
X191516Y190500D01*
X201168Y200152D01*
X201168Y203454D01*
D30*
X201168Y203454D03*
X165100Y229870D03*
D29*
X165120Y229850D01*
X165120Y223575D01*
D30*
X187452Y134938D03*
D29*
X168463Y215232D02*
X166745Y216950D01*
X197833Y179263D02*
X191008Y172438D01*
X191008Y138494D02*
X187452Y134938D01*
X191008Y138494D02*
X191008Y172438D01*
X196164Y215232D02*
X168463Y215232D01*
X197833Y188914D02*
X197833Y179263D01*
X208619Y206540D02*
X204254Y210905D01*
X200491Y210905D01*
X196164Y215232D01*
X208619Y199700D02*
X197833Y188914D01*
X208619Y199700D02*
X208619Y206540D01*
D30*
X113792Y99568D03*
X150114Y138176D03*
X18608Y137622D03*
X154432Y245110D03*
X34036Y230124D03*
X52070Y207772D03*
X15748Y196088D03*
X15240Y186436D03*
X198882Y51308D03*
X136906Y82300D03*
X84328Y117094D03*
D32*
X148781Y217234D02*
X150876Y217234D01*
X155067Y221425D01*
X155067Y223520D01*
X148781Y217234D02*
X148495Y216950D01*
X155067Y223520D02*
X155120Y223575D01*
X149479Y200470D02*
X148082Y200470D01*
X149479Y200470D02*
X150120Y200325D01*
X148082Y216535D02*
X148495Y216950D01*
X155766Y223520D02*
X159957Y223520D01*
X160120Y223575D01*
X155766Y223520D02*
X155120Y223575D01*
X192786Y60770D02*
X192882Y60452D01*
X142494Y44704D02*
X134112Y44704D01*
X131318Y41910D01*
X142494Y44704D02*
X142940Y45264D01*
X131318Y41910D02*
X130714Y41910D01*
X137605Y83820D02*
X142494Y83820D01*
X137605Y83820D02*
X136906Y83122D01*
X142494Y83820D02*
X142940Y84276D01*
X136906Y83122D02*
X136906Y82300D01*
X154369Y237490D02*
X154369Y244475D01*
X154369Y237490D02*
X154590Y237490D01*
X154369Y244475D02*
X154432Y245110D01*
X154369Y245872D02*
X154369Y252159D01*
X154590Y252730D01*
X154369Y245872D02*
X154432Y245110D01*
X160655Y26543D02*
X173927Y26543D01*
X198374Y50991D01*
X160655Y26543D02*
X160020Y26320D01*
X198374Y50991D02*
X198882Y51308D01*
X130714Y41910D02*
X130714Y40608D01*
X123825Y33719D01*
X93320Y117094D02*
X84328Y117094D01*
X192786Y59373D02*
X192786Y56579D01*
X197676Y51689D01*
X192786Y59373D02*
X192882Y60452D01*
X197676Y51689D02*
X198882Y51308D01*
X44704Y236792D02*
X40704Y236792D01*
X34036Y230124D01*
X43479Y232979D02*
X44704Y236792D01*
X133414Y274511D02*
X133414Y285687D01*
X133414Y274511D02*
X154369Y253556D01*
X132860Y284600D02*
X133414Y285687D01*
X154369Y253556D02*
X154590Y252730D01*
X155067Y236792D02*
X155067Y224219D01*
X155120Y223575D01*
X155067Y236792D02*
X154590Y237490D01*
D30*
X123825Y33719D03*
X78994Y229616D03*
D29*
X174446Y64770D02*
X178816Y64770D01*
X181102Y67056D01*
X186500Y67056D01*
X192786Y60770D01*
D30*
X139954Y199136D03*
D29*
X141288Y200470D02*
X149479Y200470D01*
X141288Y200470D02*
X139954Y199136D01*
X101600Y99980D02*
X91870Y90250D01*
X90932Y90250D01*
D32*
X93320Y117094D02*
X97282Y117094D01*
X101600Y112776D01*
X101600Y99980D01*
D31*
X158940Y45264D02*
X158940Y28258D01*
X160655Y26543D01*
D30*
X228600Y241300D03*
X228600Y266700D03*
X228600Y190500D03*
X228600Y165100D03*
X228600Y139700D03*
X228600Y114300D03*
X228600Y63500D03*
X228600Y38100D03*
X151638Y119126D03*
X106934Y121412D03*
X123698Y105664D03*
X88900Y54356D03*
X94996Y47752D03*
X44450Y204470D03*
X30226Y224282D03*
X86360Y254000D03*
X139954Y227076D03*
X134366Y209804D03*
X67056Y99822D03*
X80772Y69596D03*
D32*
X77978Y85948D02*
X80010Y87980D01*
X77978Y81616D02*
X77875Y81513D01*
X77875Y72493D01*
X77978Y81616D02*
X77978Y85948D01*
X77875Y72493D02*
X80772Y69596D01*
D30*
X183642Y61468D03*
X42672Y138684D03*
X15240Y175260D03*
X62738Y50292D03*
X152654Y175514D03*
X180000Y280000D03*
X95758Y219456D03*
D31*
X166306Y68770D02*
X174446Y68770D01*
X166306Y68770D02*
X165100Y67564D01*
X165100Y57912D01*
X166370Y56642D01*
X166498Y56770D01*
X174446Y56770D01*
X166940Y56072D02*
X166940Y45264D01*
X166940Y56072D02*
X166370Y56642D01*
X131890Y60770D02*
X129032Y57912D01*
D29*
X129032Y49784D01*
X127000Y47752D01*
D31*
X131890Y60770D02*
X135434Y60770D01*
D29*
X127000Y47752D02*
X94996Y47752D01*
D30*
X157734Y145796D03*
X199644Y127508D03*
X179832Y108712D03*
X34500Y106200D03*
D29*
X72740Y160020D02*
X73025Y160338D01*
X36513Y166688D02*
X36513Y150813D01*
X34950Y149945D01*
X73025Y158750D02*
X73025Y139700D01*
X74320Y139446D01*
X73025Y158750D02*
X72740Y160020D01*
X92075Y139700D02*
X93320Y139446D01*
X69088Y168656D02*
X61532Y176213D01*
X69088Y163672D02*
X72740Y160020D01*
X69088Y163672D02*
X69088Y168656D01*
X85453Y172766D02*
X85453Y185454D01*
X85453Y172766D02*
X73025Y160338D01*
X92075Y139700D02*
X92075Y182245D01*
X89319Y185001D02*
X85273Y185001D01*
X85209Y184937D01*
X89319Y185001D02*
X92075Y182245D01*
X85209Y184937D02*
X85329Y185329D01*
X85453Y185454D01*
X43186Y173361D02*
X36513Y166688D01*
X43186Y173361D02*
X44397Y173361D01*
X47249Y176213D02*
X61532Y176213D01*
X47249Y176213D02*
X44397Y173361D01*
X74613Y115888D02*
X79375Y111125D01*
X79375Y100013D02*
X80010Y99980D01*
X74613Y115888D02*
X74320Y117094D01*
X80280Y100250D02*
X80010Y99980D01*
X80280Y100250D02*
X90932Y100250D01*
X79375Y100013D02*
X79375Y111125D01*
X69850Y76200D02*
X69850Y69850D01*
X69850Y76200D02*
X68500Y77470D01*
D30*
X69850Y69850D03*
D29*
X57150Y77788D02*
X57150Y84138D01*
X53975Y87313D01*
X57150Y77788D02*
X58500Y77470D01*
X53975Y87313D02*
X53690Y87630D01*
X44450Y96838D02*
X44450Y100013D01*
X44450Y96838D02*
X52388Y88900D01*
X44450Y100013D02*
X43530Y100330D01*
X52388Y88900D02*
X53690Y87630D01*
X31750Y158750D02*
X31750Y167437D01*
X31750Y158750D02*
X28575Y155575D01*
X28575Y136525D01*
X34925Y130175D01*
X31750Y167437D02*
X31314Y167841D01*
X34925Y130175D02*
X34950Y129455D01*
X42863Y106363D02*
X42863Y101600D01*
X42863Y106363D02*
X36513Y112713D01*
X36513Y128588D01*
X42863Y101600D02*
X43530Y100330D01*
X36513Y128588D02*
X34950Y129455D01*
X31750Y179388D02*
X30163Y179388D01*
X25400Y174625D01*
X25500Y99913D01*
X60325Y65088D01*
X71438Y65088D01*
X74613Y68263D01*
X74613Y80963D01*
X73025Y82550D01*
X73025Y104775D01*
X61913Y115888D01*
X61913Y169863D01*
X58738Y173038D01*
X52388Y173038D01*
X46038Y166688D01*
X34162Y178467D02*
X32392Y178467D01*
X31750Y179388D01*
X46038Y166688D02*
X45800Y166370D01*
X55563Y165100D02*
X55563Y152400D01*
X53975Y150813D01*
X55563Y165100D02*
X55800Y166370D01*
X53975Y150813D02*
X53950Y149945D01*
X46038Y122238D02*
X46038Y114300D01*
X46038Y122238D02*
X52388Y128588D01*
X46038Y114300D02*
X45800Y113030D01*
X52388Y128588D02*
X53950Y129455D01*
X120650Y252730D02*
X120650Y254000D01*
X120650Y252730D02*
X89726Y221806D01*
X81598Y221806D01*
X166688Y266700D02*
X166688Y285750D01*
X166860Y284600D01*
D30*
X81598Y221806D03*
X120650Y254000D03*
X166688Y266700D03*
D29*
X39497Y220726D02*
X34925Y216154D01*
X57904Y234006D02*
X68263Y244364D01*
X68263Y260350D01*
X67521Y257021D01*
D30*
X42619Y177655D03*
X39497Y220726D03*
X57904Y234006D03*
D29*
X34925Y186817D02*
X38608Y183134D01*
X34925Y186817D02*
X34925Y216154D01*
X39175Y182333D02*
X40016Y180875D01*
X38608Y182899D02*
X38608Y183134D01*
X38608Y182899D02*
X39175Y182333D01*
X40016Y180875D02*
X40016Y180257D01*
X42619Y177655D01*
X203200Y274638D02*
X203200Y279400D01*
X203200Y274638D02*
X196850Y268288D01*
X203200Y279400D02*
X203288Y280059D01*
X196850Y268288D02*
X195580Y267890D01*
X95250Y274638D02*
X95250Y277813D01*
X95250Y274638D02*
X100013Y269875D01*
X95250Y277813D02*
X93843Y279271D01*
X100013Y269875D02*
X100330Y269160D01*
X132121Y65088D02*
X122061Y55028D01*
X132121Y65088D02*
X134938Y65088D01*
X122061Y55028D02*
X121920Y54600D01*
X134938Y65088D02*
X135434Y64770D01*
X127000Y65088D02*
X122238Y65088D01*
X127000Y65088D02*
X130175Y68263D01*
X134938Y68263D01*
X122238Y65088D02*
X121920Y64600D01*
X134938Y68263D02*
X135434Y68770D01*
X120650Y65088D02*
X114300Y65088D01*
X107950Y71438D01*
X107950Y80963D01*
X120650Y65088D02*
X121920Y64600D01*
D30*
X107950Y80963D03*
D29*
X136652Y160020D02*
X138400Y160020D01*
X136652Y160020D02*
X129286Y152654D01*
X129032Y152908D01*
X121666Y152908D01*
X112776Y144018D01*
X112776Y112776D01*
D30*
X110236Y109982D03*
D29*
X110236Y110236D01*
X112776Y112776D01*
X122238Y84138D02*
X128588Y84138D01*
X134938Y77788D01*
X122238Y84138D02*
X121920Y85010D01*
X134938Y77788D02*
X135434Y76770D01*
X130175Y74613D02*
X122238Y74613D01*
X130175Y74613D02*
X131763Y73025D01*
X134938Y73025D01*
X122238Y74613D02*
X121920Y75010D01*
X134938Y73025D02*
X135434Y72770D01*
X120650Y74613D02*
X117475Y74613D01*
X114300Y71438D01*
X200025Y69850D02*
X200025Y84138D01*
X219075Y103188D01*
X219075Y117475D01*
X198438Y138113D01*
X177800Y146050D02*
X165100Y158750D01*
X121920Y75010D02*
X120650Y74613D01*
X165100Y158750D02*
X166400Y160020D01*
D30*
X114300Y71438D03*
X200025Y69850D03*
X198438Y138113D03*
X177800Y146050D03*
D29*
X134938Y100013D02*
X147638Y87313D01*
X147638Y85725D01*
X134938Y100013D02*
X134000Y100330D01*
X147638Y85725D02*
X146940Y84276D01*
X163513Y93663D02*
X163513Y100013D01*
X163513Y93663D02*
X158750Y88900D01*
X158750Y85725D01*
X163513Y100013D02*
X165020Y100330D01*
X158750Y85725D02*
X158940Y84276D01*
X155575Y100013D02*
X155020Y100330D01*
X155575Y101600D02*
X174625Y120650D01*
X180975Y120650D01*
X155575Y101600D02*
X155020Y100330D01*
X180975Y120650D02*
X181400Y121920D01*
D31*
X154940Y99378D02*
X154940Y84276D01*
X154940Y99378D02*
X155575Y100013D01*
D29*
X144463Y101600D02*
X123825Y122238D01*
X144463Y101600D02*
X144000Y100330D01*
X123825Y122238D02*
X123400Y121920D01*
X150813Y93663D02*
X150813Y85725D01*
X150813Y93663D02*
X144463Y100013D01*
X150813Y85725D02*
X150940Y84276D01*
X144463Y100013D02*
X144000Y100330D01*
X166688Y85725D02*
X169863Y85725D01*
X166688Y85725D02*
X166940Y84276D01*
X206375Y160338D02*
X206375Y168275D01*
X207010Y168700D01*
X184150Y101600D02*
X185000Y100330D01*
X193802Y147765D02*
X206375Y160338D01*
X193802Y111252D02*
X184150Y101600D01*
X193802Y111252D02*
X193802Y147765D01*
D31*
X185000Y100330D02*
X185000Y95338D01*
X175260Y85598D01*
X175133Y85725D01*
X169863Y85725D01*
D29*
X179388Y71438D02*
X190500Y71438D01*
X179388Y71438D02*
X177800Y73025D01*
X174625Y73025D01*
X190500Y71438D02*
X191770Y71200D01*
X174625Y73025D02*
X174446Y72770D01*
X177800Y80963D02*
X190500Y80963D01*
X177800Y80963D02*
X174625Y77788D01*
X190500Y80963D02*
X191770Y81200D01*
X174625Y77788D02*
X174446Y76770D01*
X192088Y82550D02*
X192088Y95250D01*
X206375Y109538D01*
X192088Y82550D02*
X191770Y81200D01*
X206375Y109538D02*
X207010Y110700D01*
X173038Y100013D02*
X173038Y98425D01*
X163513Y88900D01*
X173038Y100013D02*
X175000Y100330D01*
D31*
X162940Y88328D02*
X162940Y84276D01*
X162940Y88328D02*
X163513Y88900D01*
D29*
X147638Y26988D02*
X147320Y26590D01*
D31*
X154940Y34290D02*
X154940Y45264D01*
X154940Y34290D02*
X147638Y26988D01*
D29*
X155575Y201613D02*
X155575Y206375D01*
X155575Y201613D02*
X155120Y200325D01*
D30*
X155575Y206375D03*
D29*
X215900Y179388D02*
X219075Y176213D01*
X219075Y160338D01*
X204788Y146050D01*
D30*
X215900Y179388D03*
X204788Y146050D03*
X122174Y284480D03*
M02*
